<svg xmlns="http://www.w3.org/2000/svg" xmlns:xlink="http://www.w3.org/1999/xlink" width="108" height="108" viewBox="0 0 108 108">
  <defs>
    <filter id="Trazado_904820" x="0" y="0" width="108" height="108" filterUnits="userSpaceOnUse">
      <feOffset dy="3" input="SourceAlpha"/>
      <feGaussianBlur stdDeviation="3" result="blur"/>
      <feFlood flood-opacity="0.161"/>
      <feComposite operator="in" in2="blur"/>
      <feComposite in="SourceGraphic"/>
    </filter>
  </defs>
  <g id="Grupo_1230043" data-name="Grupo 1230043" transform="translate(-619.477 -534)">
    <g id="Grupo_1229404" data-name="Grupo 1229404" transform="translate(0 61.321)">
      <g id="Grupo_1208347" data-name="Grupo 1208347" transform="translate(628.477 478.679)">
        <g id="Grupo_1207936" data-name="Grupo 1207936" transform="translate(0 0)">
          <g id="Grupo_1201662" data-name="Grupo 1201662">
            <g id="Grupo_1173585" data-name="Grupo 1173585">
              <g id="Grupo_1173428" data-name="Grupo 1173428">
                <g id="Grupo_1171958" data-name="Grupo 1171958">
                  <g id="Grupo_1167341" data-name="Grupo 1167341">
                    <g id="Grupo_1166792" data-name="Grupo 1166792">
                      <g transform="matrix(1, 0, 0, 1, -9, -6)" filter="url(#Trazado_904820)">
                        <g id="Trazado_904820-2" data-name="Trazado 904820" transform="translate(9 6)" fill="#effbfe">
                          <path d="M 44.99999618530273 88.49999237060547 C 39.12687301635742 88.49999237060547 33.43022155761719 87.35006713867188 28.06829643249512 85.08216857910156 C 22.88852119445801 82.89130401611328 18.23629570007324 79.75457763671875 14.24084663391113 75.75914001464844 C 10.24540901184082 71.76369476318359 7.108683586120605 67.11146545410156 4.917821407318115 61.93169403076172 C 2.649921178817749 56.56976699829102 1.499996185302734 50.87311553955078 1.499996185302734 44.99999237060547 C 1.499996185302734 39.12686920166016 2.649921178817749 33.43021774291992 4.917821407318115 28.06829261779785 C 7.108683586120605 22.88851737976074 10.24540901184082 18.23630523681641 14.24084663391113 14.24085521697998 C 18.23629570007324 10.24540519714355 22.88852119445801 7.108692169189453 28.06829643249512 4.917829990386963 C 33.43022155761719 2.649929761886597 39.12687301635742 1.500004887580872 44.99999618530273 1.500004887580872 C 50.87311935424805 1.500004887580872 56.56977081298828 2.649929761886597 61.93169784545898 4.917829990386963 C 67.11147308349609 7.108692169189453 71.76369476318359 10.24540519714355 75.75914764404297 14.24085521697998 C 79.75458526611328 18.23630523681641 82.89131164550781 22.88851737976074 85.08216857910156 28.06829261779785 C 87.35007476806641 33.43021774291992 88.5 39.12686920166016 88.5 44.99999237060547 C 88.5 50.87311553955078 87.35007476806641 56.56976699829102 85.08216857910156 61.93169403076172 C 82.89131164550781 67.11146545410156 79.75458526611328 71.76369476318359 75.75914764404297 75.75914001464844 C 71.76369476318359 79.75457763671875 67.11147308349609 82.89130401611328 61.93169784545898 85.08216857910156 C 56.56977081298828 87.35006713867188 50.87311935424805 88.49999237060547 44.99999618530273 88.49999237060547 Z" stroke="none"/>
                          <path d="M 44.99999618530273 2.999992370605469 C 39.32870864868164 2.999992370605469 33.82865142822266 4.11004638671875 28.65262603759766 6.299331665039062 C 23.65165710449219 8.414566040039062 19.15968322753906 11.44333648681641 15.301513671875 15.30150604248047 C 11.44333648681641 19.15967559814453 8.414566040039062 23.65164947509766 6.299339294433594 28.65262222290039 C 4.110054016113281 33.82864761352539 2.999992370605469 39.32870483398438 2.999992370605469 44.99999237060547 C 2.999992370605469 50.67127990722656 4.110054016113281 56.17132186889648 6.299339294433594 61.34736633300781 C 8.414566040039062 66.34833526611328 11.44333648681641 70.84029388427734 15.301513671875 74.69846343994141 C 19.15968322753906 78.55663299560547 23.65165710449219 81.58540344238281 28.65262603759766 83.70063781738281 C 33.82865142822266 85.88992309570312 39.32870864868164 86.99997711181641 44.99999618530273 86.99997711181641 C 50.67128372192383 86.99997711181641 56.17134094238281 85.88992309570312 61.34736633300781 83.70063781738281 C 66.34834289550781 81.58540344238281 70.84030914306641 78.55663299560547 74.69847869873047 74.69846343994141 C 78.55665588378906 70.84029388427734 81.58542633056641 66.34833526611328 83.70065307617188 61.34736633300781 C 85.88993835449219 56.17132186889648 87 50.67127990722656 87 44.99999237060547 C 87 39.32870483398438 85.88993835449219 33.82864761352539 83.70065307617188 28.65262222290039 C 81.58542633056641 23.65164947509766 78.55665588378906 19.15967559814453 74.69847869873047 15.30150604248047 C 70.84030914306641 11.44333648681641 66.34834289550781 8.414566040039062 61.34736633300781 6.299331665039062 C 56.17134094238281 4.11004638671875 50.67128372192383 2.999992370605469 44.99999618530273 2.999992370605469 M 44.99999618530273 -7.62939453125e-06 C 69.85281372070312 -7.62939453125e-06 90 20.14717864990234 90 44.99999237060547 C 90 69.85279083251953 69.85281372070312 89.99997711181641 44.99999618530273 89.99997711181641 C 20.14717864990234 89.99997711181641 -7.62939453125e-06 69.85279083251953 -7.62939453125e-06 44.99999237060547 C -7.62939453125e-06 20.14717864990234 20.14717864990234 -7.62939453125e-06 44.99999618530273 -7.62939453125e-06 Z" stroke="none" fill="#497f88"/>
                        </g>
                      </g>
                    </g>
                  </g>
                </g>
              </g>
            </g>
          </g>
        </g>
      </g>
    </g>
    <g id="Filled_outline" data-name="Filled outline" transform="translate(626.677 536.023)">
      <path id="Trazado_1055165" data-name="Trazado 1055165" d="M176.806,55.863l-.339,3.048-.228,2.053H147.492l-.228-2.053-.339-3.048a15.8,15.8,0,0,1,1.181-7.966,15.811,15.811,0,0,0,1.258-7.011l-.178-3.552a12.7,12.7,0,1,1,25.361,0l-.178,3.552a15.812,15.812,0,0,0,1.258,7.011A15.788,15.788,0,0,1,176.806,55.863Z" transform="translate(-114.039 -6.978)" fill="#8f4d2e"/>
      <path id="Trazado_1055166" data-name="Trazado 1055166" d="M257.375,55.858l-.339,3.048H245.515V47.612l2.053-4.107V35.292A11.3,11.3,0,0,0,239.26,24.4a12.71,12.71,0,0,1,15.855,12.931l-.178,3.552a15.812,15.812,0,0,0,1.258,7.011A15.788,15.788,0,0,1,257.375,55.858Z" transform="translate(-194.609 -6.972)" fill="#82462a"/>
      <path id="Trazado_1055167" data-name="Trazado 1055167" d="M220.731,224.213a1.437,1.437,0,0,1-1.437-1.437V216H211.08v6.776a1.437,1.437,0,0,1-1.437,1.437H208v6.16h14.373v-6.16Z" transform="translate(-167.36 -174.334)" fill="#fec9a3"/>
      <path id="Trazado_1055168" data-name="Trazado 1055168" d="M236.726,221.133a5.633,5.633,0,0,0,3.488-1.259V216H232v3.874a5.633,5.633,0,0,0,3.488,1.259Z" transform="translate(-188.28 -174.334)" fill="#feb784"/>
      <path id="Trazado_1055169" data-name="Trazado 1055169" d="M210.48,86.16v5.133a9.24,9.24,0,1,1-18.48,0V86.16a13.929,13.929,0,0,0,4.735-5.364l.4-.8.583.486A25.633,25.633,0,0,0,210.48,86.16Z" transform="translate(-153.414 -55.787)" fill="#fec9a3"/>
      <path id="Trazado_1055170" data-name="Trazado 1055170" d="M285.23,121.628v5.133a9.244,9.244,0,0,1-7.475,9.071,11.252,11.252,0,0,0,3.368-8.045v-7.1a25.6,25.6,0,0,0,4.107.938Z" transform="translate(-228.164 -91.255)" fill="#fec093"/>
      <path id="Trazado_1055171" data-name="Trazado 1055171" d="M224,312h10.267v7.187H224Z" transform="translate(-181.307 -258.014)" fill="#e0e0de"/>
      <path id="Trazado_1055172" data-name="Trazado 1055172" d="M124.471,306.651a3.116,3.116,0,0,1-3.461-2.067l-6.781-12.722a8,8,0,0,1-1.432,7.645v8.213H94.317v-8.213a8.008,8.008,0,0,1-1.417-7.74l-6.891,12.817a3.115,3.115,0,1,1-5.915-1.956l7.538-18.763A6.158,6.158,0,0,1,93.348,280H97.4l6.16,11.293L109.717,280h4.033a6.165,6.165,0,0,1,5.724,3.885l7.452,18.743a3.117,3.117,0,0,1-2.455,4.023Z" transform="translate(-55.731 -230.12)" fill="#ec8c8c"/>
      <path id="Trazado_1055173" data-name="Trazado 1055173" d="M74.161,393.626,74.9,384h6.16v9.891a3.455,3.455,0,1,1-6.9-.265Z" transform="translate(-50.688 -320.774)" fill="#f59898"/>
      <path id="Trazado_1055174" data-name="Trazado 1055174" d="M33.6,266.892a2,2,0,0,0-1.3,2.831l.94,1.879H29.561a6.16,6.16,0,0,1-2.755-.65l-1.023-.511a1.232,1.232,0,0,0-1.783,1.1v2.9a2.053,2.053,0,0,0,1.135,1.837l1.671.836a6.16,6.16,0,0,0,2.755.65h7.786V271.6l-1.406-3.515A2,2,0,0,0,33.6,266.892Z" transform="translate(-6.973 -218.643)" fill="#fec9a3"/>
      <path id="Trazado_1055175" data-name="Trazado 1055175" d="M80,352h6.16v4.107H80Z" transform="translate(-55.787 -292.88)" fill="#e0e0de"/>
      <path id="Trazado_1055176" data-name="Trazado 1055176" d="M224.447,310.347a3.116,3.116,0,0,1-3.461-2.067L214.2,295.558a8,8,0,0,1-1.432,7.645v8.213H194.63c8.474-5.534,15.623-12.556,21.624-27.176a6.15,6.15,0,0,1,3.2,3.34l7.452,18.743a3.117,3.117,0,0,1-2.455,4.023Z" transform="translate(-155.706 -233.816)" fill="#e07f7f"/>
      <path id="Trazado_1055177" data-name="Trazado 1055177" d="M306.267,352.427,296,350.373V336l10.267,2.053Z" transform="translate(-244.067 -278.934)" fill="#a36548"/>
      <path id="Trazado_1055178" data-name="Trazado 1055178" d="M408,352.427l10.267-2.053V336L408,338.053Z" transform="translate(-341.694 -278.934)" fill="#8f4d2e"/>
      <path id="Trazado_1055179" data-name="Trazado 1055179" d="M376,352h4.107v14.373H376Z" transform="translate(-313.8 -292.88)" fill="#95573a"/>
      <path id="Trazado_1055180" data-name="Trazado 1055180" d="M308.32,317.133a3.636,3.636,0,0,0-3.038-3.586L296,312v3.08l10.267,2.053h2.053a3.636,3.636,0,0,1,3.038-3.586L320.64,312v3.08l-10.267,2.053Z" transform="translate(-244.067 -258.014)" fill="#d4bd81"/>
      <path id="Trazado_1055181" data-name="Trazado 1055181" d="M437.3,422.064l-4.107.685a1.027,1.027,0,0,1-1.2-1.013V417.92a1.336,1.336,0,0,1,1.117-1.318l3.487-.581a1.336,1.336,0,0,1,1.556,1.318v3.713a1.027,1.027,0,0,1-.858,1.013Z" transform="translate(-362.614 -348.669)" fill="#fec9a3"/>
      <path id="Trazado_1055182" data-name="Trazado 1055182" d="M217.54,136a1.54,1.54,0,1,0,1.54,1.54A1.54,1.54,0,0,0,217.54,136Z" transform="translate(-174.334 -104.6)"/>
      <path id="Trazado_1055183" data-name="Trazado 1055183" d="M289.54,136a1.54,1.54,0,1,0,1.54,1.54A1.54,1.54,0,0,0,289.54,136Z" transform="translate(-237.094 -104.6)"/>
      <path id="Trazado_1055184" data-name="Trazado 1055184" d="M243.08,177.027A1.028,1.028,0,0,1,242.053,176H240a3.08,3.08,0,1,0,6.16,0h-2.053A1.028,1.028,0,0,1,243.08,177.027Z" transform="translate(-195.254 -139.467)"/>
      <path id="Trazado_1055185" data-name="Trazado 1055185" d="M77.236,53.2a1.028,1.028,0,0,0-.832-.229l-9.282,1.547a4.671,4.671,0,0,0-1.72.652l-.707-1.786a6.838,6.838,0,0,0-1.178-1.967l.268-2.428a17.784,17.784,0,0,0,.108-1.863,16.756,16.756,0,0,0-1.366-6.615,14.829,14.829,0,0,1-1.171-6.558l.175-3.554c.011-.224.022-.456.022-.685a13.724,13.724,0,1,0-27.431.686l.174,3.542c.01.264.02.514.02.761a14.636,14.636,0,0,1-1.19,5.807A16.776,16.776,0,0,0,31.868,49l.267,2.394a6.97,6.97,0,0,0-.813,1.176l-1.4-3.5a3.024,3.024,0,1,0-5.512,2.475l.2.393H22.587a5.159,5.159,0,0,1-2.3-.542l-1.023-.512A2.259,2.259,0,0,0,16,52.9v2.9a3.063,3.063,0,0,0,1.7,2.755l1.671.836a7.223,7.223,0,0,0,3.214.759h.6v3.04l-.738,9.588A4.482,4.482,0,0,0,26.918,77.6q.114,0,.227-.006c.065,0,.131.006.2.006a4.133,4.133,0,0,0,3.882-2.715l4.686-8.713a8.98,8.98,0,0,0,1.651,3.574V77.6h2.053V69.386a1.027,1.027,0,0,0-.238-.657,7,7,0,0,1,.9-9.847L38.956,57.3a9.049,9.049,0,0,0-1.275,1.3,1.056,1.056,0,0,0-.106.128h0l-.018.032-.013.022a8.99,8.99,0,0,0-1.335,2.5L31.4,70.22V57.747l1.459-3.633a4.921,4.921,0,0,1,1.08-1.657,5.2,5.2,0,0,1,3.682-1.551h3.436l5.868,10.758a1.027,1.027,0,0,0,1.8,0l2.179-3.994V71.44a1.027,1.027,0,0,0,.825,1.007l4.308.862V77.6h2.053V73.718l3.928.784c.026,0,.145.017.179.017h1.942l.2.367a4.159,4.159,0,0,0,3.9,2.713,3.866,3.866,0,0,0,.677-.056,4.161,4.161,0,0,0,3.214-2.681l2.73-.455a2.045,2.045,0,0,0,1.711-1.92l.205-.041A1.027,1.027,0,0,0,77.6,71.44V53.986a1.027,1.027,0,0,0-.363-.783ZM43.28,50.694a2.466,2.466,0,0,0,1.467-2.252V45.3a10.272,10.272,0,0,0,6.16,0v3.142a2.466,2.466,0,0,0,1.467,2.251L51.137,52.96H44.515Zm4.547-6.974a8.223,8.223,0,0,1-8.213-8.213v-4.6a15,15,0,0,0,4.443-5.087A26.593,26.593,0,0,0,56.04,31.248v4.258a8.223,8.223,0,0,1-8.213,8.213ZM61.7,52.475l.019.02a4.758,4.758,0,0,1,1.065,1.644l.441,1.114a4.67,4.67,0,0,0-1.842-.731l-8.029-1.338L54.6,50.906h3.425A5.086,5.086,0,0,1,61.7,52.475Zm.6,5.618-4.671-.934-4.671-.934V55.2l8.086,1.347a2.6,2.6,0,0,1,1.973,1.548Zm5.159-1.547L75.546,55.2v1.027l-4.829.966-4.513.9h-.717a2.6,2.6,0,0,1,1.972-1.547Zm-47.168,1-1.671-.835a1.021,1.021,0,0,1-.567-.918V52.9a.205.205,0,0,1,.3-.184l1.023.512a7.223,7.223,0,0,0,3.214.759h3.679a1.027,1.027,0,0,0,.918-1.486l-.94-1.88a.97.97,0,1,1,1.769-.794l1.333,3.331v4.936H22.587a5.159,5.159,0,0,1-2.3-.542Zm9.055,2.6V62.2H25.24V60.146ZM24.5,72.931l.667-8.678h4.183v8.865a2.43,2.43,0,0,1-2.253,2.42,1.05,1.05,0,0,0-.116.006c-.02,0-.04,0-.06,0A2.428,2.428,0,0,1,24.5,72.931Zm13.08-14.2a1.027,1.027,0,0,1,.065-.079l-.062.081Zm-3.55-8.913-.118-1.055a14.72,14.72,0,0,1,1.1-7.446,16.677,16.677,0,0,0,1.357-6.616c0-.287-.011-.568-.022-.851L36.172,30.3A11.671,11.671,0,1,1,59.5,29.716c0,.181-.009.378-.019.586l-.174,3.55a16.89,16.89,0,0,0,1.334,7.468,14.714,14.714,0,0,1,1.2,5.808,15.727,15.727,0,0,1-.1,1.643l-.117,1.058a7.18,7.18,0,0,0-3.606-.976H53.37a.416.416,0,0,1-.411-.411V44.392a10.27,10.27,0,0,0,5.133-8.885V30.373a1.027,1.027,0,0,0-.882-1.016A24.546,24.546,0,0,1,44.96,23.911l-.583-.486a1.027,1.027,0,0,0-1.576.33l-.4.8a12.934,12.934,0,0,1-4.387,4.969,1.027,1.027,0,0,0-.457.854v5.133a10.27,10.27,0,0,0,5.133,8.885v4.051a.416.416,0,0,1-.411.411H37.621a7.233,7.233,0,0,0-3.6.97Zm13.8,9.206-2.191-4.016h4.381Zm5.133-.71,8.213,1.643V72.24L52.96,70.6Zm10.267,1.828H65.28v12.32H63.226Zm5.335,15.374a1.836,1.836,0,0,1-.324.026,2.1,2.1,0,0,1-1.809-1.034l.058-.009.023,0h.009l2.11-.422a2.026,2.026,0,0,0,1.034.9A2.14,2.14,0,0,1,68.561,75.521Zm5.959-3.138-4.107.685V69.251a.309.309,0,0,1,.259-.306l3.487-.581a.335.335,0,0,1,.053,0,.31.31,0,0,1,.308.31v3.712Zm-.7-6.044-3.487.581a2.356,2.356,0,0,0-1.975,2.331v2.785l-1.027.205V59.961l8.213-1.643v8.4a2.356,2.356,0,0,0-1.725-.383Z" transform="translate(0 0)"/>
    </g>
  </g>
</svg>
