<svg xmlns="http://www.w3.org/2000/svg" xmlns:xlink="http://www.w3.org/1999/xlink" width="98" height="98" viewBox="0 0 98 98">
  <defs>
    <filter id="Trazado_982547" x="0" y="0" width="98" height="98" filterUnits="userSpaceOnUse">
      <feOffset dy="3" input="SourceAlpha"/>
      <feGaussianBlur stdDeviation="3" result="blur"/>
      <feFlood flood-opacity="0.161"/>
      <feComposite operator="in" in2="blur"/>
      <feComposite in="SourceGraphic"/>
    </filter>
    <clipPath id="clip-path">
      <path id="path8121" d="M0-682.665H48.414v48.414H0Z" transform="translate(0 682.665)"/>
    </clipPath>
  </defs>
  <g id="Grupo_1230063" data-name="Grupo 1230063" transform="translate(-196.016 -1164.942)">
    <g id="Grupo_1230049" data-name="Grupo 1230049">
      <g id="Grupo_1229405" data-name="Grupo 1229405" transform="translate(0.016 -5854.171)">
        <g id="Grupo_1208936" data-name="Grupo 1208936" transform="translate(5 5098.279)">
          <g id="Grupo_1208171" data-name="Grupo 1208171" transform="translate(0 -2047.18)">
            <g id="Grupo_1207739" data-name="Grupo 1207739" transform="translate(0 1882.462)">
              <g id="Grupo_1207712" data-name="Grupo 1207712">
                <g id="Grupo_1207285" data-name="Grupo 1207285" transform="translate(0 344.552)">
                  <g id="Grupo_1206883" data-name="Grupo 1206883" transform="translate(0 -209)">
                    <g id="Grupo_1204569" data-name="Grupo 1204569" transform="translate(-81 -1890.336)">
                      <g id="Grupo_1203962" data-name="Grupo 1203962" transform="translate(281 3846.336)">
                        <g id="Grupo_1203498" data-name="Grupo 1203498" transform="translate(0)">
                          <g id="Grupo_1202589" data-name="Grupo 1202589">
                            <g id="Grupo_1172010" data-name="Grupo 1172010">
                              <g id="Grupo_1171046" data-name="Grupo 1171046">
                                <g id="Grupo_1148525" data-name="Grupo 1148525">
                                  <g transform="matrix(1, 0, 0, 1, -9, -6)" filter="url(#Trazado_982547)">
                                    <g id="Trazado_982547-2" data-name="Trazado 982547" transform="translate(9 6)" fill="#fdfbec">
                                      <path d="M 39.99999237060547 78.49998474121094 C 34.8018684387207 78.49998474121094 29.76002502441406 77.48226165771484 25.0145263671875 75.47508239746094 C 20.43014717102051 73.53604888916016 16.31264877319336 70.75984954833984 12.77639198303223 67.22359466552734 C 9.240137100219727 63.68733596801758 6.463936805725098 59.5698356628418 4.524903297424316 54.98546981811523 C 2.517725706100464 50.23995971679688 1.500003457069397 45.19811630249023 1.500003457069397 39.99999237060547 C 1.500003457069397 34.8018684387207 2.517725706100464 29.76002502441406 4.524903297424316 25.0145263671875 C 6.463936805725098 20.43014717102051 9.240137100219727 16.31264877319336 12.77639198303223 12.77639198303223 C 16.31264877319336 9.240137100219727 20.43014717102051 6.463936805725098 25.0145263671875 4.524903297424316 C 29.76002502441406 2.517725706100464 34.8018684387207 1.500003457069397 39.99999237060547 1.500003457069397 C 45.19811630249023 1.500003457069397 50.23995971679688 2.517725706100464 54.98546981811523 4.524903297424316 C 59.5698356628418 6.463936805725098 63.68733596801758 9.240137100219727 67.22359466552734 12.77639198303223 C 70.75984954833984 16.31264877319336 73.53604888916016 20.43014717102051 75.47508239746094 25.0145263671875 C 77.48226165771484 29.76002502441406 78.49998474121094 34.8018684387207 78.49998474121094 39.99999237060547 C 78.49998474121094 45.19812393188477 77.48226165771484 50.23995971679688 75.47508239746094 54.98546981811523 C 73.53604888916016 59.5698356628418 70.75984954833984 63.68733596801758 67.22359466552734 67.22359466552734 C 63.68733596801758 70.75984954833984 59.5698356628418 73.53604888916016 54.98546981811523 75.47508239746094 C 50.23995971679688 77.48226165771484 45.19812393188477 78.49998474121094 39.99999237060547 78.49998474121094 Z" stroke="none"/>
                                      <path d="M 39.99999237060547 2.999992370605469 C 35.00370025634766 2.999992370605469 30.1584587097168 3.97784423828125 25.59884643554688 5.906402587890625 C 21.19327163696289 7.769805908203125 17.23603057861328 10.43805694580078 13.83704376220703 13.83704376220703 C 10.43805694580078 17.23603057861328 7.769805908203125 21.19327163696289 5.906402587890625 25.59884643554688 C 3.97784423828125 30.1584587097168 2.999992370605469 35.00370025634766 2.999992370605469 39.99999237060547 C 2.999992370605469 44.99628448486328 3.97784423828125 49.84152603149414 5.906402587890625 54.40113830566406 C 7.769805908203125 58.80671310424805 10.43805694580078 62.76395416259766 13.83704376220703 66.16294097900391 C 17.23603057861328 69.56191253662109 21.19327163696289 72.23016357421875 25.59884643554688 74.09356689453125 C 30.1584587097168 76.02212524414062 35.00370025634766 76.99997711181641 39.99999237060547 76.99997711181641 C 44.99628448486328 76.99997711181641 49.84152603149414 76.02212524414062 54.40113830566406 74.09356689453125 C 58.80671310424805 72.23016357421875 62.76395416259766 69.56191253662109 66.16294097900391 66.16294097900391 C 69.56191253662109 62.76395416259766 72.23016357421875 58.80671310424805 74.09356689453125 54.40113830566406 C 76.02212524414062 49.84152603149414 76.99997711181641 44.99628448486328 76.99997711181641 39.99999237060547 C 76.99997711181641 35.00370025634766 76.02212524414062 30.1584587097168 74.09356689453125 25.59884643554688 C 72.23016357421875 21.19327163696289 69.56191253662109 17.23603057861328 66.16294097900391 13.83704376220703 C 62.76395416259766 10.43805694580078 58.80671310424805 7.769805908203125 54.40113830566406 5.906402587890625 C 49.84152603149414 3.97784423828125 44.99628448486328 2.999992370605469 39.99999237060547 2.999992370605469 M 39.99999237060547 -7.62939453125e-06 C 62.09137725830078 -7.62939453125e-06 79.99997711181641 17.90860748291016 79.99997711181641 39.99999237060547 C 79.99997711181641 62.09137725830078 62.09137725830078 79.99997711181641 39.99999237060547 79.99997711181641 C 17.90860748291016 79.99997711181641 -7.62939453125e-06 62.09137725830078 -7.62939453125e-06 39.99999237060547 C -7.62939453125e-06 17.90860748291016 17.90860748291016 -7.62939453125e-06 39.99999237060547 -7.62939453125e-06 Z" stroke="none" fill="#83793c"/>
                                    </g>
                                  </g>
                                </g>
                              </g>
                            </g>
                          </g>
                        </g>
                      </g>
                    </g>
                  </g>
                </g>
                <g id="g8115" transform="translate(215.793 2790.01)">
                  <g id="g8117" transform="translate(0 -682.665)">
                    <g id="g8119" clip-path="url(#clip-path)">
                      <g id="g8125" transform="translate(-33.259 0.709)">
                        <path id="path8127" d="M-338.457-377.826h-25.835v-25.108c5.31-7.679,37.755-5.416,25.835,25.108" transform="translate(364.292 406.667)" fill="#fbdf63"/>
                      </g>
                      <g id="g8129" transform="translate(-33.259 0.709)">
                        <path id="path8131" d="M-338.457-377.826h-.619c6.164-24.728-15.887-30.6-25.216-24.374v-.734c5.31-7.679,37.755-5.416,25.835,25.108" transform="translate(364.292 406.667)" fill="#f9d11f"/>
                      </g>
                    </g>
                  </g>
                  <g id="g8265" transform="translate(0 -682.665)">
                    <g id="g8267" clip-path="url(#clip-path)">
                      <g id="g8273" transform="translate(-33.259 51.036)">
                        <path id="path8275" d="M-338.457-377.654h-25.835v-25.1c5.31-7.676,37.755-5.413,25.835,25.1" transform="translate(364.292 406.481)" fill="#003343"/>
                      </g>
                      <g id="g8277" transform="translate(-33.259 51.036)">
                        <path id="path8279" d="M-338.457-377.654h-.619c6.164-24.717-15.887-30.585-25.216-24.362v-.734c5.31-7.676,37.755-5.413,25.835,25.1" transform="translate(364.292 406.481)" fill="#002439"/>
                      </g>
                    </g>
                  </g>
                  <g id="g8281" transform="translate(0 -682.665)">
                    <g id="g8283" clip-path="url(#clip-path)">
                      <g id="g8289" transform="translate(17.066 51.014)">
                        <path id="path8291" d="M-338.457-377.826h-25.835v-25.108c5.31-7.679,37.755-5.416,25.835,25.108" transform="translate(364.292 406.667)" fill="#ff7e50"/>
                      </g>
                      <g id="g8293" transform="translate(17.066 51.014)">
                        <path id="path8295" d="M-338.457-377.826h-.619c6.164-24.728-15.887-30.6-25.216-24.374v-.734c5.31-7.679,37.755-5.416,25.835,25.108" transform="translate(364.292 406.667)" fill="#ff6247"/>
                      </g>
                      <g id="g8297" transform="translate(2.941 54.225)">
                        <path id="path8299" d="M-233.028-131.751v15.573h-14.6c-12.2-25.649,14.6-34.273,14.6-15.573" transform="translate(250.816 141.808)" fill="#ffa68a"/>
                      </g>
                      <g id="g8301" transform="translate(2.941 54.225)">
                        <path id="path8303" d="M-233.028-131.751c-.9-16.1-20.23-9.82-14.176,15.573h-.427c-12.2-25.649,14.6-34.273,14.6-15.573" transform="translate(250.816 141.808)" fill="#ff7e50"/>
                      </g>
                    </g>
                  </g>
                </g>
              </g>
            </g>
          </g>
        </g>
      </g>
    </g>
    <g id="aprendizaje_4_" data-name="aprendizaje (4)" transform="translate(198.338 1183.979)">
      <g id="Grupo_1230058" data-name="Grupo 1230058" transform="translate(24.796 0.732)">
        <path id="Trazado_1055202" data-name="Trazado 1055202" d="M74.414,194.154a.912.912,0,0,1,.912.912v25.551a3.772,3.772,0,0,1-3.772,3.772H35.336a3.772,3.772,0,0,1-3.772-3.772V195.066a.912.912,0,0,1,.912-.912Z" transform="translate(-31.564 -175.927)" fill="#b3e5ee"/>
        <path id="Trazado_1055203" data-name="Trazado 1055203" d="M59.879,194.154v25.78a3.1,3.1,0,0,0,3.094,3.094H95.115a3.1,3.1,0,0,0,3.094-3.094v-25.78Z" transform="translate(-57.114 -175.927)" fill="#86d7e5"/>
        <path id="Trazado_1055204" data-name="Trazado 1055204" d="M113.527,175.283H80.654a.776.776,0,0,0-.775.776v23.326l10.593,3.869,6.618.761,15.862-2.863,1.349-1.767V176.059a.775.775,0,0,0-.775-.776Z" transform="translate(-75.161 -158.899)" fill="#f9f7f7"/>
        <path id="Trazado_1055205" data-name="Trazado 1055205" d="M248.639,175.283H250.1v28.765h-1.465Z" transform="translate(-227.442 -158.899)" fill="#f8f3f2"/>
        <path id="Trazado_1055206" data-name="Trazado 1055206" d="M163.57,175.283l4.3,6.687v.519a2.544,2.544,0,0,0,1.082,2.081v.816a3.1,3.1,0,0,0,3.1,3.1h1.133a3.1,3.1,0,0,0,3.1-3.1v-.816a2.544,2.544,0,0,0,1.082-2.081v-.519l4.3-6.687Z" transform="translate(-150.68 -158.899)" fill="#f8f3f2"/>
        <g id="Grupo_1230056" data-name="Grupo 1230056" transform="translate(4.718)">
          <g id="Grupo_1230055" data-name="Grupo 1230055" transform="translate(0 16.384)">
            <g id="XMLID_248_">
              <g id="Grupo_1230054" data-name="Grupo 1230054">
                <g id="Grupo_1230052" data-name="Grupo 1230052">
                  <path id="Trazado_1055207" data-name="Trazado 1055207" d="M83.944,200.208V175.283h-3.29a.776.776,0,0,0-.775.776v23.326l4.2,1.533A1.994,1.994,0,0,1,83.944,200.208Z" transform="translate(-79.879 -175.283)" fill="#f8f3f2"/>
                </g>
                <g id="Grupo_1230053" data-name="Grupo 1230053" transform="translate(0 24.102)">
                  <path id="Trazado_1055208" data-name="Trazado 1055208" d="M97.091,426.734v.032H81.02a1.141,1.141,0,0,1-1.141-1.142V422.1H92.46A4.63,4.63,0,0,1,97.091,426.734Z" transform="translate(-79.879 -422.103)" fill="#f2eae7"/>
                  <path id="Trazado_1055209" data-name="Trazado 1055209" d="M273.351,422.1v3.521a1.141,1.141,0,0,1-1.141,1.142H256.139v-.032a4.63,4.63,0,0,1,4.631-4.631Z" transform="translate(-238.927 -422.103)" fill="#f2eae7"/>
                </g>
              </g>
            </g>
          </g>
          <path id="Trazado_1055210" data-name="Trazado 1055210" d="M238.03,248.154h-4.4v2.987a1.631,1.631,0,0,0,1.631,1.631H236.4a1.631,1.631,0,0,0,1.631-1.631Z" transform="translate(-218.621 -224.654)" fill="#a59ca6"/>
          <path id="Trazado_1055211" data-name="Trazado 1055211" d="M238.03,248.154h-4.4v2.987a1.631,1.631,0,0,0,1.631,1.631H236.4a1.63,1.63,0,0,0,1.449-.884,1.651,1.651,0,0,1-.191.012h-1.133a1.63,1.63,0,0,1-1.543-1.105.373.373,0,0,1,.352-.493h2.7v-2.148Z" transform="translate(-218.621 -224.654)" fill="#8f8390"/>
          <path id="Trazado_1055212" data-name="Trazado 1055212" d="M175.875,17.239a9.74,9.74,0,1,0-17.706,5.605l4.687,7.3v.949a1.082,1.082,0,0,0,1.082,1.082h4.4a1.082,1.082,0,0,0,1.082-1.082V30.14l4.687-7.3a9.694,9.694,0,0,0,1.774-5.605Z" transform="translate(-148.923 -7.499)" fill="#fbe88c"/>
          <path id="Trazado_1055213" data-name="Trazado 1055213" d="M162.277,24.088a10.725,10.725,0,0,1-1.855-6.059,10.46,10.46,0,0,1,7.941-10.272A9.741,9.741,0,0,0,158.17,22.845l4.687,7.3v.949a1.082,1.082,0,0,0,1.082,1.082h2.783Z" transform="translate(-148.924 -7.5)" fill="#fbe372"/>
        </g>
        <g id="Grupo_1230057" data-name="Grupo 1230057" transform="translate(4.718 40.486)">
          <path id="Trazado_1055214" data-name="Trazado 1055214" d="M256.5,451.046a4.617,4.617,0,0,0-.365,1.8v.032h16.071a1.141,1.141,0,0,0,1.141-1.142v-.695H256.5Z" transform="translate(-238.926 -448.22)" fill="#ede2dd"/>
          <path id="Trazado_1055215" data-name="Trazado 1055215" d="M85.948,424.929a2,2,0,0,1-2-2V422.1H79.879v3.521a1.141,1.141,0,0,0,1.141,1.142H97.091v-.032a4.615,4.615,0,0,0-.365-1.8Z" transform="translate(-79.879 -422.103)" fill="#ede2dd"/>
        </g>
      </g>
      <g id="Grupo_1230059" data-name="Grupo 1230059" transform="translate(24.064 0)">
        <path id="Trazado_1055216" data-name="Trazado 1055216" d="M67.646,169.628H64.671v-.334a1.51,1.51,0,0,0-1.508-1.508H57.294a.732.732,0,1,0,0,1.465h5.868a.044.044,0,0,1,.044.044v8.93a.732.732,0,1,0,1.465,0v-7.131h2.975a.18.18,0,0,1,.18.18v25.551a3.043,3.043,0,0,1-3.039,3.039H28.568a3.043,3.043,0,0,1-3.039-3.039V171.272a.18.18,0,0,1,.18-.18h3.073v25.048a1.875,1.875,0,0,0,1.873,1.873H62.8a1.875,1.875,0,0,0,1.873-1.873V181.347a.732.732,0,1,0-1.465,0v10.539H51.357a5.347,5.347,0,0,0-3.9,1.686V184.1a.732.732,0,1,0-1.465,0v9.474a5.347,5.347,0,0,0-3.9-1.686H38.768a.732.732,0,0,0,0,1.465H42.1a3.9,3.9,0,0,1,3.834,3.2H30.654a.409.409,0,0,1-.408-.408v-2.79h5.4a.732.732,0,0,0,0-1.465h-5.4V169.293a.044.044,0,0,1,.044-.044h5.868a.732.732,0,1,0,0-1.465H30.29a1.51,1.51,0,0,0-1.508,1.508v.334H25.708a1.646,1.646,0,0,0-1.644,1.644v25.551a4.509,4.509,0,0,0,4.5,4.5H64.786a4.509,4.509,0,0,0,4.5-4.5V171.272a1.646,1.646,0,0,0-1.644-1.644Zm-16.29,23.723H63.206v2.79a.409.409,0,0,1-.408.408H47.523a3.9,3.9,0,0,1,3.834-3.2Z" transform="translate(-24.064 -151.401)"/>
        <path id="Trazado_1055217" data-name="Trazado 1055217" d="M150.011,10.276a.733.733,0,0,0,.8-.66,9.008,9.008,0,1,1,16.334,6.04l-.018.026-4.687,7.3a.732.732,0,0,0-.116.4v.949a.35.35,0,0,1-.349.349h-.048l.467-7.917h.834a2.167,2.167,0,0,0,2.165-2.165V14.5a2.165,2.165,0,0,0-4.326-.127l-.054.916h-2.568l-.054-.916a2.165,2.165,0,0,0-4.326.127v.089a2.167,2.167,0,0,0,2.165,2.165h.834l.466,7.912a.349.349,0,0,1-.3-.344v-.949a.733.733,0,0,0-.116-.4l-4.687-7.3-.018-.026A8.924,8.924,0,0,1,151,12.5a.732.732,0,0,0-1.428.328,10.382,10.382,0,0,0,1.631,3.66l4.562,7.1v.734a1.816,1.816,0,0,0,1.082,1.658v1.238a2.366,2.366,0,0,0,2.363,2.363h1.133a2.366,2.366,0,0,0,2.363-2.363V25.98a1.816,1.816,0,0,0,1.082-1.658v-.734l4.562-7.1a10.472,10.472,0,1,0-19-7.008A.732.732,0,0,0,150.011,10.276Zm12.516,4.184a.7.7,0,0,1,1.4.041v.089a.7.7,0,0,1-.7.7h-.748Zm-6.3.83a.7.7,0,0,1-.7-.7V14.5a.7.7,0,0,1,1.4-.041l.049.83Zm4.7,1.465-.466,7.917H159l-.466-7.917Zm.316,10.464a.9.9,0,0,1-.9.9h-1.133a.9.9,0,0,1-.9-.9V26.136h2.93v1.083Z" transform="translate(-137.113 0)"/>
        <path id="Trazado_1055218" data-name="Trazado 1055218" d="M380.743,30.451a.73.73,0,0,0,.483-.182l1.6-1.4a.732.732,0,0,0-.966-1.1l-1.6,1.4a.732.732,0,0,0,.483,1.283Z" transform="translate(-345.252 -24.89)"/>
        <path id="Trazado_1055219" data-name="Trazado 1055219" d="M380.26,90.33l1.6,1.4a.732.732,0,0,0,.967-1.1l-1.6-1.4a.732.732,0,0,0-.967,1.1Z" transform="translate(-345.253 -80.352)"/>
        <path id="Trazado_1055220" data-name="Trazado 1055220" d="M101.152,28.865l1.6,1.4a.732.732,0,1,0,.966-1.1l-1.6-1.4a.732.732,0,1,0-.966,1.1Z" transform="translate(-93.4 -24.889)"/>
        <path id="Trazado_1055221" data-name="Trazado 1055221" d="M101.636,91.916a.73.73,0,0,0,.483-.182l1.6-1.4a.732.732,0,0,0-.966-1.1l-1.6,1.4a.732.732,0,0,0,.483,1.283Z" transform="translate(-93.4 -80.353)"/>
        <path id="Trazado_1055222" data-name="Trazado 1055222" d="M109.582,253.386a.732.732,0,0,0-.732-.732h-7.214a.732.732,0,0,0,0,1.465h7.214A.732.732,0,0,0,109.582,253.386Z" transform="translate(-93.4 -227.982)"/>
        <path id="Trazado_1055223" data-name="Trazado 1055223" d="M123.306,290.8h-8.122a.732.732,0,0,0,0,1.465h8.122a.732.732,0,1,0,0-1.465Z" transform="translate(-105.625 -262.408)"/>
        <path id="Trazado_1055224" data-name="Trazado 1055224" d="M123.306,327.346h-8.122a.732.732,0,0,0,0,1.465h8.122a.732.732,0,1,0,0-1.465Z" transform="translate(-105.625 -295.381)"/>
        <path id="Trazado_1055225" data-name="Trazado 1055225" d="M123.306,363.887h-8.122a.732.732,0,0,0,0,1.465h8.122a.732.732,0,1,0,0-1.465Z" transform="translate(-105.625 -328.354)"/>
        <path id="Trazado_1055226" data-name="Trazado 1055226" d="M331.175,253.386a.732.732,0,0,0-.732-.732h-7.214a.732.732,0,1,0,0,1.465h7.214A.732.732,0,0,0,331.175,253.386Z" transform="translate(-293.354 -227.982)"/>
        <path id="Trazado_1055227" data-name="Trazado 1055227" d="M308.5,290.8h-8.122a.732.732,0,1,0,0,1.465H308.5a.732.732,0,1,0,0-1.465Z" transform="translate(-272.736 -262.408)"/>
        <path id="Trazado_1055228" data-name="Trazado 1055228" d="M308.5,327.346h-8.122a.732.732,0,1,0,0,1.465H308.5a.732.732,0,1,0,0-1.465Z" transform="translate(-272.736 -295.381)"/>
        <path id="Trazado_1055229" data-name="Trazado 1055229" d="M308.5,363.887h-8.122a.732.732,0,1,0,0,1.465H308.5a.732.732,0,1,0,0-1.465Z" transform="translate(-272.736 -328.354)"/>
      </g>
    </g>
  </g>
</svg>
