<svg xmlns="http://www.w3.org/2000/svg" xmlns:xlink="http://www.w3.org/1999/xlink" width="98" height="98" viewBox="0 0 98 98">
  <defs>
    <filter id="Trazado_982547" x="0" y="0" width="98" height="98" filterUnits="userSpaceOnUse">
      <feOffset dy="3" input="SourceAlpha"/>
      <feGaussianBlur stdDeviation="3" result="blur"/>
      <feFlood flood-opacity="0.161"/>
      <feComposite operator="in" in2="blur"/>
      <feComposite in="SourceGraphic"/>
    </filter>
    <clipPath id="clip-path">
      <path id="path8121" d="M0-682.665H48.414v48.414H0Z" transform="translate(0 682.665)"/>
    </clipPath>
  </defs>
  <g id="Grupo_1230269" data-name="Grupo 1230269" transform="translate(-194.4 -3165)">
    <g id="Grupo_1229882" data-name="Grupo 1229882" transform="translate(203.4 3171)">
      <g id="Grupo_1208936" data-name="Grupo 1208936" transform="translate(0)">
        <g id="Grupo_1208171" data-name="Grupo 1208171">
          <g id="Grupo_1207739" data-name="Grupo 1207739">
            <g id="Grupo_1207712" data-name="Grupo 1207712">
              <g id="Grupo_1207285" data-name="Grupo 1207285">
                <g id="Grupo_1206883" data-name="Grupo 1206883">
                  <g id="Grupo_1204569" data-name="Grupo 1204569">
                    <g id="Grupo_1203962" data-name="Grupo 1203962">
                      <g id="Grupo_1203498" data-name="Grupo 1203498">
                        <g id="Grupo_1202589" data-name="Grupo 1202589">
                          <g id="Grupo_1172010" data-name="Grupo 1172010">
                            <g id="Grupo_1171046" data-name="Grupo 1171046">
                              <g id="Grupo_1148525" data-name="Grupo 1148525">
                                <g transform="matrix(1, 0, 0, 1, -9, -6)" filter="url(#Trazado_982547)">
                                  <g id="Trazado_982547-2" data-name="Trazado 982547" transform="translate(9 6)" fill="#fdfbec">
                                    <path d="M 39.99999237060547 78.49998474121094 C 34.8018684387207 78.49998474121094 29.76002502441406 77.48226165771484 25.0145263671875 75.47508239746094 C 20.43014717102051 73.53604888916016 16.31264877319336 70.75984954833984 12.77639198303223 67.22359466552734 C 9.240137100219727 63.68733596801758 6.463936805725098 59.5698356628418 4.524903297424316 54.98546981811523 C 2.517725706100464 50.23995971679688 1.500003457069397 45.19811630249023 1.500003457069397 39.99999237060547 C 1.500003457069397 34.8018684387207 2.517725706100464 29.76002502441406 4.524903297424316 25.0145263671875 C 6.463936805725098 20.43014717102051 9.240137100219727 16.31264877319336 12.77639198303223 12.77639198303223 C 16.31264877319336 9.240137100219727 20.43014717102051 6.463936805725098 25.0145263671875 4.524903297424316 C 29.76002502441406 2.517725706100464 34.8018684387207 1.500003457069397 39.99999237060547 1.500003457069397 C 45.19811630249023 1.500003457069397 50.23995971679688 2.517725706100464 54.98546981811523 4.524903297424316 C 59.5698356628418 6.463936805725098 63.68733596801758 9.240137100219727 67.22359466552734 12.77639198303223 C 70.75984954833984 16.31264877319336 73.53604888916016 20.43014717102051 75.47508239746094 25.0145263671875 C 77.48226165771484 29.76002502441406 78.49998474121094 34.8018684387207 78.49998474121094 39.99999237060547 C 78.49998474121094 45.19812393188477 77.48226165771484 50.23995971679688 75.47508239746094 54.98546981811523 C 73.53604888916016 59.5698356628418 70.75984954833984 63.68733596801758 67.22359466552734 67.22359466552734 C 63.68733596801758 70.75984954833984 59.5698356628418 73.53604888916016 54.98546981811523 75.47508239746094 C 50.23995971679688 77.48226165771484 45.19812393188477 78.49998474121094 39.99999237060547 78.49998474121094 Z" stroke="none"/>
                                    <path d="M 39.99999237060547 2.999992370605469 C 35.00370025634766 2.999992370605469 30.1584587097168 3.97784423828125 25.59884643554688 5.906402587890625 C 21.19327163696289 7.769805908203125 17.23603057861328 10.43805694580078 13.83704376220703 13.83704376220703 C 10.43805694580078 17.23603057861328 7.769805908203125 21.19327163696289 5.906402587890625 25.59884643554688 C 3.97784423828125 30.1584587097168 2.999992370605469 35.00370025634766 2.999992370605469 39.99999237060547 C 2.999992370605469 44.99628448486328 3.97784423828125 49.84152603149414 5.906402587890625 54.40113830566406 C 7.769805908203125 58.80671310424805 10.43805694580078 62.76395416259766 13.83704376220703 66.16294097900391 C 17.23603057861328 69.56191253662109 21.19327163696289 72.23016357421875 25.59884643554688 74.09356689453125 C 30.1584587097168 76.02212524414062 35.00370025634766 76.99997711181641 39.99999237060547 76.99997711181641 C 44.99628448486328 76.99997711181641 49.84152603149414 76.02212524414062 54.40113830566406 74.09356689453125 C 58.80671310424805 72.23016357421875 62.76395416259766 69.56191253662109 66.16294097900391 66.16294097900391 C 69.56191253662109 62.76395416259766 72.23016357421875 58.80671310424805 74.09356689453125 54.40113830566406 C 76.02212524414062 49.84152603149414 76.99997711181641 44.99628448486328 76.99997711181641 39.99999237060547 C 76.99997711181641 35.00370025634766 76.02212524414062 30.1584587097168 74.09356689453125 25.59884643554688 C 72.23016357421875 21.19327163696289 69.56191253662109 17.23603057861328 66.16294097900391 13.83704376220703 C 62.76395416259766 10.43805694580078 58.80671310424805 7.769805908203125 54.40113830566406 5.906402587890625 C 49.84152603149414 3.97784423828125 44.99628448486328 2.999992370605469 39.99999237060547 2.999992370605469 M 39.99999237060547 -7.62939453125e-06 C 62.09137725830078 -7.62939453125e-06 79.99997711181641 17.90860748291016 79.99997711181641 39.99999237060547 C 79.99997711181641 62.09137725830078 62.09137725830078 79.99997711181641 39.99999237060547 79.99997711181641 C 17.90860748291016 79.99997711181641 -7.62939453125e-06 62.09137725830078 -7.62939453125e-06 39.99999237060547 C -7.62939453125e-06 17.90860748291016 17.90860748291016 -7.62939453125e-06 39.99999237060547 -7.62939453125e-06 Z" stroke="none" fill="#83793c"/>
                                  </g>
                                </g>
                              </g>
                            </g>
                          </g>
                        </g>
                      </g>
                    </g>
                  </g>
                </g>
              </g>
              <g id="g8115" transform="translate(15.793 15.793)">
                <g id="g8117">
                  <g id="g8119" clip-path="url(#clip-path)">
                    <g id="g8125" transform="translate(-33.259 0.709)">
                      <path id="path8127" d="M-338.457-377.826h-25.835v-25.108c5.31-7.679,37.755-5.416,25.835,25.108" transform="translate(364.292 406.667)" fill="#fbdf63"/>
                    </g>
                    <g id="g8129" transform="translate(-33.259 0.709)">
                      <path id="path8131" d="M-338.457-377.826h-.619c6.164-24.728-15.887-30.6-25.216-24.374v-.734c5.31-7.679,37.755-5.416,25.835,25.108" transform="translate(364.292 406.667)" fill="#f9d11f"/>
                    </g>
                  </g>
                </g>
                <g id="g8265">
                  <g id="g8267" clip-path="url(#clip-path)">
                    <g id="g8273" transform="translate(-33.259 51.036)">
                      <path id="path8275" d="M-338.457-377.654h-25.835v-25.1c5.31-7.676,37.755-5.413,25.835,25.1" transform="translate(364.292 406.481)" fill="#003343"/>
                    </g>
                    <g id="g8277" transform="translate(-33.259 51.036)">
                      <path id="path8279" d="M-338.457-377.654h-.619c6.164-24.717-15.887-30.585-25.216-24.362v-.734c5.31-7.676,37.755-5.413,25.835,25.1" transform="translate(364.292 406.481)" fill="#002439"/>
                    </g>
                  </g>
                </g>
                <g id="g8281">
                  <g id="g8283" clip-path="url(#clip-path)">
                    <g id="g8289" transform="translate(17.066 51.014)">
                      <path id="path8291" d="M-338.457-377.826h-25.835v-25.108c5.31-7.679,37.755-5.416,25.835,25.108" transform="translate(364.292 406.667)" fill="#ff7e50"/>
                    </g>
                    <g id="g8293" transform="translate(17.066 51.014)">
                      <path id="path8295" d="M-338.457-377.826h-.619c6.164-24.728-15.887-30.6-25.216-24.374v-.734c5.31-7.679,37.755-5.416,25.835,25.108" transform="translate(364.292 406.667)" fill="#ff6247"/>
                    </g>
                    <g id="g8297" transform="translate(2.941 54.225)">
                      <path id="path8299" d="M-233.028-131.751v15.573h-14.6c-12.2-25.649,14.6-34.273,14.6-15.573" transform="translate(250.816 141.808)" fill="#ffa68a"/>
                    </g>
                    <g id="g8301" transform="translate(2.941 54.225)">
                      <path id="path8303" d="M-233.028-131.751c-.9-16.1-20.23-9.82-14.176,15.573h-.427c-12.2-25.649,14.6-34.273,14.6-15.573" transform="translate(250.816 141.808)" fill="#ff7e50"/>
                    </g>
                  </g>
                </g>
              </g>
            </g>
          </g>
        </g>
      </g>
    </g>
    <g id="recreo_1_" data-name="recreo (1)" transform="translate(220.088 3184)">
      <path id="Trazado_1055571" data-name="Trazado 1055571" d="M188.813,297.686v4.2a12.669,12.669,0,0,0,3.321-.1v-.331a7.553,7.553,0,0,1,1.324-4.377A8.358,8.358,0,0,1,188.813,297.686Zm0,0" transform="translate(-169.964 -268.131)" fill="#a2f9f9"/>
      <path id="Trazado_1055572" data-name="Trazado 1055572" d="M225.56,285.46a2.625,2.625,0,0,1-.2,3.286V293.4h1.491a2.077,2.077,0,0,1,3.9-.71,2.078,2.078,0,0,1,3.9.71h6.038V282.9a7.3,7.3,0,0,0-3.311-6.272,9.931,9.931,0,0,1-4.329.987h-2.931a11.342,11.342,0,0,1-4.181-.761A7.433,7.433,0,0,0,222.89,283v1.236l.248.025h0l-.072-.192a.8.8,0,0,1,.469-1.037l.205-.078a.805.805,0,0,1,1.038.469Zm0,0" transform="translate(-200.721 -249.678)" fill="#48e5e1"/>
      <path id="Trazado_1055573" data-name="Trazado 1055573" d="M223.139,286.361h0l-.073-.192a.8.8,0,0,1,.469-1.037l.205-.078a.8.8,0,0,1,1.037.469l.778,2.034a2.7,2.7,0,0,1,.235.405l.09.021V285.1a7.436,7.436,0,0,1,2.317-5.53,10.665,10.665,0,0,1-2.265-.613,7.433,7.433,0,0,0-3.046,6.143v1.236Zm0,0" transform="translate(-200.722 -251.776)" fill="#41ceca"/>
      <path id="Trazado_1055574" data-name="Trazado 1055574" d="M247.553,435.261v-3.143a2.03,2.03,0,0,1,.233-.944,2.077,2.077,0,0,0-3.9.711h-1.491v4.808a.628.628,0,0,1-.629.623h4.321v-.007a2.076,2.076,0,0,0,1.7-1.1A2.028,2.028,0,0,1,247.553,435.261Zm0,0" transform="translate(-217.757 -388.158)" fill="#a2f9f9"/>
      <path id="Trazado_1055575" data-name="Trazado 1055575" d="M303.089,437.309v.007H311.5a2.716,2.716,0,1,0,0-5.432H305.29a2.075,2.075,0,0,0-4.134.234v3.143A2.062,2.062,0,0,0,303.089,437.309Zm0,0" transform="translate(-271.361 -388.158)" fill="#a2f9f9"/>
      <path id="Trazado_1055576" data-name="Trazado 1055576" d="M304.128,435.261v-3.143a2.038,2.038,0,0,1,.589-1.433,2.076,2.076,0,0,0-3.557,1.433v3.143a2.062,2.062,0,0,0,1.933,2.048v.007h2.968v-.007A2.062,2.062,0,0,1,304.128,435.261Zm0,0" transform="translate(-271.364 -388.158)" fill="#91e0e0"/>
      <path id="Trazado_1055577" data-name="Trazado 1055577" d="M287.527,286.1H284.6a12.516,12.516,0,0,1-1.345-.072,2.371,2.371,0,0,0,4.739.061C287.836,286.1,287.682,286.1,287.527,286.1Zm0,0" transform="translate(-255.2 -258.158)" fill="#ffd5b3"/>
      <path id="Trazado_1055578" data-name="Trazado 1055578" d="M217.871,90.293h-.04V88.909c0-.107,0-.214-.006-.32a2.475,2.475,0,0,1-.72.4,5.168,5.168,0,0,1-1.718.316c-2.976,0-4.323-3.132-4.336-3.164l-.092-.22-.088.222c-.016.041-1.649,4.061-4.375,4.061a3.029,3.029,0,0,1-.91-.145c-1.292-.407-1.719-1.39-1.269-2.921l-.177-.078c-.838,1.4-2.124,3.066-3.488,3.066a1.68,1.68,0,0,1-.473-.068,1.646,1.646,0,0,1-1.079-.879,3.825,3.825,0,0,1,.226-2.963l-.178-.079c-1.129,2.368-2.331,3.519-3.673,3.519a2.381,2.381,0,0,1-.462-.046v5.974c0,6.434,4.452,9.908,9.943,9.908h2.931A9.941,9.941,0,0,0,217.5,98.12a2.44,2.44,0,0,0,.371.029c1.7,0,3.083-1.759,3.083-3.928s-1.381-3.928-3.083-3.928Zm0,0" transform="translate(-175.56 -77.546)" fill="#ffd5b3"/>
      <path id="Trazado_1055579" data-name="Trazado 1055579" d="M197.994,116.893v-6.672c0-.232.009-.462.024-.69a3.111,3.111,0,0,1-3.007,1.486v5.876c0,6.434,4.452,9.908,9.943,9.908H207.9c-5.475-.015-9.908-3.487-9.908-9.907Zm0,0" transform="translate(-175.559 -98.859)" fill="#e5bfa1"/>
      <path id="Trazado_1055580" data-name="Trazado 1055580" d="M265.463,218.009a3.335,3.335,0,0,1-3.346-3.316.626.626,0,0,1,.629-.623h5.434a.626.626,0,0,1,.629.623A3.335,3.335,0,0,1,265.463,218.009Zm0,0" transform="translate(-236.126 -193.212)" fill="#fb8276"/>
      <path id="Trazado_1055581" data-name="Trazado 1055581" d="M265.121,214.694a.626.626,0,0,1,.629-.623h-3a.626.626,0,0,0-.629.623,3.35,3.35,0,0,0,4.848,2.962A3.315,3.315,0,0,1,265.121,214.694Zm0,0" transform="translate(-236.126 -193.212)" fill="#e1756a"/>
      <path id="Trazado_1055582" data-name="Trazado 1055582" d="M196.145,7.5h-3.171a10.737,10.737,0,0,0-10.757,10.717v.161a2.908,2.908,0,0,0,.705.393c2.279.9,3.819-1.39,4.765-3.372-.7,1.7-.681,3.507.916,3.973,1.54.45,3.019-1.285,4.071-3.041-.36,1.228-.281,2.532,1.333,3.041,3.4,1.071,5.4-3.973,5.4-3.973s1.853,4.432,6.177,2.9a2.5,2.5,0,0,0,1.272-.979A10.74,10.74,0,0,0,196.145,7.5Zm0,0" transform="translate(-164.012 -6.769)" fill="#f7931e"/>
      <path id="Trazado_1055583" data-name="Trazado 1055583" d="M185.193,18.378v-.161A10.737,10.737,0,0,1,195.95,7.5h-2.971a10.737,10.737,0,0,0-10.756,10.717v.161a2.9,2.9,0,0,0,.7.393,2.51,2.51,0,0,0,2.449-.266c-.064-.041-.126-.083-.183-.127Zm0,0" transform="translate(-164.016 -6.77)" fill="#de841b"/>
      <path id="Trazado_1055584" data-name="Trazado 1055584" d="M100.683,247.177v-.711a1.378,1.378,0,0,0-1.384-1.372H95.271a1.378,1.378,0,0,0-1.384,1.372v.711Zm0,0" transform="translate(-84.288 -221.213)" fill="#89c947"/>
      <path id="Trazado_1055585" data-name="Trazado 1055585" d="M96.907,247.177v-.711a1.378,1.378,0,0,1,1.384-1.372h-3.02a1.378,1.378,0,0,0-1.384,1.372v.711Zm0,0" transform="translate(-84.288 -221.213)" fill="#7bb540"/>
      <path id="Trazado_1055586" data-name="Trazado 1055586" d="M80.407,277.446a.628.628,0,0,1-.629.623H69.333a.628.628,0,0,1-.629-.623V267.1a.628.628,0,0,1,.629-.623H79.778a.628.628,0,0,1,.629.623Zm0,0" transform="translate(-61.559 -240.508)" fill="#d5e962"/>
      <path id="Trazado_1055587" data-name="Trazado 1055587" d="M71.716,277.446v-4.42l-.589-.566a1.082,1.082,0,0,1,.589-1.851V267.1a.628.628,0,0,1,.629-.623H69.332a.628.628,0,0,0-.629.623v10.35a.628.628,0,0,0,.629.623h3.013A.628.628,0,0,1,71.716,277.446Zm0,0" transform="translate(-61.558 -240.508)" fill="#bfd158"/>
      <path id="Trazado_1055588" data-name="Trazado 1055588" d="M102.342,302.372a.36.36,0,0,1-.167-.041l-1.484-.769-1.484.769a.361.361,0,0,1-.377-.027.35.35,0,0,1-.142-.345l.283-1.629-1.2-1.154a.349.349,0,0,1-.091-.362.359.359,0,0,1,.289-.241l1.66-.238.742-1.482a.361.361,0,0,1,.642,0l.743,1.482,1.66.238a.357.357,0,0,1,.289.241.348.348,0,0,1-.091.362l-1.2,1.154.284,1.629a.351.351,0,0,1-.142.345.362.362,0,0,1-.211.068Zm0,0" transform="translate(-87.694 -267.751)" fill="#89c947"/>
      <path id="Trazado_1055589" data-name="Trazado 1055589" d="M19.7,396.462a.628.628,0,0,1-.63.623H8.629A.628.628,0,0,1,8,396.462v-10.35a.628.628,0,0,1,.629-.623H19.074a.628.628,0,0,1,.63.623Zm0,0" transform="translate(-6.77 -347.927)" fill="#fb8276"/>
      <path id="Trazado_1055590" data-name="Trazado 1055590" d="M10.984,396.462V392.3l-.468-.458a2.3,2.3,0,0,1,0-3.294,2.387,2.387,0,0,1,.468-.355v-2.084a.628.628,0,0,1,.629-.623H8.629a.628.628,0,0,0-.629.623v10.35a.628.628,0,0,0,.629.623h2.984a.628.628,0,0,1-.629-.623Zm0,0" transform="translate(-6.77 -347.927)" fill="#e1756a"/>
      <path id="Trazado_1055591" data-name="Trazado 1055591" d="M37.486,422.86a.3.3,0,0,1-.209-.085l-2.616-2.558a1.567,1.567,0,0,1,0-2.249,1.651,1.651,0,0,1,2.3,0l.526.514.526-.514a1.651,1.651,0,0,1,2.3,0,1.567,1.567,0,0,1,0,2.249l-2.616,2.558a.3.3,0,0,1-.209.085Zm0,0" transform="translate(-30.404 -376.822)" fill="#ef5050"/>
      <path id="Trazado_1055592" data-name="Trazado 1055592" d="M137.5,387.876l-2.422-.244a.746.746,0,0,1-.667-.817l.02-.2a.746.746,0,0,1,.817-.668l1.749.176.013-.13-2.135-.215a.742.742,0,0,1-.517-.289h-5.616a.628.628,0,0,0-.629.623v10.35a.628.628,0,0,0,.629.623h10.445a.628.628,0,0,0,.629-.623v-9.467a2.749,2.749,0,0,1-2.317.882Zm0,0" transform="translate(-115.175 -347.927)" fill="#ffc502"/>
      <path id="Trazado_1055593" data-name="Trazado 1055593" d="M131.086,396.462v-3.374l-.52-.893a1.907,1.907,0,0,1,0-1.816l.52-.893v-3.374a.628.628,0,0,1,.629-.623h-2.973a.628.628,0,0,0-.629.623v10.35a.628.628,0,0,0,.629.623h2.973A.628.628,0,0,1,131.086,396.462Zm0,0" transform="translate(-115.179 -347.927)" fill="#e5b102"/>
      <path id="Trazado_1055594" data-name="Trazado 1055594" d="M160.418,423.141a1.212,1.212,0,0,1-.944-.54l-.912-1.565a1.187,1.187,0,0,1,0-1.08l.912-1.565a1.212,1.212,0,0,1,.944-.54h1.824a1.21,1.21,0,0,1,.944.54l.912,1.565a1.187,1.187,0,0,1,0,1.08l-.912,1.565a1.21,1.21,0,0,1-.944.54Zm0,0" transform="translate(-142.545 -377.137)" fill="#fcdb67"/>
      <path id="Trazado_1055595" data-name="Trazado 1055595" d="M260.026,318.312a1.991,1.991,0,0,0-2.647.905,7.812,7.812,0,0,1-8.889,4.087,2.621,2.621,0,0,1-.454,2.9l.018-.019v1.045a11.8,11.8,0,0,0,12.876-6.3,1.949,1.949,0,0,0-.9-2.621Zm0,0" transform="translate(-223.416 -287.117)" fill="#a2f9f9"/>
      <path id="Trazado_1055596" data-name="Trazado 1055596" d="M190.828,346.66l.02-.2a.747.747,0,0,1,.817-.668l1.749.176.013-.13-2.135-.215a.746.746,0,0,1-.668-.817l.021-.2a.746.746,0,0,1,.817-.668l2.135.215.013-.13-1.749-.176a.746.746,0,0,1-.668-.817l.021-.2a.746.746,0,0,1,.817-.668l1.983.2h0l-.072-.191a.805.805,0,0,1,.469-1.038l.205-.078a.805.805,0,0,1,1.038.469l.778,2.034a2.633,2.633,0,0,1,.47,1.782,2.7,2.7,0,0,1-2.989,2.386l-2.422-.244A.745.745,0,0,1,190.828,346.66Zm0,0" transform="translate(-171.596 -307.771)" fill="#ffd5b3"/>
      <path id="Trazado_1055597" data-name="Trazado 1055597" d="M42.479,21.329c2.026-.107,3.646-2.154,3.646-4.654A4.513,4.513,0,0,0,43,12.093V11.5a3.32,3.32,0,0,0,.453-.536.732.732,0,0,0,.123-.47A11.471,11.471,0,0,0,32.134,0H28.963A11.481,11.481,0,0,0,17.475,11.448v.161a.731.731,0,0,0,.286.58,3.654,3.654,0,0,0,.88.493c.027.011.053.019.08.029v5.325a10.445,10.445,0,0,0,3.145,7.9,9.549,9.549,0,0,0,2.015,1.428,8.221,8.221,0,0,0-.855.988,7.564,7.564,0,0,1-2.9.572c-.185,0-.368-.008-.55-.022V26.588a1.359,1.359,0,0,0-1.36-1.354H17.125a2.111,2.111,0,0,0-2.114-2.083H10.983a2.111,2.111,0,0,0-2.115,2.083H7.774a1.358,1.358,0,0,0-1.36,1.354V36.831H1.859A1.359,1.359,0,0,0,.5,38.185v10.35a1.359,1.359,0,0,0,1.36,1.354h26.47a.719.719,0,0,0,.163-.019,2.8,2.8,0,0,0,1.537-.671,2.8,2.8,0,0,0,1.534.671.716.716,0,0,0,.165.019h8.406a3.445,3.445,0,0,0,.563-6.847V41.606a.731.731,0,1,0-1.462,0v1.389H34.5a2.812,2.812,0,0,0-4.473-1.134,2.811,2.811,0,0,0-4.472,1.134h-.188V40.972a12.384,12.384,0,0,0,1.576.1,12.514,12.514,0,0,0,11.225-6.935,2.679,2.679,0,0,0-1.241-3.6,2.726,2.726,0,0,0-3.62,1.24,6.974,6.974,0,0,1-2.85,3,.731.731,0,1,0,.716,1.275,8.431,8.431,0,0,0,3.445-3.628,1.26,1.26,0,0,1,1.673-.571,1.217,1.217,0,0,1,.566,1.639,11.057,11.057,0,0,1-11.49,6v-.158a3.36,3.36,0,0,0,.668-1.7,3.281,3.281,0,0,0,.01-.536,8.507,8.507,0,0,0,1.507.033.731.731,0,1,0-.1-1.459,7,7,0,0,1-1.9-.13c-.021-.035-.043-.069-.065-.1l-.746-1.951a1.529,1.529,0,0,0-1.8-.947A6.691,6.691,0,0,1,25.329,28a11.64,11.64,0,0,0,2.063.518,3.106,3.106,0,0,0,6.034.1,10.668,10.668,0,0,0,3.15-.823,6.639,6.639,0,0,1,2.66,5.435V38.2a.731.731,0,0,0,1.462,0V33.227a7.978,7.978,0,0,0-2.715-6.173,10.631,10.631,0,0,0,4.5-5.725ZM30.527,43.96a1.344,1.344,0,0,1,2.677-.151.731.731,0,0,0,.726.647h6.205a1.985,1.985,0,1,1,0,3.971H31.829l-.052-.005A1.334,1.334,0,0,1,30.527,47.1Zm-5.158.5h.76a.73.73,0,0,0,.726-.647A1.347,1.347,0,0,1,29.2,43.1a2.752,2.752,0,0,0-.139.864V47.1a2.741,2.741,0,0,0,.139.861,1.345,1.345,0,0,1-.923.458l-.052.005h-2.86ZM19.579,30.368c.183.011.366.018.55.018a9.111,9.111,0,0,0,1.888-.2,8.5,8.5,0,0,0-.573,2.83,12.034,12.034,0,0,1-1.314.072c-.184,0-.368-.005-.55-.014ZM19.7,41.446a.526.526,0,0,1,.312.177l.912,1.565a.5.5,0,0,1,0,.344L20.01,45.1a.526.526,0,0,1-.312.177H17.874a.526.526,0,0,1-.312-.177l-.912-1.565a.5.5,0,0,1,0-.344l.912-1.565a.526.526,0,0,1,.312-.177H19.7ZM10.983,24.612H15.01a.648.648,0,0,1,.652.622H10.331a.648.648,0,0,1,.652-.622ZM7.876,26.7H18.118V36.831H7.876ZM12.2,48.427H1.961V38.292H12.2Zm11.7,0H13.665V38.292h4.93a1.464,1.464,0,0,0-.07.321l-.021.2a1.473,1.473,0,0,0,.4,1.168H17.874a1.932,1.932,0,0,0-1.575.9l-.912,1.565a1.907,1.907,0,0,0,0,1.816l.912,1.565a1.932,1.932,0,0,0,1.575.9H19.7a1.93,1.93,0,0,0,1.575-.9l.912-1.565a1.909,1.909,0,0,0,0-1.816l-.912-1.565a1.67,1.67,0,0,0-.263-.335l1.237.124c.118.012.238.018.357.018a3.507,3.507,0,0,0,1.3-.249Zm-.9-13.4a.731.731,0,0,0,.1-.7l-.073-.191a.072.072,0,0,1,0-.057.073.073,0,0,1,.042-.039l.2-.077a.075.075,0,0,1,.027-.005.077.077,0,0,1,.07.051l.778,2.034a.719.719,0,0,0,.084.159,1.911,1.911,0,0,1,.341,1.288A1.96,1.96,0,0,1,22.6,39.233c-.07,0-.14,0-.21-.011l-2.422-.244a.015.015,0,0,1-.014-.016l.021-.2A.016.016,0,0,1,20,38.746h0l1.749.176a.731.731,0,0,0,.8-.654l.013-.13a.731.731,0,0,0-.654-.8l-2.135-.215a.017.017,0,0,1-.013-.016l.02-.2c0-.011.012-.013.017-.014l2.135.215a.731.731,0,0,0,.8-.654l.013-.13a.731.731,0,0,0-.654-.8l-1.749-.176a.017.017,0,0,1-.014-.017l.021-.2c0-.011.012-.012.016-.013l1.983.2.019,0A.729.729,0,0,0,23.005,35.025Zm7.415-5.552A1.642,1.642,0,0,1,29,28.667c.13,0,.26.006.392.006h2.437a1.641,1.641,0,0,1-1.412.8Zm1.907-2.262H29.4c-5.6,0-9.213-3.6-9.213-9.177V12.92a3.6,3.6,0,0,0,2.1-.979q.182-.163.357-.351a2.733,2.733,0,0,0,.153.4A2.475,2.475,0,0,0,24.387,13.3c1.189.348,2.391-.163,3.585-1.52a2.727,2.727,0,0,0,1.8,1.516,3.865,3.865,0,0,0,1.168.185,4.716,4.716,0,0,0,3.593-2,10.148,10.148,0,0,0,.915-1.328,6.7,6.7,0,0,0,1.242,1.313.731.731,0,1,0,.908-1.145,5.694,5.694,0,0,1-1.527-1.973A.731.731,0,0,0,35.4,7.9H35.4a.732.732,0,0,0-.673.461c-.018.044-1.788,4.4-4.506,3.547-.67-.211-1.295-.63-.852-2.138a.731.731,0,0,0-1.328-.581C26.85,11.166,25.67,12.157,24.8,11.9a1.016,1.016,0,0,1-.686-.545,3.285,3.285,0,0,1,.241-2.447.731.731,0,0,0-1.335-.594C21.2,12.122,19.68,11.52,19.18,11.322a2.493,2.493,0,0,1-.241-.11,10.019,10.019,0,0,1,10.023-9.75h3.171a10.065,10.065,0,0,1,9.961,8.876,1.776,1.776,0,0,1-.76.505,5,5,0,0,1-.889.23.731.731,0,1,0,.228,1.444,6.361,6.361,0,0,0,.867-.2v.435a.73.73,0,0,0,.731.731h.047c1.294.006,2.345,1.438,2.345,3.2s-1.055,3.2-2.353,3.2a1.709,1.709,0,0,1-.261-.021.731.731,0,0,0-.816.535,9.211,9.211,0,0,1-8.907,6.825Zm0,0"/>
      <path id="Trazado_1055598" data-name="Trazado 1055598" d="M343.407,156.6a.73.73,0,0,0-.731.731v1.2a.731.731,0,1,0,1.462,0v-1.2A.731.731,0,0,0,343.407,156.6Zm0,0" transform="translate(-308.835 -141.34)"/>
      <path id="Trazado_1055599" data-name="Trazado 1055599" d="M232.59,156.6a.731.731,0,0,0-.731.731v1.2a.731.731,0,1,0,1.462,0v-1.2A.731.731,0,0,0,232.59,156.6Zm0,0" transform="translate(-208.816 -141.34)"/>
      <path id="Trazado_1055600" data-name="Trazado 1055600" d="M283.607,168.108h.474a.731.731,0,0,0,0-1.462h-.217v-.678a.731.731,0,0,0-1.462,0v.921A1.213,1.213,0,0,0,283.607,168.108Zm0,0" transform="translate(-254.435 -149.138)"/>
      <path id="Trazado_1055601" data-name="Trazado 1055601" d="M261.412,206.566h-5.434a1.359,1.359,0,0,0-1.36,1.354,4.077,4.077,0,0,0,8.154,0A1.359,1.359,0,0,0,261.412,206.566Zm-2.717,3.939a2.605,2.605,0,0,1-2.613-2.478h5.227A2.606,2.606,0,0,1,258.694,210.505Zm0,0" transform="translate(-229.357 -186.439)"/>
      <path id="Trazado_1055602" data-name="Trazado 1055602" d="M96.754,291.08l-1.281-.183-.571-1.14a1.091,1.091,0,0,0-1.95,0l-.571,1.14-1.282.183a1.083,1.083,0,0,0-.6,1.853l.921.884-.217,1.246a1.089,1.089,0,0,0,1.576,1.146l1.148-.595,1.145.593a1.1,1.1,0,0,0,.507.124,1.086,1.086,0,0,0,1.073-1.269l-.217-1.246.92-.884a1.083,1.083,0,0,0-.6-1.854Zm-1.612,1.953a.729.729,0,0,0-.214.652l.153.882-.818-.424a.731.731,0,0,0-.672,0l-.818.424.153-.882a.731.731,0,0,0-.214-.652l-.641-.615.9-.128a.732.732,0,0,0,.55-.4l.41-.819.41.819a.731.731,0,0,0,.55.4l.895.128Zm0,0" transform="translate(-80.93 -260.981)"/>
      <path id="Trazado_1055603" data-name="Trazado 1055603" d="M30,416.533a1.032,1.032,0,0,0,1.44,0l2.616-2.559a2.3,2.3,0,0,0,0-3.293,2.383,2.383,0,0,0-3.321,0l-.015.015-.015-.015a2.383,2.383,0,0,0-3.321,0,2.3,2.3,0,0,0,0,3.294ZM28.4,411.727a.921.921,0,0,1,1.277,0l.526.515a.731.731,0,0,0,1.022,0l.526-.514a.92.92,0,0,1,1.277,0,.837.837,0,0,1,0,1.2l-2.314,2.263L28.4,412.93a.837.837,0,0,1,0-1.2Zm0,0" transform="translate(-23.636 -370.057)"/>
      <path id="Trazado_1055604" data-name="Trazado 1055604" d="M422.188,157.992a.727.727,0,0,0,.347-.088,2.619,2.619,0,0,0,.953-3.427.731.731,0,0,0-1.342.58c.02.046.48,1.136-.306,1.561a.731.731,0,0,0,.348,1.374Zm0,0" transform="translate(-379.939 -139.028)"/>
    </g>
  </g>
</svg>
