<svg xmlns="http://www.w3.org/2000/svg" width="81.51" height="79.72" viewBox="0 0 81.51 79.72">
  <g id="aprender-en-linea_6_" data-name="aprender-en-linea (6)" transform="translate(0 -5.622)">
    <g id="Grupo_1230271" data-name="Grupo 1230271" transform="translate(1.193 6.817)">
      <path id="Trazado_1055605" data-name="Trazado 1055605" d="M100.779,140.381V188.8H28.27V140.381a4.5,4.5,0,0,1,4.505-4.5h63.5A4.5,4.5,0,0,1,100.779,140.381Z" transform="translate(-24.962 -116.335)" fill="#dfeaef"/>
      <path id="Trazado_1055606" data-name="Trazado 1055606" d="M28.27,423.127h72.509v7.191H28.27Z" transform="translate(-24.962 -357.855)" fill="#b4d0d5"/>
      <path id="Trazado_1055607" data-name="Trazado 1055607" d="M0,0H37.45V61.365H0Z" transform="translate(70.245 25.114) rotate(90)" fill="#6ec17d"/>
      <path id="Trazado_1055608" data-name="Trazado 1055608" d="M86.622,441.114H7.5v2.646a6.55,6.55,0,0,0,6.55,6.55H80.072a6.55,6.55,0,0,0,6.55-6.55v-2.646Z" transform="translate(-7.499 -372.978)" fill="#dfeaef"/>
      <path id="Trazado_1055609" data-name="Trazado 1055609" d="M214.057,445.711h-8.582a4.463,4.463,0,0,1-4.463-4.463v-.135H218.52v.135A4.463,4.463,0,0,1,214.057,445.711Z" transform="translate(-170.204 -372.978)" fill="#b4d0d5"/>
      <path id="Trazado_1055610" data-name="Trazado 1055610" d="M21.2,450.312H14.042a6.55,6.55,0,0,1-6.551-6.549v-2.646h7.158v2.646A6.55,6.55,0,0,0,21.2,450.312Z" transform="translate(-7.491 -372.981)" fill="#b4d0d5"/>
      <path id="Trazado_1055611" data-name="Trazado 1055611" d="M180.649,164.417v6.726a9.957,9.957,0,0,1-6.11,9.2,29.966,29.966,0,0,1-22.979,0,9.957,9.957,0,0,1-6.11-9.2v-6.726Z" transform="translate(-123.487 -140.332)" fill="#665e66"/>
      <path id="Trazado_1055612" data-name="Trazado 1055612" d="M167.659,182.284a29.958,29.958,0,0,1-16.1-1.933,9.958,9.958,0,0,1-6.11-9.2V164.42h9.226v6.726a9.958,9.958,0,0,0,6.11,9.2A29.781,29.781,0,0,0,167.659,182.284Z" transform="translate(-123.484 -140.334)" fill="#454045"/>
      <path id="Trazado_1055613" data-name="Trazado 1055613" d="M180.649,164.417v2.7l-14.406,7.632a6.828,6.828,0,0,1-6.387,0l-14.406-7.632v-2.7Z" transform="translate(-123.487 -140.332)" fill="#454045"/>
      <path id="Trazado_1055614" data-name="Trazado 1055614" d="M133.208,26.151,110.119,13.92a6.821,6.821,0,0,0-6.386,0L80.645,26.151a3.656,3.656,0,0,0,0,6.461l23.089,12.231a6.821,6.821,0,0,0,6.386,0l23.089-12.231a3.656,3.656,0,0,0,0-6.461Z" transform="translate(-67.364 -13.127)" fill="#665e66"/>
      <g id="Grupo_1230270" data-name="Grupo 1230270" transform="translate(46.913 43.839)">
        <path id="Trazado_1055615" data-name="Trazado 1055615" d="M305.093,288.5l-2.591,4.487a2.429,2.429,0,0,0,2.1,3.644h.974a2.429,2.429,0,0,0,2.1-3.644Z" transform="translate(-302.173 -288.497)" fill="#f4dd45"/>
      </g>
    </g>
    <g id="Grupo_1230272" data-name="Grupo 1230272" transform="translate(0 5.622)">
      <path id="Trazado_1055616" data-name="Trazado 1055616" d="M80.316,73.758H78.2v-42.9a5.7,5.7,0,0,0-5.7-5.7H69.7a4.848,4.848,0,0,0-2.1-6.379l-15.613-8.27a1.194,1.194,0,1,0-1.118,2.11L66.478,20.9a2.463,2.463,0,0,1,0,4.352L51.3,33.288l-9.649-11a1.194,1.194,0,1,0-1.8,1.574l9.276,10.577L43.39,37.479a5.631,5.631,0,0,1-5.27,0L15.032,25.248a2.463,2.463,0,0,1,0-4.352L38.12,8.665a5.63,5.63,0,0,1,5.27,0l3.3,1.751a1.194,1.194,0,0,0,1.118-2.11L44.507,6.555a8.016,8.016,0,0,0-7.5,0L13.914,18.786a4.848,4.848,0,0,0-2.1,6.379h-2.8a5.7,5.7,0,0,0-5.7,5.7v42.9H1.194A1.194,1.194,0,0,0,0,74.952V77.6a7.752,7.752,0,0,0,7.744,7.744H73.766A7.753,7.753,0,0,0,81.51,77.6V74.952A1.194,1.194,0,0,0,80.316,73.758ZM51.026,53.044l1.557,2.7a1.235,1.235,0,0,1-1.07,1.853h-.974a1.235,1.235,0,0,1-1.07-1.853ZM52.22,35.5l4.941-2.617v4.741a8.737,8.737,0,0,1-4.941,7.908ZM40.755,40.522a8.021,8.021,0,0,0,3.753-.932l5.324-2.821V46.46a28.961,28.961,0,0,1-20.109-.728,8.734,8.734,0,0,1-5.374-8.1V32.887L37,39.59A8.014,8.014,0,0,0,40.755,40.522ZM5.695,30.863a3.314,3.314,0,0,1,3.311-3.31h5.275l6.01,3.184H10.073a1.194,1.194,0,0,0-1.194,1.194v37.45a1.194,1.194,0,0,0,1.194,1.194h6.3a1.194,1.194,0,0,0,0-2.388H11.267V33.125h10.7v4.5a11.116,11.116,0,0,0,6.845,10.308,31.381,31.381,0,0,0,21.025,1.028v1.371L47.4,54.546a3.623,3.623,0,0,0,3.138,5.435h.974a3.623,3.623,0,0,0,3.138-5.435L52.22,50.336V48.13c.161-.064.323-.127.483-.194a11.116,11.116,0,0,0,6.845-10.308v-4.5h10.7V68.187H21.151a1.194,1.194,0,0,0,0,2.388H71.438a1.194,1.194,0,0,0,1.194-1.194V31.931a1.194,1.194,0,0,0-1.194-1.194H61.218l6.01-3.184H72.5a3.314,3.314,0,0,1,3.311,3.31v42.9H5.695ZM48.139,76.147a3.275,3.275,0,0,1-3.093,2.209H36.464a3.275,3.275,0,0,1-3.093-2.209ZM79.122,77.6a5.362,5.362,0,0,1-5.356,5.356H7.744A5.362,5.362,0,0,1,2.388,77.6V76.146h28.52a5.666,5.666,0,0,0,5.556,4.6h8.582a5.666,5.666,0,0,0,5.556-4.6h28.52Z" transform="translate(0 -5.622)"/>
      <path id="Trazado_1055617" data-name="Trazado 1055617" d="M119.414,364.811a1.194,1.194,0,0,0-1.194-1.194h-23.9a1.194,1.194,0,0,0,0,2.388h23.9A1.194,1.194,0,0,0,119.414,364.811Z" transform="translate(-78.298 -306.624)"/>
      <path id="Trazado_1055618" data-name="Trazado 1055618" d="M94.317,334.461H110.3a1.194,1.194,0,1,0,0-2.388H94.317a1.194,1.194,0,1,0,0,2.388Z" transform="translate(-78.298 -280.102)"/>
    </g>
  </g>
</svg>
