<svg xmlns="http://www.w3.org/2000/svg" xmlns:xlink="http://www.w3.org/1999/xlink" width="108" height="108" viewBox="0 0 108 108">
  <defs>
    <filter id="Trazado_904820" x="0" y="0" width="108" height="108" filterUnits="userSpaceOnUse">
      <feOffset dy="3" input="SourceAlpha"/>
      <feGaussianBlur stdDeviation="3" result="blur"/>
      <feFlood flood-opacity="0.161"/>
      <feComposite operator="in" in2="blur"/>
      <feComposite in="SourceGraphic"/>
    </filter>
  </defs>
  <g id="Grupo_1230114" data-name="Grupo 1230114" transform="translate(-618.477 -4489.714)">
    <g id="Grupo_1229593" data-name="Grupo 1229593" transform="translate(-1 4017.035)">
      <g id="Grupo_1208347" data-name="Grupo 1208347" transform="translate(628.477 478.679)">
        <g id="Grupo_1207936" data-name="Grupo 1207936" transform="translate(0 0)">
          <g id="Grupo_1201662" data-name="Grupo 1201662">
            <g id="Grupo_1173585" data-name="Grupo 1173585">
              <g id="Grupo_1173428" data-name="Grupo 1173428">
                <g id="Grupo_1171958" data-name="Grupo 1171958">
                  <g id="Grupo_1167341" data-name="Grupo 1167341">
                    <g id="Grupo_1166792" data-name="Grupo 1166792">
                      <g transform="matrix(1, 0, 0, 1, -9, -6)" filter="url(#Trazado_904820)">
                        <g id="Trazado_904820-2" data-name="Trazado 904820" transform="translate(9 6)" fill="#edf3fc">
                          <path d="M 44.99999618530273 88.49999237060547 C 39.12687301635742 88.49999237060547 33.43022155761719 87.35006713867188 28.06829643249512 85.08216857910156 C 22.88852119445801 82.89130401611328 18.23629570007324 79.75457763671875 14.24084663391113 75.75914001464844 C 10.24540901184082 71.76369476318359 7.108683586120605 67.11146545410156 4.917821407318115 61.93169403076172 C 2.649921178817749 56.56976699829102 1.499996185302734 50.87311553955078 1.499996185302734 44.99999237060547 C 1.499996185302734 39.12686920166016 2.649921178817749 33.43021774291992 4.917821407318115 28.06829261779785 C 7.108683586120605 22.88851737976074 10.24540901184082 18.23630523681641 14.24084663391113 14.24085521697998 C 18.23629570007324 10.24540519714355 22.88852119445801 7.108692169189453 28.06829643249512 4.917829990386963 C 33.43022155761719 2.649929761886597 39.12687301635742 1.500004887580872 44.99999618530273 1.500004887580872 C 50.87311935424805 1.500004887580872 56.56977081298828 2.649929761886597 61.93169784545898 4.917829990386963 C 67.11147308349609 7.108692169189453 71.76369476318359 10.24540519714355 75.75914764404297 14.24085521697998 C 79.75458526611328 18.23630523681641 82.89131164550781 22.88851737976074 85.08216857910156 28.06829261779785 C 87.35007476806641 33.43021774291992 88.5 39.12686920166016 88.5 44.99999237060547 C 88.5 50.87311553955078 87.35007476806641 56.56976699829102 85.08216857910156 61.93169403076172 C 82.89131164550781 67.11146545410156 79.75458526611328 71.76369476318359 75.75914764404297 75.75914001464844 C 71.76369476318359 79.75457763671875 67.11147308349609 82.89130401611328 61.93169784545898 85.08216857910156 C 56.56977081298828 87.35006713867188 50.87311935424805 88.49999237060547 44.99999618530273 88.49999237060547 Z" stroke="none"/>
                          <path d="M 44.99999618530273 2.999992370605469 C 39.32870864868164 2.999992370605469 33.82865142822266 4.11004638671875 28.65262603759766 6.299331665039062 C 23.65165710449219 8.414566040039062 19.15968322753906 11.44333648681641 15.301513671875 15.30150604248047 C 11.44333648681641 19.15967559814453 8.414566040039062 23.65164947509766 6.299339294433594 28.65262222290039 C 4.110054016113281 33.82864761352539 2.999992370605469 39.32870483398438 2.999992370605469 44.99999237060547 C 2.999992370605469 50.67127990722656 4.110054016113281 56.17132186889648 6.299339294433594 61.34736633300781 C 8.414566040039062 66.34833526611328 11.44333648681641 70.84029388427734 15.301513671875 74.69846343994141 C 19.15968322753906 78.55663299560547 23.65165710449219 81.58540344238281 28.65262603759766 83.70063781738281 C 33.82865142822266 85.88992309570312 39.32870864868164 86.99997711181641 44.99999618530273 86.99997711181641 C 50.67128372192383 86.99997711181641 56.17134094238281 85.88992309570312 61.34736633300781 83.70063781738281 C 66.34834289550781 81.58540344238281 70.84030914306641 78.55663299560547 74.69847869873047 74.69846343994141 C 78.55665588378906 70.84029388427734 81.58542633056641 66.34833526611328 83.70065307617188 61.34736633300781 C 85.88993835449219 56.17132186889648 87 50.67127990722656 87 44.99999237060547 C 87 39.32870483398438 85.88993835449219 33.82864761352539 83.70065307617188 28.65262222290039 C 81.58542633056641 23.65164947509766 78.55665588378906 19.15967559814453 74.69847869873047 15.30150604248047 C 70.84030914306641 11.44333648681641 66.34834289550781 8.414566040039062 61.34736633300781 6.299331665039062 C 56.17134094238281 4.11004638671875 50.67128372192383 2.999992370605469 44.99999618530273 2.999992370605469 M 44.99999618530273 -7.62939453125e-06 C 69.85281372070312 -7.62939453125e-06 90 20.14717864990234 90 44.99999237060547 C 90 69.85279083251953 69.85281372070312 89.99997711181641 44.99999618530273 89.99997711181641 C 20.14717864990234 89.99997711181641 -7.62939453125e-06 69.85279083251953 -7.62939453125e-06 44.99999237060547 C -7.62939453125e-06 20.14717864990234 20.14717864990234 -7.62939453125e-06 44.99999618530273 -7.62939453125e-06 Z" stroke="none" fill="#5692e8"/>
                        </g>
                      </g>
                    </g>
                  </g>
                </g>
              </g>
            </g>
          </g>
        </g>
      </g>
    </g>
    <g id="estudio_4_" data-name="estudio (4)" transform="translate(644.955 4487.366)">
      <g id="Grupo_1230113" data-name="Grupo 1230113" transform="translate(0.806 29.742)">
        <g id="Grupo_1230112" data-name="Grupo 1230112" transform="translate(0 0)">
          <path id="Trazado_1055288" data-name="Trazado 1055288" d="M201.212,236.57h12.063v22.291H201.212Z" transform="translate(-180.386 -215.054)" fill="#88a8d8"/>
          <g id="Grupo_1230111" data-name="Grupo 1230111">
            <g id="Grupo_1230103" data-name="Grupo 1230103">
              <g id="Grupo_1230088" data-name="Grupo 1230088" transform="translate(0 4.03)">
                <g id="Grupo_1230087" data-name="Grupo 1230087">
                  <g id="Grupo_1230086" data-name="Grupo 1230086">
                    <g id="Grupo_1230085" data-name="Grupo 1230085">
                      <g id="Grupo_1230084" data-name="Grupo 1230084">
                        <g id="Grupo_1230083" data-name="Grupo 1230083">
                          <path id="Trazado_1055289" data-name="Trazado 1055289" d="M14.554,73.926a5.727,5.727,0,0,0-2.323.492l-4.417,1.96a.527.527,0,0,0,0,.963l4.417,1.96a5.728,5.728,0,0,0,2.323.492H53.576V73.926Z" transform="translate(-7.5 -73.926)" fill="#e07f84"/>
                          <path id="Trazado_1055290" data-name="Trazado 1055290" d="M451.622,73.926H448.54v5.868h3.082a2.934,2.934,0,0,0,0-5.868Z" transform="translate(-401.124 -73.926)" fill="#eac12e"/>
                        </g>
                        <path id="Trazado_1055291" data-name="Trazado 1055291" d="M13.846,80.127V74.351a5.722,5.722,0,0,0-1.615.447l-4.417,1.96a.527.527,0,0,0,0,.963l4.417,1.96A5.73,5.73,0,0,0,13.846,80.127Z" transform="translate(-7.5 -74.305)" fill="#a87f7f"/>
                        <path id="Trazado_1055292" data-name="Trazado 1055292" d="M426.667,73.926h3.423v5.868h-3.423Z" transform="translate(-381.603 -73.926)" fill="#edeaed"/>
                      </g>
                    </g>
                  </g>
                </g>
              </g>
              <g id="Grupo_1230102" data-name="Grupo 1230102" transform="translate(16.033)">
                <g id="Grupo_1230101" data-name="Grupo 1230101">
                  <g id="Grupo_1230100" data-name="Grupo 1230100">
                    <g id="Grupo_1230099" data-name="Grupo 1230099">
                      <g id="Grupo_1230098" data-name="Grupo 1230098">
                        <g id="Grupo_1230097" data-name="Grupo 1230097">
                          <g id="Grupo_1230096" data-name="Grupo 1230096">
                            <g id="Grupo_1230095" data-name="Grupo 1230095">
                              <g id="Grupo_1230094" data-name="Grupo 1230094">
                                <g id="Grupo_1230093" data-name="Grupo 1230093">
                                  <g id="Grupo_1230092" data-name="Grupo 1230092">
                                    <g id="Grupo_1230091" data-name="Grupo 1230091">
                                      <g id="Grupo_1230089" data-name="Grupo 1230089">
                                        <path id="Trazado_1055293" data-name="Trazado 1055293" d="M174.135,38.686h-.959a1.5,1.5,0,0,0-1.5,1.5v-.962a1.5,1.5,0,0,0-1.5-1.5h-.959a1.5,1.5,0,0,0-1.5,1.5v-.764a1.5,1.5,0,0,0-1.5-1.5h-.959a1.5,1.5,0,0,0-1.5,1.5v-.523a1.5,1.5,0,0,0-1.5-1.5H161.3a1.5,1.5,0,0,0-1.5,1.5v5.8a2.6,2.6,0,0,1-2.6,2.6h-.57a5.811,5.811,0,0,0,2.118,4.493l1.362,1.073a3.443,3.443,0,0,1,1.313,2.705v1.059h12.063v-2.47a3.444,3.444,0,0,1,.244-1.274l1.132-2.842a14.465,14.465,0,0,0,.774-4.667V40.186a1.5,1.5,0,0,0-1.5-1.5Z" transform="translate(-156.628 -36.437)" fill="#ffece4"/>
                                      </g>
                                      <g id="Grupo_1230090" data-name="Grupo 1230090" transform="translate(9.855 1.288)">
                                        <path id="Trazado_1055294" data-name="Trazado 1055294" d="M255.949,49.376h-.959a1.5,1.5,0,0,0-1.5,1.5v-.962a1.5,1.5,0,0,0-1.5-1.5h-.959a1.494,1.494,0,0,0-1.039.42,1.5,1.5,0,0,1,.458,1.078v4.225a14.465,14.465,0,0,1-.774,4.667l-1.132,2.842a3.444,3.444,0,0,0-.244,1.274v3.435h7v-2.47a3.444,3.444,0,0,1,.244-1.274l1.132-2.842a14.465,14.465,0,0,0,.774-4.667V50.876A1.5,1.5,0,0,0,255.949,49.376Z" transform="translate(-248.298 -48.414)" fill="#ffddce"/>
                                      </g>
                                      <path id="Trazado_1055295" data-name="Trazado 1055295" d="M248.3,236.57h7v22.291h-7Z" transform="translate(-238.442 -215.054)" fill="#7296d1"/>
                                    </g>
                                  </g>
                                </g>
                              </g>
                            </g>
                          </g>
                        </g>
                      </g>
                    </g>
                  </g>
                </g>
              </g>
            </g>
            <g id="Grupo_1230110" data-name="Grupo 1230110" transform="translate(0.117 35.712)">
              <g id="Grupo_1230109" data-name="Grupo 1230109">
                <g id="Grupo_1230108" data-name="Grupo 1230108">
                  <g id="Grupo_1230105" data-name="Grupo 1230105" transform="translate(3.54)">
                    <path id="Trazado_1055296" data-name="Trazado 1055296" d="M64.609,373.112c-7.781-6.817-19.586-4.084-22.449-3.284a.877.877,0,0,0-.641.845v6.033h23.09Z" transform="translate(-41.519 -368.61)" fill="#f7f4f7"/>
                    <path id="Trazado_1055297" data-name="Trazado 1055297" d="M256.291,373.112c7.781-6.817,19.586-4.084,22.449-3.284a.877.877,0,0,1,.641.845v6.033h-23.09Z" transform="translate(-233.201 -368.61)" fill="#edeaed"/>
                    <g id="Grupo_1230104" data-name="Grupo 1230104" transform="translate(38.364 0.049)">
                      <path id="Trazado_1055298" data-name="Trazado 1055298" d="M405.536,370.236a34.7,34.7,0,0,0-7.174-1.169l.173.048a.877.877,0,0,1,.641.844v7.154h7v-6.033A.877.877,0,0,0,405.536,370.236Z" transform="translate(-398.362 -369.067)" fill="#e0dde0"/>
                    </g>
                  </g>
                  <g id="Grupo_1230107" data-name="Grupo 1230107" transform="translate(0 3.626)">
                    <path id="Trazado_1055299" data-name="Trazado 1055299" d="M52.717,407.123c-8.3-7.275-20.923-4.309-23.885-3.475a.876.876,0,0,0-.638.844v5.1H52.717Z" transform="translate(-26.087 -402.342)" fill="#edeaed"/>
                    <path id="Trazado_1055300" data-name="Trazado 1055300" d="M256.291,407.123c8.3-7.275,20.923-4.309,23.884-3.475a.876.876,0,0,1,.638.844v5.1H256.291Z" transform="translate(-229.661 -402.342)" fill="#e0dde0"/>
                    <g id="Grupo_1230106" data-name="Grupo 1230106" transform="translate(43.604 0.102)">
                      <path id="Trazado_1055301" data-name="Trazado 1055301" d="M421.09,404.5a36.758,36.758,0,0,0-6.91-1.2.876.876,0,0,1,.555.815v6.331h6.993v-5.1A.876.876,0,0,0,421.09,404.5Z" transform="translate(-414.18 -403.293)" fill="#d1ccd3"/>
                    </g>
                    <path id="Trazado_1055302" data-name="Trazado 1055302" d="M60.15,447.316H10.293a1.7,1.7,0,0,1,0-3.4H60.15a1.7,1.7,0,0,1,0,3.4Z" transform="translate(-8.592 -439.444)" fill="#eab14d"/>
                    <path id="Trazado_1055303" data-name="Trazado 1055303" d="M430.143,443.913h-6.989a1.7,1.7,0,0,1,1.7,1.7v1.7h5.288a1.7,1.7,0,0,0,0-3.4Z" transform="translate(-378.585 -439.444)" fill="#e8ae4d"/>
                  </g>
                </g>
              </g>
            </g>
          </g>
          <path id="Trazado_1055304" data-name="Trazado 1055304" d="M190.139,206.605V208.9a1.141,1.141,0,0,0,1.141,1.141h12.48A1.141,1.141,0,0,0,204.9,208.9v-2.294a1.141,1.141,0,0,0-1.141-1.141H191.28A1.141,1.141,0,0,0,190.139,206.605Z" transform="translate(-170.504 -187.292)" fill="#5884c9"/>
          <path id="Trazado_1055305" data-name="Trazado 1055305" d="M248.3,210.041h7.368a1.141,1.141,0,0,0,1.141-1.141v-2.294a1.141,1.141,0,0,0-1.141-1.141H248.3Z" transform="translate(-222.409 -187.292)" fill="#4478c1"/>
        </g>
      </g>
      <path id="Trazado_1055306" data-name="Trazado 1055306" d="M52.882,72.776V71.23a1.688,1.688,0,0,0-1.225-1.62l-.207-.057V67.517A1.689,1.689,0,0,0,50.219,65.9,31.375,31.375,0,0,0,34.5,65.451V61.391a.806.806,0,0,0-1.613,0v4.557A17.965,17.965,0,0,0,27.554,68.9a17.911,17.911,0,0,0-5.115-2.877V53.3H32.889v4.336a.806.806,0,1,0,1.613,0V53.246a1.95,1.95,0,0,0,1.508-1.9V49.056a1.949,1.949,0,0,0-1.508-1.9V46.5c0-1.313,1.32-2.838,1.9-6.053H51.3a3.74,3.74,0,1,0,0-7.48H36.589a2.309,2.309,0,0,0-2.244-1.781h-.959a2.293,2.293,0,0,0-.986.222,2.308,2.308,0,0,0-2.014-1.183h-.959a2.292,2.292,0,0,0-1.079.268,2.307,2.307,0,0,0-1.922-1.032h-.959a2.292,2.292,0,0,0-1.2.339,2.3,2.3,0,0,0-1.8-.863h-.959A2.309,2.309,0,0,0,19.2,31.243v1.724H7.86a6.493,6.493,0,0,0-2.65.562L.792,35.488a1.333,1.333,0,0,0,0,2.437l4.417,1.96a6.5,6.5,0,0,0,2.65.562h8.225a6.6,6.6,0,0,0,2.373,4.32c.934.846,1.981,1.209,2.3,2.529a1.948,1.948,0,0,0-1.118,1.759V51.35a1.95,1.95,0,0,0,1.19,1.794V65.51A31.207,31.207,0,0,0,4.888,65.9a1.689,1.689,0,0,0-1.231,1.621v2.036l-.207.057a1.688,1.688,0,0,0-1.225,1.62v1.546a2.508,2.508,0,0,0,.4,4.983H52.482a2.508,2.508,0,0,0,.4-4.983ZM50.1,34.579h1.2a2.128,2.128,0,1,1,0,4.255H50.1Zm-3.423,0h1.811v4.255H46.677Zm-10.025,0h8.412V35.9H36.652Zm0,3.138v-.2h8.412v1.321H36.61q.041-.557.041-1.117ZM6.346,38.6c-.428-.139-.343-.132-4.324-1.889,3.98-1.757,3.9-1.75,4.324-1.889ZM51.219,71.163a.069.069,0,0,1,.05.067v1.513H30.443C36.371,69.153,44.679,69.321,51.219,71.163Zm-22.86-.835c5.716-4.778,14.415-4.838,21.425-2.878a.07.07,0,0,1,.052.068v1.641c-7.2-1.586-15.452-1.322-21.477,3.034ZM34.4,51.35a.335.335,0,0,1-.335.335H21.582a.335.335,0,0,1-.335-.335V49.055a.335.335,0,0,1,.335-.335h12.48a.335.335,0,0,1,.335.335V51.35ZM16.839,38.834H7.958V37.513h3.393a.806.806,0,1,0,0-1.613H7.958V34.579H19.2V35.9h-4.09a.806.806,0,1,0,0,1.613h4.025a1.791,1.791,0,0,1-1.725,1.321ZM19.455,43.5a4.927,4.927,0,0,1-1.747-3.066,3.407,3.407,0,0,0,3.1-3.388c0-1.214,0-4.593,0-5.8a.7.7,0,0,1,.694-.694h.959a.7.7,0,0,1,.694.694v.523a.806.806,0,0,0,1.613,0,.7.7,0,0,1,.694-.694h.959a.7.7,0,0,1,.694.694v.764a.806.806,0,1,0,1.613,0,.7.7,0,0,1,.694-.694h.959a.7.7,0,0,1,.694.694v.962a.806.806,0,1,0,1.613,0,.7.7,0,0,1,.694-.694h.959a.7.7,0,0,1,.694.694v4.225c0,4.591-2.15,6.62-2.15,8.783v.608H22.361c-.411-2.161-2.124-2.856-2.906-3.608ZM5.27,67.517a.07.07,0,0,1,.052-.068c7.018-1.963,15.756-1.861,21.425,2.878v1.865c-6.04-4.366-14.295-4.613-21.477-3.034V67.517ZM3.837,71.23a.069.069,0,0,1,.05-.067c6.56-1.847,14.86-2,20.776,1.581H3.837Zm48.645,4.916H2.625a.9.9,0,1,1,0-1.79H52.482a.9.9,0,0,1,0,1.79Z"/>
    </g>
  </g>
</svg>
