<svg xmlns="http://www.w3.org/2000/svg" xmlns:xlink="http://www.w3.org/1999/xlink" width="98" height="98" viewBox="0 0 98 98">
  <defs>
    <filter id="Trazado_982547" x="0" y="0" width="98" height="98" filterUnits="userSpaceOnUse">
      <feOffset dy="3" input="SourceAlpha"/>
      <feGaussianBlur stdDeviation="3" result="blur"/>
      <feFlood flood-opacity="0.161"/>
      <feComposite operator="in" in2="blur"/>
      <feComposite in="SourceGraphic"/>
    </filter>
    <clipPath id="clip-path">
      <path id="path8121" d="M0-682.665H48.414v48.414H0Z" transform="translate(0 682.665)"/>
    </clipPath>
  </defs>
  <g id="Grupo_1230124" data-name="Grupo 1230124" transform="translate(-195.151 -290.644)">
    <g id="Grupo_1229773" data-name="Grupo 1229773" transform="translate(204.151 296.644)">
      <g id="Grupo_1208936" data-name="Grupo 1208936" transform="translate(0)">
        <g id="Grupo_1208171" data-name="Grupo 1208171">
          <g id="Grupo_1207739" data-name="Grupo 1207739">
            <g id="Grupo_1207712" data-name="Grupo 1207712">
              <g id="Grupo_1207285" data-name="Grupo 1207285">
                <g id="Grupo_1206883" data-name="Grupo 1206883">
                  <g id="Grupo_1204569" data-name="Grupo 1204569">
                    <g id="Grupo_1203962" data-name="Grupo 1203962">
                      <g id="Grupo_1203498" data-name="Grupo 1203498">
                        <g id="Grupo_1202589" data-name="Grupo 1202589">
                          <g id="Grupo_1172010" data-name="Grupo 1172010">
                            <g id="Grupo_1171046" data-name="Grupo 1171046">
                              <g id="Grupo_1148525" data-name="Grupo 1148525">
                                <g transform="matrix(1, 0, 0, 1, -9, -6)" filter="url(#Trazado_982547)">
                                  <g id="Trazado_982547-2" data-name="Trazado 982547" transform="translate(9 6)" fill="#fdfbec">
                                    <path d="M 39.99999237060547 78.49998474121094 C 34.8018684387207 78.49998474121094 29.76002502441406 77.48226165771484 25.0145263671875 75.47508239746094 C 20.43014717102051 73.53604888916016 16.31264877319336 70.75984954833984 12.77639198303223 67.22359466552734 C 9.240137100219727 63.68733596801758 6.463936805725098 59.5698356628418 4.524903297424316 54.98546981811523 C 2.517725706100464 50.23995971679688 1.500003457069397 45.19811630249023 1.500003457069397 39.99999237060547 C 1.500003457069397 34.8018684387207 2.517725706100464 29.76002502441406 4.524903297424316 25.0145263671875 C 6.463936805725098 20.43014717102051 9.240137100219727 16.31264877319336 12.77639198303223 12.77639198303223 C 16.31264877319336 9.240137100219727 20.43014717102051 6.463936805725098 25.0145263671875 4.524903297424316 C 29.76002502441406 2.517725706100464 34.8018684387207 1.500003457069397 39.99999237060547 1.500003457069397 C 45.19811630249023 1.500003457069397 50.23995971679688 2.517725706100464 54.98546981811523 4.524903297424316 C 59.5698356628418 6.463936805725098 63.68733596801758 9.240137100219727 67.22359466552734 12.77639198303223 C 70.75984954833984 16.31264877319336 73.53604888916016 20.43014717102051 75.47508239746094 25.0145263671875 C 77.48226165771484 29.76002502441406 78.49998474121094 34.8018684387207 78.49998474121094 39.99999237060547 C 78.49998474121094 45.19812393188477 77.48226165771484 50.23995971679688 75.47508239746094 54.98546981811523 C 73.53604888916016 59.5698356628418 70.75984954833984 63.68733596801758 67.22359466552734 67.22359466552734 C 63.68733596801758 70.75984954833984 59.5698356628418 73.53604888916016 54.98546981811523 75.47508239746094 C 50.23995971679688 77.48226165771484 45.19812393188477 78.49998474121094 39.99999237060547 78.49998474121094 Z" stroke="none"/>
                                    <path d="M 39.99999237060547 2.999992370605469 C 35.00370025634766 2.999992370605469 30.1584587097168 3.97784423828125 25.59884643554688 5.906402587890625 C 21.19327163696289 7.769805908203125 17.23603057861328 10.43805694580078 13.83704376220703 13.83704376220703 C 10.43805694580078 17.23603057861328 7.769805908203125 21.19327163696289 5.906402587890625 25.59884643554688 C 3.97784423828125 30.1584587097168 2.999992370605469 35.00370025634766 2.999992370605469 39.99999237060547 C 2.999992370605469 44.99628448486328 3.97784423828125 49.84152603149414 5.906402587890625 54.40113830566406 C 7.769805908203125 58.80671310424805 10.43805694580078 62.76395416259766 13.83704376220703 66.16294097900391 C 17.23603057861328 69.56191253662109 21.19327163696289 72.23016357421875 25.59884643554688 74.09356689453125 C 30.1584587097168 76.02212524414062 35.00370025634766 76.99997711181641 39.99999237060547 76.99997711181641 C 44.99628448486328 76.99997711181641 49.84152603149414 76.02212524414062 54.40113830566406 74.09356689453125 C 58.80671310424805 72.23016357421875 62.76395416259766 69.56191253662109 66.16294097900391 66.16294097900391 C 69.56191253662109 62.76395416259766 72.23016357421875 58.80671310424805 74.09356689453125 54.40113830566406 C 76.02212524414062 49.84152603149414 76.99997711181641 44.99628448486328 76.99997711181641 39.99999237060547 C 76.99997711181641 35.00370025634766 76.02212524414062 30.1584587097168 74.09356689453125 25.59884643554688 C 72.23016357421875 21.19327163696289 69.56191253662109 17.23603057861328 66.16294097900391 13.83704376220703 C 62.76395416259766 10.43805694580078 58.80671310424805 7.769805908203125 54.40113830566406 5.906402587890625 C 49.84152603149414 3.97784423828125 44.99628448486328 2.999992370605469 39.99999237060547 2.999992370605469 M 39.99999237060547 -7.62939453125e-06 C 62.09137725830078 -7.62939453125e-06 79.99997711181641 17.90860748291016 79.99997711181641 39.99999237060547 C 79.99997711181641 62.09137725830078 62.09137725830078 79.99997711181641 39.99999237060547 79.99997711181641 C 17.90860748291016 79.99997711181641 -7.62939453125e-06 62.09137725830078 -7.62939453125e-06 39.99999237060547 C -7.62939453125e-06 17.90860748291016 17.90860748291016 -7.62939453125e-06 39.99999237060547 -7.62939453125e-06 Z" stroke="none" fill="#83793c"/>
                                  </g>
                                </g>
                              </g>
                            </g>
                          </g>
                        </g>
                      </g>
                    </g>
                  </g>
                </g>
              </g>
              <g id="g8115" transform="translate(15.793 15.793)">
                <g id="g8117">
                  <g id="g8119" clip-path="url(#clip-path)">
                    <g id="g8125" transform="translate(-33.259 0.709)">
                      <path id="path8127" d="M-338.457-377.826h-25.835v-25.108c5.31-7.679,37.755-5.416,25.835,25.108" transform="translate(364.292 406.667)" fill="#fbdf63"/>
                    </g>
                    <g id="g8129" transform="translate(-33.259 0.709)">
                      <path id="path8131" d="M-338.457-377.826h-.619c6.164-24.728-15.887-30.6-25.216-24.374v-.734c5.31-7.679,37.755-5.416,25.835,25.108" transform="translate(364.292 406.667)" fill="#f9d11f"/>
                    </g>
                  </g>
                </g>
                <g id="g8265">
                  <g id="g8267" clip-path="url(#clip-path)">
                    <g id="g8273" transform="translate(-33.259 51.036)">
                      <path id="path8275" d="M-338.457-377.654h-25.835v-25.1c5.31-7.676,37.755-5.413,25.835,25.1" transform="translate(364.292 406.481)" fill="#003343"/>
                    </g>
                    <g id="g8277" transform="translate(-33.259 51.036)">
                      <path id="path8279" d="M-338.457-377.654h-.619c6.164-24.717-15.887-30.585-25.216-24.362v-.734c5.31-7.676,37.755-5.413,25.835,25.1" transform="translate(364.292 406.481)" fill="#002439"/>
                    </g>
                  </g>
                </g>
                <g id="g8281">
                  <g id="g8283" clip-path="url(#clip-path)">
                    <g id="g8289" transform="translate(17.066 51.014)">
                      <path id="path8291" d="M-338.457-377.826h-25.835v-25.108c5.31-7.679,37.755-5.416,25.835,25.108" transform="translate(364.292 406.667)" fill="#ff7e50"/>
                    </g>
                    <g id="g8293" transform="translate(17.066 51.014)">
                      <path id="path8295" d="M-338.457-377.826h-.619c6.164-24.728-15.887-30.6-25.216-24.374v-.734c5.31-7.679,37.755-5.416,25.835,25.108" transform="translate(364.292 406.667)" fill="#ff6247"/>
                    </g>
                    <g id="g8297" transform="translate(2.941 54.225)">
                      <path id="path8299" d="M-233.028-131.751v15.573h-14.6c-12.2-25.649,14.6-34.273,14.6-15.573" transform="translate(250.816 141.808)" fill="#ffa68a"/>
                    </g>
                    <g id="g8301" transform="translate(2.941 54.225)">
                      <path id="path8303" d="M-233.028-131.751c-.9-16.1-20.23-9.82-14.176,15.573h-.427c-12.2-25.649,14.6-34.273,14.6-15.573" transform="translate(250.816 141.808)" fill="#ff7e50"/>
                    </g>
                  </g>
                </g>
              </g>
            </g>
          </g>
        </g>
      </g>
    </g>
    <g id="lluvia-de-ideas_5_" data-name="lluvia-de-ideas (5)" transform="translate(219.929 311.084)">
      <path id="Trazado_1055328" data-name="Trazado 1055328" d="M215.121,136.787v2.2a.791.791,0,0,0,.791.791h1.78a.791.791,0,0,0,.791-.791v-2.2a.791.791,0,0,0-.791-.791h-1.78A.791.791,0,0,0,215.121,136.787Zm0,0" transform="translate(-191.585 -121.117)" fill="#86919e"/>
      <path id="Trazado_1055329" data-name="Trazado 1055329" d="M23.673,97.584,15.042,83.27a2.059,2.059,0,0,0-2.83-.7L8.461,84.84a2.066,2.066,0,0,0-.7,2.834l8.869,14.708Zm0,0" transform="translate(-6.648 -73.272)" fill="#84eaf5"/>
      <path id="Trazado_1055330" data-name="Trazado 1055330" d="M184.615,13.9a6.424,6.424,0,1,0-8.994,5.888V21.31a1.408,1.408,0,0,0,1.408,1.408h2.324a1.408,1.408,0,0,0,1.408-1.408V19.784a6.425,6.425,0,0,0,3.855-5.888Zm0,0" transform="translate(-152.974 -6.654)" fill="#feda5f"/>
      <path id="Trazado_1055331" data-name="Trazado 1055331" d="M338.921,97.182l4.005-6.642-.055-8.267-7.339,3.814-3.954,6.556Zm0,0" transform="translate(-295.3 -73.272)" fill="#fce49d"/>
      <path id="Trazado_1055332" data-name="Trazado 1055332" d="M309.38,120.378h0l-3.08-3.251-7.545,12.533,2.781,3.762,4.416,1.036,7.742-12.877Zm0,0" transform="translate(-266.068 -104.314)" fill="#f4c84e"/>
      <path id="Trazado_1055333" data-name="Trazado 1055333" d="M339.682,160.91l7.742-12.877-4.314-1.2-6.482,10.7Zm0,0" transform="translate(-299.798 -130.764)" fill="#feda5f"/>
      <path id="Trazado_1055334" data-name="Trazado 1055334" d="M413.461,82.273l-2.621,1.362,2.641,1.625Zm0,0" transform="translate(-365.89 -73.272)" fill="#86919e"/>
      <path id="Trazado_1055335" data-name="Trazado 1055335" d="M65.217,217.3H75.875a6.3,6.3,0,0,0,.436-12.579,6.3,6.3,0,0,0-9.2-6.885,6.3,6.3,0,0,0-11.637,0,6.3,6.3,0,0,0-9.2,6.9,6.3,6.3,0,0,0,.653,12.562Zm0,0" transform="translate(-36.184 -172.732)" fill="#f0a8d0"/>
      <path id="Trazado_1055336" data-name="Trazado 1055336" d="M297.219,229.9a6.3,6.3,0,0,0-8.543-7.2,6.3,6.3,0,0,1,3.745,7.2,6.3,6.3,0,0,1-.436,12.579h4.8a6.3,6.3,0,0,0,.436-12.579Zm0,0" transform="translate(-257.092 -197.912)" fill="#ea89bf"/>
      <path id="Trazado_1055337" data-name="Trazado 1055337" d="M177.427,293.324l5.957.075-3.29,8.5,5.442.143-11.6,14.4,4.035-10.642-5.028-.063Zm0,0" transform="translate(-154.023 -261.231)" fill="#feda5f"/>
      <path id="Trazado_1055338" data-name="Trazado 1055338" d="M296.714,110.046l1.745,1.091a.818.818,0,0,0,.867-1.387l-1.745-1.09A.818.818,0,0,0,296.714,110.046Zm0,0" transform="translate(-263.916 -96.655)"/>
      <path id="Trazado_1055339" data-name="Trazado 1055339" d="M299.194,3.62a.815.815,0,0,0,.433-.124l1.745-1.091a.818.818,0,0,0-.867-1.387L298.76,2.109a.824.824,0,0,0,.434,1.512Zm0,0" transform="translate(-265.743 -0.79)"/>
      <path id="Trazado_1055340" data-name="Trazado 1055340" d="M310.219,60.568a.818.818,0,0,0,.818.818h2.181a.818.818,0,0,0,0-1.636h-2.181a.817.817,0,0,0-.818.818Zm0,0" transform="translate(-276.278 -53.213)"/>
      <path id="Trazado_1055341" data-name="Trazado 1055341" d="M136.009,108.661l-1.745,1.09a.818.818,0,0,0,.867,1.387l1.745-1.091A.818.818,0,0,0,136.009,108.661Zm0,0" transform="translate(-119.241 -96.656)"/>
      <path id="Trazado_1055342" data-name="Trazado 1055342" d="M132.261,2.4l1.745,1.09a.818.818,0,0,0,.867-1.387l-1.745-1.091a.818.818,0,0,0-.867,1.387Zm0,0" transform="translate(-117.456 -0.789)"/>
      <path id="Trazado_1055343" data-name="Trazado 1055343" d="M116.9,61.386h2.181a.818.818,0,0,0,0-1.636H116.9A.818.818,0,0,0,116.9,61.386Zm0,0" transform="translate(-103.404 -53.213)"/>
      <path id="Trazado_1055344" data-name="Trazado 1055344" d="M168.142,13.643v1.014a2.222,2.222,0,0,0,.889,1.775v2.229a.818.818,0,0,0,.818.818h3.361a.818.818,0,0,0,.818-.818V16.432a2.22,2.22,0,0,0,.889-1.775V13.643a7.249,7.249,0,0,0,3.811-7.2.818.818,0,0,0-1.626.178,5.614,5.614,0,0,1-3.331,5.754.819.819,0,0,0-.49.75v1.527a.591.591,0,0,1-.59.59h-2.324a.591.591,0,0,1-.59-.59V13.13a.817.817,0,0,0-.49-.749A5.607,5.607,0,1,1,174.67,2.6a.818.818,0,0,0,.917-1.354,7.242,7.242,0,1,0-7.445,12.4Zm2.525,4.2v-.961h1.725v.961Zm0,0" transform="translate(-146.313 0)"/>
      <path id="Trazado_1055345" data-name="Trazado 1055345" d="M44.317,90.947l0-.005L48.327,84.3a.832.832,0,0,0,.118-.428l-.055-8.267a.825.825,0,0,0-1.195-.721L39.854,78.7c-.474.247-.717.956-.971,1.377L32.77,90.211a7.122,7.122,0,0,0-1.466.417,7.118,7.118,0,0,0-12.395,0,7.146,7.146,0,0,0-1.344-.4L9.094,76.185a2.878,2.878,0,0,0-3.954-.976L1.39,77.477a2.888,2.888,0,0,0-.977,3.957l8.8,14.6a7.123,7.123,0,0,0-.064,1.911A7.117,7.117,0,0,0,10.743,112h2.479a.818.818,0,0,0,0-1.636H10.743a5.48,5.48,0,0,1-.569-10.931.825.825,0,0,0,.714-.994,5.478,5.478,0,0,1,5.343-6.7,5.62,5.62,0,0,1,4.5,2.331.818.818,0,0,0,1.3-1,8.708,8.708,0,0,0-1.68-1.657,5.481,5.481,0,0,1,9.827.611.826.826,0,0,0,1.153.4,5.48,5.48,0,0,1,8.14,4.791,5.393,5.393,0,0,1-.038.636,5.868,5.868,0,0,0-3.257,1.363.818.818,0,0,0,1.157,1.157,4.622,4.622,0,0,1,2.826-.928c2.8,0,5.021,2.778,5.021,5.432a5.486,5.486,0,0,1-5.48,5.48h-9.5l1.955-2.427a.83.83,0,0,0-.616-1.33l-4.282-.112,2.872-7.421a.826.826,0,0,0-.753-1.113l-5.957-.074a.813.813,0,0,0-.78.54L18.16,110.818a.831.831,0,0,0,.733,1.18h3.872L19.15,121.53a.823.823,0,0,0,1.4.8l8.336-10.349a.821.821,0,0,0,.146.014H39.691a7.115,7.115,0,0,0,1.374-14.1c.042-.439-.16-1.3.053-1.65ZM9.894,93.989l-8.08-13.4a1.25,1.25,0,0,1,.423-1.712l3.75-2.268a1.241,1.241,0,0,1,1.707.421l.849,1.408-1.536.929a.818.818,0,0,0,.847,1.4l1.534-.928,1.658,2.75L8.588,84.075a.818.818,0,0,0,.847,1.4l2.456-1.485,1.658,2.75-1.536.929a.818.818,0,1,0,.847,1.4l1.534-.928,1.2,2a7.126,7.126,0,0,0-5.7,3.854Zm14.82,17.479a.818.818,0,0,0-.754-1.108l-3.879-.049,3.893-10.785,4.2.053-2.865,7.4a.818.818,0,0,0,.742,1.113l3.79.1L22.5,117.3ZM34.721,90.143l2.253-3.734,0-.007,3.4-5.635,1.912,2.017-4.961,8.159a7.069,7.069,0,0,0-2.607-.8Zm9.027-8.2-2.176-2.3,3.319-1.724,1.886,1.136L46.8,82.8Zm3.016-4.8-.171-.1.17-.088Zm-8.09,14.734,5.016-8.25,2.681.748-5.938,9.845a7.155,7.155,0,0,0-1.759-2.343Zm0,0" transform="translate(0 -66.608)"/>
    </g>
  </g>
</svg>
