<svg xmlns="http://www.w3.org/2000/svg" xmlns:xlink="http://www.w3.org/1999/xlink" width="98" height="98" viewBox="0 0 98 98">
  <defs>
    <filter id="Trazado_982547" x="0" y="0" width="98" height="98" filterUnits="userSpaceOnUse">
      <feOffset dy="3" input="SourceAlpha"/>
      <feGaussianBlur stdDeviation="3" result="blur"/>
      <feFlood flood-opacity="0.161"/>
      <feComposite operator="in" in2="blur"/>
      <feComposite in="SourceGraphic"/>
    </filter>
    <clipPath id="clip-path">
      <path id="path8121" d="M0-682.665H48.414v48.414H0Z" transform="translate(0 682.665)"/>
    </clipPath>
  </defs>
  <g id="Grupo_1230147" data-name="Grupo 1230147" transform="translate(-195.151 -4456.378)">
    <g id="Grupo_1229777" data-name="Grupo 1229777" transform="translate(204.151 4462.378)">
      <g id="Grupo_1208936" data-name="Grupo 1208936" transform="translate(0 0)">
        <g id="Grupo_1208171" data-name="Grupo 1208171">
          <g id="Grupo_1207739" data-name="Grupo 1207739">
            <g id="Grupo_1207712" data-name="Grupo 1207712">
              <g id="Grupo_1207285" data-name="Grupo 1207285">
                <g id="Grupo_1206883" data-name="Grupo 1206883">
                  <g id="Grupo_1204569" data-name="Grupo 1204569">
                    <g id="Grupo_1203962" data-name="Grupo 1203962">
                      <g id="Grupo_1203498" data-name="Grupo 1203498" transform="translate(0)">
                        <g id="Grupo_1202589" data-name="Grupo 1202589">
                          <g id="Grupo_1172010" data-name="Grupo 1172010">
                            <g id="Grupo_1171046" data-name="Grupo 1171046">
                              <g id="Grupo_1148525" data-name="Grupo 1148525">
                                <g transform="matrix(1, 0, 0, 1, -9, -6)" filter="url(#Trazado_982547)">
                                  <g id="Trazado_982547-2" data-name="Trazado 982547" transform="translate(9 6)" fill="#fdfbec">
                                    <path d="M 39.99999237060547 78.49998474121094 C 34.8018684387207 78.49998474121094 29.76002502441406 77.48226165771484 25.0145263671875 75.47508239746094 C 20.43014717102051 73.53604888916016 16.31264877319336 70.75984954833984 12.77639198303223 67.22359466552734 C 9.240137100219727 63.68733596801758 6.463936805725098 59.5698356628418 4.524903297424316 54.98546981811523 C 2.517725706100464 50.23995971679688 1.500003457069397 45.19811630249023 1.500003457069397 39.99999237060547 C 1.500003457069397 34.8018684387207 2.517725706100464 29.76002502441406 4.524903297424316 25.0145263671875 C 6.463936805725098 20.43014717102051 9.240137100219727 16.31264877319336 12.77639198303223 12.77639198303223 C 16.31264877319336 9.240137100219727 20.43014717102051 6.463936805725098 25.0145263671875 4.524903297424316 C 29.76002502441406 2.517725706100464 34.8018684387207 1.500003457069397 39.99999237060547 1.500003457069397 C 45.19811630249023 1.500003457069397 50.23995971679688 2.517725706100464 54.98546981811523 4.524903297424316 C 59.5698356628418 6.463936805725098 63.68733596801758 9.240137100219727 67.22359466552734 12.77639198303223 C 70.75984954833984 16.31264877319336 73.53604888916016 20.43014717102051 75.47508239746094 25.0145263671875 C 77.48226165771484 29.76002502441406 78.49998474121094 34.8018684387207 78.49998474121094 39.99999237060547 C 78.49998474121094 45.19812393188477 77.48226165771484 50.23995971679688 75.47508239746094 54.98546981811523 C 73.53604888916016 59.5698356628418 70.75984954833984 63.68733596801758 67.22359466552734 67.22359466552734 C 63.68733596801758 70.75984954833984 59.5698356628418 73.53604888916016 54.98546981811523 75.47508239746094 C 50.23995971679688 77.48226165771484 45.19812393188477 78.49998474121094 39.99999237060547 78.49998474121094 Z" stroke="none"/>
                                    <path d="M 39.99999237060547 2.999992370605469 C 35.00370025634766 2.999992370605469 30.1584587097168 3.97784423828125 25.59884643554688 5.906402587890625 C 21.19327163696289 7.769805908203125 17.23603057861328 10.43805694580078 13.83704376220703 13.83704376220703 C 10.43805694580078 17.23603057861328 7.769805908203125 21.19327163696289 5.906402587890625 25.59884643554688 C 3.97784423828125 30.1584587097168 2.999992370605469 35.00370025634766 2.999992370605469 39.99999237060547 C 2.999992370605469 44.99628448486328 3.97784423828125 49.84152603149414 5.906402587890625 54.40113830566406 C 7.769805908203125 58.80671310424805 10.43805694580078 62.76395416259766 13.83704376220703 66.16294097900391 C 17.23603057861328 69.56191253662109 21.19327163696289 72.23016357421875 25.59884643554688 74.09356689453125 C 30.1584587097168 76.02212524414062 35.00370025634766 76.99997711181641 39.99999237060547 76.99997711181641 C 44.99628448486328 76.99997711181641 49.84152603149414 76.02212524414062 54.40113830566406 74.09356689453125 C 58.80671310424805 72.23016357421875 62.76395416259766 69.56191253662109 66.16294097900391 66.16294097900391 C 69.56191253662109 62.76395416259766 72.23016357421875 58.80671310424805 74.09356689453125 54.40113830566406 C 76.02212524414062 49.84152603149414 76.99997711181641 44.99628448486328 76.99997711181641 39.99999237060547 C 76.99997711181641 35.00370025634766 76.02212524414062 30.1584587097168 74.09356689453125 25.59884643554688 C 72.23016357421875 21.19327163696289 69.56191253662109 17.23603057861328 66.16294097900391 13.83704376220703 C 62.76395416259766 10.43805694580078 58.80671310424805 7.769805908203125 54.40113830566406 5.906402587890625 C 49.84152603149414 3.97784423828125 44.99628448486328 2.999992370605469 39.99999237060547 2.999992370605469 M 39.99999237060547 -7.62939453125e-06 C 62.09137725830078 -7.62939453125e-06 79.99997711181641 17.90860748291016 79.99997711181641 39.99999237060547 C 79.99997711181641 62.09137725830078 62.09137725830078 79.99997711181641 39.99999237060547 79.99997711181641 C 17.90860748291016 79.99997711181641 -7.62939453125e-06 62.09137725830078 -7.62939453125e-06 39.99999237060547 C -7.62939453125e-06 17.90860748291016 17.90860748291016 -7.62939453125e-06 39.99999237060547 -7.62939453125e-06 Z" stroke="none" fill="#83793c"/>
                                  </g>
                                </g>
                              </g>
                            </g>
                          </g>
                        </g>
                      </g>
                    </g>
                  </g>
                </g>
              </g>
              <g id="g8115" transform="translate(15.793 15.793)">
                <g id="g8117">
                  <g id="g8119" clip-path="url(#clip-path)">
                    <g id="g8125" transform="translate(-33.259 0.709)">
                      <path id="path8127" d="M-338.457-377.826h-25.835v-25.108c5.31-7.679,37.755-5.416,25.835,25.108" transform="translate(364.292 406.667)" fill="#fbdf63"/>
                    </g>
                    <g id="g8129" transform="translate(-33.259 0.709)">
                      <path id="path8131" d="M-338.457-377.826h-.619c6.164-24.728-15.887-30.6-25.216-24.374v-.734c5.31-7.679,37.755-5.416,25.835,25.108" transform="translate(364.292 406.667)" fill="#f9d11f"/>
                    </g>
                  </g>
                </g>
                <g id="g8265">
                  <g id="g8267" clip-path="url(#clip-path)">
                    <g id="g8273" transform="translate(-33.259 51.036)">
                      <path id="path8275" d="M-338.457-377.654h-25.835v-25.1c5.31-7.676,37.755-5.413,25.835,25.1" transform="translate(364.292 406.481)" fill="#003343"/>
                    </g>
                    <g id="g8277" transform="translate(-33.259 51.036)">
                      <path id="path8279" d="M-338.457-377.654h-.619c6.164-24.717-15.887-30.585-25.216-24.362v-.734c5.31-7.676,37.755-5.413,25.835,25.1" transform="translate(364.292 406.481)" fill="#002439"/>
                    </g>
                  </g>
                </g>
                <g id="g8281">
                  <g id="g8283" clip-path="url(#clip-path)">
                    <g id="g8289" transform="translate(17.066 51.014)">
                      <path id="path8291" d="M-338.457-377.826h-25.835v-25.108c5.31-7.679,37.755-5.416,25.835,25.108" transform="translate(364.292 406.667)" fill="#ff7e50"/>
                    </g>
                    <g id="g8293" transform="translate(17.066 51.014)">
                      <path id="path8295" d="M-338.457-377.826h-.619c6.164-24.728-15.887-30.6-25.216-24.374v-.734c5.31-7.679,37.755-5.416,25.835,25.108" transform="translate(364.292 406.667)" fill="#ff6247"/>
                    </g>
                    <g id="g8297" transform="translate(2.941 54.225)">
                      <path id="path8299" d="M-233.028-131.751v15.573h-14.6c-12.2-25.649,14.6-34.273,14.6-15.573" transform="translate(250.816 141.808)" fill="#ffa68a"/>
                    </g>
                    <g id="g8301" transform="translate(2.941 54.225)">
                      <path id="path8303" d="M-233.028-131.751c-.9-16.1-20.23-9.82-14.176,15.573h-.427c-12.2-25.649,14.6-34.273,14.6-15.573" transform="translate(250.816 141.808)" fill="#ff7e50"/>
                    </g>
                  </g>
                </g>
              </g>
            </g>
          </g>
        </g>
      </g>
    </g>
    <g id="hijo" transform="translate(216.459 4476.921)">
      <g id="Grupo_1230146" data-name="Grupo 1230146" transform="translate(2.69 0.76)">
        <g id="Grupo_1230142" data-name="Grupo 1230142" transform="translate(14.308 39.1)">
          <path id="Trazado_1055382" data-name="Trazado 1055382" d="M172.686,393.752a10.7,10.7,0,0,0-7.189,0l-6.211,5.812,3.561,4.858h12.488l3.563-4.858A10.748,10.748,0,0,0,172.686,393.752Z" transform="translate(-158.4 -393.13)" fill="#7ce3ff"/>
          <path id="Trazado_1055383" data-name="Trazado 1055383" d="M169.092,393.13a10.641,10.641,0,0,0-3.595.622,10.748,10.748,0,0,0-6.211,5.812l3.561,4.858h1.823v-.6a11.452,11.452,0,0,1,6.758-10.434A10.691,10.691,0,0,0,169.092,393.13Z" transform="translate(-158.4 -393.13)" fill="#55dafe"/>
          <g id="Grupo_1230141" data-name="Grupo 1230141" transform="translate(0 0.622)">
            <path id="Trazado_1055384" data-name="Trazado 1055384" d="M220.546,399.265a7.45,7.45,0,0,0,3.595,3.876,7.45,7.45,0,0,0,3.594-3.876Z" transform="translate(-213.448 -399.265)" fill="#ffbf9d"/>
            <path id="Trazado_1055385" data-name="Trazado 1055385" d="M154.994,459.168q-.238-.142-.474-.29a24.2,24.2,0,0,1-3.087-2.292,10.629,10.629,0,0,0-.886,4.258v.6h4.447v-2.277Z" transform="translate(-150.546 -450.775)" fill="#ffbf9d"/>
          </g>
        </g>
        <g id="Grupo_1230143" data-name="Grupo 1230143" transform="translate(0 15.045)">
          <circle id="Elipse_11556" data-name="Elipse 11556" cx="4.978" cy="4.978" r="4.978" fill="#ffbf9d"/>
          <circle id="Elipse_11557" data-name="Elipse 11557" cx="4.978" cy="4.978" r="4.978" transform="translate(40.045)" fill="#ffbf9d"/>
        </g>
        <path id="Trazado_1055386" data-name="Trazado 1055386" d="M78.548,7.5,58.526,27.523,67.5,39.791a18.142,18.142,0,0,0,14.643,7.431,20,20,0,0,0,16.429-19.7Z" transform="translate(-53.548 -7.5)" fill="#ffd4bd"/>
        <path id="Trazado_1055387" data-name="Trazado 1055387" d="M65.163,204.976H58.526a20.036,20.036,0,0,0,23.617,19.7A20.221,20.221,0,0,1,65.163,204.976Z" transform="translate(-53.548 -184.953)" fill="#ffbf9d"/>
        <g id="Grupo_1230144" data-name="Grupo 1230144" transform="translate(10.972 22.647)">
          <ellipse id="Elipse_11558" data-name="Elipse 11558" cx="3.549" cy="2.788" rx="3.549" ry="2.788" fill="#ff8e9e"/>
          <ellipse id="Elipse_11559" data-name="Elipse 11559" cx="3.549" cy="2.788" rx="3.549" ry="2.788" transform="translate(20.927)" fill="#ff8e9e"/>
        </g>
        <g id="Grupo_1230145" data-name="Grupo 1230145" transform="translate(4.978)">
          <path id="Trazado_1055388" data-name="Trazado 1055388" d="M361.734,96.613,356.615,99.2l-1.581,4.6a15.232,15.232,0,0,0,9.981,3.8A19.928,19.928,0,0,0,361.734,96.613Z" transform="translate(-324.97 -87.578)" fill="#e8b5b1"/>
          <path id="Trazado_1055389" data-name="Trazado 1055389" d="M143.635,23.707a26.527,26.527,0,0,1-4.084,2.186,20.054,20.054,0,0,0-2.74-1.76L112.9,28.018,117.063,40.9a1.318,1.318,0,0,0,1.255.913l7.239,0a22.127,22.127,0,0,0,20.786-16.12,1.791,1.791,0,0,0-2.709-1.985Z" transform="translate(-107.387 -21.794)" fill="#d6948c"/>
          <path id="Trazado_1055390" data-name="Trazado 1055390" d="M81.867,7.774a20.059,20.059,0,0,0-17.828,5.951,19.954,19.954,0,0,0-5.513,13.8H69.457a5.466,5.466,0,0,1-.664-4.456A16.9,16.9,0,0,1,82.368,10.774L87.95,9.84a19.868,19.868,0,0,0-6.083-2.066Z" transform="translate(-58.526 -7.5)" fill="#ce857a"/>
        </g>
        <path id="Trazado_1055391" data-name="Trazado 1055391" d="M321.139,456.586a24.325,24.325,0,0,1-3.563,2.582v2.276h4.449v-.6A10.627,10.627,0,0,0,321.139,456.586Z" transform="translate(-286.332 -411.052)" fill="#ffd4bd"/>
      </g>
      <path id="Trazado_1055392" data-name="Trazado 1055392" d="M179.26,222.981a.76.76,0,0,0-.76.76v1.364a.76.76,0,1,0,1.521,0v-1.364A.76.76,0,0,0,179.26,222.981Z" transform="translate(-158.667 -200.372)"/>
      <path id="Trazado_1055393" data-name="Trazado 1055393" d="M319.26,222.981a.76.76,0,0,0-.76.76v1.364a.76.76,0,1,0,1.521,0v-1.364A.76.76,0,0,0,319.26,222.981Z" transform="translate(-284.472 -200.372)"/>
      <path id="Trazado_1055394" data-name="Trazado 1055394" d="M235.047,236.218a.761.761,0,0,0-1.073.074,1.72,1.72,0,0,1-2.6,0,.76.76,0,1,0-1.147,1,3.242,3.242,0,0,0,4.889,0A.761.761,0,0,0,235.047,236.218Z" transform="translate(-204.985 -212.099)"/>
      <path id="Trazado_1055395" data-name="Trazado 1055395" d="M47.671,15.048a20.663,20.663,0,0,0-2.355-5.281,22.992,22.992,0,0,0,2.036-4.883A2.555,2.555,0,0,0,43.5,2.038a25.729,25.729,0,0,1-3.568,1.949A20.786,20.786,0,0,0,14.06,5.094a.76.76,0,1,0,1,1.148A19.267,19.267,0,0,1,38.248,4.67a25.691,25.691,0,0,1-8.326,1.551.76.76,0,1,0,.029,1.521A27.193,27.193,0,0,0,44.332,3.311,1.033,1.033,0,0,1,45.89,4.466,21.244,21.244,0,0,1,25.832,20.018l-17.387,0A19.269,19.269,0,0,1,13,8.321a.76.76,0,0,0-1.159-.985,20.765,20.765,0,0,0-4.127,7.711A5.736,5.736,0,1,0,7.671,26.52h.042a20.869,20.869,0,0,0,14.116,14.2,11.505,11.505,0,0,0-5.591,9.832v.6a.76.76,0,0,0,.76.76H38.383a.76.76,0,0,0,.76-.76v-.6a11.353,11.353,0,0,0-1.92-6.326.76.76,0,0,0-1.264.845,9.955,9.955,0,0,1,.6,1.024,23.816,23.816,0,0,1-3.011,2.126.761.761,0,0,0-.371.653v1.516H22.207V48.876a.76.76,0,0,0-.371-.653A23.829,23.829,0,0,1,18.825,46.1,10.146,10.146,0,0,1,23.7,41.46a8.432,8.432,0,0,0,3.632,3.569.76.76,0,0,0,.717,0,8.437,8.437,0,0,0,3.621-3.55,9.9,9.9,0,0,1,2.409,1.5.76.76,0,1,0,.979-1.164,11.476,11.476,0,0,0-1.526-1.082,20.869,20.869,0,0,0,14.137-14.21h.042a5.736,5.736,0,1,0-.04-11.473ZM7.336,24.988a4.218,4.218,0,0,1,0-8.409,20.775,20.775,0,0,0-.431,4.2h0A20.8,20.8,0,0,0,7.336,24.988ZM34.695,49.305a25.521,25.521,0,0,0,2.466-1.738,9.79,9.79,0,0,1,.461,2.825H34.695Zm-14.009,0v1.088H17.761a9.786,9.786,0,0,1,.461-2.825A25.519,25.519,0,0,0,20.686,49.3ZM44.423,11.236A19.167,19.167,0,0,1,46.937,20a14.405,14.405,0,0,1-7.954-2.972A23.1,23.1,0,0,0,44.423,11.236ZM27.691,43.486a7.087,7.087,0,0,1-2.232-2.04,20.793,20.793,0,0,0,4.463,0,7.081,7.081,0,0,1-2.231,2.04Zm0-3.441a19.285,19.285,0,0,1-19.246-18.5l17.394,0h.014a22.419,22.419,0,0,0,11.827-3.6,15.943,15.943,0,0,0,9.257,3.588A19.285,19.285,0,0,1,27.691,40.045Zm20.356-15.06a20.9,20.9,0,0,0,0-8.406,4.216,4.216,0,0,1,0,8.406Z"/>
    </g>
  </g>
</svg>
