<svg xmlns="http://www.w3.org/2000/svg" xmlns:xlink="http://www.w3.org/1999/xlink" width="108" height="108" viewBox="0 0 108 108">
  <defs>
    <filter id="Trazado_904820" x="0" y="0" width="108" height="108" filterUnits="userSpaceOnUse">
      <feOffset dy="3" input="SourceAlpha"/>
      <feGaussianBlur stdDeviation="3" result="blur"/>
      <feFlood flood-opacity="0.161"/>
      <feComposite operator="in" in2="blur"/>
      <feComposite in="SourceGraphic"/>
    </filter>
  </defs>
  <g id="Grupo_1230206" data-name="Grupo 1230206" transform="translate(-200.522 -5723.875)">
    <g id="Grupo_1229779" data-name="Grupo 1229779" transform="translate(209.522 5729.875)">
      <g id="Grupo_1208347" data-name="Grupo 1208347" transform="translate(0 0)">
        <g id="Grupo_1207936" data-name="Grupo 1207936">
          <g id="Grupo_1201662" data-name="Grupo 1201662">
            <g id="Grupo_1173585" data-name="Grupo 1173585">
              <g id="Grupo_1173428" data-name="Grupo 1173428">
                <g id="Grupo_1171958" data-name="Grupo 1171958">
                  <g id="Grupo_1167341" data-name="Grupo 1167341">
                    <g id="Grupo_1166792" data-name="Grupo 1166792">
                      <g transform="matrix(1, 0, 0, 1, -9, -6)" filter="url(#Trazado_904820)">
                        <g id="Trazado_904820-2" data-name="Trazado 904820" transform="translate(9 6)" fill="#edf3fc">
                          <path d="M 44.99999618530273 88.49999237060547 C 39.12687301635742 88.49999237060547 33.43022155761719 87.35006713867188 28.06829643249512 85.08216857910156 C 22.88852119445801 82.89130401611328 18.23629570007324 79.75457763671875 14.24084663391113 75.75914001464844 C 10.24540901184082 71.76369476318359 7.108683586120605 67.11146545410156 4.917821407318115 61.93169403076172 C 2.649921178817749 56.56976699829102 1.499996185302734 50.87311553955078 1.499996185302734 44.99999237060547 C 1.499996185302734 39.12686920166016 2.649921178817749 33.43021774291992 4.917821407318115 28.06829261779785 C 7.108683586120605 22.88851737976074 10.24540901184082 18.23630523681641 14.24084663391113 14.24085521697998 C 18.23629570007324 10.24540519714355 22.88852119445801 7.108692169189453 28.06829643249512 4.917829990386963 C 33.43022155761719 2.649929761886597 39.12687301635742 1.500004887580872 44.99999618530273 1.500004887580872 C 50.87311935424805 1.500004887580872 56.56977081298828 2.649929761886597 61.93169784545898 4.917829990386963 C 67.11147308349609 7.108692169189453 71.76369476318359 10.24540519714355 75.75914764404297 14.24085521697998 C 79.75458526611328 18.23630523681641 82.89131164550781 22.88851737976074 85.08216857910156 28.06829261779785 C 87.35007476806641 33.43021774291992 88.5 39.12686920166016 88.5 44.99999237060547 C 88.5 50.87311553955078 87.35007476806641 56.56976699829102 85.08216857910156 61.93169403076172 C 82.89131164550781 67.11146545410156 79.75458526611328 71.76369476318359 75.75914764404297 75.75914001464844 C 71.76369476318359 79.75457763671875 67.11147308349609 82.89130401611328 61.93169784545898 85.08216857910156 C 56.56977081298828 87.35006713867188 50.87311935424805 88.49999237060547 44.99999618530273 88.49999237060547 Z" stroke="none"/>
                          <path d="M 44.99999618530273 2.999992370605469 C 39.32870864868164 2.999992370605469 33.82865142822266 4.11004638671875 28.65262603759766 6.299331665039062 C 23.65165710449219 8.414566040039062 19.15968322753906 11.44333648681641 15.301513671875 15.30150604248047 C 11.44333648681641 19.15967559814453 8.414566040039062 23.65164947509766 6.299339294433594 28.65262222290039 C 4.110054016113281 33.82864761352539 2.999992370605469 39.32870483398438 2.999992370605469 44.99999237060547 C 2.999992370605469 50.67127990722656 4.110054016113281 56.17132186889648 6.299339294433594 61.34736633300781 C 8.414566040039062 66.34833526611328 11.44333648681641 70.84029388427734 15.301513671875 74.69846343994141 C 19.15968322753906 78.55663299560547 23.65165710449219 81.58540344238281 28.65262603759766 83.70063781738281 C 33.82865142822266 85.88992309570312 39.32870864868164 86.99997711181641 44.99999618530273 86.99997711181641 C 50.67128372192383 86.99997711181641 56.17134094238281 85.88992309570312 61.34736633300781 83.70063781738281 C 66.34834289550781 81.58540344238281 70.84030914306641 78.55663299560547 74.69847869873047 74.69846343994141 C 78.55665588378906 70.84029388427734 81.58542633056641 66.34833526611328 83.70065307617188 61.34736633300781 C 85.88993835449219 56.17132186889648 87 50.67127990722656 87 44.99999237060547 C 87 39.32870483398438 85.88993835449219 33.82864761352539 83.70065307617188 28.65262222290039 C 81.58542633056641 23.65164947509766 78.55665588378906 19.15967559814453 74.69847869873047 15.30150604248047 C 70.84030914306641 11.44333648681641 66.34834289550781 8.414566040039062 61.34736633300781 6.299331665039062 C 56.17134094238281 4.11004638671875 50.67128372192383 2.999992370605469 44.99999618530273 2.999992370605469 M 44.99999618530273 -7.62939453125e-06 C 69.85281372070312 -7.62939453125e-06 90 20.14717864990234 90 44.99999237060547 C 90 69.85279083251953 69.85281372070312 89.99997711181641 44.99999618530273 89.99997711181641 C 20.14717864990234 89.99997711181641 -7.62939453125e-06 69.85279083251953 -7.62939453125e-06 44.99999237060547 C -7.62939453125e-06 20.14717864990234 20.14717864990234 -7.62939453125e-06 44.99999618530273 -7.62939453125e-06 Z" stroke="none" fill="#5692e8"/>
                        </g>
                      </g>
                    </g>
                  </g>
                </g>
              </g>
            </g>
          </g>
        </g>
      </g>
    </g>
    <g id="graduation_cap-world-globe-book-education" data-name="graduation cap-world-globe-book-education" transform="translate(225.723 5743)">
      <path id="Trazado_1055474" data-name="Trazado 1055474" d="M28.906,3,3,14.613l25.906,13.4,25.906-13.4Z" transform="translate(-0.107 -0.107)" fill="#4a80aa"/>
      <path id="Trazado_1055475" data-name="Trazado 1055475" d="M54.286,56.034a1.746,1.746,0,0,1,.527,1.26,1.792,1.792,0,0,1-1.787,1.787H11.04a8.04,8.04,0,1,1,0-16.08H53.026a1.787,1.787,0,0,1,0,3.573h-.893v8.933h.893A1.746,1.746,0,0,1,54.286,56.034Z" transform="translate(-0.107 -4.374)" fill="#7e543b"/>
      <path id="Trazado_1055476" data-name="Trazado 1055476" d="M52.773,47v8.933H13.467a4.467,4.467,0,1,1,0-8.933Z" transform="translate(-0.747 -4.8)" fill="#e9e9ea"/>
      <ellipse id="Elipse_11560" data-name="Elipse 11560" cx="15" cy="15.5" rx="15" ry="15.5" transform="translate(14 8)" fill="#5bcbfa"/>
      <g id="Grupo_1230205" data-name="Grupo 1230205" transform="translate(13.613 8.253)">
        <path id="Trazado_1055477" data-name="Trazado 1055477" d="M45.624,18.749a15.162,15.162,0,0,1-2.26,16.071l-3.538-.884-2.68,1.787H33.573v-2.68L30,31.256l.893-5.36,2.68-1.787,4.467-1.787,2.68-2.68,3.743-2.993a13.348,13.348,0,0,1,1.161,2.1Z" transform="translate(-16.6 -9.816)" fill="#6fc991"/>
        <path id="Trazado_1055478" data-name="Trazado 1055478" d="M40.138,12.2,37.976,14.36l-2.68.893-1.787,2.68-5.36-.893-3.573-1.787L21.03,12.591A15.156,15.156,0,0,1,40.138,12.2Z" transform="translate(-15.643 -9)" fill="#6fc991"/>
        <path id="Trazado_1055479" data-name="Trazado 1055479" d="M26.613,21.893l.893,3.573-1.787.893-3.573,3.573v8.415A15.157,15.157,0,0,1,15,25.467a15,15,0,0,1,.572-4.127l3.895.554L23.04,21Z" transform="translate(-15 -10.28)" fill="#6fc991"/>
      </g>
      <path id="Trazado_1055480" data-name="Trazado 1055480" d="M50.36,51v3.573l-2.68-1.787L45,54.573V51Z" transform="translate(-4.587 -5.227)" fill="#f6cc4f"/>
      <path id="Trazado_1055481" data-name="Trazado 1055481" d="M6.68,24a2.68,2.68,0,0,1,2.68,2.68v2.68H4V26.68A2.68,2.68,0,0,1,6.68,24Z" transform="translate(-0.213 -2.347)" fill="#e28086"/>
      <path id="Trazado_1055482" data-name="Trazado 1055482" d="M55.6,40.413a2.688,2.688,0,0,0-2.68-2.68H36.134A16.089,16.089,0,0,0,44.879,23.44a15.626,15.626,0,0,0-.232-2.6l10.479-5.548a.893.893,0,0,0-.054-1.6L29.166,2.08a.875.875,0,0,0-.733,0L2.527,13.694a.893.893,0,0,0-.054,1.6l3.1,1.644v3.948a3.573,3.573,0,0,0-2.68,3.448v2.68a.893.893,0,0,0,.893.893h5.36a.893.893,0,0,0,.893-.893v-2.68a3.573,3.573,0,0,0-2.68-3.448v-3l5.592,2.957a15.627,15.627,0,0,0-.232,2.6,16.089,16.089,0,0,0,8.746,14.293H10.933a8.933,8.933,0,0,0,0,17.866H52.919a2.68,2.68,0,1,0,0-5.36V43.093a2.688,2.688,0,0,0,2.68-2.68Zm-26.8-2.68a14.256,14.256,0,0,1-7.147-1.93V28.273l3.207-3.207,1.662-.831a.893.893,0,0,0,.465-1.009l-.893-3.573A.893.893,0,0,0,25.441,19l-3.573-.893a.871.871,0,0,0-.429,0l-3.4.849-2.662-.375a14.312,14.312,0,0,1,3.689-5.574l2.948,2.215a.536.536,0,0,0,.134.08l3.573,1.787a.893.893,0,0,0,.259.089l5.36.893a.768.768,0,0,0,.143.009.879.879,0,0,0,.741-.4l1.617-2.421,2.394-.8a.945.945,0,0,0,.348-.214l1.581-1.581a13.946,13.946,0,0,1,2.09,2.26l-3.073,2.457c-.027.018-.054.045-.08.063L34.553,20l-4.3,1.715a.686.686,0,0,0-.161.089l-2.68,1.787a.9.9,0,0,0-.393.6l-.893,5.36a.887.887,0,0,0,.482.938l3.082,1.545V34.16a.893.893,0,0,0,.893.893H34.16a.864.864,0,0,0,.491-.152l2.358-1.563,1.662.411A14.209,14.209,0,0,1,28.8,37.733ZM20.483,11.844a14.208,14.208,0,0,1,16.25-.286l-1.269,1.277-2.483.822a.859.859,0,0,0-.456.357l-1.465,2.2L26.4,15.436,23.02,13.747Zm19.546,20.4-2.975-.741a.86.86,0,0,0-.706.125l-2.457,1.635H31.48V31.48a.873.873,0,0,0-.491-.8L28,29.193l.724-4.333,2.278-1.519,4.377-1.751a.987.987,0,0,0,.3-.2l2.644-2.644,2.9-2.332A14.194,14.194,0,0,1,40.029,32.248ZM8.253,24.333V26.12H4.68V24.333a1.787,1.787,0,1,1,3.573,0ZM4.93,14.569,28.8,3.876l23.87,10.693-8.415,4.467a16.066,16.066,0,0,0-30.909,0Zm15.2,12.7a.923.923,0,0,0-.259.634v6.673a14.265,14.265,0,0,1-5.36-11.14,13.922,13.922,0,0,1,.357-3.127l3.091.438c.116-.009.223-.009.339-.018l3.359-.84,2.841.706.59,2.358-1.152.581c-.071.054-.152.107-.232.161ZM12.72,41.306a5.36,5.36,0,1,0,0,10.72h40.2a.893.893,0,1,1,0,1.787H10.933a7.147,7.147,0,1,1,0-14.293H52.919a.893.893,0,0,1,0,1.787Zm38.413,1.787v7.147H12.72a3.573,3.573,0,1,1,0-7.147Z"/>
      <path id="Trazado_1055483" data-name="Trazado 1055483" d="M14,50v1.787H40.8v2.68a.892.892,0,0,0,1.385.741l2.189-1.456,2.189,1.456a.893.893,0,0,0,1.385-.741v-2.68h2.68V50Zm32.16,2.8-1.3-.858a.871.871,0,0,0-.983,0l-1.3.858V51.787H46.16Z" transform="translate(-1.28 -5.121)"/>
    </g>
  </g>
</svg>
