<svg xmlns="http://www.w3.org/2000/svg" xmlns:xlink="http://www.w3.org/1999/xlink" width="98" height="98" viewBox="0 0 98 98">
  <defs>
    <filter id="Trazado_982547" x="0" y="0" width="98" height="98" filterUnits="userSpaceOnUse">
      <feOffset dy="3" input="SourceAlpha"/>
      <feGaussianBlur stdDeviation="3" result="blur"/>
      <feFlood flood-opacity="0.161"/>
      <feComposite operator="in" in2="blur"/>
      <feComposite in="SourceGraphic"/>
    </filter>
    <clipPath id="clip-path">
      <path id="path8121" d="M0-682.665H48.414v48.414H0Z" transform="translate(0 682.665)"/>
    </clipPath>
  </defs>
  <g id="Grupo_1230135" data-name="Grupo 1230135" transform="translate(-195.151 -1823.593)">
    <g id="Grupo_1229774" data-name="Grupo 1229774" transform="translate(204.151 1829.593)">
      <g id="Grupo_1208936" data-name="Grupo 1208936" transform="translate(0)">
        <g id="Grupo_1208171" data-name="Grupo 1208171">
          <g id="Grupo_1207739" data-name="Grupo 1207739">
            <g id="Grupo_1207712" data-name="Grupo 1207712">
              <g id="Grupo_1207285" data-name="Grupo 1207285">
                <g id="Grupo_1206883" data-name="Grupo 1206883">
                  <g id="Grupo_1204569" data-name="Grupo 1204569">
                    <g id="Grupo_1203962" data-name="Grupo 1203962">
                      <g id="Grupo_1203498" data-name="Grupo 1203498">
                        <g id="Grupo_1202589" data-name="Grupo 1202589">
                          <g id="Grupo_1172010" data-name="Grupo 1172010">
                            <g id="Grupo_1171046" data-name="Grupo 1171046">
                              <g id="Grupo_1148525" data-name="Grupo 1148525">
                                <g transform="matrix(1, 0, 0, 1, -9, -6)" filter="url(#Trazado_982547)">
                                  <g id="Trazado_982547-2" data-name="Trazado 982547" transform="translate(9 6)" fill="#fdfbec">
                                    <path d="M 39.99999237060547 78.49998474121094 C 34.8018684387207 78.49998474121094 29.76002502441406 77.48226165771484 25.0145263671875 75.47508239746094 C 20.43014717102051 73.53604888916016 16.31264877319336 70.75984954833984 12.77639198303223 67.22359466552734 C 9.240137100219727 63.68733596801758 6.463936805725098 59.5698356628418 4.524903297424316 54.98546981811523 C 2.517725706100464 50.23995971679688 1.500003457069397 45.19811630249023 1.500003457069397 39.99999237060547 C 1.500003457069397 34.8018684387207 2.517725706100464 29.76002502441406 4.524903297424316 25.0145263671875 C 6.463936805725098 20.43014717102051 9.240137100219727 16.31264877319336 12.77639198303223 12.77639198303223 C 16.31264877319336 9.240137100219727 20.43014717102051 6.463936805725098 25.0145263671875 4.524903297424316 C 29.76002502441406 2.517725706100464 34.8018684387207 1.500003457069397 39.99999237060547 1.500003457069397 C 45.19811630249023 1.500003457069397 50.23995971679688 2.517725706100464 54.98546981811523 4.524903297424316 C 59.5698356628418 6.463936805725098 63.68733596801758 9.240137100219727 67.22359466552734 12.77639198303223 C 70.75984954833984 16.31264877319336 73.53604888916016 20.43014717102051 75.47508239746094 25.0145263671875 C 77.48226165771484 29.76002502441406 78.49998474121094 34.8018684387207 78.49998474121094 39.99999237060547 C 78.49998474121094 45.19812393188477 77.48226165771484 50.23995971679688 75.47508239746094 54.98546981811523 C 73.53604888916016 59.5698356628418 70.75984954833984 63.68733596801758 67.22359466552734 67.22359466552734 C 63.68733596801758 70.75984954833984 59.5698356628418 73.53604888916016 54.98546981811523 75.47508239746094 C 50.23995971679688 77.48226165771484 45.19812393188477 78.49998474121094 39.99999237060547 78.49998474121094 Z" stroke="none"/>
                                    <path d="M 39.99999237060547 2.999992370605469 C 35.00370025634766 2.999992370605469 30.1584587097168 3.97784423828125 25.59884643554688 5.906402587890625 C 21.19327163696289 7.769805908203125 17.23603057861328 10.43805694580078 13.83704376220703 13.83704376220703 C 10.43805694580078 17.23603057861328 7.769805908203125 21.19327163696289 5.906402587890625 25.59884643554688 C 3.97784423828125 30.1584587097168 2.999992370605469 35.00370025634766 2.999992370605469 39.99999237060547 C 2.999992370605469 44.99628448486328 3.97784423828125 49.84152603149414 5.906402587890625 54.40113830566406 C 7.769805908203125 58.80671310424805 10.43805694580078 62.76395416259766 13.83704376220703 66.16294097900391 C 17.23603057861328 69.56191253662109 21.19327163696289 72.23016357421875 25.59884643554688 74.09356689453125 C 30.1584587097168 76.02212524414062 35.00370025634766 76.99997711181641 39.99999237060547 76.99997711181641 C 44.99628448486328 76.99997711181641 49.84152603149414 76.02212524414062 54.40113830566406 74.09356689453125 C 58.80671310424805 72.23016357421875 62.76395416259766 69.56191253662109 66.16294097900391 66.16294097900391 C 69.56191253662109 62.76395416259766 72.23016357421875 58.80671310424805 74.09356689453125 54.40113830566406 C 76.02212524414062 49.84152603149414 76.99997711181641 44.99628448486328 76.99997711181641 39.99999237060547 C 76.99997711181641 35.00370025634766 76.02212524414062 30.1584587097168 74.09356689453125 25.59884643554688 C 72.23016357421875 21.19327163696289 69.56191253662109 17.23603057861328 66.16294097900391 13.83704376220703 C 62.76395416259766 10.43805694580078 58.80671310424805 7.769805908203125 54.40113830566406 5.906402587890625 C 49.84152603149414 3.97784423828125 44.99628448486328 2.999992370605469 39.99999237060547 2.999992370605469 M 39.99999237060547 -7.62939453125e-06 C 62.09137725830078 -7.62939453125e-06 79.99997711181641 17.90860748291016 79.99997711181641 39.99999237060547 C 79.99997711181641 62.09137725830078 62.09137725830078 79.99997711181641 39.99999237060547 79.99997711181641 C 17.90860748291016 79.99997711181641 -7.62939453125e-06 62.09137725830078 -7.62939453125e-06 39.99999237060547 C -7.62939453125e-06 17.90860748291016 17.90860748291016 -7.62939453125e-06 39.99999237060547 -7.62939453125e-06 Z" stroke="none" fill="#83793c"/>
                                  </g>
                                </g>
                              </g>
                            </g>
                          </g>
                        </g>
                      </g>
                    </g>
                  </g>
                </g>
              </g>
              <g id="g8115" transform="translate(15.793 15.793)">
                <g id="g8117">
                  <g id="g8119" clip-path="url(#clip-path)">
                    <g id="g8125" transform="translate(-33.259 0.709)">
                      <path id="path8127" d="M-338.457-377.826h-25.835v-25.108c5.31-7.679,37.755-5.416,25.835,25.108" transform="translate(364.292 406.667)" fill="#fbdf63"/>
                    </g>
                    <g id="g8129" transform="translate(-33.259 0.709)">
                      <path id="path8131" d="M-338.457-377.826h-.619c6.164-24.728-15.887-30.6-25.216-24.374v-.734c5.31-7.679,37.755-5.416,25.835,25.108" transform="translate(364.292 406.667)" fill="#f9d11f"/>
                    </g>
                  </g>
                </g>
                <g id="g8265">
                  <g id="g8267" clip-path="url(#clip-path)">
                    <g id="g8273" transform="translate(-33.259 51.036)">
                      <path id="path8275" d="M-338.457-377.654h-25.835v-25.1c5.31-7.676,37.755-5.413,25.835,25.1" transform="translate(364.292 406.481)" fill="#003343"/>
                    </g>
                    <g id="g8277" transform="translate(-33.259 51.036)">
                      <path id="path8279" d="M-338.457-377.654h-.619c6.164-24.717-15.887-30.585-25.216-24.362v-.734c5.31-7.676,37.755-5.413,25.835,25.1" transform="translate(364.292 406.481)" fill="#002439"/>
                    </g>
                  </g>
                </g>
                <g id="g8281">
                  <g id="g8283" clip-path="url(#clip-path)">
                    <g id="g8289" transform="translate(17.066 51.014)">
                      <path id="path8291" d="M-338.457-377.826h-25.835v-25.108c5.31-7.679,37.755-5.416,25.835,25.108" transform="translate(364.292 406.667)" fill="#ff7e50"/>
                    </g>
                    <g id="g8293" transform="translate(17.066 51.014)">
                      <path id="path8295" d="M-338.457-377.826h-.619c6.164-24.728-15.887-30.6-25.216-24.374v-.734c5.31-7.679,37.755-5.416,25.835,25.108" transform="translate(364.292 406.667)" fill="#ff6247"/>
                    </g>
                    <g id="g8297" transform="translate(2.941 54.225)">
                      <path id="path8299" d="M-233.028-131.751v15.573h-14.6c-12.2-25.649,14.6-34.273,14.6-15.573" transform="translate(250.816 141.808)" fill="#ffa68a"/>
                    </g>
                    <g id="g8301" transform="translate(2.941 54.225)">
                      <path id="path8303" d="M-233.028-131.751c-.9-16.1-20.23-9.82-14.176,15.573h-.427c-12.2-25.649,14.6-34.273,14.6-15.573" transform="translate(250.816 141.808)" fill="#ff7e50"/>
                    </g>
                  </g>
                </g>
              </g>
            </g>
          </g>
        </g>
      </g>
    </g>
    <g id="idea-creativa_2_" data-name="idea-creativa (2)" transform="translate(219.016 1843.323)">
      <g id="Grupo_1230126" data-name="Grupo 1230126" transform="translate(11.141 8.631)">
        <g id="Grupo_1230125" data-name="Grupo 1230125">
          <path id="Trazado_1055346" data-name="Trazado 1055346" d="M41.909,33.826a13.975,13.975,0,0,1-12.234,5.24,8.985,8.985,0,0,0-7.218,2.5l-.045.045-7.967-7.967.047-.047A8.924,8.924,0,0,0,17,26.419a14,14,0,1,1,24.913,7.406Z" transform="translate(-14.446 -11.119)" fill="#ffd542"/>
        </g>
      </g>
      <g id="Grupo_1230127" data-name="Grupo 1230127" transform="translate(7.544 29.583)">
        <path id="Trazado_1055347" data-name="Trazado 1055347" d="M20.767,51.557l1.693-1.693a1.211,1.211,0,0,0,0-1.712l-8.9-8.9a1.211,1.211,0,0,0-1.712,0l-1.693,1.693a1.641,1.641,0,0,0,0,2.321l8.289,8.289a1.641,1.641,0,0,0,2.321,0Z" transform="translate(-9.676 -38.899)" fill="#0e4a77"/>
      </g>
      <g id="Grupo_1230128" data-name="Grupo 1230128" transform="translate(1.731 34.292)">
        <path id="Trazado_1055348" data-name="Trazado 1055348" d="M16.217,52.751l-4.909,4.909L3.153,59.37a.981.981,0,0,1-1.162-1.162L3.7,50.053,8.61,45.144Z" transform="translate(-1.97 -45.144)" fill="#f34c6e"/>
      </g>
      <g id="Grupo_1230129" data-name="Grupo 1230129" transform="translate(6.056 36.886)">
        <path id="Trazado_1055349" data-name="Trazado 1055349" d="M0,0H6.939V3.4H0Z" transform="translate(0 4.906) rotate(-45)" fill="#f34c6e"/>
      </g>
      <g id="Grupo_1230131" data-name="Grupo 1230131" transform="translate(1.728 39.277)">
        <g id="Grupo_1230130" data-name="Grupo 1230130">
          <path id="Trazado_1055350" data-name="Trazado 1055350" d="M11.231,59.3,5.911,60.42,3.153,61a.992.992,0,0,1-1.166-1.166l.578-2.759,1.121-5.32Z" transform="translate(-1.966 -51.754)" fill="#ffd542"/>
        </g>
      </g>
      <g id="Grupo_1230133" data-name="Grupo 1230133" transform="translate(1.728 44.597)">
        <g id="Grupo_1230132" data-name="Grupo 1230132">
          <path id="Trazado_1055351" data-name="Trazado 1055351" d="M5.911,62.154l-2.759.578a.992.992,0,0,1-1.166-1.166l.578-2.759a3.661,3.661,0,0,1,3.347,3.347Z" transform="translate(-1.966 -58.807)" fill="#073d6f"/>
        </g>
      </g>
      <g id="Grupo_1230134" data-name="Grupo 1230134" transform="translate(1 0.996)">
        <path id="Trazado_1055352" data-name="Trazado 1055352" d="M54.026,48.731a.731.731,0,0,0-1.034,1.034l1.915,1.915a.731.731,0,1,0,1.034-1.034Z" transform="translate(-13.727 -12.677)" fill="#003"/>
        <path id="Trazado_1055353" data-name="Trazado 1055353" d="M54.907,8.955l-1.915,1.915A.731.731,0,1,0,54.026,11.9L55.941,9.99a.731.731,0,1,0-1.034-1.034Z" transform="translate(-13.727 -2.9)" fill="#003"/>
        <path id="Trazado_1055354" data-name="Trazado 1055354" d="M41.516,5.051a.73.73,0,0,0,.9-.517l.7-2.616A.731.731,0,1,0,41.7,1.539L41,4.155a.731.731,0,0,0,.517.9Z" transform="translate(-10.826 -0.996)" fill="#003"/>
        <path id="Trazado_1055355" data-name="Trazado 1055355" d="M27.141,4.534a.731.731,0,0,0,1.413-.379l-.7-2.616a.731.731,0,1,0-1.413.379Z" transform="translate(-7.247 -0.996)" fill="#003"/>
        <path id="Trazado_1055356" data-name="Trazado 1055356" d="M15.131,11.9a.731.731,0,1,0,1.034-1.034L14.25,8.955A.731.731,0,0,0,13.216,9.99Z" transform="translate(-3.95 -2.9)" fill="#003"/>
        <path id="Trazado_1055357" data-name="Trazado 1055357" d="M5.8,23.592l2.616.7a.731.731,0,1,0,.379-1.413l-2.616-.7A.731.731,0,0,0,5.8,23.592Z" transform="translate(-2.047 -6.197)" fill="#003"/>
        <path id="Trazado_1055358" data-name="Trazado 1055358" d="M42.412,55.873A.731.731,0,1,0,41,56.252l.7,2.616a.731.731,0,1,0,1.413-.379Z" transform="translate(-10.826 -14.352)" fill="#003"/>
        <path id="Trazado_1055359" data-name="Trazado 1055359" d="M63.128,37.439l-2.616-.7a.731.731,0,1,0-.379,1.413l2.616.7a.731.731,0,0,0,.379-1.413Z" transform="translate(-15.402 -9.776)" fill="#003"/>
        <path id="Trazado_1055360" data-name="Trazado 1055360" d="M60.323,24.318a.729.729,0,0,0,.19-.025l2.616-.7a.731.731,0,0,0-.379-1.413l-2.616.7a.732.732,0,0,0,.189,1.438Z" transform="translate(-15.402 -6.197)" fill="#003"/>
        <path id="Trazado_1055361" data-name="Trazado 1055361" d="M41.583,26.277a.735.735,0,0,0-.834.614A13.25,13.25,0,0,1,26.434,38.1,9.836,9.836,0,0,0,20,39.721l-1.88-1.88,8.427-8.427,1.339,1.339a3.355,3.355,0,0,0,4.74,0,3.357,3.357,0,0,0-4.747-4.747l-1.331,1.339-1.375-1.368,1.339-1.339a3.357,3.357,0,1,0-4.747-.007L23.1,25.977,14.68,34.4l-1.873-1.865a9.713,9.713,0,0,0,1.609-6.415,13.271,13.271,0,0,1,26.355-3.094.731.731,0,1,0,1.448-.2,14.733,14.733,0,0,0-29.259,3.423,8.3,8.3,0,0,1-1.244,5.23,1.954,1.954,0,0,0-2.516.19l-1.7,1.7a2.366,2.366,0,0,0-.154,3.16l-4.4,4.411a.692.692,0,0,0-.2.366l-.3,1.426L1.03,49.457a1.72,1.72,0,0,0,.1.98,1.724,1.724,0,0,0,.929.958,1.815,1.815,0,0,0,.658.124,1.871,1.871,0,0,0,.344-.029l6.854-1.448,1.3-.271a.72.72,0,0,0,.366-.2l4.4-4.4a2.381,2.381,0,0,0,1.485.534,2.351,2.351,0,0,0,1.675-.695l1.7-1.7a1.947,1.947,0,0,0,.176-2.531A8.456,8.456,0,0,1,26.3,39.553,14.717,14.717,0,0,0,42.2,27.111a.743.743,0,0,0-.614-.834Zm-12.669.768a1.893,1.893,0,1,1,0,2.677l-1.339-1.346ZM22.792,23.6a1.887,1.887,0,0,1,1.339-3.226A1.891,1.891,0,0,1,25.469,23.6l-1.331,1.339Zm1.346,3.409,1.368,1.368L17.079,36.8l-1.368-1.368ZM8.367,37.578l1.565,1.565L6.012,43.057,4.454,41.5Zm2.6,2.6,1.375,1.375L8.469,45.419,7.094,44.044Zm-8.2,9.875a.243.243,0,0,1-.146-.007.465.465,0,0,1-.08-.058.452.452,0,0,1-.058-.088.216.216,0,0,1-.007-.139L3.883,43l5.64,5.64Zm8.258-1.982L9.457,46.5l3.913-3.921,1.573,1.573Zm8.785-5.786-1.69,1.69a.932.932,0,0,1-1.287,0L8.543,35.683a.905.905,0,0,1,0-1.287l1.69-1.69a.486.486,0,0,1,.68,0L19.807,41.6a.477.477,0,0,1,0,.68Z" transform="translate(-1 -3.246)" fill="#003"/>
      </g>
    </g>
  </g>
</svg>
