<svg xmlns="http://www.w3.org/2000/svg" xmlns:xlink="http://www.w3.org/1999/xlink" width="1328" height="604" viewBox="0 0 1328 604">
  <defs>
    <clipPath id="clip-path">
      <rect id="Rectángulo_423967" data-name="Rectángulo 423967" width="1328" height="604" transform="translate(136 2467)" fill="#fff" stroke="#707070" stroke-width="1"/>
    </clipPath>
    <clipPath id="clip-path-2">
      <rect id="Rectángulo_423949" data-name="Rectángulo 423949" width="741.832" height="432.303" transform="translate(-296)" fill="none"/>
    </clipPath>
    <clipPath id="clip-path-3">
      <rect id="Rectángulo_423948" data-name="Rectángulo 423948" width="665.396" height="8.502" fill="none"/>
    </clipPath>
    <clipPath id="clip-path-4">
      <rect id="Rectángulo_423952" data-name="Rectángulo 423952" width="105.868" height="286.55" fill="none"/>
    </clipPath>
    <clipPath id="clip-path-5">
      <rect id="Rectángulo_423962" data-name="Rectángulo 423962" width="152.776" height="166.021" fill="none"/>
    </clipPath>
    <clipPath id="clip-path-6">
      <rect id="Rectángulo_423958" data-name="Rectángulo 423958" width="5.912" height="20.577" fill="none"/>
    </clipPath>
    <clipPath id="clip-path-7">
      <rect id="Rectángulo_423959" data-name="Rectángulo 423959" width="7.32" height="24.159" fill="none"/>
    </clipPath>
    <clipPath id="clip-path-8">
      <rect id="Rectángulo_423960" data-name="Rectángulo 423960" width="6.146" height="21.363" fill="none"/>
    </clipPath>
    <clipPath id="clip-path-9">
      <rect id="Rectángulo_423961" data-name="Rectángulo 423961" width="8.299" height="56.3" fill="none"/>
    </clipPath>
    <clipPath id="clip-path-10">
      <rect id="Rectángulo_423951" data-name="Rectángulo 423951" width="871.846" height="593.96" fill="none"/>
    </clipPath>
    <clipPath id="clip-path-12">
      <rect id="Rectángulo_423963" data-name="Rectángulo 423963" width="73.653" height="71.943" fill="none"/>
    </clipPath>
    <clipPath id="clip-path-13">
      <rect id="Rectángulo_423964" data-name="Rectángulo 423964" width="90.91" height="88.801" fill="none"/>
    </clipPath>
    <clipPath id="clip-path-14">
      <rect id="Rectángulo_423965" data-name="Rectángulo 423965" width="74.342" height="72.617" fill="none"/>
    </clipPath>
    <clipPath id="clip-path-16">
      <rect id="Rectángulo_423955" data-name="Rectángulo 423955" width="357.238" height="5.913" fill="none"/>
    </clipPath>
    <clipPath id="clip-path-17">
      <rect id="Rectángulo_423956" data-name="Rectángulo 423956" width="42.57" height="36.038" fill="none"/>
    </clipPath>
  </defs>
  <g id="Grupo_1230038" data-name="Grupo 1230038" transform="translate(-136 -2467)">
    <g id="Enmascarar_grupo_1098763" data-name="Enmascarar grupo 1098763" clip-path="url(#clip-path)">
      <g id="Grupo_1230030" data-name="Grupo 1230030">
        <rect id="Rectángulo_423946" data-name="Rectángulo 423946" width="1330.134" height="601.8" transform="translate(136 2466.594)" fill="#6a5ce8"/>
        <line id="Línea_942" data-name="Línea 942" x1="1329.634" transform="translate(136.5 2530.166)" fill="none" stroke="#6052d7" stroke-miterlimit="10" stroke-width="0.75"/>
        <line id="Línea_943" data-name="Línea 943" x1="1329.634" transform="translate(136.5 2561.862)" fill="none" stroke="#6052d7" stroke-miterlimit="10" stroke-width="0.75"/>
        <line id="Línea_944" data-name="Línea 944" x1="1329.634" transform="translate(136.5 2593.558)" fill="none" stroke="#6052d7" stroke-miterlimit="10" stroke-width="0.75"/>
        <line id="Línea_945" data-name="Línea 945" x1="1329.634" transform="translate(136.5 2625.253)" fill="none" stroke="#6052d7" stroke-miterlimit="10" stroke-width="0.75"/>
        <line id="Línea_946" data-name="Línea 946" x1="1329.634" transform="translate(136.5 2656.949)" fill="none" stroke="#6052d7" stroke-miterlimit="10" stroke-width="0.75"/>
        <line id="Línea_947" data-name="Línea 947" x1="1330.134" transform="translate(136 2688.645)" fill="none" stroke="#6052d7" stroke-miterlimit="10" stroke-width="0.75"/>
        <line id="Línea_948" data-name="Línea 948" x1="1330.134" transform="translate(136 2720.341)" fill="none" stroke="#6052d7" stroke-miterlimit="10" stroke-width="0.75"/>
        <line id="Línea_949" data-name="Línea 949" x1="1330.134" transform="translate(136 2752.037)" fill="none" stroke="#6052d7" stroke-miterlimit="10" stroke-width="0.75"/>
        <line id="Línea_950" data-name="Línea 950" x1="1330.134" transform="translate(136 2783.732)" fill="none" stroke="#6052d7" stroke-miterlimit="10" stroke-width="0.75"/>
        <line id="Línea_951" data-name="Línea 951" x1="1330.134" transform="translate(136 2815.428)" fill="none" stroke="#6052d7" stroke-miterlimit="10" stroke-width="0.75"/>
        <line id="Línea_952" data-name="Línea 952" x1="1330.134" transform="translate(136 2847.125)" fill="none" stroke="#6052d7" stroke-miterlimit="10" stroke-width="0.75"/>
        <line id="Línea_953" data-name="Línea 953" x1="1330.134" transform="translate(136 2878.82)" fill="none" stroke="#6052d7" stroke-miterlimit="10" stroke-width="0.75"/>
        <line id="Línea_954" data-name="Línea 954" x1="1330.134" transform="translate(136 2910.516)" fill="none" stroke="#6052d7" stroke-miterlimit="10" stroke-width="0.75"/>
        <line id="Línea_955" data-name="Línea 955" x1="1330.134" transform="translate(136 2942.211)" fill="none" stroke="#6052d7" stroke-miterlimit="10" stroke-width="0.75"/>
        <line id="Línea_956" data-name="Línea 956" x1="1329.634" transform="translate(136.5 2973.636)" fill="none" stroke="#6052d7" stroke-miterlimit="10" stroke-width="0.75"/>
        <line id="Línea_957" data-name="Línea 957" x1="1329.634" transform="translate(136.5 3006.066)" fill="none" stroke="#6052d7" stroke-miterlimit="10" stroke-width="0.75"/>
        <line id="Línea_958" data-name="Línea 958" x1="1329.634" transform="translate(136.5 3035.82)" fill="none" stroke="#6052d7" stroke-miterlimit="10" stroke-width="0.75"/>
        <g id="Grupo_1229992" data-name="Grupo 1229992" transform="translate(742.938 2518.29)">
          <g id="Grupo_1229991" data-name="Grupo 1229991" transform="translate(0 0)" clip-path="url(#clip-path-2)">
            <path id="Trazado_1054991" data-name="Trazado 1054991" d="M711.036,426.5l-697.853.412L12.964,53.824A20.281,20.281,0,0,1,33.233,33.531l657.289-.387a20.28,20.28,0,0,1,20.293,20.268Z" transform="translate(-285.342 -14.897)" fill="#c0810c"/>
            <path id="Trazado_1054992" data-name="Trazado 1054992" d="M27.39,408.666,27.179,51.8a4.056,4.056,0,0,1,4.055-4.058l657.281-.388a4.056,4.056,0,0,1,4.058,4.054l.21,356.867Z" transform="translate(-283.33 -12.885)" fill="#3d1f45"/>
            <path id="Trazado_1054993" data-name="Trazado 1054993" d="M719.775,387.826l-711.651.42a8.114,8.114,0,0,1-8.117-8.108L0,367.975a4.056,4.056,0,0,1,4.055-4.058l719.762-.425a4.056,4.056,0,0,1,4.058,4.054l.007,12.163a8.113,8.113,0,0,1-8.108,8.118" transform="translate(-287.178 31.881)" fill="#c0810c"/>
            <g id="Grupo_1229990" data-name="Grupo 1229990" transform="translate(-256.15 34.467)" opacity="0.1">
              <g id="Grupo_1229989" data-name="Grupo 1229989" transform="translate(0)">
                <g id="Grupo_1229988" data-name="Grupo 1229988" clip-path="url(#clip-path-3)">
                  <path id="Trazado_1054994" data-name="Trazado 1054994" d="M688.514,47.352,31.235,47.74A4.056,4.056,0,0,0,27.18,51.8l0,4.055A4.056,4.056,0,0,1,31.237,51.8l657.279-.388a4.057,4.057,0,0,1,4.06,4.054l0-4.056a4.056,4.056,0,0,0-4.06-4.053" transform="translate(-27.179 -47.352)" fill="#2c4466"/>
                </g>
              </g>
            </g>
          </g>
        </g>
        <g id="Grupo_1229996" data-name="Grupo 1229996" transform="translate(1194.341 2530.167)">
          <g id="Grupo_1229995" data-name="Grupo 1229995" transform="translate(0 0)" clip-path="url(#clip-path-4)">
            <path id="Trazado_1054999" data-name="Trazado 1054999" d="M769.536,277.011H687.167a5.833,5.833,0,0,1-5.834-5.832V193.241a5.834,5.834,0,0,1,5.834-5.832h82.369a5.833,5.833,0,0,1,5.832,5.832v77.937a5.832,5.832,0,0,1-5.832,5.832" transform="translate(-669.5 -6.036)" fill="#5147d9"/>
            <path id="Trazado_1055000" data-name="Trazado 1055000" d="M759.313,266.419H694.935a4.939,4.939,0,0,1-4.94-4.939V200.6a4.939,4.939,0,0,1,4.94-4.94h64.378a4.939,4.939,0,0,1,4.939,4.94v60.876a4.939,4.939,0,0,1-4.939,4.939" transform="translate(-668.274 -4.867)" fill="#5e52e0"/>
            <path id="Trazado_1055001" data-name="Trazado 1055001" d="M701.582,265.447h56.791a4.939,4.939,0,0,0,4.939-4.939V207.48a4.939,4.939,0,0,0-8.31-3.61L698.211,256.9a4.939,4.939,0,0,0,3.371,8.548" transform="translate(-667.334 -3.894)" fill="#6a5ce8"/>
            <path id="Trazado_1055002" data-name="Trazado 1055002" d="M743.838,247.227H708.794a4.142,4.142,0,0,1-3.488-6.379l17.525-27.341a4.143,4.143,0,0,1,6.977,0l17.517,27.34a4.144,4.144,0,0,1-3.488,6.379" transform="translate(-666.2 -2.61)" fill="#766aed"/>
            <path id="Trazado_1055003" data-name="Trazado 1055003" d="M729.4,39.319l-2.993-1.089-2.99,1.089L688.964,51.856l.7,1.925,36.742-13.375,36.745,13.375.7-1.925Z" transform="translate(-668.42 -27.16)" fill="#5147d9"/>
            <path id="Trazado_1055004" data-name="Trazado 1055004" d="M772.428,173.751H684.274a2.94,2.94,0,0,1-2.94-2.941V51.34a2.94,2.94,0,0,1,2.94-2.94h88.155a2.941,2.941,0,0,1,2.941,2.94V170.811a2.941,2.941,0,0,1-2.941,2.941" transform="translate(-669.5 -25.72)" fill="#5147d9"/>
            <path id="Trazado_1055005" data-name="Trazado 1055005" d="M683.737,51.032V169.679l43.994-59.323Z" transform="translate(-669.16 -25.347)" fill="#6a5ce8"/>
            <path id="Trazado_1055006" data-name="Trazado 1055006" d="M766.271,51.032V169.679l-44-59.323Z" transform="translate(-663.703 -25.347)" fill="#6a5ce8"/>
            <path id="Trazado_1055007" data-name="Trazado 1055007" d="M771.728,162.32h-87.99L727.731,103Z" transform="translate(-669.16 -17.989)" fill="#5e52e0"/>
            <path id="Trazado_1055008" data-name="Trazado 1055008" d="M771.728,51.164h-87.99l43.994,59.323Z" transform="translate(-669.16 -25.328)" fill="#6a5ce8"/>
            <path id="Trazado_1055009" data-name="Trazado 1055009" d="M756.918,154.436H696.051a3.506,3.506,0,0,1-3.506-3.5V66.415a3.5,3.5,0,0,1,3.506-3.5h60.867a3.5,3.5,0,0,1,3.506,3.5v84.516a3.506,3.506,0,0,1-3.506,3.5" transform="translate(-667.913 -23.665)" fill="#5147d9"/>
            <path id="Trazado_1055010" data-name="Trazado 1055010" d="M725.521,40.415a3.084,3.084,0,1,1-3.083-3.082,3.082,3.082,0,0,1,3.083,3.082" transform="translate(-664.117 -27.287)" fill="#5147d9"/>
            <path id="Trazado_1055011" data-name="Trazado 1055011" d="M751.809,101.946l-.767,12.846c-2.041,0-4.167.255-6.716.084a16.147,16.147,0,0,1-2.81,6.294c2.383,3.147,5.191,5.189,8.591,3.233,0,3.915-6.718,12.929-16.333,5.7-8.333,6.21-32.49,6.975-32.49-12.163,0-11.653,8.252-16.333,11.994-18.8-8.419-12.93,1.022-23.563,11.058-23.563,16.755,0,20.923,17.693,3.915,27.985,3.4,5.867,5.868,9.1,7.4,10.717,2.293-3.742,2.123-5.786,2.123-12.336ZM718.3,108.753c-14.546,12.505,1.022,20.84,9.186,14.119a76.085,76.085,0,0,1-9.186-14.119m4.847-14.885c7.572-4.167,8.081-11.142,2.3-11.142-6.295,0-5.018,8.252-2.3,11.142" transform="translate(-666.675 -21.871)" fill="#8e87f7"/>
          </g>
        </g>
        <rect id="Rectángulo_423950" data-name="Rectángulo 423950" width="35.434" height="6.758" transform="translate(882.906 2905.94)" fill="#fff"/>
        <g id="Grupo_1230018" data-name="Grupo 1230018" transform="translate(730.13 2902.374)">
          <g id="Grupo_1230017" data-name="Grupo 1230017" transform="translate(0 0)" clip-path="url(#clip-path-5)">
            <path id="Trazado_1055096" data-name="Trazado 1055096" d="M367.833,465.032a22.9,22.9,0,0,1-3.2-.022s3.2-11.567,4.2-18.311a27.077,27.077,0,0,0,1.707-2.2,31.453,31.453,0,0,0,5.421-12.059c1.344-7.725,10.926-8.9,13.275,0,2.8,10.564-4.867,31.436-21.406,32.589" transform="translate(-254.789 -344.429)" fill="#5ea43c"/>
            <path id="Trazado_1055097" data-name="Trazado 1055097" d="M367.231,452.722s12.513-4.787,14.305-23.6" transform="translate(-254.421 -344.016)" fill="none" stroke="#563535" stroke-linecap="round" stroke-linejoin="round" stroke-width="0.916"/>
            <path id="Trazado_1055098" data-name="Trazado 1055098" d="M365.541,459.985s18.028-2.943,20.492-25.57" transform="translate(-254.661 -343.266)" fill="none" stroke="#563535" stroke-linecap="round" stroke-linejoin="round" stroke-width="0.916"/>
            <g id="Grupo_1230007" data-name="Grupo 1230007" transform="translate(109.843 100.071)" opacity="0.1">
              <g id="Grupo_1230006" data-name="Grupo 1230006">
                <g id="Grupo_1230005" data-name="Grupo 1230005" clip-path="url(#clip-path-6)">
                  <path id="Trazado_1055099" data-name="Trazado 1055099" d="M370.544,442.231s-1.2,14.384-2.71,20.531a22.9,22.9,0,0,1-3.2-.022s3.2-11.567,4.2-18.311a26.909,26.909,0,0,0,1.708-2.2" transform="translate(-364.632 -442.231)" fill="#141b25"/>
                </g>
              </g>
            </g>
            <path id="Trazado_1055100" data-name="Trazado 1055100" d="M357.421,400.051c-3.756,6.509-7.363,10.18-10.052,12.229a13.478,13.478,0,0,1-4.631,2.582s-1.365-14.384-2.688-20.467c0,0,.619-1.515,1.451-3.692a96.331,96.331,0,0,0,3.415-10.8c1.259-5.719,3.778-8.92,9.5-8.579s13.3,11.055,3.009,28.726" transform="translate(-258.27 -352.203)" fill="#69b846"/>
            <path id="Trazado_1055101" data-name="Trazado 1055101" d="M341.037,400.794s8.036-7.412,10.105-26.231" transform="translate(-258.13 -351.741)" fill="none" stroke="#563535" stroke-linecap="round" stroke-linejoin="round" stroke-width="0.916"/>
            <path id="Trazado_1055102" data-name="Trazado 1055102" d="M355.785,375.347s2.3,26.363-13.945,32.764" transform="translate(-258.017 -351.63)" fill="none" stroke="#563535" stroke-linecap="round" stroke-linejoin="round" stroke-width="0.916"/>
            <g id="Grupo_1230010" data-name="Grupo 1230010" transform="translate(81.779 38.501)" opacity="0.1">
              <g id="Grupo_1230009" data-name="Grupo 1230009">
                <g id="Grupo_1230008" data-name="Grupo 1230008" clip-path="url(#clip-path-7)">
                  <path id="Trazado_1055103" data-name="Trazado 1055103" d="M347.369,409.873a13.478,13.478,0,0,1-4.631,2.582s-1.365-14.384-2.688-20.467c0,0,.619-1.515,1.451-3.692a194.873,194.873,0,0,0,5.869,21.576" transform="translate(-340.049 -388.297)" fill="#141b25"/>
                </g>
              </g>
            </g>
            <path id="Trazado_1055104" data-name="Trazado 1055104" d="M320.247,459.931a36.728,36.728,0,0,1-5.485-1.152c-34.744-9.818-37.2-62.511-26.655-65.861,11.1-3.542,13.616,4.866,17.479,26.379,2.454,13.68,6.146,17.969,8.515,19.271a3.447,3.447,0,0,0,2.263.533Z" transform="translate(-266.404 -349.253)" fill="#69b846"/>
            <path id="Trazado_1055105" data-name="Trazado 1055105" d="M318.336,451.779s-14.7.124-23.887-19.366-8.289-36.068-8.289-36.068" transform="translate(-265.905 -348.657)" fill="none" stroke="#563535" stroke-linecap="round" stroke-linejoin="round" stroke-width="0.916"/>
            <path id="Trazado_1055106" data-name="Trazado 1055106" d="M291.848,396.345s4.9,8.289,8.273,24.419,5.948,21.974,15.756,22.187" transform="translate(-265.096 -348.657)" fill="none" stroke="#563535" stroke-linecap="round" stroke-linejoin="round" stroke-width="0.916"/>
            <g id="Grupo_1230013" data-name="Grupo 1230013" transform="translate(47.696 89.315)" opacity="0.1">
              <g id="Grupo_1230012" data-name="Grupo 1230012">
                <g id="Grupo_1230011" data-name="Grupo 1230011" clip-path="url(#clip-path-8)">
                  <path id="Trazado_1055107" data-name="Trazado 1055107" d="M310.855,453.019a118.424,118.424,0,0,0-.661-20.211,3.444,3.444,0,0,0,2.262.533l3.885,20.83a36.59,36.59,0,0,1-5.485-1.152" transform="translate(-310.194 -432.809)" fill="#141b25"/>
                </g>
              </g>
            </g>
            <path id="Trazado_1055108" data-name="Trazado 1055108" d="M365.585,475.81H341.7s-3.757-36.495,3.457-56.3c2.5-6.915,6.339-11.78,12.123-12.357,22.409-2.241,19.036,35.62,8.3,68.657" transform="translate(-258.175 -347.14)" fill="#69b846"/>
            <path id="Trazado_1055109" data-name="Trazado 1055109" d="M355.384,412.044s-9.2,33.38-9.922,63.063" transform="translate(-257.504 -346.434)" fill="none" stroke="#563535" stroke-linecap="round" stroke-linejoin="round" stroke-width="0.916"/>
            <path id="Trazado_1055110" data-name="Trazado 1055110" d="M360.948,412.044s8.513,32.484-3.361,63.063" transform="translate(-255.787 -346.434)" fill="none" stroke="#563535" stroke-linecap="round" stroke-linejoin="round" stroke-width="0.916"/>
            <g id="Grupo_1230016" data-name="Grupo 1230016" transform="translate(82.55 72.37)" opacity="0.1">
              <g id="Grupo_1230015" data-name="Grupo 1230015">
                <g id="Grupo_1230014" data-name="Grupo 1230014" clip-path="url(#clip-path-9)">
                  <path id="Trazado_1055111" data-name="Trazado 1055111" d="M349.023,474.265H341.7s-3.756-36.495,3.457-56.3c0,0,3.949,41.02,3.863,56.3" transform="translate(-340.725 -417.965)" fill="#141b25"/>
                </g>
              </g>
            </g>
            <path id="Trazado_1055112" data-name="Trazado 1055112" d="M388.512,474.678H305.847a3.7,3.7,0,1,1,0-7.393h82.666a3.7,3.7,0,1,1,0,7.393" transform="translate(-263.637 -338.612)" fill="#dd4385"/>
            <path id="Trazado_1055113" data-name="Trazado 1055113" d="M386.268,486.854a58.819,58.819,0,0,1-3.262,12.336,41.7,41.7,0,0,1-3.22,6.4,7.281,7.281,0,0,0-.46.752c-7.946,12.755-10.747,20.533-10.747,20.533H324.669s-2.8-7.778-10.747-20.533a7.075,7.075,0,0,0-.46-.752,41.589,41.589,0,0,1-3.219-6.4,58.752,58.752,0,0,1-3.263-12.336,72.438,72.438,0,0,1-.92-13.089h81.128a72.311,72.311,0,0,1-.92,13.089" transform="translate(-263.086 -337.694)" fill="#dd4385"/>
            <path id="Trazado_1055114" data-name="Trazado 1055114" d="M382.484,496.036a41.6,41.6,0,0,1-3.22,6.4,7.484,7.484,0,0,0-.46.752H313.4a6.9,6.9,0,0,0-.46-.752,41.691,41.691,0,0,1-3.219-6.4Z" transform="translate(-262.565 -334.54)" fill="#e067b9"/>
            <path id="Trazado_1055115" data-name="Trazado 1055115" d="M386.268,486.854H306.98a72.438,72.438,0,0,1-.92-13.089h81.128a72.311,72.311,0,0,1-.92,13.089" transform="translate(-263.086 -337.694)" fill="#e067b9"/>
            <path id="Trazado_1055116" data-name="Trazado 1055116" d="M344.616,490.859c0,.99-1.2,1.792-2.688,1.792s-2.688-.8-2.688-1.792,1.2-1.792,2.688-1.792,2.688.8,2.688,1.792" transform="translate(-258.385 -335.527)" fill="#e067b9"/>
            <path id="Trazado_1055117" data-name="Trazado 1055117" d="M357.144,490.859c0,.99-1.2,1.792-2.688,1.792s-2.689-.8-2.689-1.792,1.2-1.792,2.689-1.792,2.688.8,2.688,1.792" transform="translate(-256.611 -335.527)" fill="#e067b9"/>
            <path id="Trazado_1055118" data-name="Trazado 1055118" d="M369.672,490.859c0,.99-1.2,1.792-2.688,1.792s-2.688-.8-2.688-1.792,1.2-1.792,2.688-1.792,2.688.8,2.688,1.792" transform="translate(-254.837 -335.527)" fill="#e067b9"/>
            <path id="Trazado_1055119" data-name="Trazado 1055119" d="M319.658,490.859c0,.99-1.2,1.792-2.688,1.792s-2.688-.8-2.688-1.792,1.2-1.792,2.688-1.792,2.688.8,2.688,1.792" transform="translate(-261.919 -335.527)" fill="#e067b9"/>
            <path id="Trazado_1055120" data-name="Trazado 1055120" d="M332.187,490.859c0,.99-1.2,1.792-2.688,1.792s-2.688-.8-2.688-1.792,1.2-1.792,2.688-1.792,2.688.8,2.688,1.792" transform="translate(-260.145 -335.527)" fill="#e067b9"/>
            <path id="Trazado_1055121" data-name="Trazado 1055121" d="M320.573,481s-9.257-38.868-12.393-72.7,14.786-45.029,28.9-33.38S349.4,481,349.4,481Z" transform="translate(-262.834 -352.322)" fill="#79d357"/>
            <path id="Trazado_1055122" data-name="Trazado 1055122" d="M318.82,373.385s-5.824,16.578,1.12,59.143,7.473,48.053,7.473,48.053" transform="translate(-261.6 -351.908)" fill="none" stroke="#563535" stroke-linecap="round" stroke-linejoin="round" stroke-width="0.916"/>
            <path id="Trazado_1055123" data-name="Trazado 1055123" d="M326.063,373.385s5.072,14.561,8.209,50.63,4.7,56.566,4.7,56.566" transform="translate(-260.251 -351.908)" fill="none" stroke="#563535" stroke-linecap="round" stroke-linejoin="round" stroke-width="0.916"/>
            <line id="Línea_988" data-name="Línea 988" x2="3.47" y2="1.143" transform="translate(65.813 26.943)" fill="none" stroke="#fff" stroke-linecap="round" stroke-linejoin="round" stroke-width="0.916"/>
            <line id="Línea_989" data-name="Línea 989" x2="3.47" y2="1.143" transform="translate(53.198 48.481)" fill="none" stroke="#fff" stroke-linecap="round" stroke-linejoin="round" stroke-width="0.916"/>
            <line id="Línea_990" data-name="Línea 990" x2="2.869" y2="0.945" transform="translate(31.697 63.785)" fill="none" stroke="#fff" stroke-linecap="round" stroke-linejoin="round" stroke-width="0.916"/>
            <line id="Línea_991" data-name="Línea 991" x2="2.869" y2="0.945" transform="translate(96.445 26.471)" fill="none" stroke="#fff" stroke-linecap="round" stroke-linejoin="round" stroke-width="0.916"/>
            <line id="Línea_992" data-name="Línea 992" x2="2.869" y2="0.945" transform="translate(93.007 44.074)" fill="none" stroke="#fff" stroke-linecap="round" stroke-linejoin="round" stroke-width="0.916"/>
            <line id="Línea_993" data-name="Línea 993" x2="2.87" y2="0.945" transform="translate(84.207 45.019)" fill="none" stroke="#fff" stroke-linecap="round" stroke-linejoin="round" stroke-width="0.916"/>
            <line id="Línea_994" data-name="Línea 994" x2="2.869" y2="0.945" transform="translate(90.142 28.742)" fill="none" stroke="#fff" stroke-linecap="round" stroke-linejoin="round" stroke-width="0.916"/>
            <line id="Línea_995" data-name="Línea 995" x2="2.91" y2="0.959" transform="translate(26.752 82.378)" fill="none" stroke="#fff" stroke-linecap="round" stroke-linejoin="round" stroke-width="0.916"/>
            <line id="Línea_996" data-name="Línea 996" x2="2.634" y2="0.868" transform="translate(19.332 57.402)" fill="none" stroke="#fff" stroke-linecap="round" stroke-linejoin="round" stroke-width="0.916"/>
            <line id="Línea_997" data-name="Línea 997" y1="0.637" x2="2.944" transform="translate(42.795 92.081)" fill="none" stroke="#fff" stroke-linecap="round" stroke-linejoin="round" stroke-width="0.916"/>
            <line id="Línea_998" data-name="Línea 998" y1="2.478" x2="1.034" transform="translate(36.906 94.865)" fill="none" stroke="#fff" stroke-linecap="round" stroke-linejoin="round" stroke-width="0.916"/>
            <line id="Línea_999" data-name="Línea 999" x2="3.47" y2="1.144" transform="translate(70.534 58.27)" fill="none" stroke="#fff" stroke-linecap="round" stroke-linejoin="round" stroke-width="0.916"/>
            <line id="Línea_1000" data-name="Línea 1000" x2="3.47" y2="1.143" transform="translate(54.933 71.798)" fill="none" stroke="#fff" stroke-linecap="round" stroke-linejoin="round" stroke-width="0.916"/>
            <line id="Línea_1001" data-name="Línea 1001" x2="3.47" y2="1.143" transform="translate(73.987 93.722)" fill="none" stroke="#fff" stroke-linecap="round" stroke-linejoin="round" stroke-width="0.916"/>
            <line id="Línea_1002" data-name="Línea 1002" x2="3.47" y2="1.144" transform="translate(62.342 116.768)" fill="none" stroke="#fff" stroke-linecap="round" stroke-linejoin="round" stroke-width="0.916"/>
            <line id="Línea_1003" data-name="Línea 1003" y1="1.243" x2="3.436" transform="translate(68.816 42.831)" fill="none" stroke="#fff" stroke-linecap="round" stroke-linejoin="round" stroke-width="0.916"/>
            <line id="Línea_1004" data-name="Línea 1004" y1="1.734" x2="2.268" transform="translate(27.927 52.036)" fill="none" stroke="#fff" stroke-linecap="round" stroke-linejoin="round" stroke-width="0.916"/>
            <line id="Línea_1005" data-name="Línea 1005" y1="0.628" x2="2.787" transform="translate(95.798 34.963)" fill="none" stroke="#fff" stroke-linecap="round" stroke-linejoin="round" stroke-width="0.916"/>
            <line id="Línea_1006" data-name="Línea 1006" y1="0.628" x2="2.787" transform="translate(87.706 39.059)" fill="none" stroke="#fff" stroke-linecap="round" stroke-linejoin="round" stroke-width="0.916"/>
            <line id="Línea_1007" data-name="Línea 1007" y1="0.628" x2="2.785" transform="translate(87.077 53.297)" fill="none" stroke="#fff" stroke-linecap="round" stroke-linejoin="round" stroke-width="0.916"/>
            <line id="Línea_1008" data-name="Línea 1008" x2="2.765" y2="0.717" transform="translate(104.969 69.264)" fill="none" stroke="#fff" stroke-linecap="round" stroke-linejoin="round" stroke-width="0.916"/>
            <line id="Línea_1009" data-name="Línea 1009" y1="0.957" x2="2.691" transform="translate(125.209 89.165)" fill="none" stroke="#fff" stroke-linecap="round" stroke-linejoin="round" stroke-width="0.916"/>
            <line id="Línea_1010" data-name="Línea 1010" y1="0.542" x2="2.804" transform="translate(121.027 109.817)" fill="none" stroke="#fff" stroke-linecap="round" stroke-linejoin="round" stroke-width="0.916"/>
            <line id="Línea_1011" data-name="Línea 1011" x2="2.661" y2="1.035" transform="translate(115.758 105.764)" fill="none" stroke="#fff" stroke-linecap="round" stroke-linejoin="round" stroke-width="0.916"/>
            <line id="Línea_1012" data-name="Línea 1012" x2="0.933" y2="2.699" transform="translate(122.429 98.186)" fill="none" stroke="#fff" stroke-linecap="round" stroke-linejoin="round" stroke-width="0.916"/>
            <line id="Línea_1013" data-name="Línea 1013" x2="0.933" y2="2.7" transform="translate(129.738 95.792)" fill="none" stroke="#fff" stroke-linecap="round" stroke-linejoin="round" stroke-width="0.916"/>
            <line id="Línea_1014" data-name="Línea 1014" x2="2.765" y2="0.717" transform="translate(91.629 82.844)" fill="none" stroke="#fff" stroke-linecap="round" stroke-linejoin="round" stroke-width="0.916"/>
            <line id="Línea_1015" data-name="Línea 1015" x2="2.764" y2="0.717" transform="translate(106.351 100.851)" fill="none" stroke="#fff" stroke-linecap="round" stroke-linejoin="round" stroke-width="0.916"/>
            <line id="Línea_1016" data-name="Línea 1016" x2="2.765" y2="0.717" transform="translate(87.348 114.188)" fill="none" stroke="#fff" stroke-linecap="round" stroke-linejoin="round" stroke-width="0.916"/>
            <line id="Línea_1017" data-name="Línea 1017" y1="0.849" x2="2.726" transform="translate(106.37 83.983)" fill="none" stroke="#fff" stroke-linecap="round" stroke-linejoin="round" stroke-width="0.916"/>
            <line id="Línea_1018" data-name="Línea 1018" y1="0.849" x2="2.726" transform="translate(89.487 98.686)" fill="none" stroke="#fff" stroke-linecap="round" stroke-linejoin="round" stroke-width="0.916"/>
            <line id="Línea_1019" data-name="Línea 1019" y1="0.849" x2="2.726" transform="translate(95.153 70.775)" fill="none" stroke="#fff" stroke-linecap="round" stroke-linejoin="round" stroke-width="0.916"/>
            <line id="Línea_1020" data-name="Línea 1020" y1="0.849" x2="2.726" transform="translate(102.799 120.223)" fill="none" stroke="#fff" stroke-linecap="round" stroke-linejoin="round" stroke-width="0.916"/>
            <line id="Línea_1021" data-name="Línea 1021" y1="1.635" x2="2.139" transform="translate(22.345 68.551)" fill="none" stroke="#fff" stroke-linecap="round" stroke-linejoin="round" stroke-width="0.916"/>
            <line id="Línea_1022" data-name="Línea 1022" y1="3.231" x2="1.706" transform="translate(36.757 79.534)" fill="none" stroke="#fff" stroke-linecap="round" stroke-linejoin="round" stroke-width="0.916"/>
            <line id="Línea_1023" data-name="Línea 1023" y1="1.243" x2="3.436" transform="translate(58.655 92.479)" fill="none" stroke="#fff" stroke-linecap="round" stroke-linejoin="round" stroke-width="0.916"/>
            <line id="Línea_1024" data-name="Línea 1024" y1="1.243" x2="3.436" transform="translate(53.215 30.43)" fill="none" stroke="#fff" stroke-linecap="round" stroke-linejoin="round" stroke-width="0.916"/>
            <line id="Línea_1025" data-name="Línea 1025" y1="1.243" x2="3.436" transform="translate(72.286 74.453)" fill="none" stroke="#fff" stroke-linecap="round" stroke-linejoin="round" stroke-width="0.916"/>
            <line id="Línea_1026" data-name="Línea 1026" y1="1.243" x2="3.436" transform="translate(75.722 116.097)" fill="none" stroke="#fff" stroke-linecap="round" stroke-linejoin="round" stroke-width="0.916"/>
          </g>
        </g>
        <g id="Grupo_1229994" data-name="Grupo 1229994" transform="translate(455.76 2497.593)">
          <g id="Grupo_1229993" data-name="Grupo 1229993" clip-path="url(#clip-path-10)">
            <path id="Trazado_1054995" data-name="Trazado 1054995" d="M402.24,361.068a3.38,3.38,0,1,0,3.378-3.381,3.378,3.378,0,0,0-3.378,3.381" transform="translate(56.958 50.649)" fill="#e0e9f5"/>
            <path id="Trazado_1054996" data-name="Trazado 1054996" d="M371.2,361.086a3.381,3.381,0,1,0,3.379-3.381,3.379,3.379,0,0,0-3.379,3.381" transform="translate(52.563 50.652)" fill="#fff"/>
            <path id="Trazado_1054997" data-name="Trazado 1054997" d="M413.255,357.686l58.154-.034v2.7a4.056,4.056,0,0,1-4.054,4.06l-50.041.029a4.056,4.056,0,0,1-4.06-4.054Z" transform="translate(58.518 50.644)" fill="#f9f3df"/>
            <path id="Trazado_1054998" data-name="Trazado 1054998" d="M417.3,346.08l50.042-.03a4.057,4.057,0,0,1,4.058,4.054l.006,9.191-58.154.034-.006-9.191a4.057,4.057,0,0,1,4.054-4.058" transform="translate(58.517 49.002)" fill="#dd4385"/>
          </g>
        </g>
        <g id="Grupo_1230029" data-name="Grupo 1230029" transform="translate(381.931 2486.752)">
          <g id="Grupo_1230028" data-name="Grupo 1230028" clip-path="url(#clip-path-10)">
            <g id="Grupo_1230021" data-name="Grupo 1230021" transform="translate(535.753 102.566)" opacity="0.2">
              <g id="Grupo_1230020" data-name="Grupo 1230020">
                <g id="Grupo_1230019" data-name="Grupo 1230019" clip-path="url(#clip-path-12)">
                  <path id="Trazado_1055124" data-name="Trazado 1055124" d="M538.03,144.222c-10.885,16.438-36.832,23.136-53.269,12.251s-20.163-36.37-9.278-52.808,32.258-17.6,48.7-6.718,24.736,30.838,13.851,47.276" transform="translate(-469.299 -89.844)" fill="#282b39"/>
                </g>
              </g>
            </g>
            <path id="Trazado_1055125" data-name="Trazado 1055125" d="M538.03,141.016c-10.885,16.438-36.832,23.136-53.269,12.251s-20.163-36.37-9.278-52.808,32.258-17.6,48.7-6.719,24.736,30.839,13.851,47.277" transform="translate(66.454 12.268)" fill="#faea40"/>
            <path id="Trazado_1055126" data-name="Trazado 1055126" d="M509.686,134.292c-2.214-.358-3.331-4.83-3.331-4.83l-2.164.6-2.166.6s1.347,4.408-.365,5.855-7.334,2.73-6.241,7.917c.435,1.569,6.093,1.368,12.636-.449s11.495-4.558,11.06-6.127c-1.738-5.008-7.215-3.21-9.429-3.569" transform="translate(70.133 18.332)" fill="#dd4385"/>
            <path id="Trazado_1055127" data-name="Trazado 1055127" d="M504.877,136.273a21.407,21.407,0,0,1-12.916-.443,1.124,1.124,0,1,1,.749-2.119A19.306,19.306,0,1,0,498.515,96.2a1.124,1.124,0,0,1-.07-2.247,21.556,21.556,0,0,1,6.432,42.317" transform="translate(69.557 13.303)" fill="#e99e2e"/>
            <path id="Trazado_1055128" data-name="Trazado 1055128" d="M496.064,136.79a1.125,1.125,0,0,1-1.413-1.236l5.572-40.478a1.123,1.123,0,1,1,2.225.307l-5.571,40.478a1.123,1.123,0,0,1-.813.929" transform="translate(70.042 13.326)" fill="#e99e2e"/>
            <path id="Trazado_1055129" data-name="Trazado 1055129" d="M503.911,131.084a17.229,17.229,0,0,0,4.846-2.251" transform="translate(71.355 18.243)" fill="none" stroke="#000" stroke-linecap="round" stroke-linejoin="round" stroke-width="0.295"/>
            <path id="Trazado_1055130" data-name="Trazado 1055130" d="M502.119,96.37a14.816,14.816,0,0,0-2.018-.35" transform="translate(70.816 13.597)" fill="none" stroke="#000" stroke-linecap="round" stroke-linejoin="round" stroke-width="0.295"/>
            <path id="Trazado_1055131" data-name="Trazado 1055131" d="M508.314,137.945c-.819.276-1.676.54-2.562.787q-.656.182-1.3.341" transform="translate(71.432 19.533)" fill="none" stroke="#000" stroke-linecap="round" stroke-linejoin="round" stroke-width="0.255"/>
            <path id="Trazado_1055132" data-name="Trazado 1055132" d="M514.535,135.072a22.967,22.967,0,0,1-4.812,2.489" transform="translate(72.178 19.127)" fill="none" stroke="#000" stroke-linecap="round" stroke-linejoin="round" stroke-width="0.255"/>
            <path id="Trazado_1055133" data-name="Trazado 1055133" d="M516.925,110.345a18.143,18.143,0,0,1,.4,1.831,17.279,17.279,0,1,1-34.237,4.612,16.714,16.714,0,0,1,.024-3.823,17.272,17.272,0,0,1,12.542-14.649,17.256,17.256,0,0,1,7.57-.373,17.458,17.458,0,0,1,4.435,1.408,17.22,17.22,0,0,1,9.265,10.995" transform="translate(68.393 13.833)" fill="#6a5ce8"/>
            <path id="Trazado_1055134" data-name="Trazado 1055134" d="M514.55,110.139a18.143,18.143,0,0,1,.4,1.831c-.886.138-2.08-.066-3.735.1-2.789.277-3-1.244-4.745-.546s-3.587.781-4.687-.628a3.6,3.6,0,0,0-1.509-1.088.824.824,0,0,1-.229-1.381c1.409-1.244,3-3.138,2.788-4.076a2.774,2.774,0,0,1,1.2-2.905c.795-.515,1.25-2.3,1.25-2.3a17.22,17.22,0,0,1,9.265,10.995" transform="translate(70.768 14.039)" fill="#82e461"/>
            <path id="Trazado_1055135" data-name="Trazado 1055135" d="M501.958,100.923c-.928,1.048-.466,2.714-1.854,3.166s-1.766.344-2.359,1.3-2.079,1.581-2.735.759,1.872-2.569.942-3.074-2.966.7-3.17-.325c-.215-1.011,2.524-.7,2.727-2.042.147-.965,2.192-1.948,3.141-3.014a17.019,17.019,0,0,1,3.191.252s1.046,1.933.118,2.981" transform="translate(69.777 13.833)" fill="#82e461"/>
            <path id="Trazado_1055136" data-name="Trazado 1055136" d="M499.27,110.4l2.545,7.617,1.41.111a4.721,4.721,0,0,1,2.42-1.82c1.417-.322,1.646.763,1.857,1.78s1.813,1.363,1.268,3.021-.123,3.693-1.152,4.122-2.819-1.227-3.248-2.973-.263-2.438-1.857-2.5-6.176-.8-8.9-3.629-3.057-1.448-3.778-2.755,2.179-.676,2.9-1.45,5.266-1.964,6.536-1.526" transform="translate(69.346 15.62)" fill="#82e461"/>
            <path id="Trazado_1055137" data-name="Trazado 1055137" d="M497.428,106.535s.045.418-3.307,1.779-5.355,1.617-5.084,2.481,2.038,1.019,5.763-.8,4.055-4,2.628-3.456" transform="translate(69.245 15.074)" fill="#82e461"/>
            <path id="Trazado_1055138" data-name="Trazado 1055138" d="M490.55,117.069c-.536,1.153-2.131,1.1-3.266-.379s-2.422-.961-3.3-1.321a4.455,4.455,0,0,1-.9-.475,16.713,16.713,0,0,1,.024-3.823,9.24,9.24,0,0,1,3.06,1.614,11.659,11.659,0,0,0,2.21.967c1.589.564,2.7,2.264,2.167,3.417" transform="translate(68.393 15.728)" fill="#82e461"/>
            <g id="Grupo_1230024" data-name="Grupo 1230024" transform="translate(345.322 103.953)" opacity="0.2">
              <g id="Grupo_1230023" data-name="Grupo 1230023">
                <g id="Grupo_1230022" data-name="Grupo 1230022" clip-path="url(#clip-path-13)">
                  <path id="Trazado_1055139" data-name="Trazado 1055139" d="M387.325,158.178c-13.436,20.29-45.461,28.556-65.751,15.121s-24.888-44.892-11.451-65.182,39.816-21.728,60.105-8.293,30.532,38.064,17.1,58.354" transform="translate(-302.489 -91.059)" fill="#282b39"/>
                </g>
              </g>
            </g>
            <path id="Trazado_1055140" data-name="Trazado 1055140" d="M387.325,154.222c-13.436,20.29-45.461,28.556-65.751,15.121s-24.888-44.892-11.451-65.182,39.816-21.728,60.105-8.293,30.532,38.064,17.1,58.354" transform="translate(42.833 12.334)" fill="#79d357"/>
            <path id="Trazado_1055141" data-name="Trazado 1055141" d="M356.807,156.316c-.289,2.372-8.537,3.315-18.427,2.112a57.485,57.485,0,0,1-12.511-2.8c-3.145-1.171-5.017-2.489-4.874-3.673,1.424-7.646,9.766-6.231,12.893-7.237,2.109-.672,3.331-5.924,3.908-9.289.279-1.642.405-2.832.405-2.832l6.541.8s-.205,1.483-.322,3.451c-.21,3.4-.172,8.255,1.6,9.351,2.795,1.726,11.235,2.352,10.782,10.117" transform="translate(45.453 18.777)" fill="#dd4385"/>
            <path id="Trazado_1055142" data-name="Trazado 1055142" d="M342.337,136.848c-4.307.683-6.626-1.416-6.626-1.416.28-1.64.406-2.832.406-2.832l6.54.8s-.2,1.484-.321,3.452" transform="translate(47.538 18.777)"/>
            <path id="Trazado_1055143" data-name="Trazado 1055143" d="M363.65,124.473c-2.5,2.795-6.6,4.589-11,4.983a20.364,20.364,0,0,1-4.233-.068c-.136-.016-.267-.032-.4-.054l.419-2.952.335.041a17.366,17.366,0,0,0,4.869-.108,13.4,13.4,0,0,0,7.788-3.83,5.96,5.96,0,0,0,1.483-5.732,3.907,3.907,0,0,0-2.053-2.768,7.29,7.29,0,0,0-4.282-.255,15.085,15.085,0,0,0-3.295,1.014l-1.252-2.709a18.062,18.062,0,0,1,5.117-1.4,9.335,9.335,0,0,1,4.987.654A6.769,6.769,0,0,1,365.8,116a8.995,8.995,0,0,1-2.147,8.47" transform="translate(49.28 15.655)" fill="#e99e2e"/>
            <path id="Trazado_1055144" data-name="Trazado 1055144" d="M348.77,124.467a17.368,17.368,0,0,0,4.869-.108c-.313,1.088-.644,2.144-.989,3.142a20.354,20.354,0,0,1-4.232-.068c-.136-.016-.267-.032-.4-.053l.419-2.953Z" transform="translate(49.28 17.61)"/>
            <path id="Trazado_1055145" data-name="Trazado 1055145" d="M356.647,110.622c-.15.841-.338,1.9-.57,3.1a15.159,15.159,0,0,0-3.295,1.013l-1.252-2.708a18.062,18.062,0,0,1,5.117-1.4" transform="translate(49.778 15.664)"/>
            <path id="Trazado_1055146" data-name="Trazado 1055146" d="M319.433,119.146c1.755,3.312,5.307,6.038,9.484,7.474a20.38,20.38,0,0,0,4.126.949c.136.016.267.032.4.045l.3-2.967-.335-.04a17.368,17.368,0,0,1-4.7-1.273,13.4,13.4,0,0,1-6.643-5.586,5.961,5.961,0,0,1-.066-5.92,3.909,3.909,0,0,1,2.656-2.194,7.284,7.284,0,0,1,4.219.78,15.109,15.109,0,0,1,2.954,1.773l1.865-2.33a18.026,18.026,0,0,0-4.632-2.587,9.323,9.323,0,0,0-5-.561,6.77,6.77,0,0,0-4.691,3.7,9,9,0,0,0,.055,8.738" transform="translate(45.068 15.091)" fill="#e99e2e"/>
            <path id="Trazado_1055147" data-name="Trazado 1055147" d="M332.118,122.526a17.323,17.323,0,0,1-4.7-1.271c.042,1.13.11,2.234.205,3.286a20.3,20.3,0,0,0,4.126.949c.136.017.266.033.4.045l.3-2.966Z" transform="translate(46.363 17.17)"/>
            <path id="Trazado_1055148" data-name="Trazado 1055148" d="M327.753,107.182c-.056.853-.127,1.922-.19,3.144a15.125,15.125,0,0,1,2.956,1.773l1.864-2.33a18.009,18.009,0,0,0-4.63-2.587" transform="translate(46.384 15.177)"/>
            <path id="Trazado_1055149" data-name="Trazado 1055149" d="M344.411,103.831,329.44,102.01s-3.709,35.043,10.716,36.8,19.226-33.156,19.226-33.156Z" transform="translate(46.589 14.445)" fill="#faea40"/>
            <path id="Trazado_1055150" data-name="Trazado 1055150" d="M331.52,111.655a66.609,66.609,0,0,0,1.507,16.154" transform="translate(46.941 15.811)" fill="none" stroke="#000" stroke-linecap="round" stroke-linejoin="round" stroke-width="0.374"/>
            <path id="Trazado_1055151" data-name="Trazado 1055151" d="M341.028,150.417c-1.265-.083-2.574-.206-3.916-.369q-.988-.122-1.949-.264" transform="translate(47.46 21.21)" fill="none" stroke="#000" stroke-linecap="round" stroke-linejoin="round" stroke-width="0.374"/>
            <path id="Trazado_1055152" data-name="Trazado 1055152" d="M351.165,149.862a33.662,33.662,0,0,1-7.917.678" transform="translate(48.605 21.221)" fill="none" stroke="#000" stroke-linecap="round" stroke-linejoin="round" stroke-width="0.374"/>
            <path id="Trazado_1055153" data-name="Trazado 1055153" d="M360.254,107.008l-31.32-3.81a2.025,2.025,0,0,1-1.766-2.255l.049-.4a2.024,2.024,0,0,1,2.255-1.766l31.32,3.81a2.025,2.025,0,0,1,1.766,2.255l-.049.4a2.025,2.025,0,0,1-2.255,1.766" transform="translate(46.326 13.985)" fill="#dd4385"/>
            <g id="Grupo_1230027" data-name="Grupo 1230027" transform="translate(343.554 273.289)" opacity="0.2">
              <g id="Grupo_1230026" data-name="Grupo 1230026">
                <g id="Grupo_1230025" data-name="Grupo 1230025" clip-path="url(#clip-path-14)">
                  <path id="Trazado_1055154" data-name="Trazado 1055154" d="M370.315,294.279c-10.987,16.592-37.176,23.353-53.768,12.365s-20.351-36.711-9.365-53.3,32.561-17.769,49.153-6.782,24.967,31.128,13.98,47.72" transform="translate(-300.94 -239.391)" fill="#282b39"/>
                </g>
              </g>
            </g>
            <path id="Trazado_1055155" data-name="Trazado 1055155" d="M370.315,291.043c-10.987,16.592-37.176,23.353-53.768,12.365s-20.351-36.711-9.365-53.3,32.561-17.769,49.153-6.782,24.967,31.128,13.98,47.72" transform="translate(42.614 33.44)" fill="#dd4385"/>
            <path id="Trazado_1055156" data-name="Trazado 1055156" d="M314.273,254.488s-2.346,2.223-1.357,6.667c0,0,12.836,33.653,16.051,36.127,3.881,2.988,29.009-11.808,29.009-11.808V277.7Z" transform="translate(44.275 36.036)" fill="#4b44d3"/>
            <path id="Trazado_1055157" data-name="Trazado 1055157" d="M341.6,243.89,357.776,279.2l-25.76,12.123a1.662,1.662,0,0,1-2.219-.814l-15.722-34.517Z" transform="translate(44.474 34.535)" fill="#6a5ce8"/>
            <path id="Trazado_1055158" data-name="Trazado 1055158" d="M355.831,276.981s-18.085,8.519-22.345,10.37-6,2.908-5.618,5.432c.433,2.839,27.962-11.789,27.962-11.789Z" transform="translate(46.42 39.221)" fill="#fff"/>
            <path id="Trazado_1055159" data-name="Trazado 1055159" d="M321.454,261.652l3.943,8.239a1,1,0,0,0,1.315.477l17.076-7.813a1,1,0,0,0,.486-1.335l-3.723-7.847a1,1,0,0,0-1.295-.49l-17.3,7.422a1,1,0,0,0-.507,1.347" transform="translate(45.505 35.797)" fill="#faea40"/>
            <path id="Trazado_1055160" data-name="Trazado 1055160" d="M330.037,247.7l2.47,5.008,1.667-3.209,3.149.8-2.332-4.872a1.065,1.065,0,0,0-1.389-.514l-3.04,1.343a1.063,1.063,0,0,0-.524,1.443" transform="translate(46.718 34.668)" fill="#79d357"/>
            <path id="Trazado_1055161" data-name="Trazado 1055161" d="M419.6,313.4h0a15.35,15.35,0,0,0-15.349-15.349A15.349,15.349,0,0,0,419.6,282.7a15.348,15.348,0,0,0,15.349,15.348A15.349,15.349,0,0,0,419.6,313.4Z" transform="translate(57.243 40.031)" fill="none" stroke="#fff" stroke-miterlimit="10" stroke-width="1"/>
            <path id="Trazado_1055162" data-name="Trazado 1055162" d="M424.625,108.348h0a16.462,16.462,0,0,0-16.462-16.462,16.462,16.462,0,0,0,16.462-16.462,16.462,16.462,0,0,0,16.462,16.462,16.462,16.462,0,0,0-16.462,16.462" transform="translate(57.797 10.68)" fill="#fff"/>
            <path id="Trazado_1055163" data-name="Trazado 1055163" d="M542.557,196.083a7.776,7.776,0,1,1-7.777-7.777A7.777,7.777,0,0,1,542.557,196.083Z" transform="translate(74.625 26.665)" fill="none" stroke="#fff" stroke-miterlimit="10" stroke-width="1"/>
            <path id="Trazado_1055164" data-name="Trazado 1055164" d="M298.5,202.412a3.888,3.888,0,1,1-3.888-3.888,3.888,3.888,0,0,1,3.888,3.888" transform="translate(41.167 28.111)" fill="#fff"/>
          </g>
        </g>
        <g id="Grupo_1230004" data-name="Grupo 1230004" transform="translate(402.647 2497.593)">
          <g id="Grupo_1230003" data-name="Grupo 1230003" clip-path="url(#clip-path-10)">
            <path id="Trazado_1055012" data-name="Trazado 1055012" d="M632.112,514.919l1.511-14.287,1.651,14.287H716.9L700.007,394.643H562.053L546.824,514.919Z" transform="translate(77.432 55.882)" fill="#3d1f45"/>
            <path id="Trazado_1055013" data-name="Trazado 1055013" d="M624.31,507.395l1.508-14.28c-3.645-11.949-5.812-27.124-7.028-42.651l-7.161-2.684-9.746,59.616Z" transform="translate(85.228 63.407)" fill="#311938"/>
            <path id="Trazado_1055014" data-name="Trazado 1055014" d="M616.309,394.644s-4.84,65.228,7.607,105.987" transform="translate(87.14 55.883)" fill="none" stroke="#141b25" stroke-linecap="round" stroke-linejoin="round" stroke-width="0.866"/>
            <path id="Trazado_1055015" data-name="Trazado 1055015" d="M605.291,394.644v25.332a13.6,13.6,0,0,0,11.745,13.514" transform="translate(85.711 55.883)" fill="none" stroke="#141b25" stroke-linecap="round" stroke-linejoin="round" stroke-width="0.866"/>
            <line id="Línea_976" data-name="Línea 976" x2="24.201" y2="9.144" transform="translate(691.002 508.961)" fill="none" stroke="#141b25" stroke-linecap="round" stroke-linejoin="round" stroke-width="0.866"/>
            <path id="Trazado_1055016" data-name="Trazado 1055016" d="M577.205,394.644s-.981,36.973-20.2,42.785" transform="translate(78.874 55.883)" fill="none" stroke="#141b25" stroke-linecap="round" stroke-linejoin="round" stroke-width="0.866"/>
            <path id="Trazado_1055017" data-name="Trazado 1055017" d="M620.821,477.895c-.7,5.576-2.537,19.757-3.123,25.235" transform="translate(87.468 67.671)" fill="none" stroke="#141b25" stroke-linecap="round" stroke-linejoin="round" stroke-width="0.866"/>
            <path id="Trazado_1055018" data-name="Trazado 1055018" d="M674.517,394.644c5.235,36.384,7.529,74.235,12.209,110.558" transform="translate(95.513 55.883)" fill="none" stroke="#141b25" stroke-linecap="round" stroke-linejoin="round" stroke-width="0.866"/>
            <path id="Trazado_1055019" data-name="Trazado 1055019" d="M481.614,227.967s-11.857-19.52-17.472-24.653c0,0-3.151-3.518-13.127-4s-14.531-3.865-17.923-6.285-10.365-2.125-11.429.007,1.456,4.745,5.911,5.9,6.4,4.742,12.208,5.127,13.658,2.835,17.728,6.012,15.124,22.736,15.124,22.736Z" transform="translate(59.674 27.092)" fill="#9e5452"/>
            <path id="Trazado_1055020" data-name="Trazado 1055020" d="M459.731,241.757s-6.311-14.518-10.163-16.357c-4-1.909-19.961-7.291-25.871-9.419s-8.33-.866-10.852-6.773c0,0-11.046-7.645-12.306-9.1s2.516-4.36,8.135-1.167c0,0-3.491-7.747-2.91-8.619s4.066-2.742,6.587,1.774,4.944,8.778,4.944,8.778-.008-14.529,1.057-14.82,6-.295,6.056,5.711a9.891,9.891,0,0,1,3.185,6.817c.164,4.32,2.247,5.384,3.531,5.384a38.773,38.773,0,0,0,5.474-1.145,43.954,43.954,0,0,1,16.852,2.778c9.277,3.385,14.124,9.581,17.808,15.875a34.569,34.569,0,0,1,4.365,12.1Z" transform="translate(56.683 26.332)" fill="#9e5452"/>
            <line id="Línea_977" data-name="Línea 977" x2="4.171" y2="10.264" transform="translate(465.358 225.274)" fill="none" stroke="#141b25" stroke-linecap="round" stroke-linejoin="round" stroke-width="0.792"/>
            <path id="Trazado_1055021" data-name="Trazado 1055021" d="M415.188,199.024s.3,8.039,3.106,10.362,9.01,3.966,9.01,3.966" transform="translate(58.792 28.182)" fill="none" stroke="#141b25" stroke-linecap="round" stroke-linejoin="round" stroke-width="0.792"/>
            <path id="Trazado_1055022" data-name="Trazado 1055022" d="M421.818,191.078s-2.953-1.161-3.146,1.357-.089,13.755.978,15.5a13.434,13.434,0,0,0,3.876,3.388" transform="translate(59.274 27.019)" fill="none" stroke="#141b25" stroke-linecap="round" stroke-linejoin="round" stroke-width="0.792"/>
            <path id="Trazado_1055023" data-name="Trazado 1055023" d="M427.578,203.174s1.843,3,9.01,2.9,16.561-2.916,24.511,10.156" transform="translate(60.546 28.77)" fill="none" stroke="#141b25" stroke-linecap="round" stroke-linejoin="round" stroke-width="0.792"/>
            <path id="Trazado_1055024" data-name="Trazado 1055024" d="M484.738,224.4s-6.672-11.547-9.584-11.757-27.819,11.575-29.832,15.932,4.163,15.2,4.163,15.2Z" transform="translate(63.002 30.11)" fill="#f9f3df"/>
            <path id="Trazado_1055025" data-name="Trazado 1055025" d="M545.717,258.417s18.936-32.936,33.507-39,20.969-3.094,27.712,4.971,8.108,15.45-5.233,38.511S570.336,316.077,556.691,330,536.34,353.966,523.475,353.4s-22.053-12.95-9.93-34.441,25.922-51.5,32.172-60.539" transform="translate(71.916 30.614)" fill="#e99e2e"/>
            <path id="Trazado_1055026" data-name="Trazado 1055026" d="M489.585,312.127s-26.163-33.031-39.909-59.964l-.757-9.845,35.253-19.376,10.467,3.912S528.976,280.6,545.59,310.4s0,39.923-7.857,41.476-21.1,3.2-48.148-39.748" transform="translate(63.568 31.569)" fill="#e99e2e"/>
            <path id="Trazado_1055027" data-name="Trazado 1055027" d="M558.287,377.635s-.441,15.347-.268,16.827,17.017,10.43,66.965,11.242,72.235-5.685,73.856-7.071.33-20.637.33-20.637Z" transform="translate(79.011 53.474)" fill="#fff"/>
            <path id="Trazado_1055028" data-name="Trazado 1055028" d="M702.371,222.357s-.436,94.357-2.579,113.959,4.346,37.05,5.638,43.882,2.477,22.031-11.925,24.76-52.5,4.8-87.5,2.3-43.174.042-52.374-12.522,5.725-14.874,7.033-29.405,5.146-60.863,4.248-79.1-1.446-58.565,6.529-65.074,42.45-8.915,61.65-8.777,33.742-3.159,69.278,9.968" transform="translate(77.974 30.036)" fill="#f9f3df"/>
            <line id="Línea_978" data-name="Línea 978" x1="0.212" y2="13.313" transform="translate(642.633 434.902)" fill="none" stroke="#141b25" stroke-linecap="round" stroke-linejoin="round" stroke-width="1.044"/>
            <line id="Línea_979" data-name="Línea 979" x1="0.212" y2="13.313" transform="translate(655.37 438.278)" fill="none" stroke="#141b25" stroke-linecap="round" stroke-linejoin="round" stroke-width="1.044"/>
            <line id="Línea_980" data-name="Línea 980" x1="0.212" y2="13.313" transform="translate(670.315 441.002)" fill="none" stroke="#141b25" stroke-linecap="round" stroke-linejoin="round" stroke-width="1.044"/>
            <line id="Línea_981" data-name="Línea 981" x1="0.212" y2="13.313" transform="translate(686.682 442.277)" fill="none" stroke="#141b25" stroke-linecap="round" stroke-linejoin="round" stroke-width="1.044"/>
            <line id="Línea_982" data-name="Línea 982" x1="0.212" y2="13.313" transform="translate(702.498 442.535)" fill="none" stroke="#141b25" stroke-linecap="round" stroke-linejoin="round" stroke-width="1.044"/>
            <line id="Línea_983" data-name="Línea 983" x1="0.212" y2="13.313" transform="translate(719.448 442.811)" fill="none" stroke="#141b25" stroke-linecap="round" stroke-linejoin="round" stroke-width="1.044"/>
            <line id="Línea_984" data-name="Línea 984" x1="0.212" y2="13.313" transform="translate(735.648 442.066)" fill="none" stroke="#141b25" stroke-linecap="round" stroke-linejoin="round" stroke-width="1.044"/>
            <line id="Línea_985" data-name="Línea 985" x1="0.212" y2="13.313" transform="translate(753.322 440.739)" fill="none" stroke="#141b25" stroke-linecap="round" stroke-linejoin="round" stroke-width="1.044"/>
            <line id="Línea_986" data-name="Línea 986" x1="0.212" y2="13.313" transform="translate(771.208 438.722)" fill="none" stroke="#141b25" stroke-linecap="round" stroke-linejoin="round" stroke-width="1.044"/>
            <path id="Trazado_1055029" data-name="Trazado 1055029" d="M597.871,218.678c.04-2.287.486-27.476.486-27.476l49.865-14.818-1.932,41.783s-9.512,12.57-31.815,12.57a16.689,16.689,0,0,1-16.6-12.059" transform="translate(84.66 24.976)" fill="#9e5452"/>
            <path id="Trazado_1055030" data-name="Trazado 1055030" d="M598.332,196.923l-.281,14.638s35.754,12.714,49.144-13.834l1-15.622Z" transform="translate(84.686 25.787)" fill="#141b25"/>
            <path id="Trazado_1055031" data-name="Trazado 1055031" d="M644.9,160.987c-.231,6.519,3.775,11.948,8.947,12.128s9.553-4.959,9.784-11.477-3.774-11.949-8.947-12.128-9.553,4.958-9.784,11.477" transform="translate(91.317 21.17)" fill="#9e5452"/>
            <path id="Trazado_1055032" data-name="Trazado 1055032" d="M656.813,155.547s1.69,8.233-6.181,9.839" transform="translate(92.131 22.026)" fill="none" stroke="#141b25" stroke-linecap="round" stroke-linejoin="round" stroke-width="0.932"/>
            <path id="Trazado_1055033" data-name="Trazado 1055033" d="M651.579,156.6a7.2,7.2,0,0,1,3.393,6.206" transform="translate(92.265 22.175)" fill="none" stroke="#141b25" stroke-linecap="round" stroke-linejoin="round" stroke-width="0.932"/>
            <path id="Trazado_1055034" data-name="Trazado 1055034" d="M591.108,159.116c-.231,6.519-4.611,11.657-9.784,11.477s-9.179-5.61-8.947-12.128,4.611-11.656,9.784-11.477,9.177,5.61,8.947,12.128" transform="translate(81.049 20.813)" fill="#9e5452"/>
            <path id="Trazado_1055035" data-name="Trazado 1055035" d="M577.981,152.83s-2.267,8.1,5.468,10.245" transform="translate(81.8 21.641)" fill="none" stroke="#141b25" stroke-linecap="round" stroke-linejoin="round" stroke-width="0.932"/>
            <path id="Trazado_1055036" data-name="Trazado 1055036" d="M582.8,154.194a7.216,7.216,0,0,0-3.824,5.955" transform="translate(81.984 21.834)" fill="none" stroke="#141b25" stroke-linecap="round" stroke-linejoin="round" stroke-width="0.932"/>
            <path id="Trazado_1055037" data-name="Trazado 1055037" d="M619.794,216.473h0a37.878,37.878,0,0,0,39.171-36.513l.835-23.566a37.878,37.878,0,1,0-75.708-2.683l-.834,23.566a37.876,37.876,0,0,0,36.537,39.2" transform="translate(82.587 16.592)" fill="#9e5452"/>
            <path id="Trazado_1055038" data-name="Trazado 1055038" d="M588.4,147.567a33.1,33.1,0,0,1-2.952,10.161s.386-8.867-1.871-9.788Z" transform="translate(82.636 20.896)" fill="#141b25"/>
            <path id="Trazado_1055039" data-name="Trazado 1055039" d="M652.11,112.035c-22.321-14.7-47.559-9.837-54.356,3.831,0,0-15.948-5.457-21.994,13.02-3.671,11.216.928,26.068.928,26.068s5.121-3.851,9.045-.013c1.225,1.2,1.019,9.087,1.019,9.087a40.429,40.429,0,0,0,2.952-10.161s12.183-5.162,13.6-18.435c0,0,18.008,19.613,53.241,20.9a48.565,48.565,0,0,0,3.021,10.353s-.386-8.868,1.871-9.789h-.016a6.709,6.709,0,0,1,4.489-.659s8.523-29.5-13.8-44.2" transform="translate(81.328 14.595)" fill="#141b25"/>
            <path id="Trazado_1055040" data-name="Trazado 1055040" d="M604.661,159.782a3.8,3.8,0,1,1-2.63-4.729,3.8,3.8,0,0,1,2.63,4.729" transform="translate(84.565 21.936)" fill="#141b25"/>
            <path id="Trazado_1055041" data-name="Trazado 1055041" d="M594.854,150.708a10.312,10.312,0,0,1,11.088-1.763" transform="translate(84.233 20.961)" fill="none" stroke="#141b25" stroke-linecap="round" stroke-linejoin="round" stroke-width="2.202"/>
            <path id="Trazado_1055042" data-name="Trazado 1055042" d="M619.9,168.32a6.743,6.743,0,0,1-4.65,2.434,6.068,6.068,0,0,1-4.466-2.393" transform="translate(86.488 23.835)" fill="none" stroke="#421d19" stroke-linecap="round" stroke-linejoin="round" stroke-width="0.764"/>
            <line id="Línea_987" data-name="Línea 987" x2="0.89" y2="10.733" transform="translate(702.439 179.66)" fill="none" stroke="#421d19" stroke-linecap="round" stroke-linejoin="round" stroke-width="0.764"/>
            <path id="Trazado_1055043" data-name="Trazado 1055043" d="M627.39,159.68a3.791,3.791,0,0,0,4.7,2.619,3.849,3.849,0,0,0,2.6-4.754,3.79,3.79,0,0,0-4.7-2.618,3.847,3.847,0,0,0-2.6,4.753" transform="translate(88.819 21.917)" fill="#141b25"/>
            <path id="Trazado_1055044" data-name="Trazado 1055044" d="M637.574,150.513a10.294,10.294,0,0,0-11.1-1.662" transform="translate(88.71 20.942)" fill="none" stroke="#141b25" stroke-linecap="round" stroke-linejoin="round" stroke-width="2.202"/>
            <path id="Trazado_1055045" data-name="Trazado 1055045" d="M626.279,175.353a.851.851,0,0,1,.966.965c-.406,3.075-2.287,11.382-10.768,11.421-8.007.037-10.084-8.212-10.58-11.3a.853.853,0,0,1,.956-.992,65.24,65.24,0,0,0,19.427-.091" transform="translate(85.795 24.829)" fill="#421c19"/>
            <path id="Trazado_1055046" data-name="Trazado 1055046" d="M607.588,181.632a9.353,9.353,0,0,0,8.638,5.4,9.587,9.587,0,0,0,8.9-5.42,29.631,29.631,0,0,0-17.543.019" transform="translate(86.036 25.529)" fill="#7a2823"/>
            <path id="Trazado_1055047" data-name="Trazado 1055047" d="M607.15,175.524c.872,1.356,3.244,3.7,9.232,3.676,6.2-.029,8.465-2.457,9.269-3.79a72.494,72.494,0,0,1-9.278.707,79.835,79.835,0,0,1-9.223-.593" transform="translate(85.974 24.839)" fill="#fff"/>
            <path id="Trazado_1055048" data-name="Trazado 1055048" d="M615.716,175.236s2.807-5.48,6.178-5.052c2.437.309,8.675,2,13.736,2.605a1.072,1.072,0,0,1,.209,2.079c-4.866,1.637-12.7,3.257-20.123.368" transform="translate(87.187 24.095)" fill="#141b25"/>
            <path id="Trazado_1055049" data-name="Trazado 1055049" d="M618.312,175.109s-3.248-5.217-6.571-4.5c-2.4.518-8.481,2.739-13.473,3.781a1.072,1.072,0,0,0-.038,2.089c4.982,1.211,12.926,2.15,20.082-1.37" transform="translate(84.596 24.149)" fill="#141b25"/>
            <path id="Trazado_1055050" data-name="Trazado 1055050" d="M618.872,230.279l4.282,27.23L610.276,268.02l-10.768-10.128,9.647-27.409Z" transform="translate(84.892 32.608)" fill="#3d1f45"/>
            <path id="Trazado_1055051" data-name="Trazado 1055051" d="M612.927,236.35c6.14-.129,10.585-9.439,8.754-12.316-1.8-2.877-3.279-5.983-8.147-5.882s-6.213,3.267-7.894,6.218c-1.709,2.95,1.781,12.094,7.287,11.979" transform="translate(85.698 30.891)" fill="#dd4385"/>
            <path id="Trazado_1055052" data-name="Trazado 1055052" d="M598.583,209.424l17.2,10.109L604.991,232.29s-8.214-12.039-8.837-18.107Z" transform="translate(84.417 29.655)" fill="#d8d8d8"/>
            <path id="Trazado_1055053" data-name="Trazado 1055053" d="M644.554,206.011l-31.206,14.005,9.573,13.574,24.392-20.558Z" transform="translate(86.852 29.172)" fill="#d8d8d8"/>
            <path id="Trazado_1055054" data-name="Trazado 1055054" d="M705.43,380.065c-1.291-6.833-7.781-24.28-5.638-43.882s2.579-113.959,2.579-113.959c-14.324-5.29-25.233-7.911-34.415-9.166,0,0-9.921,42.019-48.205,50.323,0,0-27.218-3.569-28.86-48.26-10.378,1.409-15.893,3.013-19.447,5.912-7.976,6.507-7.427,46.839-6.529,65.073s-2.941,64.566-4.249,79.1-16.232,16.842-7.032,29.407,17.375,10.021,52.373,12.521,73.1.423,87.5-2.3,13.215-17.928,11.924-24.76" transform="translate(77.974 30.17)" fill="#e99e2e"/>
            <path id="Trazado_1055055" data-name="Trazado 1055055" d="M563.025,279.072c-.487-12.717-.639-32.054,1.345-45.707" transform="translate(79.682 33.045)" fill="none" stroke="#141b25" stroke-linecap="round" stroke-linejoin="round" stroke-width="1.044"/>
            <path id="Trazado_1055056" data-name="Trazado 1055056" d="M562.7,303.136c.321-6.366.549-12.433.619-17.665" transform="translate(79.68 40.423)" fill="none" stroke="#141b25" stroke-linecap="round" stroke-linejoin="round" stroke-width="1.044"/>
            <path id="Trazado_1055057" data-name="Trazado 1055057" d="M658.917,215.715s-3.489,31.132-33.418,45.426" transform="translate(88.572 30.546)" fill="none" stroke="#141b25" stroke-linecap="round" stroke-linejoin="round" stroke-width="1.039"/>
            <path id="Trazado_1055058" data-name="Trazado 1055058" d="M582.451,217.643s-.734,18.714,10.641,34.492" transform="translate(82.475 30.819)" fill="none" stroke="#141b25" stroke-linecap="round" stroke-linejoin="round" stroke-width="1.039"/>
            <path id="Trazado_1055059" data-name="Trazado 1055059" d="M558.8,336.792c-3.49,1.448-3.079,7.9,2.96,5.979,11.866-3.765,20.424-2.524,20.424-2.524-7.428,1.684-19.643,8.5-23.477,12.567-3.795,4.058-.882,6.89-.882,6.89s-1.962,3.56,1.239,5.445c3.218,1.864,8.773-2.307,8.773-2.307s.88,6.254,8.281,3.127c7.422-3.107,12.386-2.639,20.041-.728a35.335,35.335,0,0,0,12.761,1.085s1.678.172,4.628.36l-3.15-28.771s-13.114-5.13-24.895-6.409c-11.764-1.3-23.192,3.859-26.7,5.288" transform="translate(78.815 46.912)" fill="#9e5452"/>
            <path id="Trazado_1055060" data-name="Trazado 1055060" d="M557.672,357.674s15.068-11.336,31.572-12.1" transform="translate(78.968 48.934)" fill="none" stroke="#141b25" stroke-linecap="round" stroke-linejoin="round" stroke-width="0.74"/>
            <path id="Trazado_1055061" data-name="Trazado 1055061" d="M566.436,359.866s10.81-6.418,22.095-7.622" transform="translate(80.209 49.878)" fill="none" stroke="#141b25" stroke-linecap="round" stroke-linejoin="round" stroke-width="0.74"/>
            <path id="Trazado_1055062" data-name="Trazado 1055062" d="M691.12,324.651s-21.685-36.752-28.961-71.283,20.1-39.7,32.4-30.889S725.234,280.558,730.4,297s13.034,41.3,9.293,59.217c-4.125,19.753-95.307,31.974-111.242,33.962a7.37,7.37,0,0,1-4.444-.845l-4.742-2.583-3.6-40.449,2.595-4.411a7.445,7.445,0,0,1,4.941-3.532Z" transform="translate(87.18 30.968)" fill="#e99e2e"/>
            <path id="Trazado_1055063" data-name="Trazado 1055063" d="M617.541,330.472s-13.126,1.494-14.473,4.1-.532,30.415,2.625,34.041,15.447,2.3,15.447,2.3Z" transform="translate(85.308 46.796)" fill="#f9f3df"/>
            <path id="Trazado_1055064" data-name="Trazado 1055064" d="M615.668,345.826l2.595-4.41a7.444,7.444,0,0,1,4.942-3.532l67.914-13.706s-21.685-36.75-28.961-71.283c-3.426-16.258.83-26.007,7.576-30.853" transform="translate(87.18 31.442)" fill="none" stroke="#141b25" stroke-linecap="round" stroke-linejoin="round" stroke-width="1.044"/>
            <path id="Trazado_1055065" data-name="Trazado 1055065" d="M695.525,358.306c-27.272,6.827-58.761,11.01-67.518,12.1a7.385,7.385,0,0,1-4.444-.845l-4.743-2.585" transform="translate(87.627 50.737)" fill="none" stroke="#141b25" stroke-linecap="round" stroke-linejoin="round" stroke-width="1.044"/>
            <path id="Trazado_1055066" data-name="Trazado 1055066" d="M617.513,330.472s-13.126,1.494-14.473,4.1a7.043,7.043,0,0,0-.4,2.063" transform="translate(85.335 46.796)" fill="none" stroke="#141b25" stroke-linecap="round" stroke-linejoin="round" stroke-width="1.044"/>
            <path id="Trazado_1055067" data-name="Trazado 1055067" d="M427.114,450.759H798.477V426.494H427.114a6.9,6.9,0,0,0-6.9,6.9v10.456a6.9,6.9,0,0,0,6.9,6.9" transform="translate(59.503 60.393)" fill="#c0810c"/>
            <rect id="Rectángulo_423953" data-name="Rectángulo 423953" width="357.238" height="59.65" transform="translate(500.741 511.151)" fill="#c0810c"/>
            <g id="Grupo_1229999" data-name="Grupo 1229999" transform="translate(500.741 511.152)" opacity="0.3" style="mix-blend-mode: multiply;isolation: isolate">
              <g id="Grupo_1229998" data-name="Grupo 1229998">
                <g id="Grupo_1229997" data-name="Grupo 1229997" clip-path="url(#clip-path-16)">
                  <rect id="Rectángulo_423954" data-name="Rectángulo 423954" width="357.238" height="5.914" transform="translate(0 0)" fill="#c0810c"/>
                </g>
              </g>
            </g>
            <path id="Trazado_1055068" data-name="Trazado 1055068" d="M632.181,391.455v19.824H742.04a19.967,19.967,0,0,0,2.274-9.91,21.272,21.272,0,0,0-2.274-9.914Z" transform="translate(89.518 55.431)" fill="#79d357"/>
            <path id="Trazado_1055069" data-name="Trazado 1055069" d="M658.742,394.926c2.595,4.973,1.538,12.456-2.2,16.352H632.18V391.454h24.358a16.669,16.669,0,0,1,2.2,3.472" transform="translate(89.518 55.431)" fill="#69b846"/>
            <path id="Trazado_1055070" data-name="Trazado 1055070" d="M632.179,393.046v16.19h22.737c3.96-3.985,3.827-12.172,0-16.19Z" transform="translate(89.518 55.656)" fill="#fff"/>
            <path id="Trazado_1055071" data-name="Trazado 1055071" d="M660.222,411.14a.6.6,0,0,0-.016.139h1.148c2.658-10.62.435-18.492.009-19.824H660.2a.6.6,0,0,0,.032.183c.029.085,2.818,8.359-.011,19.5" transform="translate(93.486 55.431)" fill="#fff"/>
            <path id="Trazado_1055072" data-name="Trazado 1055072" d="M664.684,411.14a.58.58,0,0,0-.016.139h1.148c2.661-10.62.435-18.492.013-19.824h-1.161a.565.565,0,0,0,.032.183c.027.085,2.813,8.359-.016,19.5" transform="translate(94.119 55.431)" fill="#fff"/>
            <path id="Trazado_1055073" data-name="Trazado 1055073" d="M719.447,411.14a.585.585,0,0,0-.019.139h1.148c2.661-10.62.435-18.492.013-19.824h-1.161a.6.6,0,0,0,.031.183c.029.085,2.817,8.359-.011,19.5" transform="translate(101.873 55.431)" fill="#fff"/>
            <path id="Trazado_1055074" data-name="Trazado 1055074" d="M723.911,411.14a.587.587,0,0,0-.021.139h1.153c2.658-10.62.435-18.492.009-19.824H723.89a.6.6,0,0,0,.032.183c.028.085,2.817,8.359-.011,19.5" transform="translate(102.505 55.431)" fill="#fff"/>
            <path id="Trazado_1055075" data-name="Trazado 1055075" d="M632.179,394.464v1.217h24.536a12.463,12.463,0,0,0-.639-1.217Z" transform="translate(89.518 55.857)" fill="#e9eef1"/>
            <path id="Trazado_1055076" data-name="Trazado 1055076" d="M632.179,396.536v1.211h25.369c-.1-.43-.227-.832-.356-1.211Z" transform="translate(89.518 56.151)" fill="#e9eef1"/>
            <path id="Trazado_1055077" data-name="Trazado 1055077" d="M632.179,398.608v1.211h25.708a9.173,9.173,0,0,0-.113-1.211Z" transform="translate(89.518 56.444)" fill="#e9eef1"/>
            <path id="Trazado_1055078" data-name="Trazado 1055078" d="M632.179,400.68v1.211h25.595a11.5,11.5,0,0,0,.113-1.211Z" transform="translate(89.518 56.737)" fill="#e9eef1"/>
            <path id="Trazado_1055079" data-name="Trazado 1055079" d="M632.179,402.752v1.211H657.2a12.35,12.35,0,0,0,.357-1.211Z" transform="translate(89.518 57.031)" fill="#e9eef1"/>
            <path id="Trazado_1055080" data-name="Trazado 1055080" d="M632.179,404.824v1.211H656.07a12.427,12.427,0,0,0,.651-1.211Z" transform="translate(89.518 57.324)" fill="#e9eef1"/>
            <path id="Trazado_1055081" data-name="Trazado 1055081" d="M744.312,408.821v19.825H634.453a19.972,19.972,0,0,1-2.274-9.91,21.274,21.274,0,0,1,2.274-9.915Z" transform="translate(89.518 57.89)" fill="#dd4385"/>
            <path id="Trazado_1055082" data-name="Trazado 1055082" d="M643.439,428.506a.588.588,0,0,1,.019.139H642.31c-2.661-10.62-.435-18.492-.011-19.824h1.16a.618.618,0,0,1-.031.184c-.029.083-2.818,8.358.011,19.5" transform="translate(90.771 57.89)" fill="#fff"/>
            <path id="Trazado_1055083" data-name="Trazado 1055083" d="M638.976,428.506a.536.536,0,0,1,.02.139h-1.153c-2.658-10.62-.435-18.492-.008-19.824H639a.616.616,0,0,1-.032.184c-.029.083-2.817,8.358.011,19.5" transform="translate(90.138 57.89)" fill="#fff"/>
            <path id="Trazado_1055084" data-name="Trazado 1055084" d="M651.919,412.292c-2.595,4.973-1.538,12.456,2.2,16.352h87.6V408.82h-87.6a16.663,16.663,0,0,0-2.2,3.472" transform="translate(92.111 57.89)" fill="#c93071"/>
            <path id="Trazado_1055085" data-name="Trazado 1055085" d="M741.451,410.412V426.6H655.319c-3.961-3.985-3.828-12.172,0-16.19Z" transform="translate(92.381 58.115)" fill="#fff"/>
            <path id="Trazado_1055086" data-name="Trazado 1055086" d="M741.316,411.83v1.217H653.353a12.2,12.2,0,0,1,.639-1.217Z" transform="translate(92.516 58.316)" fill="#e9eef1"/>
            <path id="Trazado_1055087" data-name="Trazado 1055087" d="M741.419,413.9v1.211h-88.8c.1-.43.226-.832.356-1.211Z" transform="translate(92.413 58.61)" fill="#e9eef1"/>
            <path id="Trazado_1055088" data-name="Trazado 1055088" d="M741.461,415.974v1.211H652.327a9.153,9.153,0,0,1,.113-1.211Z" transform="translate(92.371 58.903)" fill="#e9eef1"/>
            <path id="Trazado_1055089" data-name="Trazado 1055089" d="M741.461,418.046v1.211H652.44a11.465,11.465,0,0,1-.113-1.211Z" transform="translate(92.371 59.196)" fill="#e9eef1"/>
            <path id="Trazado_1055090" data-name="Trazado 1055090" d="M741.42,420.118v1.211H652.975c-.13-.379-.255-.781-.356-1.211Z" transform="translate(92.412 59.49)" fill="#e9eef1"/>
            <path id="Trazado_1055091" data-name="Trazado 1055091" d="M741.317,422.189V423.4H654a12.166,12.166,0,0,1-.651-1.211Z" transform="translate(92.516 59.783)" fill="#e9eef1"/>
            <path id="Trazado_1055092" data-name="Trazado 1055092" d="M503.734,432.752s-3.42.874-9.067-7.794-13.283-16.782-12.168-25.372,6.442-13.839,12.248-15.35,8.271-1.113,11.134,0,7.794,2.625,16.224.318,14.555,3.42,16.782,13.521-7.317,17.895-8.748,22.905-5.329,10.181-8.589,11.214-5.568-.159-8.749.239a38.421,38.421,0,0,1-9.067.319" transform="translate(68.308 54.269)" fill="#dd4385"/>
            <path id="Trazado_1055093" data-name="Trazado 1055093" d="M507.121,388.461s3.53-11.394,11.006-13.542,15.031,2.465,21.633,1.51c0,0-8.3,12.409-18.77,14-8.908,1.352-13.869-1.967-13.869-1.967" transform="translate(71.81 53.008)" fill="#79d357"/>
            <path id="Trazado_1055094" data-name="Trazado 1055094" d="M511.58,374.949c-.644,2.634-1.385,5.295-2.142,7.967-.773,2.672-1.566,5.352-2.572,8.014a.055.055,0,0,1-.106-.016,52.91,52.91,0,0,1,.322-8.462,44.112,44.112,0,0,1,1.644-8.325,1.486,1.486,0,0,1,2.86.8Z" transform="translate(71.751 52.831)" fill="#3d1f45"/>
            <g id="Grupo_1230002" data-name="Grupo 1230002" transform="translate(564.96 451.129)" opacity="0.2">
              <g id="Grupo_1230001" data-name="Grupo 1230001">
                <g id="Grupo_1230000" data-name="Grupo 1230000" clip-path="url(#clip-path-17)">
                  <path id="Trazado_1055095" data-name="Trazado 1055095" d="M494.883,426.058c4.452,5.674,7.081,5,7.081,5a38.545,38.545,0,0,0,9.067-.319c3.182-.4,5.488.8,8.749-.239s7.158-6.2,8.589-11.214,10.975-12.805,8.748-22.906c-.091-.416-.2-.812-.3-1.214a30.914,30.914,0,0,0-9.286,6.735c-6.49,6.95-5.8,13.086-10.274,18.1-3.308,3.707-9.564,6.935-22.37,6.048" transform="translate(-494.883 -395.172)" fill="#141b25"/>
                </g>
              </g>
            </g>
          </g>
        </g>
        <line id="Línea_1027" data-name="Línea 1027" x1="1329.634" transform="translate(136.5 2501.592)" fill="none" stroke="#6052d7" stroke-miterlimit="10" stroke-width="0.75"/>
      </g>
    </g>
    <g id="Grupo_1230031" data-name="Grupo 1230031" transform="translate(630.857 2769)">
      <g id="Rectángulo_417959" data-name="Rectángulo 417959" fill="#fff" stroke="#8a08ff" stroke-width="2">
        <rect width="106" height="60" rx="30" stroke="none"/>
        <rect x="1" y="1" width="104" height="58" rx="29" fill="none"/>
      </g>
      <text id="_1" data-name="1" transform="translate(23.897 38)" fill="#212429" font-size="22" font-family="SegoeUI-Bold, Segoe UI" font-weight="700"><tspan x="0" y="0">1</tspan></text>
    </g>
    <g id="Grupo_1230032" data-name="Grupo 1230032" transform="translate(-2733 1259)">
      <g id="Rectángulo_417959-2" data-name="Rectángulo 417959" transform="translate(3702.857 1306)" fill="#fff" stroke="#8a08ff" stroke-width="2">
        <rect width="106" height="60" rx="30" stroke="none"/>
        <rect x="1" y="1" width="104" height="58" rx="29" fill="none"/>
      </g>
      <text id="_2" data-name="2" transform="translate(3771.96 1344)" fill="#212429" font-size="22" font-family="SegoeUI-Bold, Segoe UI" font-weight="700"><tspan x="0" y="0">2</tspan></text>
    </g>
    <g id="Grupo_1230034" data-name="Grupo 1230034" transform="translate(-2515 1486.103)">
      <g id="Rectángulo_417959-3" data-name="Rectángulo 417959" transform="translate(3702.857 1306)" fill="#fff" stroke="#8a08ff" stroke-width="2">
        <rect width="106" height="60" rx="30" stroke="none"/>
        <rect x="1" y="1" width="104" height="58" rx="29" fill="none"/>
      </g>
      <text id="_3" data-name="3" transform="translate(3771.96 1344)" fill="#212429" font-size="22" font-family="SegoeUI-Bold, Segoe UI" font-weight="700"><tspan x="0" y="0">3</tspan></text>
    </g>
    <g id="Grupo_1230036" data-name="Grupo 1230036" transform="translate(652.644 2629)">
      <g id="Rectángulo_417959-4" data-name="Rectángulo 417959" fill="#fff" stroke="#8a08ff" stroke-width="2">
        <rect width="106" height="60" rx="30" stroke="none"/>
        <rect x="1" y="1" width="104" height="58" rx="29" fill="none"/>
      </g>
      <text id="_4" data-name="4" transform="translate(23.897 38)" fill="#212429" font-size="22" font-family="SegoeUI-Bold, Segoe UI" font-weight="700"><tspan x="0" y="0">4</tspan></text>
    </g>
  </g>
</svg>
