<svg xmlns="http://www.w3.org/2000/svg" xmlns:xlink="http://www.w3.org/1999/xlink" width="400" height="340" viewBox="0 0 400 340">
  <defs>
    <clipPath id="clip-path">
      <rect id="Rectángulo_423968" data-name="Rectángulo 423968" width="400" height="340" transform="translate(180 3947)" fill="#fff" stroke="#707070" stroke-width="1"/>
    </clipPath>
    <clipPath id="clip-path-2">
      <rect id="Rectángulo_423988" data-name="Rectángulo 423988" width="362.913" height="331.07" fill="none"/>
    </clipPath>
    <clipPath id="clip-path-3">
      <rect id="Rectángulo_423987" data-name="Rectángulo 423987" width="362.913" height="313.009" fill="none"/>
    </clipPath>
    <clipPath id="clip-path-4">
      <rect id="Rectángulo_423969" data-name="Rectángulo 423969" width="140.51" height="152.42" fill="none"/>
    </clipPath>
    <clipPath id="clip-path-5">
      <rect id="Rectángulo_423970" data-name="Rectángulo 423970" width="28.062" height="30.839" fill="none"/>
    </clipPath>
    <clipPath id="clip-path-6">
      <rect id="Rectángulo_423971" data-name="Rectángulo 423971" width="15.4" height="32.782" fill="none"/>
    </clipPath>
    <clipPath id="clip-path-7">
      <rect id="Rectángulo_423972" data-name="Rectángulo 423972" width="21.634" height="47.545" fill="none"/>
    </clipPath>
    <clipPath id="clip-path-8">
      <rect id="Rectángulo_423973" data-name="Rectángulo 423973" width="109.004" height="55.577" fill="none"/>
    </clipPath>
    <clipPath id="clip-path-9">
      <rect id="Rectángulo_423974" data-name="Rectángulo 423974" width="42.584" height="55.428" fill="none"/>
    </clipPath>
    <clipPath id="clip-path-10">
      <rect id="Rectángulo_423975" data-name="Rectángulo 423975" width="20.89" height="36.76" fill="none"/>
    </clipPath>
    <clipPath id="clip-path-11">
      <rect id="Rectángulo_423976" data-name="Rectángulo 423976" width="28.144" height="10.904" fill="none"/>
    </clipPath>
    <clipPath id="clip-path-12">
      <rect id="Rectángulo_423977" data-name="Rectángulo 423977" width="112.57" height="36.077" fill="none"/>
    </clipPath>
    <clipPath id="clip-path-13">
      <rect id="Rectángulo_423978" data-name="Rectángulo 423978" width="97.324" height="40.53" fill="none"/>
    </clipPath>
    <clipPath id="clip-path-14">
      <rect id="Rectángulo_423979" data-name="Rectángulo 423979" width="78.072" height="119.522" fill="none"/>
    </clipPath>
    <clipPath id="clip-path-15">
      <rect id="Rectángulo_423980" data-name="Rectángulo 423980" width="19.486" height="18.716" fill="none"/>
    </clipPath>
    <clipPath id="clip-path-16">
      <rect id="Rectángulo_423981" data-name="Rectángulo 423981" width="35.835" height="32.16" fill="none"/>
    </clipPath>
    <clipPath id="clip-path-17">
      <rect id="Rectángulo_423982" data-name="Rectángulo 423982" width="26.822" height="43.308" fill="none"/>
    </clipPath>
    <clipPath id="clip-path-18">
      <rect id="Rectángulo_423983" data-name="Rectángulo 423983" width="19.995" height="27.011" fill="none"/>
    </clipPath>
    <clipPath id="clip-path-19">
      <rect id="Rectángulo_423985" data-name="Rectángulo 423985" width="198.763" height="51.818" fill="none"/>
    </clipPath>
    <clipPath id="clip-path-20">
      <rect id="Rectángulo_423986" data-name="Rectángulo 423986" width="85.509" height="24.555" fill="none"/>
    </clipPath>
  </defs>
  <g id="Grupo_1230204" data-name="Grupo 1230204" transform="translate(-180 -3947)">
    <rect id="Rectángulo_423989" data-name="Rectángulo 423989" width="263" height="271" rx="13" transform="translate(249 4016)" fill="#f3de50"/>
    <g id="Enmascarar_grupo_1098764" data-name="Enmascarar grupo 1098764" clip-path="url(#clip-path)">
      <g id="Grupo_1230203" data-name="Grupo 1230203" transform="translate(198.544 3975.122)">
        <g id="Grupo_1230202" data-name="Grupo 1230202" transform="translate(0)" clip-path="url(#clip-path-2)">
          <g id="Grupo_1230201" data-name="Grupo 1230201">
            <g id="Grupo_1230200" data-name="Grupo 1230200" clip-path="url(#clip-path-3)">
              <path id="Trazado_1055396" data-name="Trazado 1055396" d="M257.753,360.8c1.287,30.838,138.291,14.4,138.291,14.4a375.623,375.623,0,0,1,2.174-39.959c.843-7.887,2-16.39,3.6-24.969.452-2.4.986-4.929,1.588-7.555,7.714-33.412,26.625-82.379,19.95-94.283-2.822-5.042-8.571-9.406-14.509-12.831-.361-.211-.722-.414-1.084-.617-2.393-1.347-4.793-2.536-7.021-3.552A109.58,109.58,0,0,0,390,187.159c-9.512-4.086-22.034-6.389-33.856-7.458-4.455-.406-8.812-.64-12.868-.729-10.385-.219-18.821.5-22,1.67-7.714,2.83-18.249,8.481-28.009,32.373-3.853,9.437-10.393,29.627-16.827,52.511-9.865,35.128-19.475,76.607-18.692,95.277" transform="translate(-248.504 -49.334)" fill="#ad77e0"/>
              <g id="Grupo_1230151" data-name="Grupo 1230151" transform="translate(9.204 178.65)" opacity="0.3" style="mix-blend-mode: overlay;isolation: isolate">
                <g id="Grupo_1230150" data-name="Grupo 1230150">
                  <g id="Grupo_1230149" data-name="Grupo 1230149" clip-path="url(#clip-path-4)">
                    <path id="Trazado_1055397" data-name="Trazado 1055397" d="M294.4,380.3c1.287,30.838,138.291,14.4,138.291,14.4a375.613,375.613,0,0,1,2.174-39.959c-41.531-33.224-72.452-109.229-78.232-108.07-7.375,1.475-25.42,23.893-25.42,23.893l-18.121,14.463c-9.865,35.128-19.475,76.607-18.692,95.277" transform="translate(-294.357 -246.657)" fill="#272525"/>
                  </g>
                </g>
              </g>
              <path id="Trazado_1055398" data-name="Trazado 1055398" d="M289.408,219.967c15.758,5.479,22.786-8.36,22.786-8.36,1.844,9.6,15.645,22.681,25.917,16.916,7.548-4.236,10.061-23.478,10.505-32.907-.361-.211-.722-.414-1.084-.617-2.393-1.347-4.793-2.536-7.021-3.552a109.494,109.494,0,0,0-10.745-4.275c-9.512-4.086-22.034-6.389-33.856-7.457-4.455-.406-8.812-.64-12.868-.73-2.942,8.842-8.134,35.948,6.366,40.982" transform="translate(-188.269 -49.349)" fill="#d6aefc"/>
              <path id="Trazado_1055399" data-name="Trazado 1055399" d="M307.49,211.509c20.754,4.906,28.731-15.509,30.161-19.784a109.582,109.582,0,0,0-10.746-4.274c-9.512-4.086-22.034-6.389-33.856-7.458-3.965,8.684-4.289,27.083,14.441,31.516" transform="translate(-185.408 -49.627)" fill="#a163db"/>
              <path id="Trazado_1055400" data-name="Trazado 1055400" d="M303.137,193.795c5.147,5.734,14.991,6.84,19.182,5.05,1.505-.647,3.958-3.718,6.487-7.39,1.806-2.626,3.65-5.546,5.207-8.12a40.089,40.089,0,0,1-16.186-12.469,29.015,29.015,0,0,1-3.816-6.667c-.466-1.189-.918-2.378-1.346-3.582-1.9,3.228-4.53,7.616-6.713,11.235-2.055,3.394-3.7,6.118-3.981,6.6-.994,1.716-3.973,9.595,1.166,15.344" transform="translate(-188.535 -44.284)" fill="#edb3a8"/>
              <g id="Grupo_1230154" data-name="Grupo 1230154" transform="translate(117.416 116.332)" opacity="0.3" style="mix-blend-mode: overlay;isolation: isolate">
                <g id="Grupo_1230153" data-name="Grupo 1230153" transform="translate(0)">
                  <g id="Grupo_1230152" data-name="Grupo 1230152" clip-path="url(#clip-path-5)">
                    <path id="Trazado_1055401" data-name="Trazado 1055401" d="M300.206,171.851c5.305,11.491,15.923,17.074,22.854,19.6,1.806-2.626,3.65-5.546,5.208-8.119a40.1,40.1,0,0,1-16.187-12.469,29.012,29.012,0,0,1-3.815-6.667c-.467-1.189-.918-2.379-1.347-3.582-1.9,3.228-4.53,7.616-6.713,11.235" transform="translate(-300.206 -160.616)" fill="#272525"/>
                  </g>
                </g>
              </g>
              <path id="Trazado_1055402" data-name="Trazado 1055402" d="M205.747,131.253a72.763,72.763,0,0,0,2.649,9.233c.429,1.2.873,2.371,1.332,3.552.008.008.008.023.015.03a29.013,29.013,0,0,0,3.816,6.667,40.8,40.8,0,0,0,26.3,15.314,38.326,38.326,0,0,0,16.947-1.362,41.083,41.083,0,0,0,4.327-1.61c8.489-3.725,15.991-11.694,22.057-20.243a157.617,157.617,0,0,0,15.893-29.168c-2.83-4.282-14.042-14.554-16.359-18.173-.979-1.513-1.325-4.628-1.37-7.887a10.148,10.148,0,0,1-3.289,4.906c-4.658,3.221-11.657-2.791-29.01-1.512-14.042,1.046-27.075,3.936-35.752,1.919a16.01,16.01,0,0,1-2.686-.835c-.09.226-.188.451-.271.677a74.638,74.638,0,0,0-5.479,20.153c-.03.218-.052.437-.075.648h-.007a55.676,55.676,0,0,0,.963,17.691" transform="translate(-84.267 -24.155)" fill="#f6cfc6"/>
              <path id="Trazado_1055403" data-name="Trazado 1055403" d="M226.417,178.97a18.1,18.1,0,0,0,.963,5.847,40.931,40.931,0,0,0,4.327-1.611c8.489-3.725,15.991-11.694,22.057-20.242a18.362,18.362,0,0,0-27.347,16.006" transform="translate(-54.842 -44.284)" fill="#ffa8be"/>
              <path id="Trazado_1055404" data-name="Trazado 1055404" d="M294.279,139.271a72.764,72.764,0,0,0,2.649,9.233c.429,1.2.873,2.371,1.332,3.552a18.353,18.353,0,1,0-4.861-31.124c-.03.218-.052.437-.075.648h-.007a55.677,55.677,0,0,0,.963,17.691" transform="translate(-172.799 -32.173)" fill="#ffa8be"/>
              <path id="Trazado_1055405" data-name="Trazado 1055405" d="M324.12,107.4a12.73,12.73,0,0,0,3.2,3.484,7.017,7.017,0,0,0,1.595.851,5.876,5.876,0,0,0,2.476.391,7.689,7.689,0,0,0,3.055-.843h.007c1.543-.782,6.111-10.2,8.165-14.569a.365.365,0,0,0,.038-.083,7.574,7.574,0,0,0,.587-4.673c-.083-.4-.173-.843-.279-1.317-1.091-4.748-3.74-12.093-9.617-11.228a5.644,5.644,0,0,0-.888.188,8,8,0,0,0-1.339.5,10.3,10.3,0,0,0-3.138,2.355c-5.779,6.186-7.232,19.814-3.86,24.939" transform="translate(-213.928 -21.876)" fill="#edb3a8"/>
              <g id="Grupo_1230157" data-name="Grupo 1230157" transform="translate(114.052 57.468)" opacity="0.3" style="mix-blend-mode: overlay;isolation: isolate">
                <g id="Grupo_1230156" data-name="Grupo 1230156" transform="translate(0)">
                  <g id="Grupo_1230155" data-name="Grupo 1230155" clip-path="url(#clip-path-6)">
                    <path id="Trazado_1055406" data-name="Trazado 1055406" d="M325.742,112.126a7.685,7.685,0,0,0,3.055-.843h.008c1.543-.782,6.11-10.2,8.165-14.568a.42.42,0,0,0,.037-.083,7.574,7.574,0,0,0,.587-4.673c-.083-.4-.173-.842-.278-1.317-1.091-4.748-3.74-12.093-9.618-11.228a5.678,5.678,0,0,0-.888.188,8.051,8.051,0,0,0-1.339.5,10.3,10.3,0,0,0-3.138,2.355c1.964,5.712,5.524,18.294,3.409,29.665" transform="translate(-322.333 -79.344)" fill="#272525"/>
                  </g>
                </g>
              </g>
              <path id="Trazado_1055407" data-name="Trazado 1055407" d="M339.275,83.509c0,.391.015.79.022,1.181.3,9.783,2.363,18.324,7.1,21.786.384.278.775.534,1.181.775a13.052,13.052,0,0,0,1.2.632,8.75,8.75,0,0,0,.986.429,16.228,16.228,0,0,0,10.919.324c.285-.091.571-.2.85-.3a14.409,14.409,0,0,0,3.883-2.265,12.756,12.756,0,0,1-3.2-3.485,9.981,9.981,0,0,1-1.3-3.266,15.612,15.612,0,0,1-.324-1.889c-.918-7.638,2.085-19.069,8.624-22.139a19.853,19.853,0,0,1-.775-2.137c-.1-.294-.181-.587-.264-.888a22.063,22.063,0,0,1-.647-4.154c-.03-.3-.038-.609-.038-.918a22.717,22.717,0,0,1,.482-5.313,91.122,91.122,0,0,0-9.873.971c-8.722,1.385-18.008,4.538-18.542,11.672-.233,3.025-.331,6.057-.278,8.985" transform="translate(-252.02 -17.062)" fill="#4b3d75"/>
              <path id="Trazado_1055408" data-name="Trazado 1055408" d="M341.009,86.253a.459.459,0,0,0,.451.459h.008a.435.435,0,0,0,.384-.233,35.861,35.861,0,0,1,10.459-9.437,50.827,50.827,0,0,1,8.015-3.71c2.069-.776,4.154-1.467,6.223-2.153l3.146-1.046.113-.038a.462.462,0,0,0,.286-.572.47.47,0,0,0-.437-.309.422.422,0,0,0-.135.023l-3.259,1.084c-1.956.64-3.936,1.3-5.907,2.032a52.22,52.22,0,0,0-8.5,3.905,36.685,36.685,0,0,0-10.414,9.272c-.121.15-.234.3-.346.451a.451.451,0,0,0-.091.271" transform="translate(-254.19 -19.084)" fill="#6a5a99"/>
              <path id="Trazado_1055409" data-name="Trazado 1055409" d="M340.783,110.3a15.636,15.636,0,0,0,.5,1.528c.046.143.1.286.151.429a.458.458,0,0,0,.422.286.426.426,0,0,0,.165-.03.472.472,0,0,0,.256-.587,19.794,19.794,0,0,1-.813-2.6,22.559,22.559,0,0,1,2.769-17.413,31.107,31.107,0,0,1,5.561-6.246c1.317-1.174,2.686-2.273,4.041-3.341,2.792-2.2,5-3.816,7.112-5.231.038-.022.075-.053.113-.075a.45.45,0,0,0,.127-.624.455.455,0,0,0-.5-.188.663.663,0,0,0-.12.059c-2.175,1.446-4.417,3.093-7.284,5.351-1.1.865-2.213,1.753-3.3,2.694a33.026,33.026,0,0,0-6.494,7.111,23.447,23.447,0,0,0-2.7,18.873" transform="translate(-244.536 -21.008)" fill="#6a5a99"/>
              <path id="Trazado_1055410" data-name="Trazado 1055410" d="M350.521,122.108c.007.023.007.046.022.061a.435.435,0,0,0,.422.308.35.35,0,0,0,.083-.007.455.455,0,0,0,.361-.527c-.007-.022-.007-.053-.015-.075a40.711,40.711,0,0,1-.617-9.017c.03-.608.068-1.226.128-1.835l-.451-.052-.452.014a41.272,41.272,0,0,0,.519,11.129" transform="translate(-241.887 -30.594)" fill="#6a5a99"/>
              <g id="Grupo_1230160" data-name="Grupo 1230160" transform="translate(95.556 44.82)" opacity="0.3" style="mix-blend-mode: overlay;isolation: isolate">
                <g id="Grupo_1230159" data-name="Grupo 1230159">
                  <g id="Grupo_1230158" data-name="Grupo 1230158" clip-path="url(#clip-path-7)">
                    <path id="Trazado_1055411" data-name="Trazado 1055411" d="M339.262,107.251a13.064,13.064,0,0,0,1.2.632c.045.143.1.286.151.429a.456.456,0,0,0,.422.286.432.432,0,0,0,.165-.03.414.414,0,0,0,.248-.256,16.231,16.231,0,0,0,10.92.324.436.436,0,0,0,.421.309.291.291,0,0,0,.083-.008.453.453,0,0,0,.361-.527c-.007-.022-.007-.053-.015-.075a14.413,14.413,0,0,0,3.884-2.265,12.733,12.733,0,0,1-3.2-3.485,9.966,9.966,0,0,1-1.3-3.266c.03-.609.067-1.226.127-1.836l-.451-.053c-.918-7.638,2.085-19.069,8.623-22.139a19.951,19.951,0,0,1-.774-2.137c.037-.023.075-.053.112-.075a.453.453,0,0,0-.376-.813,22.115,22.115,0,0,1-.648-4.154l.113-.038a.462.462,0,0,0,.287-.572.47.47,0,0,0-.437-.309,22.718,22.718,0,0,1,.481-5.313,91.111,91.111,0,0,0-9.872.971c.1,2.16.143,4.7.091,7.48-.015.323-.023.647-.031.978-.091,2.837-.3,5.9-.692,9.061q-.091.677-.18,1.354c-1.144,8.112-3.561,16.721-8.331,23.659-.218.331-.451.648-.684.971-.226.3-.453.6-.693.9" transform="translate(-339.263 -61.882)" fill="#272525"/>
                  </g>
                </g>
              </g>
              <path id="Trazado_1055412" data-name="Trazado 1055412" d="M193.673,61.615a20.04,20.04,0,0,0,1.633,3.048,19.333,19.333,0,0,0,4.853,5.184,12.385,12.385,0,0,0,2.671,1.467,16.019,16.019,0,0,0,2.687.836c8.676,2.016,21.71-.873,35.752-1.919,17.353-1.279,23.772,4.41,29.009,1.513a6.9,6.9,0,0,0,3.409-3.462c.068-.165.135-.338.2-.527,0,.188.008.377.008.564.045,2.958.128,4.982,1.046,6.4,2.318,3.62,13.53,13.892,16.359,18.173A4.294,4.294,0,0,1,291.892,94c.993,3.123,8.1-3.5,8.473-18.67.007-.369.015-.745.015-1.129v-.12c0-10.332-1.212-20.92-4.869-29.927-.233-.579-.481-1.159-.737-1.724-.158-.361-.323-.715-.5-1.068a37.405,37.405,0,0,0-7.307-10.445,63.015,63.015,0,0,0-11.823-9.151c-.414-.248-.842-.5-1.272-.737a65.244,65.244,0,0,0-11.822-5.313c-.587-.2-1.181-.4-1.783-.572a65.313,65.313,0,0,0-21.68-2.822c-.2.014-.392.022-.587.03a41.586,41.586,0,0,0-15.051,3.823c-.376.166-.76.346-1.136.527a66.128,66.128,0,0,0-18.768,13.809c-.256.271-.519.549-.767.82a53.935,53.935,0,0,0-6.088,7.849c-.188.286-.361.572-.527.85-.339.579-.662,1.159-.948,1.738-.2.4-.4.8-.572,1.2a25.322,25.322,0,0,0-1.708,5.237,22.427,22.427,0,0,0,1.241,13.41" transform="translate(-76.483 -3.385)" fill="#4b3d75"/>
              <path id="Trazado_1055413" data-name="Trazado 1055413" d="M335.326,136.874a9.211,9.211,0,0,0,4.7,4.26c-.233-1.091-.437-2.2-.61-3.327a55.2,55.2,0,0,1-.353-14.365,6.772,6.772,0,0,1-5.531.452c-.353,3.4-.466,8.932,1.791,12.981" transform="translate(-218.549 -34.035)" fill="#4b3d75"/>
              <path id="Trazado_1055414" data-name="Trazado 1055414" d="M227.05,16.673a30.2,30.2,0,0,1,4.282,4.764c.293.391.571.79.835,1.189a39.525,39.525,0,0,1,3.725,7.059.35.35,0,0,1,.022.053c.091.225.188.459.279.692.038.106.083.2.12.309a63.689,63.689,0,0,1,3.492,14.252c.053.444.113.881.158,1.325.166,1.384.293,2.746.376,4.07a98.624,98.624,0,0,1-.383,18.241.554.554,0,0,0,.361.595.722.722,0,0,0,.128.03.214.214,0,0,0,.067.007h.008a.559.559,0,0,0,.549-.5,100.555,100.555,0,0,0,.392-18.519c-.091-1.218-.2-2.468-.346-3.732-.046-.414-.1-.836-.151-1.257V45.24c-.008-.053-.015-.106-.022-.158,0-.009-.008-.015-.008-.023-.014-.12-.03-.24-.045-.369a66.4,66.4,0,0,0-3.041-13.018c-.225-.64-.466-1.272-.722-1.9,0-.007-.007-.015-.007-.022l-.008-.007a.193.193,0,0,0-.03-.083,41.484,41.484,0,0,0-3.514-6.945c-.279-.437-.565-.873-.858-1.294a31.55,31.55,0,0,0-4.034-4.756c-.286-.293-.579-.564-.873-.828a.562.562,0,0,0-.8.046.416.416,0,0,0-.113.211.544.544,0,0,0,.158.586" transform="translate(-43.111 -4.325)" fill="#6a5a99"/>
              <path id="Trazado_1055415" data-name="Trazado 1055415" d="M227.932,53.68c.067.166.135.324.2.489a32.072,32.072,0,0,0,15.035,15.6,42.426,42.426,0,0,0,19.182,4.3q2.6,0,5.275-.264c7.337-.737,15.164-2.987,23.922-6.863a51.114,51.114,0,0,0,7.194-3.763c.934-.61,1.844-1.272,2.71-1.942.715-.542,1.392-1.084,2.039-1.595l3.838-3.063.549-.437.241-.2a.62.62,0,0,0,.211-.429V55.5c-.008-.052-.015-.105-.022-.158,0-.007-.008-.015-.008-.022a.754.754,0,0,0-.09-.173.579.579,0,0,0-.8-.091l-.1.075v.008l-.143.112-4.387,3.5c-1.039.835-2.19,1.753-3.387,2.611-.414.293-.843.587-1.272.866A48.306,48.306,0,0,1,291.1,65.9c-8.654,3.838-16.367,6.051-23.584,6.773-8.782.888-17.021-.466-23.832-3.913a30.785,30.785,0,0,1-14.7-15.5.549.549,0,0,0-.279-.286.542.542,0,0,0-.459-.03.577.577,0,0,0-.316.737" transform="translate(-110.478 -14.587)" fill="#6a5a99"/>
              <path id="Trazado_1055416" data-name="Trazado 1055416" d="M260.373,49c7.661,0,15.134-2.107,22.143-4.452a67.667,67.667,0,0,0,10.275-4.176c1.116-.59,2.239-1.246,3.325-1.88a56.374,56.374,0,0,1,5.131-2.77.565.565,0,0,0-.465-1.029,57.5,57.5,0,0,0-5.236,2.824c-1.076.628-2.188,1.278-3.283,1.858a66.817,66.817,0,0,1-10.105,4.1c-8,2.676-16.609,5.039-25.339,4.233A36.617,36.617,0,0,1,234.1,36.7a.564.564,0,1,0-.816.78A37.769,37.769,0,0,0,256.714,48.83c1.223.113,2.444.166,3.659.166" transform="translate(-107.519 -9.551)" fill="#6a5a99"/>
              <path id="Trazado_1055417" data-name="Trazado 1055417" d="M259.544,23.925c3.224,0,6.457-.251,9.641-.5a87.427,87.427,0,0,1,13.7-.343.565.565,0,0,0,.092-1.126A88.164,88.164,0,0,0,269.1,22.3c-6.7.519-13.63,1.055-20.092-.8a44.25,44.25,0,0,1-9.331-4.148.564.564,0,0,0-.555.983,45.3,45.3,0,0,0,9.574,4.25,39.045,39.045,0,0,0,10.85,1.341" transform="translate(-93.567 -4.764)" fill="#6a5a99"/>
              <path id="Trazado_1055418" data-name="Trazado 1055418" d="M191.353,56.466c.135.121.279.249.414.385.2.2.406.406.6.632.218.24.429.5.64.76a23.257,23.257,0,0,1,1.776,2.678c.361.61.7,1.22,1.031,1.822l.429.79A102.867,102.867,0,0,0,209.03,81.594c2.438,2.739,5.441,5.553,9.211,5.651h.015a.564.564,0,0,0,.015-1.128h-.008c-3.341-.091-6.111-2.717-8.391-5.275a100.794,100.794,0,0,1-12.634-17.857l-.437-.79c-.271-.49-.542-.979-.82-1.467a26.685,26.685,0,0,0-2.085-3.183,15.189,15.189,0,0,0-1.753-1.882c-.015-.014-.022-.029-.038-.037a.562.562,0,0,0-.8.046.5.5,0,0,0-.106.172v.008a.554.554,0,0,0,.151.616" transform="translate(5.634 -15.296)" fill="#6a5a99"/>
              <g id="Grupo_1230163" data-name="Grupo 1230163" transform="translate(115.451 35.797)" opacity="0.3" style="mix-blend-mode: overlay;isolation: isolate">
                <g id="Grupo_1230162" data-name="Grupo 1230162">
                  <g id="Grupo_1230161" data-name="Grupo 1230161" clip-path="url(#clip-path-8)">
                    <path id="Trazado_1055419" data-name="Trazado 1055419" d="M194.537,74.9a19.348,19.348,0,0,0,4.853,5.185,12.454,12.454,0,0,0,2.672,1.467,15.989,15.989,0,0,0,2.686.835c8.676,2.016,21.71-.873,35.752-1.919,17.353-1.28,23.772,4.409,29.01,1.512a6.9,6.9,0,0,0,3.409-3.462.615.615,0,0,0,.128.03.216.216,0,0,0,.068.007h.007c.045,2.958.128,4.982,1.046,6.4,2.318,3.62,13.53,13.892,16.36,18.174a4.251,4.251,0,0,1,.594,1.106c.994,3.123,8.1-3.5,8.473-18.67h.008a.565.565,0,0,0,.015-1.129h-.008v-.12c0-10.332-1.212-20.92-4.869-29.927a87.465,87.465,0,0,1-17.413,4.658c-.4.068-.8.135-1.2.2-.692.106-1.378.2-2.069.293-.377.053-.745.1-1.121.143-2.077.256-4.169.451-6.253.587-.685.053-1.37.091-2.055.128-27.369,1.392-54.866-6.186-69.216-10.979-.188.286-.361.572-.527.85-.338.579-.662,1.159-.948,1.738a.542.542,0,0,0-.459-.03.578.578,0,0,0-.316.737c.068.165.135.324.2.489a25.281,25.281,0,0,0-1.709,5.237,22.427,22.427,0,0,0,1.241,13.41,20.036,20.036,0,0,0,1.633,3.048" transform="translate(-191.165 -49.424)" fill="#272525"/>
                  </g>
                </g>
              </g>
              <path id="Trazado_1055420" data-name="Trazado 1055420" d="M224.062,48.637q.231,0,.461-.006A.564.564,0,1,0,224.5,47.5a23.048,23.048,0,0,1-11.227-2.921,57.328,57.328,0,0,1-11.376-8.589,11.008,11.008,0,0,0-1.831-1.352.564.564,0,0,0-.559.981,9.827,9.827,0,0,1,1.628,1.2,58.28,58.28,0,0,0,11.609,8.752,24.4,24.4,0,0,0,11.323,3.059" transform="translate(-6.451 -9.531)" fill="#6a5a99"/>
              <path id="Trazado_1055421" data-name="Trazado 1055421" d="M233.855,25.338a12.079,12.079,0,0,0,2.31-.194.564.564,0,1,0-.214-1.108,12.352,12.352,0,0,1-2.735.163,35.663,35.663,0,0,1-5.877-.645.565.565,0,0,0-.216,1.109,36.8,36.8,0,0,0,6.06.664q.349.012.671.012" transform="translate(-37.881 -6.491)" fill="#6a5a99"/>
              <path id="Trazado_1055422" data-name="Trazado 1055422" d="M220.158,166.583a18.619,18.619,0,1,0-18.619-18.619,18.64,18.64,0,0,0,18.619,18.619m0-34.228a15.609,15.609,0,1,1-15.609,15.609,15.627,15.627,0,0,1,15.609-15.609" transform="translate(-21.837 -35.662)" fill="#ff7270"/>
              <path id="Trazado_1055423" data-name="Trazado 1055423" d="M277.58,137.687a18.619,18.619,0,1,0-18.619-18.618,18.64,18.64,0,0,0,18.619,18.618m0-34.228a15.609,15.609,0,1,1-15.609,15.609,15.627,15.627,0,0,1,15.609-15.609" transform="translate(-120.849 -27.695)" fill="#ff7270"/>
              <path id="Trazado_1055424" data-name="Trazado 1055424" d="M257.345,140.411a1.505,1.505,0,0,0,1.2-2.413,16.947,16.947,0,0,0-12.164-6.761,1.5,1.5,0,1,0-.256,3,13.971,13.971,0,0,1,10.018,5.578,1.5,1.5,0,0,0,1.2.6" transform="translate(-73.203 -36.183)" fill="#ff7270"/>
              <path id="Trazado_1055425" data-name="Trazado 1055425" d="M316.838,107.677a1.505,1.505,0,0,0,.7-2.84l-7.133-3.722a1.183,1.183,0,0,1-.343-.271l-6.509-7.463a1.505,1.505,0,0,0-2.268,1.979l6.509,7.463a4.171,4.171,0,0,0,1.218.96l7.133,3.723a1.5,1.5,0,0,0,.7.171" transform="translate(-173.378 -25.604)" fill="#ff7270"/>
              <path id="Trazado_1055426" data-name="Trazado 1055426" d="M267.785,143.026c4.354,1.286-.094,17.686-1.764,18.971s-11.049-4.5-11.306-6.039,7.417-14.6,13.07-12.932" transform="translate(-91.211 -39.394)" fill="#d48181"/>
              <path id="Trazado_1055427" data-name="Trazado 1055427" d="M293.586,170.688c.159-1.845-13.131-9.293-15.783-9.7s-1.643,11.264,4.352,12.358,11.284-.955,11.431-2.663" transform="translate(-130.882 -44.385)" fill="#fff"/>
              <path id="Trazado_1055428" data-name="Trazado 1055428" d="M236,152.9a1.277,1.277,0,0,0,1.229-.931c.056-.2,1.325-4.866-1.612-7.8-2.527-2.527-6.473-.9-8.407.458a1.279,1.279,0,0,0,1.47,2.094c.064-.044,3.513-2.356,5.127-.742,1.871,1.871.966,5.271.957,5.305A1.281,1.281,0,0,0,236,152.9" transform="translate(-38.808 -39.383)" fill="#4b3d75"/>
              <path id="Trazado_1055429" data-name="Trazado 1055429" d="M285.728,126.532a1.278,1.278,0,0,0,1.23-.931c.055-.2,1.325-4.866-1.612-7.8-3.024-3.022-8.557-.209-9.177.123a1.279,1.279,0,1,0,1.2,2.258c1.144-.6,4.728-2.007,6.164-.571,1.871,1.871.966,5.271.957,5.305a1.281,1.281,0,0,0,1.235,1.62" transform="translate(-123.898 -32.096)" fill="#4b3d75"/>
              <path id="Trazado_1055430" data-name="Trazado 1055430" d="M234.451,313.945l38.194-8.2s-1.289-24.667-4.116-50.24-14.13-35.839-14.13-35.839c6.672,11.907-12.238,60.868-19.948,94.282" transform="translate(-79.542 -60.564)" fill="#a163db"/>
              <path id="Trazado_1055431" data-name="Trazado 1055431" d="M380.18,313.833c16.488-.715,44.647-11.2,60.909-17.925,5.283-2.183,9.316-3.966,11.281-4.892.722-.346,1.166-.571,1.294-.655,1.264-.835-1.709-18.708-3.778-26.1a3.294,3.294,0,0,0-4.109-2.272c-2.807.835-5.945,1.874-9.158,3-10.152,3.574-21.131,8.037-25.338,9.776l-.007.007c-1.136.466-1.776.737-1.776.737,1.377-7.217,13.462-32.26,17.865-43.706.361-.948.715-1.964,1.046-3.048,5.14-16.488,7.112-47.446,1.588-47.469-18.407-.053-38.5,32.509-52.586,69.639-4.959,13.071-21.048,63.926,2.769,62.9" transform="translate(-357.22 -49.985)" fill="#a163db"/>
              <g id="Grupo_1230166" data-name="Grupo 1230166" transform="translate(28.605 178.776)" opacity="0.3" style="mix-blend-mode: overlay;isolation: isolate">
                <g id="Grupo_1230165" data-name="Grupo 1230165">
                  <g id="Grupo_1230164" data-name="Grupo 1230164" clip-path="url(#clip-path-9)">
                    <path id="Trazado_1055432" data-name="Trazado 1055432" d="M408.643,301.118c6.08-2.529,17.1-6.878,19.58-8.27-1.136.466-1.776.737-1.776.737,1.378-7.217,13.463-32.26,17.865-43.706.361-.948.715-1.964,1.046-3.048-3.687,1.874-24.171,25.894-41.14,49.2-2.784,5.953-1.663,7.616,4.425,5.087" transform="translate(-402.775 -246.831)" fill="#272525"/>
                  </g>
                </g>
              </g>
              <path id="Trazado_1055433" data-name="Trazado 1055433" d="M371.959,326.575c5.283-2.182,9.316-3.965,11.28-4.891.723-.346,1.167-.572,1.294-.655,1.265-.836-1.708-18.708-3.777-26.1a3.293,3.293,0,0,0-4.109-2.273c-2.807.835-5.945,1.874-9.159,3,1.822,7.359,4.7,20.694,4.47,30.913" transform="translate(-288.09 -80.651)" fill="#d6aefc"/>
              <path id="Trazado_1055434" data-name="Trazado 1055434" d="M428.67,321.356a.564.564,0,0,0,.215-.043c.146-.061,14.654-6.064,23.377-9.622a.564.564,0,0,0-.426-1.045c-8.727,3.558-23.237,9.564-23.382,9.624a.564.564,0,0,0,.216,1.086" transform="translate(-399.772 -85.638)" fill="#d6aefc"/>
              <path id="Trazado_1055435" data-name="Trazado 1055435" d="M300.474,290.626a3.266,3.266,0,0,1,1.445,1.919c2.069,7.39,5.042,25.262,3.778,26.1-.128.083-.572.309-1.294.655a86.6,86.6,0,0,0,12.424,1.325c4.486.1,8.669-.377,11.25-1.98,7.984-4.959,6.569-11.22,6.569-11.22s10.6,8.4,14.05,9.459,7.676-3.545,4.99-7.081C351,306.278,340.3,290.724,334.3,288.339a65.064,65.064,0,0,0-12.936-4.1c-3.755-.632-7.577-.572-10.874,1-4.824,2.3-8.1,4.327-10.016,5.388" transform="translate(-209.253 -78.265)" fill="#f6cfc6"/>
              <g id="Grupo_1230169" data-name="Grupo 1230169" transform="translate(91.221 205.596)" opacity="0.3" style="mix-blend-mode: overlay;isolation: isolate">
                <g id="Grupo_1230168" data-name="Grupo 1230168" transform="translate(0)">
                  <g id="Grupo_1230167" data-name="Grupo 1230167" clip-path="url(#clip-path-10)">
                    <path id="Trazado_1055436" data-name="Trazado 1055436" d="M346.275,290.626a3.266,3.266,0,0,1,1.445,1.919c2.069,7.39,5.042,25.262,3.778,26.1-.128.083-.572.309-1.294.655a86.6,86.6,0,0,0,12.424,1.325c-4.109-8.97,1.332-27.241,4.538-36.384-3.755-.632-7.577-.572-10.874,1-4.824,2.3-8.1,4.327-10.016,5.388" transform="translate(-346.275 -283.861)" fill="#272525"/>
                  </g>
                </g>
              </g>
              <path id="Trazado_1055437" data-name="Trazado 1055437" d="M332.281,315.264a.565.565,0,0,0,.348-1.01c-1.194-.931-4.5-3.823-4.533-3.852a.564.564,0,1,0-.743.85c.137.12,3.363,2.941,4.582,3.892a.565.565,0,0,0,.347.12" transform="translate(-206.89 -85.544)" fill="#ffa8be"/>
              <path id="Trazado_1055438" data-name="Trazado 1055438" d="M337.147,325.891a.557.557,0,0,0,.3-.085.564.564,0,0,0,.181-.777,68.274,68.274,0,0,0-5.063-7,.564.564,0,1,0-.862.729,67.069,67.069,0,0,1,4.967,6.873.564.564,0,0,0,.479.266" transform="translate(-214.948 -87.629)" fill="#ffa8be"/>
              <path id="Trazado_1055439" data-name="Trazado 1055439" d="M344.216,331.9a.564.564,0,0,0,.486-.85l-3.173-5.39a.564.564,0,0,0-.973.573l3.173,5.389a.563.563,0,0,0,.487.278" transform="translate(-228.471 -89.713)" fill="#ffa8be"/>
              <path id="Trazado_1055440" data-name="Trazado 1055440" d="M99.332,283.725a71.293,71.293,0,0,0,.828,8.722c.805,4.846,2.34,9.8,5.305,11.024,6.223,2.566,20.107.76,22.026-2.122,1.159-1.738.6-6.479-.015-9.978-.068-.361-.135-.708-.2-1.031a6.212,6.212,0,0,1-3.665-4.117,6.647,6.647,0,0,1,.941-4.68,12.341,12.341,0,0,1-3.522,1.212c-10.106,1.73-15.193,2.611-21.7.971" transform="translate(162.801 -77.626)" fill="#edb3a8"/>
              <g id="Grupo_1230172" data-name="Grupo 1230172" transform="translate(262.133 203.917)" opacity="0.3" style="mix-blend-mode: overlay;isolation: isolate">
                <g id="Grupo_1230171" data-name="Grupo 1230171" transform="translate(0)">
                  <g id="Grupo_1230170" data-name="Grupo 1230170" clip-path="url(#clip-path-11)">
                    <path id="Trazado_1055441" data-name="Trazado 1055441" d="M100.285,283.725a71.29,71.29,0,0,0,.828,8.722c6.788-1.37,17.315-2.777,27.316-1.076-.068-.361-.135-.708-.2-1.031a6.212,6.212,0,0,1-3.665-4.117,6.647,6.647,0,0,1,.941-4.68,12.341,12.341,0,0,1-3.522,1.212c-10.106,1.73-15.193,2.611-21.7.971" transform="translate(-100.285 -281.543)" fill="#272525"/>
                  </g>
                </g>
              </g>
              <path id="Trazado_1055442" data-name="Trazado 1055442" d="M64.683,329.647c2.31,7.021,7.021,13.018,16.7,14.215s94.689,0,94.689,0c.083-1.934.128-3.905.128-5.87.022-11.287-1.415-22.688-7.323-29.792-6.554-7.879-14.26-9.324-24.156-7.849-8.391,1.257-38.574,5.87-57.312,7.969-3.356.377-6.336.677-8.767.858-16.013,1.2-16.277,13.447-13.959,20.468" transform="translate(140.627 -82.67)" fill="#f8e679"/>
              <g id="Grupo_1230175" data-name="Grupo 1230175" transform="translate(204.256 225.65)" opacity="0.4" style="mix-blend-mode: overlay;isolation: isolate">
                <g id="Grupo_1230174" data-name="Grupo 1230174" transform="translate(0)">
                  <g id="Grupo_1230173" data-name="Grupo 1230173" clip-path="url(#clip-path-12)">
                    <path id="Trazado_1055443" data-name="Trazado 1055443" d="M64.684,332.876c2.31,7.021,7.021,13.018,16.7,14.215s94.689,0,94.689,0c.083-1.934.128-3.905.128-5.87-36.046-.285-76.494-22.417-88.79-29.672-3.356.377-6.336.677-8.767.858-16.013,1.2-16.277,13.447-13.959,20.468" transform="translate(-63.63 -311.549)" fill="#272525"/>
                  </g>
                </g>
              </g>
              <path id="Trazado_1055444" data-name="Trazado 1055444" d="M138.833,314.51a107.179,107.179,0,0,1,34.548-1.641c1.031-5.253,4.944-10.1,14.7-10.822,10.031-.753,29.56-3.454,45.182-5.719-1.761-4.764-2.2-11.491-2.318-14.689a40.831,40.831,0,0,1-4.018-1.272,42.574,42.574,0,0,1-11.468-6.306c-3.251-.038-7.225-.075-11.536-.083-12.055-.014-26.759.2-35.835,1.129a60.583,60.583,0,0,0-15.1,3.386c-8.187,3.078-13.229,7.548-15.735,11.649-2.2,3.574-1.6,17.331,1.58,24.366" transform="translate(31.184 -75.54)" fill="#ebd75e"/>
              <g id="Grupo_1230178" data-name="Grupo 1230178" transform="translate(167.127 198.44)" opacity="0.3" style="mix-blend-mode: overlay;isolation: isolate">
                <g id="Grupo_1230177" data-name="Grupo 1230177" transform="translate(0)">
                  <g id="Grupo_1230176" data-name="Grupo 1230176" clip-path="url(#clip-path-13)">
                    <path id="Trazado_1055445" data-name="Trazado 1055445" d="M138.833,314.51a107.177,107.177,0,0,1,34.548-1.641c1.031-5.253,4.944-10.1,14.7-10.822,10.031-.753,29.56-3.454,45.182-5.719-1.761-4.764-2.2-11.491-2.318-14.689a40.839,40.839,0,0,1-4.018-1.272,42.575,42.575,0,0,1-11.468-6.306c-3.251-.038-7.225-.075-11.536-.083-2.995,3.944-10.016,11.123-23.042,14.291-10.083,2.453-20.513-3.7-27.9-9.776-8.187,3.078-13.229,7.548-15.735,11.649-2.2,3.574-1.6,17.331,1.58,24.366" transform="translate(-135.943 -273.98)" fill="#272525"/>
                  </g>
                </g>
              </g>
              <path id="Trazado_1055446" data-name="Trazado 1055446" d="M10.937,168.358a9.032,9.032,0,0,0,1.257,1.092,10.753,10.753,0,0,0,2.213,1.219,2.645,2.645,0,0,0,.436.18,17.406,17.406,0,0,0,3.274.858,2.185,2.185,0,0,0,.376.061c.181.03.354.06.535.083s.353.045.542.067c.248.03.489.06.73.083.151.007.293.03.444.038.331.03.67.052,1.015.083.1.007.2.007.286.015.158.014.293.022.437.022.24.022.482.03.722.038a9.676,9.676,0,0,0,8.368,14.4,12.314,12.314,0,0,0,3.905,13.026,13.918,13.918,0,0,0-5.418,11.8,12.016,12.016,0,0,0,7.661,10.257,23.607,23.607,0,0,0,8.173,1.483c-2.528,1.015-2.566,4-2.476,6.727a39.536,39.536,0,0,0,.79,6.72,16.128,16.128,0,0,0-7.743,3.063c-.286.2-.557.429-.82.647q-.508.441-.994.9c-.271.264-.527.55-.775.828-.256.293-.5.595-.737.9-.151.218-.309.429-.452.647a1.179,1.179,0,0,0-.09.143,6.008,6.008,0,0,0-.309.535,6.646,6.646,0,0,0-.941,4.68,6.214,6.214,0,0,0,3.665,4.116,9.174,9.174,0,0,0,2.589.79c2.784.444,5.621-.053,8.443-.03a13.217,13.217,0,0,0,10.317,12.055A18.283,18.283,0,0,1,56.7,260.6a6.324,6.324,0,0,1,3.041-4.161,15.949,15.949,0,0,1,2.769-.866c3.01-.9,5.7-3.394,6.02-6.517,6.637.173,13.726-2.9,16.6-8.894a15.945,15.945,0,0,0,1.362-5.336,64.322,64.322,0,0,0,.1-7.006c.113.587.805.836,1.4.941a14.341,14.341,0,0,0,13.756-5.546c-2.047,0-3.409-2.122-4.071-4.071a21.565,21.565,0,0,1-1.076-5.381c-.075-1.166-.052-2.347-.211-3.5-.406-2.875-2.355-5.11-4.635-6.9a17.937,17.937,0,0,0,4.026-17.993,18.386,18.386,0,0,0-14.524-11.724,4.774,4.774,0,0,0,1.573-2.9,12.772,12.772,0,0,0-1.423-8.067,17.426,17.426,0,0,0-9.339-8.647,13.748,13.748,0,0,0-12.454,1.415,21.975,21.975,0,0,0-6.374-6.886,13.486,13.486,0,0,0-1.911-1.046,11.721,11.721,0,0,0-7.089-.955c-3,.6-5.569,2.551-7.766,4.711a11.5,11.5,0,0,0-1.144,1.286,13.123,13.123,0,0,0-5.6-.474c-5.975.511-6.261,1.528-9.015-.452-.015-.007-.015-.007-.022-.022a2.677,2.677,0,0,1-.474-3.71c-4.207,1.46-8.2,4.086-10.347,7.992s-2.01,9.233,1.068,12.469" transform="translate(255.072 -40.355)" fill="#4b3d75"/>
              <g id="Grupo_1230181" data-name="Grupo 1230181" transform="translate(263.49 106.009)" opacity="0.3" style="mix-blend-mode: overlay;isolation: isolate">
                <g id="Grupo_1230180" data-name="Grupo 1230180" transform="translate(0)">
                  <g id="Grupo_1230179" data-name="Grupo 1230179" clip-path="url(#clip-path-14)">
                    <path id="Trazado_1055447" data-name="Trazado 1055447" d="M32,168.358a9.032,9.032,0,0,0,1.257,1.092,10.754,10.754,0,0,0,2.213,1.219,2.645,2.645,0,0,0,.436.18,17.406,17.406,0,0,0,3.274.858,2.185,2.185,0,0,0,.376.061c.181.03.354.06.535.083s.353.045.542.067c.248.03.489.06.73.083.151.007.293.03.444.038.331.03.67.052,1.015.083.1.007.2.007.286.015.158.014.293.022.437.022.24.022.482.03.722.038a9.676,9.676,0,0,0,8.368,14.4,12.314,12.314,0,0,0,3.905,13.026,13.918,13.918,0,0,0-5.418,11.8,12.016,12.016,0,0,0,7.661,10.257,23.607,23.607,0,0,0,8.173,1.483c-2.528,1.015-2.566,4-2.476,6.727a39.536,39.536,0,0,0,.79,6.72,16.128,16.128,0,0,0-7.743,3.063c-.286.2-.557.429-.82.647q-.508.441-.994.9c-.271.264-.527.55-.775.828-.256.293-.5.595-.737.9-.151.218-.309.429-.452.647a1.179,1.179,0,0,0-.09.143,6.008,6.008,0,0,0-.309.535,6.646,6.646,0,0,0-.941,4.68,6.214,6.214,0,0,0,3.665,4.116,9.174,9.174,0,0,0,2.589.79c2.784.444,5.621-.053,8.443-.03a13.217,13.217,0,0,0,10.317,12.055,18.283,18.283,0,0,1,.338-5.283,6.324,6.324,0,0,1,3.041-4.161,15.949,15.949,0,0,1,2.769-.866c3.01-.9,5.7-3.394,6.02-6.517,6.637.173,13.726-2.9,16.6-8.894a15.946,15.946,0,0,0,1.362-5.336,20.709,20.709,0,0,1-22.99-20.182c-6.013.5-11.852-3.823-13.937-9.49s-.775-12.236,2.589-17.247a1.375,1.375,0,0,0,.346-1.023,1.411,1.411,0,0,0-.542-.7,9.691,9.691,0,0,1-1.249-12.8c-4.989-3.206-8.225-9.24-7.5-15.133a13.731,13.731,0,0,1,8.12-10.738,11.721,11.721,0,0,0-7.089-.955c-3,.6-5.569,2.551-7.766,4.711a11.5,11.5,0,0,0-1.144,1.286,13.123,13.123,0,0,0-5.6-.474c-5.975.511-6.261,1.528-9.015-.452-.015-.007-.015-.007-.022-.022a2.677,2.677,0,0,1-.474-3.71c-4.207,1.46-8.2,4.086-10.347,7.992s-2.01,9.233,1.068,12.469" transform="translate(-29.478 -146.363)" fill="#272525"/>
                  </g>
                </g>
              </g>
              <path id="Trazado_1055448" data-name="Trazado 1055448" d="M158.679,219.613a119.346,119.346,0,0,1,11.252-17.25c-5.515,1.379-16.2,4.328-17.3,6.743s3.532,7.82,6.049,10.507" transform="translate(82.551 -55.794)" fill="#d48181"/>
              <path id="Trazado_1055449" data-name="Trazado 1055449" d="M72.156,268.763a8.837,8.837,0,0,0,4.4,2.31h.008c6.547,1.377,15.012-3.529,15.118-10.408a7.653,7.653,0,0,0-.414-2.694c-1.339-3.838-5.681-5.132-8.534-5.568a4.011,4.011,0,0,0-3.95,1.746c-2.732,4.078-8.519,13.222-6.63,14.614" transform="translate(219.234 -69.579)" fill="#edb3a8"/>
              <g id="Grupo_1230184" data-name="Grupo 1230184" transform="translate(291.019 182.779)" opacity="0.3" style="mix-blend-mode: overlay;isolation: isolate">
                <g id="Grupo_1230183" data-name="Grupo 1230183" transform="translate(0)">
                  <g id="Grupo_1230182" data-name="Grupo 1230182" clip-path="url(#clip-path-15)">
                    <path id="Trazado_1055450" data-name="Trazado 1055450" d="M72.73,268.763a8.837,8.837,0,0,0,4.4,2.31h.008c2.762-5.343,9.579-10.1,14.7-13.1-1.339-3.838-5.681-5.132-8.534-5.568a4.011,4.011,0,0,0-3.95,1.746c-2.732,4.078-8.519,13.222-6.63,14.614" transform="translate(-72.358 -252.358)" fill="#272525"/>
                  </g>
                </g>
              </g>
              <path id="Trazado_1055451" data-name="Trazado 1055451" d="M106.933,253.974a41.131,41.131,0,0,0,4.015,1.268c6.512,1.641,11.594.765,21.7-.966a12.36,12.36,0,0,0,3.522-1.218c.1-.182.2-.363.312-.534a1.65,1.65,0,0,1,.091-.141c.141-.221.3-.432.453-.644.232-.312.483-.613.734-.905s.5-.564.775-.826q.483-.468,1-.905c.261-.222.533-.443.815-.645a1.649,1.649,0,0,1-.141-.13c-1.892-1.389,3.9-10.538,6.632-14.613a3.984,3.984,0,0,1,2.938-1.772,23.466,23.466,0,0,1-8.172-1.48,12.015,12.015,0,0,1-7.659-10.255A13.939,13.939,0,0,1,139.36,208.4a12.322,12.322,0,0,1-3.905-13.023,9.672,9.672,0,0,1-8.363-14.392c-.241-.01-.483-.02-.724-.041-.141,0-.282-.01-.433-.02-.091-.009-.191-.009-.292-.02-.332-.02-.674-.051-1.016-.081-.151-.009-.292-.03-.443-.04-.242-.02-.483-.051-.725-.08-.191-.02-.362-.041-.543-.071a4.682,4.682,0,0,1-.534-.08,2.513,2.513,0,0,1-.382-.06,17.54,17.54,0,0,1-3.271-.855,3.34,3.34,0,0,1-.432-.181,10.773,10.773,0,0,1-2.214-1.218c-3.744,4.036-9.38,10.386-14.785,17.472-.443.584-.885,1.168-1.328,1.761-.241.322-.493.664-.734,1-.886,1.2-1.741,2.415-2.586,3.633l-.272.393c-.393.574-.785,1.157-1.168,1.741-1.47,2.224-2.838,4.449-4.056,6.642-.332.6-.644,1.2-.956,1.791-.051.1-.1.192-.151.292-.644,1.248-1.228,2.476-1.74,3.674a37.447,37.447,0,0,0-1.932,5.606,30.578,30.578,0,0,0-.645,3.462c-2.073,16.827,13,25.261,21.206,28.27" transform="translate(151.185 -49.144)" fill="#f6cfc6"/>
              <path id="Trazado_1055452" data-name="Trazado 1055452" d="M143.1,240.32c2.919,1.992,9.6,6.048,15.076,5.917,5.614-.133,6.951-4.984,7.269-7.152a1.07,1.07,0,0,0-.873-1.2c-12.072-2.212-16.984-5.051-18.9-6.63a37.609,37.609,0,0,0-1.932,5.606,30.41,30.41,0,0,0-.644,3.462" transform="translate(93.816 -63.76)" fill="#fff"/>
              <path id="Trazado_1055453" data-name="Trazado 1055453" d="M137.167,218.481a1.128,1.128,0,0,0,1.085-.822c.073-.26,1.743-6.4-2.076-10.218-4.019-4.021-10.581.513-10.859.708a1.129,1.129,0,0,0,1.3,1.848c.083-.058,5.292-3.633,7.966-.96,2.877,2.877,1.512,7.961,1.5,8.012a1.13,1.13,0,0,0,1.089,1.432" transform="translate(133.817 -56.737)" fill="#4b3d75"/>
              <path id="Trazado_1055454" data-name="Trazado 1055454" d="M237.784,310.421c1.957,5.749,6.968,11.1,10.717,11.047,2.867-.038,6.562-2.28,9.466-5.215,2.318-2.333,4.131-5.1,4.636-7.563,1.143-5.539-.519-11.746,1.866-13.56,1.806-1.378,3-1.265,3.476-1.129a1.064,1.064,0,0,1,.234.091s-1.738,8.556,1.551,9.226,4.922.572,6.893-6.382,2.912-9.459-.632-11.589a9.4,9.4,0,0,0-3.342-.971c-5.176-.73-13.545.075-16.171,1.015-12.514,4.515-18.2,11.394-19.408,18.745a13.131,13.131,0,0,0,.715,6.284" transform="translate(-87.077 -78.329)" fill="#f6cfc6"/>
              <g id="Grupo_1230187" data-name="Grupo 1230187" transform="translate(149.865 205.764)" opacity="0.3" style="mix-blend-mode: overlay;isolation: isolate">
                <g id="Grupo_1230186" data-name="Grupo 1230186" transform="translate(0)">
                  <g id="Grupo_1230185" data-name="Grupo 1230185" clip-path="url(#clip-path-16)">
                    <path id="Trazado_1055455" data-name="Trazado 1055455" d="M245.515,310.421c5.652,1.219,17.286,2.807,19.874,5.554a2.678,2.678,0,0,0,.309.278c2.318-2.333,4.131-5.1,4.636-7.563,1.143-5.539-.519-11.746,1.866-13.56,1.806-1.378,3-1.265,3.476-1.129l.136-.316a50.378,50.378,0,0,1,4.139-6.984,2.47,2.47,0,0,0,.428-2.325c-5.176-.73-13.545.075-16.171,1.015-12.514,4.515-18.2,11.394-19.408,18.745a13.131,13.131,0,0,0,.715,6.284" transform="translate(-244.672 -284.093)" fill="#272525"/>
                  </g>
                </g>
              </g>
              <path id="Trazado_1055456" data-name="Trazado 1055456" d="M260.587,291.668c2.875-.487,8.892,2.526,14.108,6.742s8.2,9.28,5.552,12.626-13.727-3.771-19.041-7.073-7.375-11.148-.619-12.294" transform="translate(-103.963 -80.403)" fill="#f6cfc6"/>
              <path id="Trazado_1055457" data-name="Trazado 1055457" d="M273.608,304.644a.564.564,0,0,0,.487-.85,22.974,22.974,0,0,0-5.393-5.932c-4-3.231-7.881-5.638-10.651-6.6a.581.581,0,0,0-.754.534.561.561,0,0,0,.427.547c2.65.935,6.389,3.265,10.27,6.4a21.828,21.828,0,0,1,5.128,5.626.564.564,0,0,0,.487.278" transform="translate(-97.615 -80.296)" fill="#ffa8be"/>
              <path id="Trazado_1055458" data-name="Trazado 1055458" d="M280.31,315.167a4.2,4.2,0,0,0,1.354-.2.564.564,0,0,0-.365-1.068c-3.342,1.143-12.139-4.344-16.866-7.289l-.676-.422a11.348,11.348,0,0,1-4.377-4.433.564.564,0,0,0-1.023.478,12.452,12.452,0,0,0,4.8,4.914l.674.42c4.683,2.92,12.193,7.6,16.474,7.6" transform="translate(-106.22 -83.108)" fill="#ffa8be"/>
              <path id="Trazado_1055459" data-name="Trazado 1055459" d="M241.378,265.169l.677,1.136.986,1.663.768,1.3,7.623,12.853,14.1,23.772,4.042,2.544.963.6a.576.576,0,0,0,.88-.587l-.18-1.128-.745-4.546-7.871-13.267-13.96-23.524-.715-1.2-.978-1.648-.663-1.107c-.2.075-.4.159-.6.248-.346.143-.692.317-1.046.5a1.689,1.689,0,0,0-.256.135c-.091.046-.173.1-.256.143-.135.075-.271.151-.4.233-.008.007-.015.007-.022.015-.173.105-.346.225-.519.338q-.293.2-.587.429a14.033,14.033,0,0,0-1.241,1.092" transform="translate(-83.341 -72.246)" fill="#68cecf"/>
              <path id="Trazado_1055460" data-name="Trazado 1055460" d="M276.472,262.394l.986,1.656a14.052,14.052,0,0,1,4.929-3.138l-.888-1.505a2.94,2.94,0,0,0-2.476-1.437,3.153,3.153,0,0,0-.459.03,2.911,2.911,0,0,0-1.128.422,2.837,2.837,0,0,0-.9.888,2.922,2.922,0,0,0-.06,3.085" transform="translate(-119.421 -71.126)" fill="#d48181"/>
              <g id="Grupo_1230190" data-name="Grupo 1230190" transform="translate(159.279 190.538)" opacity="0.5" style="mix-blend-mode: overlay;isolation: isolate">
                <g id="Grupo_1230189" data-name="Grupo 1230189" transform="translate(0)">
                  <g id="Grupo_1230188" data-name="Grupo 1230188" clip-path="url(#clip-path-17)">
                    <path id="Trazado_1055461" data-name="Trazado 1055461" d="M244.118,264.364l2.34,3.951L268.7,305.791a1.207,1.207,0,0,0,1.038.587,1.179,1.179,0,0,0,.61-.165,1.2,1.2,0,0,0,.422-1.648l-22.312-37.6-2.3-3.891a12.626,12.626,0,0,0-2.04,1.294" transform="translate(-244.118 -263.07)" fill="#272525"/>
                  </g>
                </g>
              </g>
              <path id="Trazado_1055462" data-name="Trazado 1055462" d="M241.377,321.408l4.041,2.544.963.6a.576.576,0,0,0,.881-.587l-.181-1.129-.745-4.545a6.322,6.322,0,0,0-1.844.444,6.245,6.245,0,0,0-2.032,1.286,5.7,5.7,0,0,0-1.084,1.385" transform="translate(-59.184 -87.758)" fill="#f6ded8"/>
              <path id="Trazado_1055463" data-name="Trazado 1055463" d="M241.377,325.681l.963.6a.576.576,0,0,0,.881-.587l-.181-1.129a6.137,6.137,0,0,0-1.663,1.114" transform="translate(-55.143 -89.488)" fill="#4b3d75"/>
              <path id="Trazado_1055464" data-name="Trazado 1055464" d="M272.809,265.169l.677,1.136.986,1.663.768,1.3a8.285,8.285,0,0,1,1.152-1.241,9.143,9.143,0,0,1,2-1.354,11.179,11.179,0,0,1,1.7-.685l-.715-1.2-.978-1.648-.663-1.107c-.2.075-.4.159-.6.248-.346.143-.692.317-1.046.5a1.689,1.689,0,0,0-.256.135c-.091.046-.173.1-.256.143-.135.075-.271.151-.4.233-.181.113-.361.233-.542.353q-.293.2-.587.429a14.033,14.033,0,0,0-1.241,1.092" transform="translate(-114.772 -72.246)" fill="#dbf7ff"/>
              <path id="Trazado_1055465" data-name="Trazado 1055465" d="M273.8,266.727l.986,1.663a19.981,19.981,0,0,1,2.415-1.949,12.418,12.418,0,0,1,2.491-1.234l-.978-1.648a13.251,13.251,0,0,0-2.581,1.324,23.664,23.664,0,0,0-2.333,1.844" transform="translate(-115.082 -72.667)" fill="#a8dded"/>
              <g id="Grupo_1230193" data-name="Grupo 1230193" transform="translate(168.091 209.878)" opacity="0.3" style="mix-blend-mode: overlay;isolation: isolate">
                <g id="Grupo_1230192" data-name="Grupo 1230192" transform="translate(0)">
                  <g id="Grupo_1230191" data-name="Grupo 1230191" clip-path="url(#clip-path-18)">
                    <path id="Trazado_1055466" data-name="Trazado 1055466" d="M241.378,289.772l14.1,23.772,4.041,2.543.963.6a.576.576,0,0,0,.88-.587l-.18-1.128-.745-4.546-7.871-13.267c-1.076-.55-2.115-1.121-3.13-1.723q-2.416-1.434-4.583-3c-1.219-.866-2.378-1.761-3.477-2.664" transform="translate(-241.378 -289.772)" fill="#272525"/>
                  </g>
                </g>
              </g>
              <path id="Trazado_1055467" data-name="Trazado 1055467" d="M103.913,252.83a13.5,13.5,0,1,0,13.5-13.5,13.5,13.5,0,0,0-13.5,13.5" transform="translate(156.736 -65.987)" fill="#ffa8be"/>
              <path id="Trazado_1055468" data-name="Trazado 1055468" d="M36.284,362.456v19.378a1.831,1.831,0,0,0,1.829,1.829H371.088a1.831,1.831,0,0,0,1.829-1.829V362.456a1.832,1.832,0,0,0-1.829-1.836H38.113a1.832,1.832,0,0,0-1.829,1.836" transform="translate(-36.284 -99.428)" fill="#4b3d75"/>
              <rect id="Rectángulo_423984" data-name="Rectángulo 423984" width="315.087" height="28.777" transform="translate(9.196 284.234)" fill="#6a5a99"/>
              <g id="Grupo_1230196" data-name="Grupo 1230196" transform="translate(0 261.192)" opacity="0.3" style="mix-blend-mode: overlay;isolation: isolate">
                <g id="Grupo_1230195" data-name="Grupo 1230195">
                  <g id="Grupo_1230194" data-name="Grupo 1230194" clip-path="url(#clip-path-19)">
                    <path id="Trazado_1055469" data-name="Trazado 1055469" d="M226.636,362.456v19.378a1.831,1.831,0,0,0,1.829,1.829h7.367v28.776H425.4a165.018,165.018,0,0,1-37.664-28.776,139.375,139.375,0,0,1-18.091-23.042H228.465a1.832,1.832,0,0,0-1.829,1.836" transform="translate(-226.636 -360.62)" fill="#272525"/>
                  </g>
                </g>
              </g>
              <path id="Trazado_1055470" data-name="Trazado 1055470" d="M292.7,334.13v10.814h74.341V334.59c-1.67,0-7.954-3.048-18.248-5.35-12.379-2.777-30.56-4.462-53.5,1.55a3.468,3.468,0,0,0-2.6,3.341" transform="translate(-216.136 -90.081)" fill="#fff"/>
              <path id="Trazado_1055471" data-name="Trazado 1055471" d="M264.4,334.13v10.813H190.055V334.587c3.689,0,29.751-14.807,71.749-3.8a3.461,3.461,0,0,1,2.6,3.34" transform="translate(-39.141 -90.081)" fill="#fff"/>
              <path id="Trazado_1055472" data-name="Trazado 1055472" d="M184.62,353.508v3.077a1.622,1.622,0,0,0,1.618,1.626H339.556a1.629,1.629,0,0,0,1.625-1.626v-3.077a1.623,1.623,0,0,0-1.625-1.625H186.238a1.617,1.617,0,0,0-1.618,1.625" transform="translate(-111.986 -97.019)" fill="#ff7270"/>
              <g id="Grupo_1230199" data-name="Grupo 1230199" transform="translate(72.633 236.637)" opacity="0.3" style="mix-blend-mode: overlay;isolation: isolate">
                <g id="Grupo_1230198" data-name="Grupo 1230198">
                  <g id="Grupo_1230197" data-name="Grupo 1230197" clip-path="url(#clip-path-20)">
                    <path id="Trazado_1055473" data-name="Trazado 1055473" d="M282.72,346.57v3.078a1.622,1.622,0,0,0,1.618,1.626h83.891a67.919,67.919,0,0,1-10.679-6.329,55.338,55.338,0,0,1-14.8-15.705c-12.379-2.777-30.56-4.462-53.5,1.55a3.468,3.468,0,0,0-2.6,3.342v10.814h-2.318a1.617,1.617,0,0,0-1.618,1.625" transform="translate(-282.72 -326.718)" fill="#272525"/>
                  </g>
                </g>
              </g>
            </g>
          </g>
        </g>
      </g>
    </g>
  </g>
</svg>
