<svg xmlns="http://www.w3.org/2000/svg" xmlns:xlink="http://www.w3.org/1999/xlink" width="98" height="98" viewBox="0 0 98 98">
  <defs>
    <filter id="Trazado_982547" x="0" y="0" width="98" height="98" filterUnits="userSpaceOnUse">
      <feOffset dy="3" input="SourceAlpha"/>
      <feGaussianBlur stdDeviation="3" result="blur"/>
      <feFlood flood-opacity="0.161"/>
      <feComposite operator="in" in2="blur"/>
      <feComposite in="SourceGraphic"/>
    </filter>
    <clipPath id="clip-path">
      <path id="path8121" d="M0-682.665H48.414v48.414H0Z" transform="translate(0 682.665)"/>
    </clipPath>
  </defs>
  <g id="Grupo_1230267" data-name="Grupo 1230267" transform="translate(-195.15 -2767)">
    <g id="Grupo_1229880" data-name="Grupo 1229880" transform="translate(204.15 2773)">
      <g id="Grupo_1208936" data-name="Grupo 1208936" transform="translate(0)">
        <g id="Grupo_1208171" data-name="Grupo 1208171">
          <g id="Grupo_1207739" data-name="Grupo 1207739">
            <g id="Grupo_1207712" data-name="Grupo 1207712">
              <g id="Grupo_1207285" data-name="Grupo 1207285">
                <g id="Grupo_1206883" data-name="Grupo 1206883">
                  <g id="Grupo_1204569" data-name="Grupo 1204569">
                    <g id="Grupo_1203962" data-name="Grupo 1203962">
                      <g id="Grupo_1203498" data-name="Grupo 1203498">
                        <g id="Grupo_1202589" data-name="Grupo 1202589">
                          <g id="Grupo_1172010" data-name="Grupo 1172010">
                            <g id="Grupo_1171046" data-name="Grupo 1171046">
                              <g id="Grupo_1148525" data-name="Grupo 1148525">
                                <g transform="matrix(1, 0, 0, 1, -9, -6)" filter="url(#Trazado_982547)">
                                  <g id="Trazado_982547-2" data-name="Trazado 982547" transform="translate(9 6)" fill="#fdfbec">
                                    <path d="M 39.99999237060547 78.49998474121094 C 34.8018684387207 78.49998474121094 29.76002502441406 77.48226165771484 25.0145263671875 75.47508239746094 C 20.43014717102051 73.53604888916016 16.31264877319336 70.75984954833984 12.77639198303223 67.22359466552734 C 9.240137100219727 63.68733596801758 6.463936805725098 59.5698356628418 4.524903297424316 54.98546981811523 C 2.517725706100464 50.23995971679688 1.500003457069397 45.19811630249023 1.500003457069397 39.99999237060547 C 1.500003457069397 34.8018684387207 2.517725706100464 29.76002502441406 4.524903297424316 25.0145263671875 C 6.463936805725098 20.43014717102051 9.240137100219727 16.31264877319336 12.77639198303223 12.77639198303223 C 16.31264877319336 9.240137100219727 20.43014717102051 6.463936805725098 25.0145263671875 4.524903297424316 C 29.76002502441406 2.517725706100464 34.8018684387207 1.500003457069397 39.99999237060547 1.500003457069397 C 45.19811630249023 1.500003457069397 50.23995971679688 2.517725706100464 54.98546981811523 4.524903297424316 C 59.5698356628418 6.463936805725098 63.68733596801758 9.240137100219727 67.22359466552734 12.77639198303223 C 70.75984954833984 16.31264877319336 73.53604888916016 20.43014717102051 75.47508239746094 25.0145263671875 C 77.48226165771484 29.76002502441406 78.49998474121094 34.8018684387207 78.49998474121094 39.99999237060547 C 78.49998474121094 45.19812393188477 77.48226165771484 50.23995971679688 75.47508239746094 54.98546981811523 C 73.53604888916016 59.5698356628418 70.75984954833984 63.68733596801758 67.22359466552734 67.22359466552734 C 63.68733596801758 70.75984954833984 59.5698356628418 73.53604888916016 54.98546981811523 75.47508239746094 C 50.23995971679688 77.48226165771484 45.19812393188477 78.49998474121094 39.99999237060547 78.49998474121094 Z" stroke="none"/>
                                    <path d="M 39.99999237060547 2.999992370605469 C 35.00370025634766 2.999992370605469 30.1584587097168 3.97784423828125 25.59884643554688 5.906402587890625 C 21.19327163696289 7.769805908203125 17.23603057861328 10.43805694580078 13.83704376220703 13.83704376220703 C 10.43805694580078 17.23603057861328 7.769805908203125 21.19327163696289 5.906402587890625 25.59884643554688 C 3.97784423828125 30.1584587097168 2.999992370605469 35.00370025634766 2.999992370605469 39.99999237060547 C 2.999992370605469 44.99628448486328 3.97784423828125 49.84152603149414 5.906402587890625 54.40113830566406 C 7.769805908203125 58.80671310424805 10.43805694580078 62.76395416259766 13.83704376220703 66.16294097900391 C 17.23603057861328 69.56191253662109 21.19327163696289 72.23016357421875 25.59884643554688 74.09356689453125 C 30.1584587097168 76.02212524414062 35.00370025634766 76.99997711181641 39.99999237060547 76.99997711181641 C 44.99628448486328 76.99997711181641 49.84152603149414 76.02212524414062 54.40113830566406 74.09356689453125 C 58.80671310424805 72.23016357421875 62.76395416259766 69.56191253662109 66.16294097900391 66.16294097900391 C 69.56191253662109 62.76395416259766 72.23016357421875 58.80671310424805 74.09356689453125 54.40113830566406 C 76.02212524414062 49.84152603149414 76.99997711181641 44.99628448486328 76.99997711181641 39.99999237060547 C 76.99997711181641 35.00370025634766 76.02212524414062 30.1584587097168 74.09356689453125 25.59884643554688 C 72.23016357421875 21.19327163696289 69.56191253662109 17.23603057861328 66.16294097900391 13.83704376220703 C 62.76395416259766 10.43805694580078 58.80671310424805 7.769805908203125 54.40113830566406 5.906402587890625 C 49.84152603149414 3.97784423828125 44.99628448486328 2.999992370605469 39.99999237060547 2.999992370605469 M 39.99999237060547 -7.62939453125e-06 C 62.09137725830078 -7.62939453125e-06 79.99997711181641 17.90860748291016 79.99997711181641 39.99999237060547 C 79.99997711181641 62.09137725830078 62.09137725830078 79.99997711181641 39.99999237060547 79.99997711181641 C 17.90860748291016 79.99997711181641 -7.62939453125e-06 62.09137725830078 -7.62939453125e-06 39.99999237060547 C -7.62939453125e-06 17.90860748291016 17.90860748291016 -7.62939453125e-06 39.99999237060547 -7.62939453125e-06 Z" stroke="none" fill="#83793c"/>
                                  </g>
                                </g>
                              </g>
                            </g>
                          </g>
                        </g>
                      </g>
                    </g>
                  </g>
                </g>
              </g>
              <g id="g8115" transform="translate(15.793 15.793)">
                <g id="g8117">
                  <g id="g8119" clip-path="url(#clip-path)">
                    <g id="g8125" transform="translate(-33.259 0.709)">
                      <path id="path8127" d="M-338.457-377.826h-25.835v-25.108c5.31-7.679,37.755-5.416,25.835,25.108" transform="translate(364.292 406.667)" fill="#fbdf63"/>
                    </g>
                    <g id="g8129" transform="translate(-33.259 0.709)">
                      <path id="path8131" d="M-338.457-377.826h-.619c6.164-24.728-15.887-30.6-25.216-24.374v-.734c5.31-7.679,37.755-5.416,25.835,25.108" transform="translate(364.292 406.667)" fill="#f9d11f"/>
                    </g>
                  </g>
                </g>
                <g id="g8265">
                  <g id="g8267" clip-path="url(#clip-path)">
                    <g id="g8273" transform="translate(-33.259 51.036)">
                      <path id="path8275" d="M-338.457-377.654h-25.835v-25.1c5.31-7.676,37.755-5.413,25.835,25.1" transform="translate(364.292 406.481)" fill="#003343"/>
                    </g>
                    <g id="g8277" transform="translate(-33.259 51.036)">
                      <path id="path8279" d="M-338.457-377.654h-.619c6.164-24.717-15.887-30.585-25.216-24.362v-.734c5.31-7.676,37.755-5.413,25.835,25.1" transform="translate(364.292 406.481)" fill="#002439"/>
                    </g>
                  </g>
                </g>
                <g id="g8281">
                  <g id="g8283" clip-path="url(#clip-path)">
                    <g id="g8289" transform="translate(17.066 51.014)">
                      <path id="path8291" d="M-338.457-377.826h-25.835v-25.108c5.31-7.679,37.755-5.416,25.835,25.108" transform="translate(364.292 406.667)" fill="#ff7e50"/>
                    </g>
                    <g id="g8293" transform="translate(17.066 51.014)">
                      <path id="path8295" d="M-338.457-377.826h-.619c6.164-24.728-15.887-30.6-25.216-24.374v-.734c5.31-7.679,37.755-5.416,25.835,25.108" transform="translate(364.292 406.667)" fill="#ff6247"/>
                    </g>
                    <g id="g8297" transform="translate(2.941 54.225)">
                      <path id="path8299" d="M-233.028-131.751v15.573h-14.6c-12.2-25.649,14.6-34.273,14.6-15.573" transform="translate(250.816 141.808)" fill="#ffa68a"/>
                    </g>
                    <g id="g8301" transform="translate(2.941 54.225)">
                      <path id="path8303" d="M-233.028-131.751c-.9-16.1-20.23-9.82-14.176,15.573h-.427c-12.2-25.649,14.6-34.273,14.6-15.573" transform="translate(250.816 141.808)" fill="#ff7e50"/>
                    </g>
                  </g>
                </g>
              </g>
            </g>
          </g>
        </g>
      </g>
    </g>
    <g id="ninos_1_" data-name="ninos (1)" transform="translate(218.668 2728.276)">
      <g id="Grupo_1230265" data-name="Grupo 1230265" transform="translate(0.747 65.933)">
        <g id="Grupo_1230260" data-name="Grupo 1230260" transform="translate(0 0)">
          <path id="Trazado_1055536" data-name="Trazado 1055536" d="M33.83,67.224a19.732,19.732,0,0,0-2.778.128,7.994,7.994,0,0,0-5.354,2.66,2.8,2.8,0,0,1-2.941.828l-.974-.311s-.5,10.424,2.51,11.736H43.526V76.918A9.7,9.7,0,0,0,33.83,67.224Z" transform="translate(-20.333 -67.222)" fill="#d77f4a"/>
          <path id="Trazado_1055537" data-name="Trazado 1055537" d="M30.042,335.277v0H27.1a4.054,4.054,0,0,0-4.054,4.054v6.74H44.692v-6.74a4.054,4.054,0,0,0-4.054-4.054H37.695v0H30.042Z" transform="translate(-21.499 -308.592)" fill="#3c87d0"/>
          <path id="Trazado_1055538" data-name="Trazado 1055538" d="M93.192,304.593v3.057a3.826,3.826,0,1,0,7.652,0v-3.057Z" transform="translate(-84.662 -280.965)" fill="#ffb09e"/>
          <path id="Trazado_1055539" data-name="Trazado 1055539" d="M93.192,307.65a3.866,3.866,0,0,0,.036.521,9.331,9.331,0,0,0,7.578.018,3.862,3.862,0,0,0,.039-.539v-3.057H93.192Z" transform="translate(-84.662 -280.965)" fill="#ffa78f"/>
          <path id="Trazado_1055540" data-name="Trazado 1055540" d="M15.363,200.066h-4.73a3.132,3.132,0,1,1,0-6.265h4.73Z" transform="translate(-7.5 -181.201)" fill="#ffb09e"/>
          <path id="Trazado_1055541" data-name="Trazado 1055541" d="M177.056,193.8h4.73a3.132,3.132,0,0,1,0,6.265h-4.73Z" transform="translate(-160.178 -181.201)" fill="#ffa78f"/>
          <path id="Trazado_1055542" data-name="Trazado 1055542" d="M39.279,125.549V129A9.212,9.212,0,0,0,57.7,129v-3.452a9.212,9.212,0,0,0-18.423,0Z" transform="translate(-36.116 -111.543)" fill="#ffcebf"/>
          <g id="Grupo_1230257" data-name="Grupo 1230257" transform="translate(4.513 18.773)">
            <path id="Trazado_1055543" data-name="Trazado 1055543" d="M55.3,257.556H53.7a.868.868,0,1,1,0-1.735h1.6a.868.868,0,1,1,0,1.735Z" transform="translate(-52.836 -255.821)" fill="#fe8f83"/>
          </g>
          <path id="Trazado_1055544" data-name="Trazado 1055544" d="M125.552,116.506a9.375,9.375,0,0,0-1.038.085,9.143,9.143,0,0,1,7.9,9.015v3.452a9.143,9.143,0,0,1-7.9,9.015,9.324,9.324,0,0,0,1.038.085,9.154,9.154,0,0,0,8.9-9.1v-3.452A9.155,9.155,0,0,0,125.552,116.506Z" transform="translate(-112.866 -111.6)" fill="#ffb09e"/>
          <path id="Trazado_1055545" data-name="Trazado 1055545" d="M71.155,67.336H69.528c-.265.015-.628.047-1.535.118a7.993,7.993,0,0,0-5.217,2.51v4.046a5.913,5.913,0,0,0,5.913,5.913H80.467v-2.9A9.693,9.693,0,0,0,71.155,67.336Z" transform="translate(-57.274 -67.325)" fill="#d77f4a"/>
          <path id="Trazado_1055546" data-name="Trazado 1055546" d="M121.867,67.336h-1.628c-.223.012-.518.038-1.146.088a9.694,9.694,0,0,1,8.334,9.6v2.9h3.751v-2.9A9.693,9.693,0,0,0,121.867,67.336Z" transform="translate(-107.985 -67.325)" fill="#c86d36"/>
          <g id="Grupo_1230258" data-name="Grupo 1230258" transform="translate(16.057 26.682)">
            <path id="Trazado_1055547" data-name="Trazado 1055547" d="M171.9,335.275h-2.943v0h-.139a4.053,4.053,0,0,1,3.937,4.051v6.74h3.2v-6.74A4.054,4.054,0,0,0,171.9,335.275Z" transform="translate(-168.816 -335.275)" fill="#0078c8"/>
          </g>
          <g id="Grupo_1230259" data-name="Grupo 1230259" transform="translate(16.863 18.773)">
            <path id="Trazado_1055548" data-name="Trazado 1055548" d="M179.382,257.556h-1.6a.868.868,0,1,1,0-1.735h1.6a.868.868,0,1,1,0,1.735Z" transform="translate(-176.914 -255.821)" fill="#fe8f83"/>
          </g>
        </g>
        <g id="Grupo_1230264" data-name="Grupo 1230264" transform="translate(21.777 2.602)">
          <path id="Trazado_1055549" data-name="Trazado 1055549" d="M269.74,341.071h-.4a3.912,3.912,0,0,0-3.912,3.912v6.411h19.951v-6.411a3.912,3.912,0,0,0-3.912-3.912Z" transform="translate(-261.533 -316.414)" fill="#f07281"/>
          <path id="Trazado_1055550" data-name="Trazado 1055550" d="M397.58,341.071h-3.2a3.912,3.912,0,0,1,3.912,3.912v6.411h3.2v-6.411A3.912,3.912,0,0,0,397.58,341.071Z" transform="translate(-377.644 -316.414)" fill="#eb5569"/>
          <path id="Trazado_1055551" data-name="Trazado 1055551" d="M334.692,277.459a3.407,3.407,0,0,1-3.407-3.407v-8.2H338.1v8.2A3.407,3.407,0,0,1,334.692,277.459Z" transform="translate(-320.833 -248.681)" fill="#ffb09e"/>
          <path id="Trazado_1055552" data-name="Trazado 1055552" d="M331.286,273.567a8.3,8.3,0,0,0,6.815,0v-7.712h-6.815v7.715Z" transform="translate(-320.834 -248.682)" fill="#ffa78f"/>
          <path id="Trazado_1055553" data-name="Trazado 1055553" d="M442.538,264.3h1.7v-4.689a4.958,4.958,0,0,0-4.958-4.958h-1.7v4.689A4.958,4.958,0,0,0,442.538,264.3Z" transform="translate(-416.547 -238.598)" fill="#5a5a5a"/>
          <path id="Trazado_1055554" data-name="Trazado 1055554" d="M439.283,254.653h-1.7v.143a4.96,4.96,0,0,1,3.778,4.816v4.546a4.969,4.969,0,0,0,1.181.143h1.7v-4.689A4.958,4.958,0,0,0,439.283,254.653Z" transform="translate(-416.547 -238.598)" fill="#444"/>
          <path id="Trazado_1055555" data-name="Trazado 1055555" d="M227.983,264.3h-1.7v-4.689a4.958,4.958,0,0,1,4.958-4.958h1.7v4.689A4.958,4.958,0,0,1,227.983,264.3Z" transform="translate(-226.28 -238.598)" fill="#5a5a5a"/>
          <path id="Trazado_1055556" data-name="Trazado 1055556" d="M261.732,215.34h-4.223a2.792,2.792,0,1,1,0-5.584h4.223Z" transform="translate(-251.886 -198.17)" fill="#ffb09e"/>
          <path id="Trazado_1055557" data-name="Trazado 1055557" d="M405.588,209.756h4.223a2.792,2.792,0,1,1,0,5.584h-4.223Z" transform="translate(-387.74 -198.17)" fill="#ffa78f"/>
          <path id="Trazado_1055558" data-name="Trazado 1055558" d="M291.207,140.93a8.161,8.161,0,0,0-8.212,8.11v3.07a8.212,8.212,0,0,0,16.423,0v-3.07A8.161,8.161,0,0,0,291.207,140.93Z" transform="translate(-277.35 -136.195)" fill="#ffcebf"/>
          <path id="Trazado_1055559" data-name="Trazado 1055559" d="M353.988,140.93a8.375,8.375,0,0,0-1.271.1,8.144,8.144,0,0,1,6.94,8.013v3.07a8.144,8.144,0,0,1-6.94,8.013,8.377,8.377,0,0,0,1.271.1,8.161,8.161,0,0,0,8.211-8.11v-3.07A8.161,8.161,0,0,0,353.988,140.93Z" transform="translate(-340.132 -136.195)" fill="#ffb09e"/>
          <g id="Grupo_1230261" data-name="Grupo 1230261" transform="translate(6.846 17.235)">
            <path id="Trazado_1055560" data-name="Trazado 1055560" d="M297.467,268.2H295.9a.847.847,0,0,1,0-1.695h1.563a.847.847,0,0,1,0,1.695Z" transform="translate(-295.056 -266.504)" fill="#fe8f83"/>
          </g>
          <g id="Grupo_1230262" data-name="Grupo 1230262" transform="translate(17.641 17.235)">
            <path id="Trazado_1055561" data-name="Trazado 1055561" d="M405.92,268.2h-1.563a.847.847,0,0,1,0-1.695h1.563a.847.847,0,1,1,0,1.695Z" transform="translate(-403.509 -266.504)" fill="#fe8f83"/>
          </g>
          <path id="Trazado_1055562" data-name="Trazado 1055562" d="M273.4,93.358a.871.871,0,0,1-1.741,0,9.394,9.394,0,0,0-9.394,9.394v2.192h5.482a4.783,4.783,0,0,0,4.783-4.783,4.783,4.783,0,0,0,4.783,4.783H282.8v-2.192a9.394,9.394,0,0,0-9.394-9.394Z" transform="translate(-258.685 -93.358)" fill="#5a5a5a"/>
          <g id="Grupo_1230263" data-name="Grupo 1230263" transform="translate(14.085 0)">
            <path id="Trazado_1055563" data-name="Trazado 1055563" d="M368.416,93.358a.867.867,0,0,0-.632.273,9.4,9.4,0,0,1,7.143,9.121v2.192h2.884v-2.192A9.394,9.394,0,0,0,368.416,93.358Z" transform="translate(-367.784 -93.358)" fill="#444"/>
          </g>
        </g>
      </g>
      <g id="Grupo_1230266" data-name="Grupo 1230266" transform="translate(0 65.791)">
        <path id="Trazado_1055564" data-name="Trazado 1055564" d="M346.693,271.04a2.452,2.452,0,0,0,2.45-2.45.747.747,0,0,0-1.493,0,.956.956,0,1,1-1.913,0,.747.747,0,1,0-1.493,0A2.452,2.452,0,0,0,346.693,271.04Z" transform="translate(-309.977 -247.732)"/>
        <path id="Trazado_1055565" data-name="Trazado 1055565" d="M401.422,230.617a.747.747,0,0,0,.747-.747v-.78a.747.747,0,0,0-.093-1.487h-.654a.746.746,0,0,0-.747.747v1.521A.746.746,0,0,0,401.422,230.617Z" transform="translate(-360.792 -211.496)"/>
        <path id="Trazado_1055566" data-name="Trazado 1055566" d="M316.112,229.091v.78a.747.747,0,1,0,1.493,0v-1.521a.746.746,0,0,0-.747-.747H316.2a.747.747,0,0,0-.093,1.487Z" transform="translate(-284.057 -211.497)"/>
        <path id="Trazado_1055567" data-name="Trazado 1055567" d="M47.873,84.3a3.46,3.46,0,0,0-.538-3.77.742.742,0,0,0,.137-.43,14.371,14.371,0,0,0-.553-5.409.747.747,0,0,0-1.409.493,11,11,0,0,1,.47,4.17h-4.6a3.922,3.922,0,0,1-3.917-3.917.747.747,0,1,0-1.493,0,3.922,3.922,0,0,1-3.917,3.917h-4.6V77.962a8.424,8.424,0,0,1,8.414-8.414.1.1,0,0,1,.1.1.747.747,0,0,0,1.493,0,.1.1,0,0,1,.1-.1,8.417,8.417,0,0,1,6.344,2.887.747.747,0,1,0,1.125-.981,9.909,9.909,0,0,0-7.47-3.4,1.586,1.586,0,0,0-.849.245,1.586,1.586,0,0,0-.849-.245,9.918,9.918,0,0,0-9.907,9.907V80.1a.743.743,0,0,0,.137.43,3.473,3.473,0,0,0-.6.963,3.775,3.775,0,0,0-1.474-2.7V75.948A10.167,10.167,0,0,0,13.863,65.792a19.771,19.771,0,0,0-2.756.126,8.48,8.48,0,0,0-6.464,3.835l-2.248-.719a.747.747,0,0,0-.973.675A35.139,35.139,0,0,0,2.1,78.417a3.789,3.789,0,0,0,1.2,7.148,9.7,9.7,0,0,0,4.471,6.123H6.2a4.686,4.686,0,0,0-4.681,4.681v6.542a.746.746,0,0,0,.747.747H3.5a.747.747,0,1,0,0-1.493H3.009v-5.8A3.192,3.192,0,0,1,6.2,93.181H8.369a4.461,4.461,0,0,0,8.8,0h2.172a3.192,3.192,0,0,1,3.188,3.188v5.8H6.986a.747.747,0,1,0,0,1.493H23.271a.746.746,0,0,0,.747-.747V96.369a4.655,4.655,0,0,0-.344-1.758h1.2A5.55,5.55,0,0,0,27,94.191a4.532,4.532,0,0,0-.729,2.469v6.251a.746.746,0,0,0,.747.747H46.468a.746.746,0,0,0,.747-.747V96.66a4.532,4.532,0,0,0-.712-2.443,5.55,5.55,0,0,0,2.055.394h1.66a.746.746,0,0,0,.747-.747V89.292A5.618,5.618,0,0,0,47.873,84.3ZM32.051,80.846a5.413,5.413,0,0,0,4.664-2.67,5.413,5.413,0,0,0,4.664,2.67h3.355a1.976,1.976,0,1,1-.079,3.951.744.744,0,0,0-.768.623A7.279,7.279,0,0,1,30.4,87.836a.749.749,0,0,0-.042-.09,7.226,7.226,0,0,1-.688-1.719c0-.012-.006-.024-.009-.036-.042-.168-.083-.347-.12-.571a.746.746,0,0,0-.768-.623,1.976,1.976,0,1,1-.079-3.951l.081,0a.74.74,0,0,0,.094,0h3.18Zm4.676,15.27a2.579,2.579,0,0,1-2.576-2.576v-.946a8.8,8.8,0,0,0,5.152-.007v.953a2.579,2.579,0,0,1-2.444,2.573Q36.794,96.116,36.728,96.116Zm-5.9-4.018h0a4.541,4.541,0,0,0-1.463.243,5.557,5.557,0,0,0,.965-2.13,8.666,8.666,0,0,0,2.331,1.769V92.1Zm9.97-.131A8.694,8.694,0,0,0,43.1,90.211a5.556,5.556,0,0,0,.949,2.108A9.6,9.6,0,0,0,40.8,92.1v-.131ZM2.888,70.76l1.862.6a.747.747,0,0,0,.881-.35,6.993,6.993,0,0,1,5.591-3.6,18.756,18.756,0,0,1,2.64-.122,8.672,8.672,0,0,1,8.662,8.662V78.1c-.652-.14-.446-.085-10.685-.085a5,5,0,0,1-4.9-4.028.747.747,0,0,0-1.278-.367,9.719,9.719,0,0,0-2.239,3.93,33.017,33.017,0,0,1-.536-6.795ZM4.65,84.724a.747.747,0,0,0-.736-.623h-.03l-.094,0a2.3,2.3,0,0,1-.083-4.592h.009c.056,0,.111,0,.166,0h.01a.745.745,0,0,0,.758-.623,8.141,8.141,0,0,1,1.041-2.835q.111-.186.233-.367a6.5,6.5,0,0,0,5.916,3.825h9.984a2.322,2.322,0,0,1,1.065.32l.018.009A2.3,2.3,0,0,1,21.716,84.1l-.094,0a.748.748,0,0,0-.766.623,8.217,8.217,0,0,1-16.205,0ZM12.617,95.4a2.972,2.972,0,0,1-2.8-2.659c0-.011,0-.022,0-.033q0-.048-.007-.1a9.771,9.771,0,0,0,5.924-.009,2.972,2.972,0,0,1-3.112,2.8Zm6.72-3.713h-1.6a9.695,9.695,0,0,0,4.471-6.123,3.8,3.8,0,0,0,3.036-2.379,3.44,3.44,0,0,0,.311,1.114,5.618,5.618,0,0,0-3.091,4.993v3.6A4.662,4.662,0,0,0,19.337,91.688Zm4.623,1.43V89.292A4.114,4.114,0,0,1,26.5,85.508a3.5,3.5,0,0,0,1.69.747,8.833,8.833,0,0,0,.772,2.044v.73a4.093,4.093,0,0,1-4.088,4.088H23.96Zm21.762,9.047H27.759v-5.5a3.072,3.072,0,0,1,3.068-3.068h1.831a4.069,4.069,0,0,0,8.138,0h1.857a3.072,3.072,0,0,1,3.068,3.068v5.5Zm3.75-9.047h-.914a4.093,4.093,0,0,1-4.088-4.089V88.3a8.829,8.829,0,0,0,.772-2.044,3.466,3.466,0,0,0,1.618-.692c.024-.018.048-.036.072-.055a4.114,4.114,0,0,1,2.541,3.784Z" transform="translate(0 -65.791)"/>
        <path id="Trazado_1055568" data-name="Trazado 1055568" d="M104.146,265.69a2.653,2.653,0,0,0,2.65-2.65.747.747,0,1,0-1.493,0,1.157,1.157,0,0,1-2.314,0,.747.747,0,1,0-1.493,0A2.653,2.653,0,0,0,104.146,265.69Z" transform="translate(-91.393 -242.733)"/>
        <path id="Trazado_1055569" data-name="Trazado 1055569" d="M77.415,217.564a.747.747,0,0,0-.747.747v1.651a.747.747,0,0,0,1.493,0v-1.651A.747.747,0,0,0,77.415,217.564Z" transform="translate(-69.036 -202.457)"/>
        <path id="Trazado_1055570" data-name="Trazado 1055570" d="M165.319,220.708a.747.747,0,0,0,.747-.747v-1.651a.747.747,0,0,0-1.493,0v1.651A.747.747,0,0,0,165.319,220.708Z" transform="translate(-148.191 -202.457)"/>
      </g>
    </g>
  </g>
</svg>
