<svg xmlns="http://www.w3.org/2000/svg" xmlns:xlink="http://www.w3.org/1999/xlink" width="108" height="108" viewBox="0 0 108 108">
  <defs>
    <filter id="Trazado_904820" x="0" y="0" width="108" height="108" filterUnits="userSpaceOnUse">
      <feOffset dy="3" input="SourceAlpha"/>
      <feGaussianBlur stdDeviation="3" result="blur"/>
      <feFlood flood-opacity="0.161"/>
      <feComposite operator="in" in2="blur"/>
      <feComposite in="SourceGraphic"/>
    </filter>
  </defs>
  <g id="Grupo_1230122" data-name="Grupo 1230122" transform="translate(-618.477 -5696)">
    <g id="Grupo_1229770" data-name="Grupo 1229770" transform="translate(-1 5223.321)">
      <g id="Grupo_1208347" data-name="Grupo 1208347" transform="translate(628.477 478.679)">
        <g id="Grupo_1207936" data-name="Grupo 1207936" transform="translate(0 0)">
          <g id="Grupo_1201662" data-name="Grupo 1201662">
            <g id="Grupo_1173585" data-name="Grupo 1173585">
              <g id="Grupo_1173428" data-name="Grupo 1173428">
                <g id="Grupo_1171958" data-name="Grupo 1171958">
                  <g id="Grupo_1167341" data-name="Grupo 1167341">
                    <g id="Grupo_1166792" data-name="Grupo 1166792">
                      <g transform="matrix(1, 0, 0, 1, -9, -6)" filter="url(#Trazado_904820)">
                        <g id="Trazado_904820-2" data-name="Trazado 904820" transform="translate(9 6)" fill="#effbfe">
                          <path d="M 44.99999618530273 88.49999237060547 C 39.12687301635742 88.49999237060547 33.43022155761719 87.35006713867188 28.06829643249512 85.08216857910156 C 22.88852119445801 82.89130401611328 18.23629570007324 79.75457763671875 14.24084663391113 75.75914001464844 C 10.24540901184082 71.76369476318359 7.108683586120605 67.11146545410156 4.917821407318115 61.93169403076172 C 2.649921178817749 56.56976699829102 1.499996185302734 50.87311553955078 1.499996185302734 44.99999237060547 C 1.499996185302734 39.12686920166016 2.649921178817749 33.43021774291992 4.917821407318115 28.06829261779785 C 7.108683586120605 22.88851737976074 10.24540901184082 18.23630523681641 14.24084663391113 14.24085521697998 C 18.23629570007324 10.24540519714355 22.88852119445801 7.108692169189453 28.06829643249512 4.917829990386963 C 33.43022155761719 2.649929761886597 39.12687301635742 1.500004887580872 44.99999618530273 1.500004887580872 C 50.87311935424805 1.500004887580872 56.56977081298828 2.649929761886597 61.93169784545898 4.917829990386963 C 67.11147308349609 7.108692169189453 71.76369476318359 10.24540519714355 75.75914764404297 14.24085521697998 C 79.75458526611328 18.23630523681641 82.89131164550781 22.88851737976074 85.08216857910156 28.06829261779785 C 87.35007476806641 33.43021774291992 88.5 39.12686920166016 88.5 44.99999237060547 C 88.5 50.87311553955078 87.35007476806641 56.56976699829102 85.08216857910156 61.93169403076172 C 82.89131164550781 67.11146545410156 79.75458526611328 71.76369476318359 75.75914764404297 75.75914001464844 C 71.76369476318359 79.75457763671875 67.11147308349609 82.89130401611328 61.93169784545898 85.08216857910156 C 56.56977081298828 87.35006713867188 50.87311935424805 88.49999237060547 44.99999618530273 88.49999237060547 Z" stroke="none"/>
                          <path d="M 44.99999618530273 2.999992370605469 C 39.32870864868164 2.999992370605469 33.82865142822266 4.11004638671875 28.65262603759766 6.299331665039062 C 23.65165710449219 8.414566040039062 19.15968322753906 11.44333648681641 15.301513671875 15.30150604248047 C 11.44333648681641 19.15967559814453 8.414566040039062 23.65164947509766 6.299339294433594 28.65262222290039 C 4.110054016113281 33.82864761352539 2.999992370605469 39.32870483398438 2.999992370605469 44.99999237060547 C 2.999992370605469 50.67127990722656 4.110054016113281 56.17132186889648 6.299339294433594 61.34736633300781 C 8.414566040039062 66.34833526611328 11.44333648681641 70.84029388427734 15.301513671875 74.69846343994141 C 19.15968322753906 78.55663299560547 23.65165710449219 81.58540344238281 28.65262603759766 83.70063781738281 C 33.82865142822266 85.88992309570312 39.32870864868164 86.99997711181641 44.99999618530273 86.99997711181641 C 50.67128372192383 86.99997711181641 56.17134094238281 85.88992309570312 61.34736633300781 83.70063781738281 C 66.34834289550781 81.58540344238281 70.84030914306641 78.55663299560547 74.69847869873047 74.69846343994141 C 78.55665588378906 70.84029388427734 81.58542633056641 66.34833526611328 83.70065307617188 61.34736633300781 C 85.88993835449219 56.17132186889648 87 50.67127990722656 87 44.99999237060547 C 87 39.32870483398438 85.88993835449219 33.82864761352539 83.70065307617188 28.65262222290039 C 81.58542633056641 23.65164947509766 78.55665588378906 19.15967559814453 74.69847869873047 15.30150604248047 C 70.84030914306641 11.44333648681641 66.34834289550781 8.414566040039062 61.34736633300781 6.299331665039062 C 56.17134094238281 4.11004638671875 50.67128372192383 2.999992370605469 44.99999618530273 2.999992370605469 M 44.99999618530273 -7.62939453125e-06 C 69.85281372070312 -7.62939453125e-06 90 20.14717864990234 90 44.99999237060547 C 90 69.85279083251953 69.85281372070312 89.99997711181641 44.99999618530273 89.99997711181641 C 20.14717864990234 89.99997711181641 -7.62939453125e-06 69.85279083251953 -7.62939453125e-06 44.99999237060547 C -7.62939453125e-06 20.14717864990234 20.14717864990234 -7.62939453125e-06 44.99999618530273 -7.62939453125e-06 Z" stroke="none" fill="#497f88"/>
                        </g>
                      </g>
                    </g>
                  </g>
                </g>
              </g>
            </g>
          </g>
        </g>
      </g>
    </g>
    <g id="leer_5_" data-name="leer (5)" transform="translate(618.011 5716.409)">
      <g id="Grupo_1230120" data-name="Grupo 1230120" transform="translate(28.011 0.896)">
        <g id="Grupo_1230116" data-name="Grupo 1230116" transform="translate(6.758)">
          <path id="Trazado_1055307" data-name="Trazado 1055307" d="M130.561,27.463a19.7,19.7,0,1,0-39.394,0c0,11.025,8.819,11.857,19.7,11.857S130.561,38.488,130.561,27.463Z" transform="translate(-91.167 -7.5)" fill="#665e66"/>
          <path id="Trazado_1055308" data-name="Trazado 1055308" d="M110.605,39.322c-10.759-.013-19.438-.918-19.438-11.856A19.831,19.831,0,0,1,110.864,7.5c-5.537,0-10.024,8.938-10.024,19.962C100.84,38.319,105.189,39.295,110.605,39.322Z" transform="translate(-91.167 -7.504)" fill="#454045"/>
          <path id="Trazado_1055309" data-name="Trazado 1055309" d="M165.452,84.976a7.918,7.918,0,0,1-7.542,7.506q-5.241.248-10.481.1h-.006q-1.329-.037-2.658-.1a7.917,7.917,0,0,1-7.541-7.506q-.231-4.484-.037-8.969h0q.058-1.4.16-2.794c.646-3.068,3.174-5.69,6.706-7.228.1-.045.209-.09.315-.133a17.849,17.849,0,0,1,4.7-1.193,19.407,19.407,0,0,1,7.155.494h0c4.766,1.267,8.328,4.338,9.106,8.07a0,0,0,0,0,0,0A95.519,95.519,0,0,1,165.452,84.976Z" transform="translate(-131.611 -57.711)" fill="#f1d0a5"/>
          <path id="Trazado_1055310" data-name="Trazado 1055310" d="M147.43,102.347h-.006q-1.329-.037-2.658-.1a7.917,7.917,0,0,1-7.541-7.506,95.384,95.384,0,0,1,.123-11.764c.646-3.068,3.174-5.69,6.706-7.228.1-.045.209-.09.315-.133-.242,5.9-.3,14.458-.176,19.292C144.289,98.625,145.647,101.656,147.43,102.347Z" transform="translate(-131.611 -67.476)" fill="#f1b986"/>
          <path id="Trazado_1055311" data-name="Trazado 1055311" d="M156.873,65.151h0c-2.347,4.025-7.974,9.316-10.213,8.052-.819-.463-.712-1.416-.25-2.442a18.181,18.181,0,0,1-3.5,4.293c-1.506,1.269-3.321,2.057-5.077.951h0q.058-1.4.16-2.794c.646-3.068,3.174-5.69,6.706-7.228.1-.045.209-.09.315-.133a17.849,17.849,0,0,1,4.7-1.193,19.407,19.407,0,0,1,7.155.494Z" transform="translate(-132.261 -57.71)" fill="#665e66"/>
          <path id="Trazado_1055312" data-name="Trazado 1055312" d="M142.915,75.055c-1.506,1.269-3.321,2.057-5.077.951h0q.058-1.4.16-2.794c.646-3.068,3.174-5.69,6.706-7.228.1-.045.209-.09.315-.133a17.849,17.849,0,0,1,4.7-1.193,19.136,19.136,0,0,1,2.271-.133C147.071,66.24,136.916,75.055,142.915,75.055Z" transform="translate(-132.261 -57.71)" fill="#454045"/>
          <g id="Grupo_1230115" data-name="Grupo 1230115" transform="translate(8.503 25.454)">
            <ellipse id="Elipse_11553" data-name="Elipse 11553" cx="2.409" cy="1.528" rx="2.409" ry="1.528" fill="#df9380"/>
            <ellipse id="Elipse_11554" data-name="Elipse 11554" cx="2.409" cy="1.528" rx="2.409" ry="1.528" transform="translate(17.63)" fill="#f9a58e"/>
          </g>
          <path id="Trazado_1055313" data-name="Trazado 1055313" d="M166.139,50.88A7.562,7.562,0,0,1,166,52.312c-.956-4.982-6.866-8.817-14.015-8.817a19.125,19.125,0,0,0-2.271.133,17.864,17.864,0,0,0-4.423,1.083q-.3.115-.591.243c-3.579,1.559-6.13,4.232-6.731,7.353a7.575,7.575,0,0,1-.134-1.427c0-3.727,2.751-6.989,6.866-8.779q.639-.278,1.32-.507a18.045,18.045,0,0,1,3.694-.821,19.123,19.123,0,0,1,2.271-.132C159.8,40.641,166.139,45.225,166.139,50.88Z" transform="translate(-132.26 -36.681)" fill="#da4a54"/>
          <path id="Trazado_1055314" data-name="Trazado 1055314" d="M146.025,48.612l-.729,3.117q-.3.115-.591.243c-3.579,1.559-6.13,4.232-6.731,7.353a7.575,7.575,0,0,1-.134-1.427c0-3.727,2.752-6.989,6.866-8.779q.639-.278,1.32-.507Z" transform="translate(-132.262 -43.699)" fill="#c32430"/>
        </g>
        <path id="Trazado_1055315" data-name="Trazado 1055315" d="M279.143,260.205v20.2a2.748,2.748,0,0,1-2.165,2.685l-17.942,3.888H256.72V261.158h2.316l16.778-3.636A2.747,2.747,0,0,1,279.143,260.205Z" transform="translate(-230.179 -227.589)" fill="#80b4fb"/>
        <path id="Trazado_1055316" data-name="Trazado 1055316" d="M90.226,261.158v25.821H87.738L69.8,283.09a2.748,2.748,0,0,1-2.165-2.685v-20.2a2.747,2.747,0,0,1,3.329-2.684l16.778,3.636Z" transform="translate(-63.685 -227.589)" fill="#5490f9"/>
        <path id="Trazado_1055317" data-name="Trazado 1055317" d="M235.9,314.24V288.419h4.8V314.24" transform="translate(-211.849 -254.85)" fill="#bed8fb"/>
        <g id="Grupo_1230119" data-name="Grupo 1230119" transform="translate(0 35.096)">
          <g id="Grupo_1230117" data-name="Grupo 1230117">
            <path id="Trazado_1055318" data-name="Trazado 1055318" d="M38.066,308.48h-.94a2.513,2.513,0,0,1-2.513-2.513v-2.255a2.513,2.513,0,0,1,2.513-2.513h.94a2.513,2.513,0,0,1,2.513,2.513v2.255A2.512,2.512,0,0,1,38.066,308.48Z" transform="translate(-34.614 -301.2)" fill="#f1d0a5"/>
            <path id="Trazado_1055319" data-name="Trazado 1055319" d="M38.55,308.433a2.378,2.378,0,0,1-.483.048h-.94a2.513,2.513,0,0,1-2.512-2.513v-2.255a2.512,2.512,0,0,1,2.512-2.513h.94a2.38,2.38,0,0,1,.483.048,2.511,2.511,0,0,0-2.028,2.465v2.255A2.511,2.511,0,0,0,38.55,308.433Z" transform="translate(-34.615 -301.2)" fill="#f1b986"/>
          </g>
          <g id="Grupo_1230118" data-name="Grupo 1230118" transform="translate(46.945)">
            <path id="Trazado_1055320" data-name="Trazado 1055320" d="M430.921,308.48h-.94a2.513,2.513,0,0,1-2.513-2.513v-2.255a2.513,2.513,0,0,1,2.513-2.513h.94a2.513,2.513,0,0,1,2.513,2.513v2.255A2.512,2.512,0,0,1,430.921,308.48Z" transform="translate(-427.469 -301.2)" fill="#f1d0a5"/>
            <path id="Trazado_1055321" data-name="Trazado 1055321" d="M431.405,308.433a2.379,2.379,0,0,1-.483.048h-.94a2.513,2.513,0,0,1-2.512-2.513v-2.255a2.512,2.512,0,0,1,2.512-2.513h.94a2.381,2.381,0,0,1,.483.048,2.511,2.511,0,0,0-2.028,2.465v2.255A2.511,2.511,0,0,0,431.405,308.433Z" transform="translate(-427.47 -301.2)" fill="#f1b986"/>
          </g>
        </g>
      </g>
      <g id="Grupo_1230121" data-name="Grupo 1230121" transform="translate(27.115 0)">
        <path id="Trazado_1055322" data-name="Trazado 1055322" d="M231.606,230.765a.9.9,0,0,0-1.194.425,2.307,2.307,0,0,1-4.169,0,.9.9,0,1,0-1.619.768,4.1,4.1,0,0,0,7.407,0A.9.9,0,0,0,231.606,230.765Z" transform="translate(-200.946 -203.113)"/>
        <path id="Trazado_1055323" data-name="Trazado 1055323" d="M298.884,181.492a6.876,6.876,0,0,0-1.308-.125,2.68,2.68,0,0,0,.146-.882c0-1.057-.578-1.917-1.288-1.917s-1.288.86-1.288,1.917a2.518,2.518,0,0,0,.309,1.242,3.9,3.9,0,0,0-.6.268.9.9,0,0,0,.449,1.673.886.886,0,0,0,.45-.123,4.341,4.341,0,0,1,2.793-.294.9.9,0,0,0,.339-1.76Z" transform="translate(-262.467 -157.23)"/>
        <path id="Trazado_1055324" data-name="Trazado 1055324" d="M179.315,181.994a3.908,3.908,0,0,0-.6-.268,2.518,2.518,0,0,0,.309-1.242c0-1.057-.578-1.917-1.288-1.917s-1.288.86-1.288,1.917a2.677,2.677,0,0,0,.146.882,6.88,6.88,0,0,0-1.308.125.9.9,0,0,0,.339,1.76,4.347,4.347,0,0,1,2.792.293.9.9,0,0,0,.9-1.55Z" transform="translate(-156.939 -157.229)"/>
        <path id="Trazado_1055325" data-name="Trazado 1055325" d="M329.929,312.6,320,314.75a.9.9,0,1,0,.38,1.752l9.924-2.151a.9.9,0,1,0-.38-1.752Z" transform="translate(-284.383 -275.227)"/>
        <path id="Trazado_1055326" data-name="Trazado 1055326" d="M329.929,340.469,320,342.62a.9.9,0,1,0,.38,1.752l9.924-2.151a.9.9,0,1,0-.38-1.752Z" transform="translate(-284.383 -299.766)"/>
        <path id="Trazado_1055327" data-name="Trazado 1055327" d="M78.408,35.1h-.536V33.513a3.643,3.643,0,0,0-4.415-3.56l-2.554.554c2.791-2.051,4.156-5.233,4.156-9.647a20.595,20.595,0,1,0-41.186,0c0,4.413,1.367,7.6,4.159,9.648l-2.556-.554a3.643,3.643,0,0,0-4.416,3.56V35.1h-.536A3.413,3.413,0,0,0,27.115,38.5V40.76a3.413,3.413,0,0,0,3.409,3.409h.536v9.543a3.664,3.664,0,0,0,2.872,3.561l17.942,3.888a.9.9,0,0,0,.19.02h4.8a.9.9,0,0,0,.19-.02L75,57.273a3.664,3.664,0,0,0,2.872-3.561V44.169h.536a3.413,3.413,0,0,0,3.409-3.409V38.5A3.412,3.412,0,0,0,78.408,35.1ZM35.666,20.859a18.8,18.8,0,1,1,37.6,0c0,4.065-1.251,6.821-3.9,8.523a8.867,8.867,0,0,0,.14-1.176c.025-.485.044-.927.06-1.353a.9.9,0,0,0-1.791-.067c-.016.418-.035.852-.059,1.328a7.026,7.026,0,0,1-1.021,3.3l-9.923,2.151H52.16l-9.852-2.135a7,7,0,0,1-1.03-3.318c-.13-2.518-.155-5.063-.081-7.6a4,4,0,0,0,.906.1,4.47,4.47,0,0,0,1.091-.139c1.973-.5,3.741-2.284,4.936-3.8a2.189,2.189,0,0,0,.6.49c1.755.991,4.277-.616,6.084-2.138A26.434,26.434,0,0,0,59.787,9.39c4.064,1.257,7.115,3.917,7.813,7.155.158,2.225.239,4.481.24,6.7a.9.9,0,0,0,.9.9h0a.9.9,0,0,0,.9-.9c0-2.194-.079-4.418-.23-6.615a8.451,8.451,0,0,0,.142-1.538,9.891,9.891,0,0,0-4.515-7.966A18.046,18.046,0,0,0,54.5,3.96a20.068,20.068,0,0,0-2.375.138,18.557,18.557,0,0,0-5.268,1.4A13.832,13.832,0,0,0,41.536,9.42,9.068,9.068,0,0,0,39.449,15.1a8.521,8.521,0,0,0,.143,1.547,96.662,96.662,0,0,0-.1,11.565,8.836,8.836,0,0,0,.148,1.219c-2.7-1.7-3.97-4.47-3.97-8.567ZM54.5,6.814a20.061,20.061,0,0,0-2.374.138,18.565,18.565,0,0,0-5.269,1.395,14.468,14.468,0,0,0-4.44,2.94,11.453,11.453,0,0,1,5.155-4.15,16.769,16.769,0,0,1,4.763-1.259A18.29,18.29,0,0,1,54.5,5.753c5.431,0,10.11,2.315,12.155,5.618a13.331,13.331,0,0,0-2.345-1.876,18.487,18.487,0,0,0-9.81-2.68ZM47.569,9.991a16.777,16.777,0,0,1,4.763-1.258,18.564,18.564,0,0,1,5.608.2,25.252,25.252,0,0,1-4.284,4.731c-2.975,2.506-4.005,1.972-4.048,1.948-.318-.179-.056-.889.128-1.3a.9.9,0,0,0-1.6-.813c-.718,1.261-3.085,4.661-5.387,5.238a2.367,2.367,0,0,1-1.485-.078c.035-.712.075-1.423.126-2.132C41.986,13.823,44.225,11.447,47.569,9.991ZM28.907,40.76V38.5a1.618,1.618,0,0,1,1.616-1.616h.94A1.618,1.618,0,0,1,33.08,38.5V40.76a1.618,1.618,0,0,1-1.616,1.616h-.94A1.618,1.618,0,0,1,28.907,40.76Zm3.945,12.952V43.872a3.413,3.413,0,0,0,2.019-3.112V38.5a3.413,3.413,0,0,0-2.019-3.112V33.513A1.851,1.851,0,0,1,35.1,31.7l16.072,3.483v5.674a.9.9,0,1,0,1.792,0v-5.5h3.011V59.39H52.96V44.447a.9.9,0,1,0-1.792,0V59.175L34.311,55.522a1.861,1.861,0,0,1-1.459-1.809ZM74.62,55.522,57.764,59.175V35.188L73.837,31.7a1.851,1.851,0,0,1,2.243,1.808v1.881A3.413,3.413,0,0,0,74.06,38.5V40.76a3.413,3.413,0,0,0,2.019,3.112v9.841A1.862,1.862,0,0,1,74.62,55.522Zm5.4-14.761a1.618,1.618,0,0,1-1.616,1.616h-.94a1.618,1.618,0,0,1-1.616-1.616V38.5a1.618,1.618,0,0,1,1.616-1.616h.94A1.618,1.618,0,0,1,80.024,38.5Z" transform="translate(-27.115 0)"/>
      </g>
    </g>
  </g>
</svg>
