<svg xmlns="http://www.w3.org/2000/svg" xmlns:xlink="http://www.w3.org/1999/xlink" width="98" height="98" viewBox="0 0 98 98">
  <defs>
    <filter id="Trazado_982547" x="0" y="0" width="98" height="98" filterUnits="userSpaceOnUse">
      <feOffset dy="3" input="SourceAlpha"/>
      <feGaussianBlur stdDeviation="3" result="blur"/>
      <feFlood flood-opacity="0.161"/>
      <feComposite operator="in" in2="blur"/>
      <feComposite in="SourceGraphic"/>
    </filter>
    <clipPath id="clip-path">
      <path id="path8121" d="M0-682.665H48.414v48.414H0Z" transform="translate(0 682.665)"/>
    </clipPath>
  </defs>
  <g id="Grupo_1230627" data-name="Grupo 1230627" transform="translate(-194.4 -5658.045)">
    <g id="Grupo_1229885" data-name="Grupo 1229885" transform="translate(203.4 5664.045)">
      <g id="Grupo_1208936" data-name="Grupo 1208936" transform="translate(0)">
        <g id="Grupo_1208171" data-name="Grupo 1208171">
          <g id="Grupo_1207739" data-name="Grupo 1207739">
            <g id="Grupo_1207712" data-name="Grupo 1207712">
              <g id="Grupo_1207285" data-name="Grupo 1207285">
                <g id="Grupo_1206883" data-name="Grupo 1206883">
                  <g id="Grupo_1204569" data-name="Grupo 1204569">
                    <g id="Grupo_1203962" data-name="Grupo 1203962">
                      <g id="Grupo_1203498" data-name="Grupo 1203498">
                        <g id="Grupo_1202589" data-name="Grupo 1202589">
                          <g id="Grupo_1172010" data-name="Grupo 1172010">
                            <g id="Grupo_1171046" data-name="Grupo 1171046">
                              <g id="Grupo_1148525" data-name="Grupo 1148525">
                                <g transform="matrix(1, 0, 0, 1, -9, -6)" filter="url(#Trazado_982547)">
                                  <g id="Trazado_982547-2" data-name="Trazado 982547" transform="translate(9 6)" fill="#fdfbec">
                                    <path d="M 39.99999237060547 78.49998474121094 C 34.8018684387207 78.49998474121094 29.76002502441406 77.48226165771484 25.0145263671875 75.47508239746094 C 20.43014717102051 73.53604888916016 16.31264877319336 70.75984954833984 12.77639198303223 67.22359466552734 C 9.240137100219727 63.68733596801758 6.463936805725098 59.5698356628418 4.524903297424316 54.98546981811523 C 2.517725706100464 50.23995971679688 1.500003457069397 45.19811630249023 1.500003457069397 39.99999237060547 C 1.500003457069397 34.8018684387207 2.517725706100464 29.76002502441406 4.524903297424316 25.0145263671875 C 6.463936805725098 20.43014717102051 9.240137100219727 16.31264877319336 12.77639198303223 12.77639198303223 C 16.31264877319336 9.240137100219727 20.43014717102051 6.463936805725098 25.0145263671875 4.524903297424316 C 29.76002502441406 2.517725706100464 34.8018684387207 1.500003457069397 39.99999237060547 1.500003457069397 C 45.19811630249023 1.500003457069397 50.23995971679688 2.517725706100464 54.98546981811523 4.524903297424316 C 59.5698356628418 6.463936805725098 63.68733596801758 9.240137100219727 67.22359466552734 12.77639198303223 C 70.75984954833984 16.31264877319336 73.53604888916016 20.43014717102051 75.47508239746094 25.0145263671875 C 77.48226165771484 29.76002502441406 78.49998474121094 34.8018684387207 78.49998474121094 39.99999237060547 C 78.49998474121094 45.19812393188477 77.48226165771484 50.23995971679688 75.47508239746094 54.98546981811523 C 73.53604888916016 59.5698356628418 70.75984954833984 63.68733596801758 67.22359466552734 67.22359466552734 C 63.68733596801758 70.75984954833984 59.5698356628418 73.53604888916016 54.98546981811523 75.47508239746094 C 50.23995971679688 77.48226165771484 45.19812393188477 78.49998474121094 39.99999237060547 78.49998474121094 Z" stroke="none"/>
                                    <path d="M 39.99999237060547 2.999992370605469 C 35.00370025634766 2.999992370605469 30.1584587097168 3.97784423828125 25.59884643554688 5.906402587890625 C 21.19327163696289 7.769805908203125 17.23603057861328 10.43805694580078 13.83704376220703 13.83704376220703 C 10.43805694580078 17.23603057861328 7.769805908203125 21.19327163696289 5.906402587890625 25.59884643554688 C 3.97784423828125 30.1584587097168 2.999992370605469 35.00370025634766 2.999992370605469 39.99999237060547 C 2.999992370605469 44.99628448486328 3.97784423828125 49.84152603149414 5.906402587890625 54.40113830566406 C 7.769805908203125 58.80671310424805 10.43805694580078 62.76395416259766 13.83704376220703 66.16294097900391 C 17.23603057861328 69.56191253662109 21.19327163696289 72.23016357421875 25.59884643554688 74.09356689453125 C 30.1584587097168 76.02212524414062 35.00370025634766 76.99997711181641 39.99999237060547 76.99997711181641 C 44.99628448486328 76.99997711181641 49.84152603149414 76.02212524414062 54.40113830566406 74.09356689453125 C 58.80671310424805 72.23016357421875 62.76395416259766 69.56191253662109 66.16294097900391 66.16294097900391 C 69.56191253662109 62.76395416259766 72.23016357421875 58.80671310424805 74.09356689453125 54.40113830566406 C 76.02212524414062 49.84152603149414 76.99997711181641 44.99628448486328 76.99997711181641 39.99999237060547 C 76.99997711181641 35.00370025634766 76.02212524414062 30.1584587097168 74.09356689453125 25.59884643554688 C 72.23016357421875 21.19327163696289 69.56191253662109 17.23603057861328 66.16294097900391 13.83704376220703 C 62.76395416259766 10.43805694580078 58.80671310424805 7.769805908203125 54.40113830566406 5.906402587890625 C 49.84152603149414 3.97784423828125 44.99628448486328 2.999992370605469 39.99999237060547 2.999992370605469 M 39.99999237060547 -7.62939453125e-06 C 62.09137725830078 -7.62939453125e-06 79.99997711181641 17.90860748291016 79.99997711181641 39.99999237060547 C 79.99997711181641 62.09137725830078 62.09137725830078 79.99997711181641 39.99999237060547 79.99997711181641 C 17.90860748291016 79.99997711181641 -7.62939453125e-06 62.09137725830078 -7.62939453125e-06 39.99999237060547 C -7.62939453125e-06 17.90860748291016 17.90860748291016 -7.62939453125e-06 39.99999237060547 -7.62939453125e-06 Z" stroke="none" fill="#83793c"/>
                                  </g>
                                </g>
                              </g>
                            </g>
                          </g>
                        </g>
                      </g>
                    </g>
                  </g>
                </g>
              </g>
              <g id="g8115" transform="translate(15.793 15.793)">
                <g id="g8117">
                  <g id="g8119" clip-path="url(#clip-path)">
                    <g id="g8125" transform="translate(-33.259 0.709)">
                      <path id="path8127" d="M-338.457-377.826h-25.835v-25.108c5.31-7.679,37.755-5.416,25.835,25.108" transform="translate(364.292 406.667)" fill="#fbdf63"/>
                    </g>
                    <g id="g8129" transform="translate(-33.259 0.709)">
                      <path id="path8131" d="M-338.457-377.826h-.619c6.164-24.728-15.887-30.6-25.216-24.374v-.734c5.31-7.679,37.755-5.416,25.835,25.108" transform="translate(364.292 406.667)" fill="#f9d11f"/>
                    </g>
                  </g>
                </g>
                <g id="g8265">
                  <g id="g8267" clip-path="url(#clip-path)">
                    <g id="g8273" transform="translate(-33.259 51.036)">
                      <path id="path8275" d="M-338.457-377.654h-25.835v-25.1c5.31-7.676,37.755-5.413,25.835,25.1" transform="translate(364.292 406.481)" fill="#003343"/>
                    </g>
                    <g id="g8277" transform="translate(-33.259 51.036)">
                      <path id="path8279" d="M-338.457-377.654h-.619c6.164-24.717-15.887-30.585-25.216-24.362v-.734c5.31-7.676,37.755-5.413,25.835,25.1" transform="translate(364.292 406.481)" fill="#002439"/>
                    </g>
                  </g>
                </g>
                <g id="g8281">
                  <g id="g8283" clip-path="url(#clip-path)">
                    <g id="g8289" transform="translate(17.066 51.014)">
                      <path id="path8291" d="M-338.457-377.826h-25.835v-25.108c5.31-7.679,37.755-5.416,25.835,25.108" transform="translate(364.292 406.667)" fill="#ff7e50"/>
                    </g>
                    <g id="g8293" transform="translate(17.066 51.014)">
                      <path id="path8295" d="M-338.457-377.826h-.619c6.164-24.728-15.887-30.6-25.216-24.374v-.734c5.31-7.679,37.755-5.416,25.835,25.108" transform="translate(364.292 406.667)" fill="#ff6247"/>
                    </g>
                    <g id="g8297" transform="translate(2.941 54.225)">
                      <path id="path8299" d="M-233.028-131.751v15.573h-14.6c-12.2-25.649,14.6-34.273,14.6-15.573" transform="translate(250.816 141.808)" fill="#ffa68a"/>
                    </g>
                    <g id="g8301" transform="translate(2.941 54.225)">
                      <path id="path8303" d="M-233.028-131.751c-.9-16.1-20.23-9.82-14.176,15.573h-.427c-12.2-25.649,14.6-34.273,14.6-15.573" transform="translate(250.816 141.808)" fill="#ff7e50"/>
                    </g>
                  </g>
                </g>
              </g>
            </g>
          </g>
        </g>
      </g>
    </g>
    <g id="educacion_17_" data-name="educacion (17)" transform="translate(218.73 5678.808)">
      <path id="Trazado_1056331" data-name="Trazado 1056331" d="M11.313,38.626H42.922V34H11.313a2.313,2.313,0,1,0,0,4.626Z" transform="translate(-2.062 -7.576)" fill="#eceff0"/>
      <path id="Trazado_1056332" data-name="Trazado 1056332" d="M9.152,48a4.24,4.24,0,1,0,0,8.48s39-.01,39-.021V48.021c0-.012-39-.021-39-.021Z" transform="translate(-1.125 -10.783)" fill="#dedfdf"/>
      <path id="Trazado_1056333" data-name="Trazado 1056333" d="M3.947,51.324a4.24,4.24,0,0,1,4.24-4.24h39.07a1.542,1.542,0,0,0,0-3.084H8.324a7.324,7.324,0,0,0,0,14.648H47.257a1.542,1.542,0,0,0,0-3.084H8.187a4.24,4.24,0,0,1-4.24-4.24Z" transform="translate(-0.229 -9.867)" fill="#db3a3a"/>
      <path id="Trazado_1056334" data-name="Trazado 1056334" d="M10.4,37.71H42.011a1.542,1.542,0,0,1,0,3.084H10.421a5.4,5.4,0,1,1,0-10.793h31.59a1.542,1.542,0,0,1,0,3.084H10.4a2.313,2.313,0,1,0,0,4.626Z" transform="translate(-1.151 -6.66)" fill="#5783e4"/>
      <path id="Trazado_1056335" data-name="Trazado 1056335" d="M17,26.793s2.891,3.855,11.564,3.855,11.564-3.855,11.564-3.855V16H17Z" transform="translate(-3.894 -3.453)" fill="#414141"/>
      <path id="Trazado_1056336" data-name="Trazado 1056336" d="M26.274,2,7,9.71l19.274,7.71L45.548,9.71Z" transform="translate(-1.604 -0.247)" fill="#5a5a5a"/>
      <path id="Trazado_1056337" data-name="Trazado 1056337" d="M50,33.251h4.626L53.084,24H51.542Z" transform="translate(-11.453 -5.286)" fill="#ffdc32"/>
      <circle id="Elipse_11566" data-name="Elipse 11566" cx="1.927" cy="1.927" r="1.927" transform="translate(38.933 16.787)" fill="#facd1e"/>
      <path id="Trazado_1056338" data-name="Trazado 1056338" d="M47.8,45.069V37.846a2.307,2.307,0,0,0-.771-4.484h-4a2.285,2.285,0,0,0,.142-.771,2.309,2.309,0,0,0-1.542-2.171V28.737h2.452l-1.348-8.089a2.681,2.681,0,0,0-1.1-4.506V12.786l-2.007-.765,6.4-2.558L24.67.923,3.321,9.463l9.014,3.606v9.5H9.251a6.161,6.161,0,0,0-3.594,11.17A8.094,8.094,0,0,0,8.095,49.552H47.028a2.307,2.307,0,0,0,.771-4.484ZM46.257,39.53H32.38v1.542H46.257v3.855H7.958a3.469,3.469,0,0,1,0-6.939h38.3Zm-6.168-9.251H9.251a1.542,1.542,0,0,1,0-3.084h9.233a23.218,23.218,0,0,0,6.187.771,23.217,23.217,0,0,0,6.187-.771h7.037l-.257,1.542h2.452Zm-3.509-6.168h1.828l-.257,1.542H34.586a9.365,9.365,0,0,0,1.995-1.542Zm5.682,3.084h-2.8l.971-5.826a2.159,2.159,0,0,0,.863,0Zm-.246-8.48a1.156,1.156,0,1,1-1.156-1.156,1.156,1.156,0,0,1,1.156,1.156ZM40.089,13.85v2.293a2.681,2.681,0,0,0-1.1,4.506l-.32,1.921h-1.66v-9.5l.5-.2ZM24.67,2.584l17.2,6.879L37.5,11.211,24.945,6.429,24.4,7.871l10.988,4.186L24.67,16.342,7.472,9.463ZM24.67,18l10.793-4.317v9.362c-.691.716-3.735,3.376-10.793,3.376s-10.109-2.666-10.793-3.375V13.685ZM4.625,28.737a4.631,4.631,0,0,1,4.626-4.626H12.76a9.365,9.365,0,0,0,1.995,1.542h-5.5a3.084,3.084,0,1,0,0,6.168H40.86a.771.771,0,0,1,0,1.542H9.251a4.631,4.631,0,0,1-4.626-4.626Zm42.4,19.274H8.095a6.553,6.553,0,1,1,0-13.106H47.028a.771.771,0,0,1,0,1.542H7.958a5.011,5.011,0,1,0,0,10.022h39.07a.771.771,0,0,1,0,1.542Z" transform="translate(0)"/>
      <path id="Trazado_1056339" data-name="Trazado 1056339" d="M10,54H31.587v1.542H10Z" transform="translate(-2.291 -12.157)"/>
    </g>
  </g>
</svg>
