<svg xmlns="http://www.w3.org/2000/svg" xmlns:xlink="http://www.w3.org/1999/xlink" width="98" height="98" viewBox="0 0 98 98">
  <defs>
    <filter id="Trazado_982547" x="0" y="0" width="98" height="98" filterUnits="userSpaceOnUse">
      <feOffset dy="3" input="SourceAlpha"/>
      <feGaussianBlur stdDeviation="3" result="blur"/>
      <feFlood flood-opacity="0.161"/>
      <feComposite operator="in" in2="blur"/>
      <feComposite in="SourceGraphic"/>
    </filter>
    <clipPath id="clip-path">
      <path id="path8121" d="M0-682.665H48.414v48.414H0Z" transform="translate(0 682.665)"/>
    </clipPath>
  </defs>
  <g id="Grupo_1230077" data-name="Grupo 1230077" transform="translate(-195.151 -1221)">
    <g id="Grupo_1229409" data-name="Grupo 1229409" transform="translate(204.151 1227)">
      <g id="Grupo_1208936" data-name="Grupo 1208936" transform="translate(0 0)">
        <g id="Grupo_1208171" data-name="Grupo 1208171">
          <g id="Grupo_1207739" data-name="Grupo 1207739">
            <g id="Grupo_1207712" data-name="Grupo 1207712">
              <g id="Grupo_1207285" data-name="Grupo 1207285">
                <g id="Grupo_1206883" data-name="Grupo 1206883">
                  <g id="Grupo_1204569" data-name="Grupo 1204569">
                    <g id="Grupo_1203962" data-name="Grupo 1203962">
                      <g id="Grupo_1203498" data-name="Grupo 1203498" transform="translate(0)">
                        <g id="Grupo_1202589" data-name="Grupo 1202589">
                          <g id="Grupo_1172010" data-name="Grupo 1172010">
                            <g id="Grupo_1171046" data-name="Grupo 1171046">
                              <g id="Grupo_1148525" data-name="Grupo 1148525">
                                <g transform="matrix(1, 0, 0, 1, -9, -6)" filter="url(#Trazado_982547)">
                                  <g id="Trazado_982547-2" data-name="Trazado 982547" transform="translate(9 6)" fill="#fdfbec">
                                    <path d="M 39.99999237060547 78.49998474121094 C 34.8018684387207 78.49998474121094 29.76002502441406 77.48226165771484 25.0145263671875 75.47508239746094 C 20.43014717102051 73.53604888916016 16.31264877319336 70.75984954833984 12.77639198303223 67.22359466552734 C 9.240137100219727 63.68733596801758 6.463936805725098 59.5698356628418 4.524903297424316 54.98546981811523 C 2.517725706100464 50.23995971679688 1.500003457069397 45.19811630249023 1.500003457069397 39.99999237060547 C 1.500003457069397 34.8018684387207 2.517725706100464 29.76002502441406 4.524903297424316 25.0145263671875 C 6.463936805725098 20.43014717102051 9.240137100219727 16.31264877319336 12.77639198303223 12.77639198303223 C 16.31264877319336 9.240137100219727 20.43014717102051 6.463936805725098 25.0145263671875 4.524903297424316 C 29.76002502441406 2.517725706100464 34.8018684387207 1.500003457069397 39.99999237060547 1.500003457069397 C 45.19811630249023 1.500003457069397 50.23995971679688 2.517725706100464 54.98546981811523 4.524903297424316 C 59.5698356628418 6.463936805725098 63.68733596801758 9.240137100219727 67.22359466552734 12.77639198303223 C 70.75984954833984 16.31264877319336 73.53604888916016 20.43014717102051 75.47508239746094 25.0145263671875 C 77.48226165771484 29.76002502441406 78.49998474121094 34.8018684387207 78.49998474121094 39.99999237060547 C 78.49998474121094 45.19812393188477 77.48226165771484 50.23995971679688 75.47508239746094 54.98546981811523 C 73.53604888916016 59.5698356628418 70.75984954833984 63.68733596801758 67.22359466552734 67.22359466552734 C 63.68733596801758 70.75984954833984 59.5698356628418 73.53604888916016 54.98546981811523 75.47508239746094 C 50.23995971679688 77.48226165771484 45.19812393188477 78.49998474121094 39.99999237060547 78.49998474121094 Z" stroke="none"/>
                                    <path d="M 39.99999237060547 2.999992370605469 C 35.00370025634766 2.999992370605469 30.1584587097168 3.97784423828125 25.59884643554688 5.906402587890625 C 21.19327163696289 7.769805908203125 17.23603057861328 10.43805694580078 13.83704376220703 13.83704376220703 C 10.43805694580078 17.23603057861328 7.769805908203125 21.19327163696289 5.906402587890625 25.59884643554688 C 3.97784423828125 30.1584587097168 2.999992370605469 35.00370025634766 2.999992370605469 39.99999237060547 C 2.999992370605469 44.99628448486328 3.97784423828125 49.84152603149414 5.906402587890625 54.40113830566406 C 7.769805908203125 58.80671310424805 10.43805694580078 62.76395416259766 13.83704376220703 66.16294097900391 C 17.23603057861328 69.56191253662109 21.19327163696289 72.23016357421875 25.59884643554688 74.09356689453125 C 30.1584587097168 76.02212524414062 35.00370025634766 76.99997711181641 39.99999237060547 76.99997711181641 C 44.99628448486328 76.99997711181641 49.84152603149414 76.02212524414062 54.40113830566406 74.09356689453125 C 58.80671310424805 72.23016357421875 62.76395416259766 69.56191253662109 66.16294097900391 66.16294097900391 C 69.56191253662109 62.76395416259766 72.23016357421875 58.80671310424805 74.09356689453125 54.40113830566406 C 76.02212524414062 49.84152603149414 76.99997711181641 44.99628448486328 76.99997711181641 39.99999237060547 C 76.99997711181641 35.00370025634766 76.02212524414062 30.1584587097168 74.09356689453125 25.59884643554688 C 72.23016357421875 21.19327163696289 69.56191253662109 17.23603057861328 66.16294097900391 13.83704376220703 C 62.76395416259766 10.43805694580078 58.80671310424805 7.769805908203125 54.40113830566406 5.906402587890625 C 49.84152603149414 3.97784423828125 44.99628448486328 2.999992370605469 39.99999237060547 2.999992370605469 M 39.99999237060547 -7.62939453125e-06 C 62.09137725830078 -7.62939453125e-06 79.99997711181641 17.90860748291016 79.99997711181641 39.99999237060547 C 79.99997711181641 62.09137725830078 62.09137725830078 79.99997711181641 39.99999237060547 79.99997711181641 C 17.90860748291016 79.99997711181641 -7.62939453125e-06 62.09137725830078 -7.62939453125e-06 39.99999237060547 C -7.62939453125e-06 17.90860748291016 17.90860748291016 -7.62939453125e-06 39.99999237060547 -7.62939453125e-06 Z" stroke="none" fill="#83793c"/>
                                  </g>
                                </g>
                              </g>
                            </g>
                          </g>
                        </g>
                      </g>
                    </g>
                  </g>
                </g>
              </g>
              <g id="g8115" transform="translate(15.793 15.793)">
                <g id="g8117">
                  <g id="g8119" clip-path="url(#clip-path)">
                    <g id="g8125" transform="translate(-33.259 0.709)">
                      <path id="path8127" d="M-338.457-377.826h-25.835v-25.108c5.31-7.679,37.755-5.416,25.835,25.108" transform="translate(364.292 406.667)" fill="#fbdf63"/>
                    </g>
                    <g id="g8129" transform="translate(-33.259 0.709)">
                      <path id="path8131" d="M-338.457-377.826h-.619c6.164-24.728-15.887-30.6-25.216-24.374v-.734c5.31-7.679,37.755-5.416,25.835,25.108" transform="translate(364.292 406.667)" fill="#f9d11f"/>
                    </g>
                  </g>
                </g>
                <g id="g8265">
                  <g id="g8267" clip-path="url(#clip-path)">
                    <g id="g8273" transform="translate(-33.259 51.036)">
                      <path id="path8275" d="M-338.457-377.654h-25.835v-25.1c5.31-7.676,37.755-5.413,25.835,25.1" transform="translate(364.292 406.481)" fill="#003343"/>
                    </g>
                    <g id="g8277" transform="translate(-33.259 51.036)">
                      <path id="path8279" d="M-338.457-377.654h-.619c6.164-24.717-15.887-30.585-25.216-24.362v-.734c5.31-7.676,37.755-5.413,25.835,25.1" transform="translate(364.292 406.481)" fill="#002439"/>
                    </g>
                  </g>
                </g>
                <g id="g8281">
                  <g id="g8283" clip-path="url(#clip-path)">
                    <g id="g8289" transform="translate(17.066 51.014)">
                      <path id="path8291" d="M-338.457-377.826h-25.835v-25.108c5.31-7.679,37.755-5.416,25.835,25.108" transform="translate(364.292 406.667)" fill="#ff7e50"/>
                    </g>
                    <g id="g8293" transform="translate(17.066 51.014)">
                      <path id="path8295" d="M-338.457-377.826h-.619c6.164-24.728-15.887-30.6-25.216-24.374v-.734c5.31-7.679,37.755-5.416,25.835,25.108" transform="translate(364.292 406.667)" fill="#ff6247"/>
                    </g>
                    <g id="g8297" transform="translate(2.941 54.225)">
                      <path id="path8299" d="M-233.028-131.751v15.573h-14.6c-12.2-25.649,14.6-34.273,14.6-15.573" transform="translate(250.816 141.808)" fill="#ffa68a"/>
                    </g>
                    <g id="g8301" transform="translate(2.941 54.225)">
                      <path id="path8303" d="M-233.028-131.751c-.9-16.1-20.23-9.82-14.176,15.573h-.427c-12.2-25.649,14.6-34.273,14.6-15.573" transform="translate(250.816 141.808)" fill="#ff7e50"/>
                    </g>
                  </g>
                </g>
              </g>
            </g>
          </g>
        </g>
      </g>
    </g>
    <g id="international-childrens-day_2_" data-name="international-childrens-day (2)" transform="translate(217.658 1239.015)">
      <g id="Grupo_1230075" data-name="Grupo 1230075" transform="translate(0.776 0.776)">
        <g id="Grupo_1230064" data-name="Grupo 1230064" transform="translate(10.09 11.539)">
          <path id="Trazado_1055230" data-name="Trazado 1055230" d="M179.836,132.843,171.564,123a15.464,15.464,0,0,0-3.782-1.255l-.01,0-13.5,4.948v21.9l13.5,3.839a15.5,15.5,0,0,0,3.7-1.21l8.919-15.192A15.556,15.556,0,0,0,179.836,132.843Z" transform="translate(-149.17 -121.464)" fill="#b9f0ff"/>
          <path id="Trazado_1055231" data-name="Trazado 1055231" d="M120.627,269.269a15.711,15.711,0,0,0,2.976-.284,17.3,17.3,0,0,1-9.191-17.23l-9.407,1.516a15.848,15.848,0,0,0,.054,1.707A15.628,15.628,0,0,0,120.627,269.269Z" transform="translate(-105.001 -238.017)" fill="#7ce3ff"/>
          <path id="Trazado_1055232" data-name="Trazado 1055232" d="M321.394,133.891s0,2.019.009,2.295a2.119,2.119,0,0,0,.634,1.753l.875.736a1.631,1.631,0,0,1-.208,2.693,1.247,1.247,0,0,0,.572,2.362h6.389A15.655,15.655,0,0,0,321.394,133.891Z" transform="translate(-299 -132.35)" fill="#70dcba"/>
          <path id="Trazado_1055233" data-name="Trazado 1055233" d="M197.736,134.88l1.01.442a1.7,1.7,0,0,1,.842.844,1.234,1.234,0,0,0,1.176.706,1.28,1.28,0,0,0,1.174-1.267v-3.065a8.19,8.19,0,0,1,1.6-4.869,8.191,8.191,0,0,0,1.6-4.869V121.75l-.01,0-9.19,3.368V135.2a1.632,1.632,0,0,1,1.789-.322Z" transform="translate(-186.535 -121.464)" fill="#70dcba"/>
          <path id="Trazado_1055234" data-name="Trazado 1055234" d="M120.626,119l-.224,0a15.624,15.624,0,0,0-10.893,26.6l2.84-3.983a2.3,2.3,0,0,0-.354-3.551l-.023-.015a1.875,1.875,0,0,1,.035-2.915l2.384-2.384.017-.016,0,0a17.314,17.314,0,0,1,9.19-13.454,15.7,15.7,0,0,0-2.976-.284Z" transform="translate(-105.001 -119)" fill="#18c08b"/>
          <path id="Trazado_1055235" data-name="Trazado 1055235" d="M296.885,259.756h-8.617a4.057,4.057,0,0,0-4.061,4.055v1.59a5.168,5.168,0,0,0,1.514,3.655,5.177,5.177,0,0,1,1.515,3.7,3.806,3.806,0,0,0,.724,2.193,15.625,15.625,0,0,0,8.954-14.132C296.914,260.46,296.9,260.106,296.885,259.756Z" transform="translate(-265.662 -245.19)" fill="#70dcba"/>
        </g>
        <g id="Grupo_1230067" data-name="Grupo 1230067" transform="translate(0 31.563)">
          <g id="Grupo_1230065" data-name="Grupo 1230065" transform="translate(0)">
            <path id="Trazado_1055236" data-name="Trazado 1055236" d="M17.435,312.5,7.5,322.433l4.452,6.089a9,9,0,0,0,7.265,3.687,9.926,9.926,0,0,0,8.151-9.775Z" transform="translate(-7.5 -312.5)" fill="#ffddcf"/>
            <path id="Trazado_1055237" data-name="Trazado 1055237" d="M10.793,397.393l-1.644-1.282L7.5,397.392a9.941,9.941,0,0,0,11.718,9.776,10.033,10.033,0,0,1-8.425-9.774Z" transform="translate(-7.5 -387.458)" fill="#ffcbbe"/>
          </g>
          <g id="Grupo_1230066" data-name="Grupo 1230066">
            <path id="Trazado_1055238" data-name="Trazado 1055238" d="M154.968,355.821l-2.54,1.284-.784,2.284a7.558,7.558,0,0,0,4.952,1.884A9.888,9.888,0,0,0,154.968,355.821Z" transform="translate(-136.727 -351.338)" fill="#ffb357"/>
            <path id="Trazado_1055239" data-name="Trazado 1055239" d="M60.291,320.38a13.173,13.173,0,0,1-2.026,1.085,9.948,9.948,0,0,0-1.36-.873H50.557a4.235,4.235,0,0,0-4.234,4.234v3.464l1.406,1.074h3.592a10.98,10.98,0,0,0,10.313-8A.888.888,0,0,0,60.291,320.38Z" transform="translate(-42.305 -319.43)" fill="#ffce71"/>
            <path id="Trazado_1055240" data-name="Trazado 1055240" d="M19.081,312.636a9.952,9.952,0,0,0-8.846,2.953A9.9,9.9,0,0,0,7.5,322.433h5.424a2.71,2.71,0,0,1-.33-2.21,8.384,8.384,0,0,1,6.735-6.1l2.77-.464A9.853,9.853,0,0,0,19.081,312.636Z" transform="translate(-7.5 -312.5)" fill="#ffb357"/>
          </g>
        </g>
        <g id="Grupo_1230070" data-name="Grupo 1230070" transform="translate(29.113 25.002)">
          <g id="Grupo_1230068" data-name="Grupo 1230068" transform="translate(0 6.706)">
            <path id="Trazado_1055241" data-name="Trazado 1055241" d="M300.41,313.9H297.1l-8.277,9.793,8.277,9.793h3.308a9.932,9.932,0,0,0,0-19.587Z" transform="translate(-288.825 -313.898)" fill="#ffd4bd"/>
            <path id="Trazado_1055242" data-name="Trazado 1055242" d="M292.119,378.352a9.964,9.964,0,0,1,.292-2.4l-1.8-1.1-1.494,1.1a9.936,9.936,0,0,0,11.3,12.179A9.916,9.916,0,0,1,292.119,378.352Z" transform="translate(-288.825 -368.545)" fill="#ffbf9d"/>
          </g>
          <path id="Trazado_1055243" data-name="Trazado 1055243" d="M433.445,252.666,431.8,249.8a1.405,1.405,0,0,0-1.226-.7,1.369,1.369,0,0,0-.716.206,9.35,9.35,0,0,0-4.4,8.3h2.318a8.95,8.95,0,0,1,4.787-2.862,1.41,1.41,0,0,0,.885-2.077Z" transform="translate(-411.316 -249.095)" fill="#d6948c"/>
          <path id="Trazado_1055244" data-name="Trazado 1055244" d="M402.158,282.128a2.444,2.444,0,1,0-.172,4.882c.057,0,.115,0,.172-.006a2.444,2.444,0,0,0,0-4.876Z" transform="translate(-388.084 -278.704)" fill="#ffb5c0"/>
          <circle id="Elipse_11552" data-name="Elipse 11552" cx="2.444" cy="2.444" r="2.444" transform="matrix(0.987, -0.16, 0.16, 0.987, 14.998, 6.29)" fill="#ffdbe0"/>
          <g id="Grupo_1230069" data-name="Grupo 1230069" transform="translate(0.006 6.074)">
            <path id="Trazado_1055245" data-name="Trazado 1055245" d="M339.628,318.7a10.408,10.408,0,0,0-2.937-4.42,1.3,1.3,0,0,0-.876-.322h-.333a1.311,1.311,0,0,0-.67-1.009,10.4,10.4,0,0,0-2.032-.858h-5.015l-4.365,5.218v2.376h.684a13.686,13.686,0,0,0,9.678-4.009l3.115,3.115a3.049,3.049,0,0,0,2.156.893h.362A.958.958,0,0,0,339.628,318.7Z" transform="translate(-319.828 -311.648)" fill="#d6948c"/>
            <path id="Trazado_1055246" data-name="Trazado 1055246" d="M297.073,307.931a10.415,10.415,0,0,0-8.137,6.911.958.958,0,0,0,.232.985h3.289a9.751,9.751,0,0,1,8-7.41c.382-.054.85-.117,1.38-.185A10.507,10.507,0,0,0,297.073,307.931Z" transform="translate(-288.885 -307.787)" fill="#bd7669"/>
          </g>
        </g>
        <g id="Grupo_1230074" data-name="Grupo 1230074" transform="translate(14.922)">
          <g id="Grupo_1230071" data-name="Grupo 1230071">
            <path id="Trazado_1055247" data-name="Trazado 1055247" d="M209.155,20.641a2.288,2.288,0,0,0-1.933-1.405,2.289,2.289,0,0,0-2.882-2.882,2.289,2.289,0,0,0-3.766-1.56L191.9,17.126v6.679h15.138A2.29,2.29,0,0,0,209.155,20.641Z" transform="translate(-187.743 -13.546)" fill="#676fb2"/>
            <path id="Trazado_1055248" data-name="Trazado 1055248" d="M162.488,7.5a2.288,2.288,0,0,0-2.038,1.248,2.289,2.289,0,0,0-3.766,1.56,2.289,2.289,0,0,0-2.882,2.882,2.289,2.289,0,0,0,.181,4.57h10.09V9.442a2.546,2.546,0,0,0,.452-.694A2.288,2.288,0,0,0,162.488,7.5Z" transform="translate(-151.693 -7.5)" fill="#4c5699"/>
          </g>
          <g id="Grupo_1230072" data-name="Grupo 1230072" transform="translate(1.59 6.142)">
            <path id="Trazado_1055249" data-name="Trazado 1055249" d="M205.777,70.922,201.7,66.847H189.811v10.5l5.837,3.934h2.539a9.214,9.214,0,0,0,7.591-10.355Z" transform="translate(-187.456 -66.847)" fill="#db9e82"/>
            <path id="Trazado_1055250" data-name="Trazado 1055250" d="M170.108,102.335a9.24,9.24,0,0,1,.191-1.873l-3.154.6a9.211,9.211,0,0,0,10.642,10.355A9.207,9.207,0,0,1,170.108,102.335Z" transform="translate(-167.057 -96.983)" fill="#c8866a"/>
          </g>
          <g id="Grupo_1230073" data-name="Grupo 1230073" transform="translate(1.486 1.813)">
            <path id="Trazado_1055251" data-name="Trazado 1055251" d="M213.652,33.187a9.679,9.679,0,0,0-7.7-6.892h-2.331l-5.235,4.27V33.97a5.928,5.928,0,0,0,1.6-1.14,6.35,6.35,0,0,1,8.725,0,5.925,5.925,0,0,0,4.19,1.736h.564a9.156,9.156,0,0,0-.194-.994Z" transform="translate(-195.037 -26.163)" fill="#676fb2"/>
            <path id="Trazado_1055252" data-name="Trazado 1055252" d="M175.36,25.016a9.7,9.7,0,0,0-9.308,7.022l.387.387a9.171,9.171,0,0,0-.194.994h.564a5.921,5.921,0,0,0,2.59-.6,9.221,9.221,0,0,1,6.39-6.952,2.554,2.554,0,0,0,1.159-.726A9.786,9.786,0,0,0,175.36,25.016Z" transform="translate(-166.052 -25.016)" fill="#4c5699"/>
          </g>
        </g>
      </g>
      <g id="Grupo_1230076" data-name="Grupo 1230076" transform="translate(0 0)">
        <path id="Trazado_1055253" data-name="Trazado 1055253" d="M325.569,413.734a.776.776,0,0,0-.776.776v1.242a.776.776,0,1,0,1.552,0V414.51A.776.776,0,0,0,325.569,413.734Z" transform="translate(-291.182 -370.919)"/>
        <path id="Trazado_1055254" data-name="Trazado 1055254" d="M430.569,413.734a.776.776,0,0,0-.776.776v1.242a.776.776,0,1,0,1.552,0V414.51A.776.776,0,0,0,430.569,413.734Z" transform="translate(-385.316 -370.919)"/>
        <path id="Trazado_1055255" data-name="Trazado 1055255" d="M365.522,425.549a.776.776,0,0,0-1.1.075,1.482,1.482,0,0,1-2.238,0,.776.776,0,1,0-1.17,1.02,3.034,3.034,0,0,0,4.578,0A.776.776,0,0,0,365.522,425.549Z" transform="translate(-323.487 -381.34)"/>
        <path id="Trazado_1055256" data-name="Trazado 1055256" d="M196.776,119.856a.776.776,0,0,0-.776.776v1.242a.776.776,0,0,0,1.552,0v-1.242A.776.776,0,0,0,196.776,119.856Z" transform="translate(-175.717 -107.453)"/>
        <path id="Trazado_1055257" data-name="Trazado 1055257" d="M301.776,119.856a.776.776,0,0,0-.776.776v1.242a.776.776,0,1,0,1.552,0v-1.242A.776.776,0,0,0,301.776,119.856Z" transform="translate(-269.851 -107.453)"/>
        <path id="Trazado_1055258" data-name="Trazado 1055258" d="M236.729,131.671a.776.776,0,0,0-1.1.075,1.482,1.482,0,0,1-2.237,0,.776.776,0,0,0-1.17,1.02,3.034,3.034,0,0,0,4.578,0A.776.776,0,0,0,236.729,131.671Z" transform="translate(-208.023 -117.874)"/>
        <path id="Trazado_1055259" data-name="Trazado 1055259" d="M45.052,425.752V424.51a.776.776,0,0,0-1.552,0v1.242a.776.776,0,0,0,1.552,0Z" transform="translate(-38.998 -379.884)"/>
        <path id="Trazado_1055260" data-name="Trazado 1055260" d="M150.052,425.752V424.51a.776.776,0,0,0-1.552,0v1.242a.776.776,0,0,0,1.552,0Z" transform="translate(-133.132 -379.884)"/>
        <path id="Trazado_1055261" data-name="Trazado 1055261" d="M82.014,437.687a3.036,3.036,0,0,0,2.289-1.042.776.776,0,1,0-1.17-1.02,1.482,1.482,0,0,1-2.238,0,.776.776,0,1,0-1.17,1.02A3.036,3.036,0,0,0,82.014,437.687Z" transform="translate(-71.303 -390.305)"/>
        <path id="Trazado_1055262" data-name="Trazado 1055262" d="M52.692,28.963,51.045,26.09a2.181,2.181,0,0,0-3.02-.769,9.821,9.821,0,0,0-3.259,3.258,3.169,3.169,0,0,0-1.885-.032,16.367,16.367,0,0,0-2.24-8.9.776.776,0,1,0-1.339.786,14.8,14.8,0,0,1,1.163,2.488H35.143a.472.472,0,0,1-.211-.9,2.406,2.406,0,0,0,.345-3.974l-.413-.347a9.9,9.9,0,0,0,.779-1.448,14.912,14.912,0,0,1,1.924,1.8.776.776,0,1,0,1.157-1.034A16.472,16.472,0,0,0,36.171,14.7a9.907,9.907,0,0,0,.268-3.251,3.069,3.069,0,0,0-.374-5.578A3.069,3.069,0,0,0,32.888,2.7,3.069,3.069,0,0,0,28.738.978a3.067,3.067,0,0,0-4.492,0A3.069,3.069,0,0,0,20.1,2.7a3.069,3.069,0,0,0-3.176,3.176,3.071,3.071,0,0,0-.374,5.578,9.933,9.933,0,0,0,.266,3.249,16.42,16.42,0,0,0-6.318,16.865A10.722,10.722,0,0,0,0,42.273a10.6,10.6,0,0,0,1.182,4.9.776.776,0,0,0,1.38-.711,9.027,9.027,0,0,1-.978-3.41H9.806a11.576,11.576,0,0,0,5.841-1.7,8.314,8.314,0,0,0,4.187,1.657A9.153,9.153,0,0,1,4.245,48.759a.776.776,0,0,0-1.1,1.1,10.705,10.705,0,0,0,18.194-6.344,16.42,16.42,0,0,0,7.927.592A10.707,10.707,0,1,0,50.3,40.064a1.742,1.742,0,0,0,.134-1.408,11.168,11.168,0,0,0-.878-1.94,3.221,3.221,0,0,0,.91-4.295,8.082,8.082,0,0,1,.842-.239,2.186,2.186,0,0,0,1.388-3.22Zm-6.449,6.1a9.663,9.663,0,0,1,2.7,4.041,2.264,2.264,0,0,1-1.45-.658l-2.567-2.567.944-.943a.531.531,0,0,1,.372.126Zm-1.69-4.9a1.609,1.609,0,0,1,.9,1.615,3.234,3.234,0,0,0-.453.555,11.068,11.068,0,0,0-2.843-1.017A1.643,1.643,0,0,1,44.553,30.169ZM43.28,35.334a12.825,12.825,0,0,1-9.129,3.781H30.695A9.669,9.669,0,0,1,44.5,33.834a.534.534,0,0,1,.15.129Zm-2.043-5.655a3.207,3.207,0,0,0-.621,1.425,11.219,11.219,0,0,0-9.5,4.118,4.358,4.358,0,0,1-.925-2.7v-1.59a3.28,3.28,0,0,1,3.285-3.279h7.864a14.493,14.493,0,0,1-.1,2.022ZM26.5,20.7h-.012a8.411,8.411,0,0,1-8.406-8.93,6.712,6.712,0,0,0,4.6-1.961A5.191,5.191,0,0,1,26.492,8.3a5.191,5.191,0,0,1,3.814,1.508,6.677,6.677,0,0,0,4.6,1.962A8.43,8.43,0,0,1,26.5,20.7ZM17.869,7.239a.777.777,0,0,0,.676-1.012,1.512,1.512,0,0,1,1.9-1.9.776.776,0,0,0,1.012-.676,1.512,1.512,0,0,1,2.489-1.031.777.777,0,0,0,1.194-.237,1.512,1.512,0,0,1,2.694,0,.776.776,0,0,0,1.194.237,1.512,1.512,0,0,1,2.489,1.031.776.776,0,0,0,1.012.676,1.512,1.512,0,0,1,1.9,1.9.776.776,0,0,0,.676,1.012,1.514,1.514,0,0,1,.248,2.977h-.319A5.116,5.116,0,0,1,31.4,8.708a6.692,6.692,0,0,0-4.911-1.963,6.692,6.692,0,0,0-4.911,1.963,5.152,5.152,0,0,1-3.641,1.508h-.319a1.514,1.514,0,0,1,.248-2.977Zm-.529,9.009a9.973,9.973,0,0,0,8.232,5.958,8.961,8.961,0,0,0-.08,1.184v3.065a.508.508,0,0,1-.435.492.462.462,0,0,1-.438-.262,2.477,2.477,0,0,0-1.233-1.223l-1.01-.442a2.4,2.4,0,0,0-2.63.465l0,0-.038.036-2.384,2.384a2.642,2.642,0,0,0,.1,4.122,1.5,1.5,0,0,1,.61.8,12.432,12.432,0,0,1-1.208.653,10.574,10.574,0,0,0-4.716-1.826A14.864,14.864,0,0,1,17.34,16.249ZM9.784,41.5h-8.2a9.17,9.17,0,0,1,9.125-8.381,9.077,9.077,0,0,1,4.349,1.1,17.587,17.587,0,0,1-2.781.743.776.776,0,0,0,.273,1.528,18.971,18.971,0,0,0,6.7-2.567.113.113,0,0,1,.108.147,10.3,10.3,0,0,1-1.014,2.368A10.1,10.1,0,0,1,9.784,41.5Zm9.18-3.192a9.008,9.008,0,0,1,.872,3.141,6.744,6.744,0,0,1-2.852-1.05A11.832,11.832,0,0,0,18.964,38.3Zm10.38,1.757a10.564,10.564,0,0,0-.224,2.5,14.881,14.881,0,0,1-7.7-.659,10.571,10.571,0,0,0-1.5-5.1,11.806,11.806,0,0,0,.935-2.311,1.659,1.659,0,0,0-1.326-2.1,3.046,3.046,0,0,0-1.254-1.66c-.572-.37-.33-1.242.15-1.722l2.4-2.394a.854.854,0,0,1,.938-.169l1.01.442a.928.928,0,0,1,.452.465A2,2,0,0,0,25.131,28.5a2.05,2.05,0,0,0,1.914-2.042V23.39a7.413,7.413,0,0,1,.093-1.164,9.914,9.914,0,0,0,6.781-3.3l.363.305a.856.856,0,0,1-.073,1.41,2.025,2.025,0,0,0,.934,3.825h5.788a14.827,14.827,0,0,1,.3,1.634H33.473a4.831,4.831,0,0,0-4.837,4.831v1.59a5.9,5.9,0,0,0,1.558,4.011,11.181,11.181,0,0,0-.982,2.119A1.74,1.74,0,0,0,29.344,40.062Zm12,11.243A9.158,9.158,0,0,1,30.807,40.668h3.345a14.357,14.357,0,0,0,9.663-3.7L46.4,39.547a3.813,3.813,0,0,0,2.435,1.111,9.155,9.155,0,0,1-7.485,10.647Zm7.344-15.88a11.173,11.173,0,0,0-1.416-1.518,2.034,2.034,0,0,0-1.1-.5,1.666,1.666,0,1,1,2.513,2.017Zm2.273-4.756a9.666,9.666,0,0,0-1.753.576,3.2,3.2,0,0,0-2.272-.291,3.148,3.148,0,0,0-.85-1.561,8.141,8.141,0,0,1,2.749-2.747.625.625,0,0,1,.864.219l1.647,2.873a.625.625,0,0,1-.383.931Z" transform="translate(0 0)"/>
      </g>
    </g>
  </g>
</svg>
