<svg xmlns="http://www.w3.org/2000/svg" xmlns:xlink="http://www.w3.org/1999/xlink" width="108" height="108" viewBox="0 0 108 108">
  <defs>
    <filter id="Trazado_904820" x="0" y="0" width="108" height="108" filterUnits="userSpaceOnUse">
      <feOffset dy="3" input="SourceAlpha"/>
      <feGaussianBlur stdDeviation="3" result="blur"/>
      <feFlood flood-opacity="0.161"/>
      <feComposite operator="in" in2="blur"/>
      <feComposite in="SourceGraphic"/>
    </filter>
  </defs>
  <g id="Grupo_1230255" data-name="Grupo 1230255" transform="translate(-200.523 -749.75)">
    <g id="Grupo_1230226" data-name="Grupo 1230226">
      <g id="Grupo_1229782" data-name="Grupo 1229782" transform="translate(209.523 755.75)">
        <g id="Grupo_1208347" data-name="Grupo 1208347" transform="translate(0 0)">
          <g id="Grupo_1207936" data-name="Grupo 1207936">
            <g id="Grupo_1201662" data-name="Grupo 1201662">
              <g id="Grupo_1173585" data-name="Grupo 1173585">
                <g id="Grupo_1173428" data-name="Grupo 1173428">
                  <g id="Grupo_1171958" data-name="Grupo 1171958">
                    <g id="Grupo_1167341" data-name="Grupo 1167341">
                      <g id="Grupo_1166792" data-name="Grupo 1166792">
                        <g transform="matrix(1, 0, 0, 1, -9, -6)" filter="url(#Trazado_904820)">
                          <g id="Trazado_904820-2" data-name="Trazado 904820" transform="translate(9 6)" fill="#fdfbec">
                            <path d="M 44.99999618530273 88.49999237060547 C 39.12687301635742 88.49999237060547 33.43022155761719 87.35006713867188 28.06829643249512 85.08216857910156 C 22.88852119445801 82.89130401611328 18.23629570007324 79.75457763671875 14.24084663391113 75.75914001464844 C 10.24540901184082 71.76369476318359 7.108683586120605 67.11146545410156 4.917821407318115 61.93169403076172 C 2.649921178817749 56.56976699829102 1.499996185302734 50.87311553955078 1.499996185302734 44.99999237060547 C 1.499996185302734 39.12686920166016 2.649921178817749 33.43021774291992 4.917821407318115 28.06829261779785 C 7.108683586120605 22.88851737976074 10.24540901184082 18.23630523681641 14.24084663391113 14.24085521697998 C 18.23629570007324 10.24540519714355 22.88852119445801 7.108692169189453 28.06829643249512 4.917829990386963 C 33.43022155761719 2.649929761886597 39.12687301635742 1.500004887580872 44.99999618530273 1.500004887580872 C 50.87311935424805 1.500004887580872 56.56977081298828 2.649929761886597 61.93169784545898 4.917829990386963 C 67.11147308349609 7.108692169189453 71.76369476318359 10.24540519714355 75.75914764404297 14.24085521697998 C 79.75458526611328 18.23630523681641 82.89131164550781 22.88851737976074 85.08216857910156 28.06829261779785 C 87.35007476806641 33.43021774291992 88.5 39.12686920166016 88.5 44.99999237060547 C 88.5 50.87311553955078 87.35007476806641 56.56976699829102 85.08216857910156 61.93169403076172 C 82.89131164550781 67.11146545410156 79.75458526611328 71.76369476318359 75.75914764404297 75.75914001464844 C 71.76369476318359 79.75457763671875 67.11147308349609 82.89130401611328 61.93169784545898 85.08216857910156 C 56.56977081298828 87.35006713867188 50.87311935424805 88.49999237060547 44.99999618530273 88.49999237060547 Z" stroke="none"/>
                            <path d="M 44.99999618530273 2.999992370605469 C 39.32870864868164 2.999992370605469 33.82865142822266 4.11004638671875 28.65262603759766 6.299331665039062 C 23.65165710449219 8.414566040039062 19.15968322753906 11.44333648681641 15.301513671875 15.30150604248047 C 11.44333648681641 19.15967559814453 8.414566040039062 23.65164947509766 6.299339294433594 28.65262222290039 C 4.110054016113281 33.82864761352539 2.999992370605469 39.32870483398438 2.999992370605469 44.99999237060547 C 2.999992370605469 50.67127990722656 4.110054016113281 56.17132186889648 6.299339294433594 61.34736633300781 C 8.414566040039062 66.34833526611328 11.44333648681641 70.84029388427734 15.301513671875 74.69846343994141 C 19.15968322753906 78.55663299560547 23.65165710449219 81.58540344238281 28.65262603759766 83.70063781738281 C 33.82865142822266 85.88992309570312 39.32870864868164 86.99997711181641 44.99999618530273 86.99997711181641 C 50.67128372192383 86.99997711181641 56.17134094238281 85.88992309570312 61.34736633300781 83.70063781738281 C 66.34834289550781 81.58540344238281 70.84030914306641 78.55663299560547 74.69847869873047 74.69846343994141 C 78.55665588378906 70.84029388427734 81.58542633056641 66.34833526611328 83.70065307617188 61.34736633300781 C 85.88993835449219 56.17132186889648 87 50.67127990722656 87 44.99999237060547 C 87 39.32870483398438 85.88993835449219 33.82864761352539 83.70065307617188 28.65262222290039 C 81.58542633056641 23.65164947509766 78.55665588378906 19.15967559814453 74.69847869873047 15.30150604248047 C 70.84030914306641 11.44333648681641 66.34834289550781 8.414566040039062 61.34736633300781 6.299331665039062 C 56.17134094238281 4.11004638671875 50.67128372192383 2.999992370605469 44.99999618530273 2.999992370605469 M 44.99999618530273 -7.62939453125e-06 C 69.85281372070312 -7.62939453125e-06 90 20.14717864990234 90 44.99999237060547 C 90 69.85279083251953 69.85281372070312 89.99997711181641 44.99999618530273 89.99997711181641 C 20.14717864990234 89.99997711181641 -7.62939453125e-06 69.85279083251953 -7.62939453125e-06 44.99999237060547 C -7.62939453125e-06 20.14717864990234 20.14717864990234 -7.62939453125e-06 44.99999618530273 -7.62939453125e-06 Z" stroke="none" fill="#83793c"/>
                          </g>
                        </g>
                      </g>
                    </g>
                  </g>
                </g>
              </g>
            </g>
          </g>
        </g>
      </g>
    </g>
    <g id="maestro_12_" data-name="maestro (12)" transform="translate(225.59 768.068)">
      <g id="Grupo_1230253" data-name="Grupo 1230253" transform="translate(0.848 5.074)">
        <g id="Grupo_1230252" data-name="Grupo 1230252" transform="translate(0 0)">
          <g id="Grupo_1230251" data-name="Grupo 1230251">
            <g id="Grupo_1230229" data-name="Grupo 1230229" transform="translate(0 15.832)">
              <path id="Trazado_1055506" data-name="Trazado 1055506" d="M23.856,174.558H8.67a1.17,1.17,0,0,1-1.17-1.17v-20.41a1.17,1.17,0,0,1,1.17-1.17H23.856a1.17,1.17,0,0,1,1.17,1.17v20.41A1.17,1.17,0,0,1,23.856,174.558Z" transform="translate(-7.5 -151.807)" fill="#f3eae6"/>
              <path id="Trazado_1055507" data-name="Trazado 1055507" d="M117.828,152.983v20.4a1.17,1.17,0,0,1-1.168,1.173h-4.534a1.169,1.169,0,0,0,1.168-1.173v-20.4a1.17,1.17,0,0,0-1.168-1.173h4.534A1.17,1.17,0,0,1,117.828,152.983Z" transform="translate(-100.302 -151.81)" fill="#e0d3ce"/>
              <g id="Grupo_1230228" data-name="Grupo 1230228" transform="translate(3.582 5.64)">
                <g id="Grupo_1230227" data-name="Grupo 1230227" transform="translate(1.8)">
                  <path id="Trazado_1055508" data-name="Trazado 1055508" d="M55.635,201.836a.555.555,0,0,0-.387.388,3.588,3.588,0,0,0,.917,3.477,3.55,3.55,0,0,0,3.461.921.555.555,0,0,0,.387-.388,3.588,3.588,0,0,0-.917-3.477A3.55,3.55,0,0,0,55.635,201.836Z" transform="translate(-55.122 -201.709)" fill="#31a7fb"/>
                </g>
                <path id="Trazado_1055509" data-name="Trazado 1055509" d="M49.628,239.279c0,2.6-1.477,5.287-5.215,5.287s-5.215-2.688-5.215-5.287,2.335-3.544,5.215-3.544S49.628,236.68,49.628,239.279Z" transform="translate(-39.198 -231.889)" fill="#e33c53"/>
                <path id="Trazado_1055510" data-name="Trazado 1055510" d="M83.44,239.277c0,2.6-1.477,5.287-5.215,5.287a6.883,6.883,0,0,1-.906-.057,5.582,5.582,0,0,0,3.078-5.324,3.47,3.47,0,0,0-2.553-3.445c.125,0,.252-.006.38-.006C81.106,235.733,83.44,236.679,83.44,239.277Z" transform="translate(-73.011 -231.888)" fill="#ab283a"/>
              </g>
            </g>
            <g id="Grupo_1230250" data-name="Grupo 1230250" transform="translate(7.856)">
              <g id="Grupo_1230249" data-name="Grupo 1230249">
                <g id="Grupo_1230248" data-name="Grupo 1230248">
                  <g id="Grupo_1230244" data-name="Grupo 1230244" transform="translate(7.973)">
                    <g id="Grupo_1230243" data-name="Grupo 1230243">
                      <g id="Grupo_1230230" data-name="Grupo 1230230" transform="translate(0.824 13.925)">
                        <path id="Trazado_1055511" data-name="Trazado 1055511" d="M184.695,134.936H163.673c0,9.405-8.825,9.462-8.825,15.506a5.153,5.153,0,0,0,5.141,5.165h28.389a5.153,5.153,0,0,0,5.141-5.165C193.52,144.4,184.695,144.341,184.695,134.936Z" transform="translate(-154.848 -134.936)" fill="#a64b35"/>
                        <path id="Trazado_1055512" data-name="Trazado 1055512" d="M392.709,150.44a5.153,5.153,0,0,1-5.142,5.165H383.1a5.154,5.154,0,0,0,5.142-5.165c0-6.045-8.826-6.1-8.826-15.507h4.467C383.885,144.339,392.709,144.394,392.709,150.44Z" transform="translate(-354.037 -134.933)" fill="#8b3d2a"/>
                      </g>
                      <g id="Grupo_1230231" data-name="Grupo 1230231" transform="translate(0 28.551)">
                        <path id="Trazado_1055513" data-name="Trazado 1055513" d="M183.343,276.039c-4.3-10.86-12.455-11.438-13.3-11.693h-4.632c-.845.255-9,.833-13.3,11.693l-4.555,11.523h16.131l4.061-.566,4.032.566H187.9Z" transform="translate(-147.556 -264.346)" fill="#31a7fb"/>
                        <path id="Trazado_1055514" data-name="Trazado 1055514" d="M328.009,287.56h-4.7s-.3-.835-.605-1.606l-3.92-9.918c-4.243-10.706-12.226-11.42-13.26-11.682v-.011h4.632c.845.255,9,.834,13.3,11.693l3.92,9.918Z" transform="translate(-287.668 -264.344)" fill="#1c96f9"/>
                        <path id="Trazado_1055515" data-name="Trazado 1055515" d="M281.422,287.575c2.184-8.167,2.147-22.057,2.147-22.057v-.029a17.585,17.585,0,0,0-3.884-1.143h-4.632a17.577,17.577,0,0,0-3.884,1.143v.029s-.028,13.891,2.16,22.057l4.04-.566Z" transform="translate(-257.197 -264.346)" fill="#f69583"/>
                        <path id="Trazado_1055516" data-name="Trazado 1055516" d="M277.864,307.508a15.1,15.1,0,0,1-6.137-1.187c.142,4.671.6,12.91,2.1,18.484h8.094c1.491-5.574,1.946-13.814,2.086-18.485A15.094,15.094,0,0,1,277.864,307.508Z" transform="translate(-257.693 -301.576)" fill="#f3eae6"/>
                        <path id="Trazado_1055517" data-name="Trazado 1055517" d="M332.336,306.319c-.139,4.671-.6,12.911-2.086,18.485h-4.032c1.383-5.17,1.874-12.633,2.05-17.414a13.659,13.659,0,0,0,4.068-1.07Z" transform="translate(-306.026 -301.575)" fill="#e0d3ce"/>
                      </g>
                      <g id="Grupo_1230242" data-name="Grupo 1230242" transform="translate(7.482)">
                        <g id="Grupo_1230239" data-name="Grupo 1230239" transform="translate(0 8.761)">
                          <g id="Grupo_1230238" data-name="Grupo 1230238">
                            <g id="Grupo_1230234" data-name="Grupo 1230234" transform="translate(0 4.268)">
                              <g id="Grupo_1230232" data-name="Grupo 1230232" transform="translate(19.365)">
                                <ellipse id="Elipse_11561" data-name="Elipse 11561" cx="3.006" cy="2.95" rx="3.006" ry="2.95" fill="#f69583"/>
                              </g>
                              <g id="Grupo_1230233" data-name="Grupo 1230233">
                                <ellipse id="Elipse_11562" data-name="Elipse 11562" cx="3.006" cy="2.95" rx="3.006" ry="2.95" fill="#fdb0a0"/>
                              </g>
                            </g>
                            <g id="Grupo_1230236" data-name="Grupo 1230236" transform="translate(10.373 14.575)">
                              <g id="Grupo_1230235" data-name="Grupo 1230235">
                                <path id="Trazado_1055518" data-name="Trazado 1055518" d="M305.537,218.206h4.632v6.953h-4.632Z" transform="translate(-305.537 -218.206)" fill="#f69583"/>
                              </g>
                            </g>
                            <g id="Grupo_1230237" data-name="Grupo 1230237" transform="translate(3.685 0.001)">
                              <path id="Trazado_1055519" data-name="Trazado 1055519" d="M255.369,107.7a9,9,0,0,1-9-9V89.25h18.007v9.442A9,9,0,0,1,255.369,107.7Z" transform="translate(-246.366 -89.25)" fill="#ffcec0"/>
                            </g>
                            <path id="Trazado_1055520" data-name="Trazado 1055520" d="M318.1,89.245v9.4a9.036,9.036,0,0,1-7.283,8.879,8.928,8.928,0,0,0,1.719.165,9.024,9.024,0,0,0,9-9.044v-9.4Z" transform="translate(-299.849 -89.245)" fill="#fdb0a0"/>
                          </g>
                        </g>
                        <g id="Grupo_1230241" data-name="Grupo 1230241" transform="translate(0.86)">
                          <g id="Grupo_1230240" data-name="Grupo 1230240">
                            <path id="Trazado_1055521" data-name="Trazado 1055521" d="M228.76,25.663h-6.8a.585.585,0,0,1-.585-.585V20.327a8.6,8.6,0,0,1,8.6-8.6h4.841v7.884A6.052,6.052,0,0,1,228.76,25.663Z" transform="translate(-221.371 -11.727)" fill="#d46a50"/>
                            <path id="Trazado_1055522" data-name="Trazado 1055522" d="M346.349,25.663h3.578a.585.585,0,0,0,.585-.585V20.327a8.6,8.6,0,0,0-8.6-8.6H340.3v7.884A6.052,6.052,0,0,0,346.349,25.663Z" transform="translate(-326.856 -11.727)" fill="#d46a50"/>
                            <path id="Trazado_1055523" data-name="Trazado 1055523" d="M350.511,20.349v4.73a.585.585,0,0,1-.583.587h-3.594a5.96,5.96,0,0,1-.64-.034.585.585,0,0,0,.388-.553v-4.73A8.619,8.619,0,0,0,340.3,12.2V11.73h1.635A8.6,8.6,0,0,1,350.511,20.349Z" transform="translate(-326.854 -11.73)" fill="#a64b35"/>
                          </g>
                        </g>
                      </g>
                    </g>
                  </g>
                  <g id="Grupo_1230247" data-name="Grupo 1230247" transform="translate(0 32.465)">
                    <g id="Grupo_1230246" data-name="Grupo 1230246">
                      <path id="Trazado_1055524" data-name="Trazado 1055524" d="M93.37,321.728H78.184a1.17,1.17,0,0,1-1.17-1.17v-20.41a1.17,1.17,0,0,1,1.17-1.17H93.37a1.17,1.17,0,0,1,1.17,1.17v20.41A1.17,1.17,0,0,1,93.37,321.728Z" transform="translate(-77.014 -298.978)" fill="#f3eae6"/>
                      <g id="Grupo_1230245" data-name="Grupo 1230245" transform="translate(11.826 0)">
                        <path id="Trazado_1055525" data-name="Trazado 1055525" d="M187.35,300.153v20.4a1.169,1.169,0,0,1-1.168,1.173H181.65a1.17,1.17,0,0,0,1.168-1.173v-20.4a1.17,1.17,0,0,0-1.168-1.173h4.532A1.17,1.17,0,0,1,187.35,300.153Z" transform="translate(-181.65 -298.98)" fill="#e0d3ce"/>
                      </g>
                    </g>
                  </g>
                </g>
              </g>
            </g>
          </g>
        </g>
      </g>
      <g id="Grupo_1230254" data-name="Grupo 1230254" transform="translate(0 4.226)">
        <path id="Trazado_1055526" data-name="Trazado 1055526" d="M57.807,56.529,53.252,45a24.6,24.6,0,0,0-2.308-4.488h.087A6.008,6.008,0,0,0,57.021,34.5c0-3.079-2.024-4.821-3.982-6.506a14.636,14.636,0,0,1-3.786-4.262,3.752,3.752,0,0,0,.252-5.1,1.428,1.428,0,0,0,.018-.217V13.693a9.49,9.49,0,0,0-1.283-4.766.848.848,0,1,0-1.465.852,7.792,7.792,0,0,1,1.053,3.913v4.469H44.5a5.21,5.21,0,0,1-5.191-5.218V5.921H40.1a7.663,7.663,0,0,1,4.351,1.347.848.848,0,0,0,.958-1.4A9.351,9.351,0,0,0,40.1,4.226H33.619a9.458,9.458,0,0,0-9.447,9.447v4.751a1.428,1.428,0,0,0,.018.216,3.751,3.751,0,0,0,.239,5.083,10.256,10.256,0,0,1-1.74,2.385.848.848,0,0,0,1.228,1.169,11.992,11.992,0,0,0,1.951-2.649,3.888,3.888,0,0,0,1.255.221,9.882,9.882,0,0,0,6.561,7.758v.325a16.223,16.223,0,0,0-7.816,3.929,2,2,0,0,0-.808-.17H19.222V31.805a11.58,11.58,0,0,1,1.829-1.922.848.848,0,0,0-1.121-1.272c-.236.208-.474.424-.709.648V22.079a2.02,2.02,0,0,0-2.015-2.021H2.015A2.02,2.02,0,0,0,0,22.079v9.433a.848.848,0,0,0,1.7,0V22.079a.323.323,0,0,1,.32-.325H17.206a.323.323,0,0,1,.32.325V31.56h0v5.131H15.16a6.989,6.989,0,0,0,.548-2.756c0-2.135-1.294-3.572-3.625-4.131a4.413,4.413,0,0,0-5.563-3.95,1.4,1.4,0,0,0-.981.984,4.454,4.454,0,0,0,.438,3.386,3.865,3.865,0,0,0-2.394,3.711,6.627,6.627,0,0,0,1.141,3.823,5.372,5.372,0,0,0,3.133,2.1v2.951H2.015a.323.323,0,0,1-.32-.325v-7.2a.848.848,0,0,0-1.7,0v7.2A2.02,2.02,0,0,0,2.015,44.5H7.857V59.119a2.02,2.02,0,0,0,2.018,2.018H25.06a2.02,2.02,0,0,0,2.018-2.018V38.709a2.013,2.013,0,0,0-.089-.591,14.533,14.533,0,0,1,2.817-2.359c.008.634.024,1.551.058,2.665a.017.017,0,0,0,0,0c.038,1.254.1,2.755.2,4.385a75.1,75.1,0,0,0,1.928,14.26.848.848,0,1,0,1.637-.439C32.288,51.642,31.79,44.38,31.6,39.623a17.967,17.967,0,0,0,10.489,0c-.182,4.756-.676,12.018-2.011,17.013a.848.848,0,1,0,1.638.438c1.816-6.79,2.117-17.26,2.166-20.951a15.22,15.22,0,0,1,4.664,3.963.845.845,0,0,0,.15.194,21.864,21.864,0,0,1,2.976,5.35L56.23,57.152a.848.848,0,0,0,1.577-.623ZM46.7,19.857h1.394a1.437,1.437,0,0,0,.2-.016,2.063,2.063,0,0,1,.4,1.211,2.128,2.128,0,0,1-1.99,2.094v-3.29ZM25.867,13.673a7.761,7.761,0,0,1,7.752-7.752h3.994v7.036a5.21,5.21,0,0,1-5.2,5.2H25.867ZM27,23.147a2.183,2.183,0,0,1-1.035-.35l-.007,0a2.088,2.088,0,0,1-.948-1.74,2.063,2.063,0,0,1,.4-1.211,1.436,1.436,0,0,0,.2.016H27v3.29Zm1.7.131v-3.42h3.716a6.9,6.9,0,0,0,6.053-3.592A6.887,6.887,0,0,0,44.5,19.857H45v3.42a8.156,8.156,0,1,1-16.311,0ZM7.135,27.45a2.717,2.717,0,0,1,3.207,2.112q-.339-.018-.7-.018a11.145,11.145,0,0,0-1.977.164A2.754,2.754,0,0,1,7.135,27.45ZM5.278,33.935a2.148,2.148,0,0,1,1.113-2.018,6.542,6.542,0,0,1,3.254-.678,6.541,6.541,0,0,1,3.254.678,2.148,2.148,0,0,1,1.113,2.018,4.954,4.954,0,0,1-.772,2.756H9.874a2.022,2.022,0,0,0-1.927,1.418A4,4,0,0,1,5.278,33.935Zm20.1,25.184a.323.323,0,0,1-.323.323H9.874a.323.323,0,0,1-.323-.323V38.709a.323.323,0,0,1,.323-.323H25.06a.323.323,0,0,1,.323.323v20.41ZM42.153,37.8a14.808,14.808,0,0,1-5.305.909,14.811,14.811,0,0,1-5.3-.908c-.035-1.269-.045-2.213-.048-2.68.583-.151,1.284-.291,2.188-.464v1.212a.848.848,0,1,0,1.7,0V33.019a9.9,9.9,0,0,0,2.937,0v2.851a.848.848,0,1,0,1.7,0v-1.2a15.717,15.717,0,0,1,2.186.67C42.193,35.853,42.182,36.706,42.153,37.8Zm3.542-2.581a15.95,15.95,0,0,0-5.684-2.288v-.325a9.882,9.882,0,0,0,6.561-7.758,3.887,3.887,0,0,0,1.239-.216,16.422,16.422,0,0,0,4.121,4.65c1.9,1.631,3.392,2.92,3.392,5.221a4.31,4.31,0,0,1-4.294,4.317H49.7A17.394,17.394,0,0,0,45.695,35.22Z" transform="translate(0 -4.226)"/>
        <path id="Trazado_1055527" data-name="Trazado 1055527" d="M319.375,166.713a.848.848,0,0,0,.848-.848v-1.239a.848.848,0,1,0-1.7,0v1.239A.848.848,0,0,0,319.375,166.713Z" transform="translate(-282.527 -145.746)"/>
        <path id="Trazado_1055528" data-name="Trazado 1055528" d="M304.119,199.9a.848.848,0,1,0-1.2-1.2,2.417,2.417,0,0,1-3.43,0,.848.848,0,1,0-1.2,1.2,4.112,4.112,0,0,0,5.833,0Z" transform="translate(-264.355 -176.499)"/>
        <path id="Trazado_1055529" data-name="Trazado 1055529" d="M281.665,154.818a.849.849,0,0,0-.879.815l-.009.235a.848.848,0,0,0,.815.879h.032a.848.848,0,0,0,.847-.816l.009-.235A.848.848,0,0,0,281.665,154.818Z" transform="translate(-249.043 -137.798)"/>
        <path id="Trazado_1055530" data-name="Trazado 1055530" d="M357.056,156.75h.032a.848.848,0,0,0,.815-.879l-.009-.235a.848.848,0,1,0-1.694.063l.009.235A.848.848,0,0,0,357.056,156.75Z" transform="translate(-315.942 -137.8)"/>
        <path id="Trazado_1055531" data-name="Trazado 1055531" d="M126.543,333.785l.04,0,.263.647a.848.848,0,0,0,1.57-.639l-2.993-7.355a.848.848,0,0,0-.784-.528h0a.848.848,0,0,0-.784.527l-3.012,7.363a.848.848,0,1,0,1.569.642l.268-.656.036,0ZM124.637,329l1.258,3.091h-2.522Z" transform="translate(-107.128 -289.552)"/>
        <path id="Trazado_1055532" data-name="Trazado 1055532" d="M105.694,421.121l-.581.584-.036-.036a.848.848,0,1,0-1.2,1.2l.636.639a.848.848,0,0,0,1.2,0l1.182-1.187a.848.848,0,0,0-1.2-1.2Z" transform="translate(-91.917 -373.783)"/>
        <path id="Trazado_1055533" data-name="Trazado 1055533" d="M150.82,426.123h-5.236a.848.848,0,1,0,0,1.7h5.236a.848.848,0,0,0,0-1.7Z" transform="translate(-128.378 -378.44)"/>
        <path id="Trazado_1055534" data-name="Trazado 1055534" d="M105.694,452.121l-.581.584-.036-.036a.848.848,0,0,0-1.2,1.2l.636.639a.848.848,0,0,0,1.2,0l1.182-1.187a.848.848,0,0,0-1.2-1.2Z" transform="translate(-91.917 -401.279)"/>
        <path id="Trazado_1055535" data-name="Trazado 1055535" d="M150.82,457.123h-5.236a.848.848,0,1,0,0,1.7h5.236a.848.848,0,0,0,0-1.7Z" transform="translate(-128.378 -405.937)"/>
      </g>
    </g>
  </g>
</svg>
