<svg xmlns="http://www.w3.org/2000/svg" xmlns:xlink="http://www.w3.org/1999/xlink" width="108" height="108" viewBox="0 0 108 108">
  <defs>
    <filter id="Trazado_904820" x="0" y="0" width="108" height="108" filterUnits="userSpaceOnUse">
      <feOffset dy="3" input="SourceAlpha"/>
      <feGaussianBlur stdDeviation="3" result="blur"/>
      <feFlood flood-opacity="0.161"/>
      <feComposite operator="in" in2="blur"/>
      <feComposite in="SourceGraphic"/>
    </filter>
  </defs>
  <g id="Grupo_1230139" data-name="Grupo 1230139" transform="translate(-166 -3090.215)">
    <g id="Grupo_1229775" data-name="Grupo 1229775" transform="translate(0 1440.215)">
      <g id="Grupo_1208498" data-name="Grupo 1208498" transform="translate(175 1656)">
        <g id="Grupo_1207936" data-name="Grupo 1207936" transform="translate(0 0)">
          <g id="Grupo_1201662" data-name="Grupo 1201662">
            <g id="Grupo_1173585" data-name="Grupo 1173585">
              <g id="Grupo_1173428" data-name="Grupo 1173428">
                <g id="Grupo_1171958" data-name="Grupo 1171958">
                  <g id="Grupo_1167341" data-name="Grupo 1167341">
                    <g id="Grupo_1166792" data-name="Grupo 1166792">
                      <g transform="matrix(1, 0, 0, 1, -9, -6)" filter="url(#Trazado_904820)">
                        <g id="Trazado_904820-2" data-name="Trazado 904820" transform="translate(9 6)" fill="#ebe9f0">
                          <path d="M 44.99999618530273 88.49999237060547 C 39.12687301635742 88.49999237060547 33.43022155761719 87.35006713867188 28.06829643249512 85.08216857910156 C 22.88852119445801 82.89130401611328 18.23629570007324 79.75457763671875 14.24084663391113 75.75914001464844 C 10.24540901184082 71.76369476318359 7.108683586120605 67.11146545410156 4.917821407318115 61.93169403076172 C 2.649921178817749 56.56976699829102 1.499996185302734 50.87311553955078 1.499996185302734 44.99999237060547 C 1.499996185302734 39.12686920166016 2.649921178817749 33.43021774291992 4.917821407318115 28.06829261779785 C 7.108683586120605 22.88851737976074 10.24540901184082 18.23630523681641 14.24084663391113 14.24085521697998 C 18.23629570007324 10.24540519714355 22.88852119445801 7.108692169189453 28.06829643249512 4.917829990386963 C 33.43022155761719 2.649929761886597 39.12687301635742 1.500004887580872 44.99999618530273 1.500004887580872 C 50.87311935424805 1.500004887580872 56.56977081298828 2.649929761886597 61.93169784545898 4.917829990386963 C 67.11147308349609 7.108692169189453 71.76369476318359 10.24540519714355 75.75914764404297 14.24085521697998 C 79.75458526611328 18.23630523681641 82.89131164550781 22.88851737976074 85.08216857910156 28.06829261779785 C 87.35007476806641 33.43021774291992 88.5 39.12686920166016 88.5 44.99999237060547 C 88.5 50.87311553955078 87.35007476806641 56.56976699829102 85.08216857910156 61.93169403076172 C 82.89131164550781 67.11146545410156 79.75458526611328 71.76369476318359 75.75914764404297 75.75914001464844 C 71.76369476318359 79.75457763671875 67.11147308349609 82.89130401611328 61.93169784545898 85.08216857910156 C 56.56977081298828 87.35006713867188 50.87311935424805 88.49999237060547 44.99999618530273 88.49999237060547 Z" stroke="none"/>
                          <path d="M 44.99999618530273 2.999992370605469 C 39.32870864868164 2.999992370605469 33.82865142822266 4.11004638671875 28.65262603759766 6.299331665039062 C 23.65165710449219 8.414566040039062 19.15968322753906 11.44333648681641 15.301513671875 15.30150604248047 C 11.44333648681641 19.15967559814453 8.414566040039062 23.65164947509766 6.299339294433594 28.65262222290039 C 4.110054016113281 33.82864761352539 2.999992370605469 39.32870483398438 2.999992370605469 44.99999237060547 C 2.999992370605469 50.67127990722656 4.110054016113281 56.17132186889648 6.299339294433594 61.34736633300781 C 8.414566040039062 66.34833526611328 11.44333648681641 70.84029388427734 15.301513671875 74.69846343994141 C 19.15968322753906 78.55663299560547 23.65165710449219 81.58540344238281 28.65262603759766 83.70063781738281 C 33.82865142822266 85.88992309570312 39.32870864868164 86.99997711181641 44.99999618530273 86.99997711181641 C 50.67128372192383 86.99997711181641 56.17134094238281 85.88992309570312 61.34736633300781 83.70063781738281 C 66.34834289550781 81.58540344238281 70.84030914306641 78.55663299560547 74.69847869873047 74.69846343994141 C 78.55665588378906 70.84029388427734 81.58542633056641 66.34833526611328 83.70065307617188 61.34736633300781 C 85.88993835449219 56.17132186889648 87 50.67127990722656 87 44.99999237060547 C 87 39.32870483398438 85.88993835449219 33.82864761352539 83.70065307617188 28.65262222290039 C 81.58542633056641 23.65164947509766 78.55665588378906 19.15967559814453 74.69847869873047 15.30150604248047 C 70.84030914306641 11.44333648681641 66.34834289550781 8.414566040039062 61.34736633300781 6.299331665039062 C 56.17134094238281 4.11004638671875 50.67128372192383 2.999992370605469 44.99999618530273 2.999992370605469 M 44.99999618530273 -7.62939453125e-06 C 69.85281372070312 -7.62939453125e-06 90 20.14717864990234 90 44.99999237060547 C 90 69.85279083251953 69.85281372070312 89.99997711181641 44.99999618530273 89.99997711181641 C 20.14717864990234 89.99997711181641 -7.62939453125e-06 69.85279083251953 -7.62939453125e-06 44.99999237060547 C -7.62939453125e-06 20.14717864990234 20.14717864990234 -7.62939453125e-06 44.99999618530273 -7.62939453125e-06 Z" stroke="none" fill="#c6c0d6"/>
                        </g>
                      </g>
                    </g>
                  </g>
                </g>
              </g>
            </g>
          </g>
        </g>
      </g>
    </g>
    <g id="aprendizaje-electronico_2_" data-name="aprendizaje-electronico (2)" transform="translate(183.8 3105.015)">
      <g id="Grupo_1230137" data-name="Grupo 1230137" transform="translate(8.91 8.91)">
        <g id="Grupo_1230136" data-name="Grupo 1230136" transform="translate(0 0)">
          <path id="Trazado_1055362" data-name="Trazado 1055362" d="M70.581,106.729v28.2H16v-28.2A2.73,2.73,0,0,1,18.729,104H67.852a2.73,2.73,0,0,1,2.729,2.729Z" transform="translate(-16 -93.993)" fill="#83d8f4"/>
          <path id="Trazado_1055363" data-name="Trazado 1055363" d="M70.581,376v2.729a2.73,2.73,0,0,1-2.729,2.729H18.729A2.73,2.73,0,0,1,16,378.729V376Z" transform="translate(-16 -335.064)" fill="#e0e0e2"/>
          <path id="Trazado_1055364" data-name="Trazado 1055364" d="M212.736,429.458H200L201.819,424h9.1Z" transform="translate(-179.077 -377.606)" fill="#57565c"/>
          <path id="Trazado_1055365" data-name="Trazado 1055365" d="M168,472h20.013v2.729H168Z" transform="translate(-150.716 -420.148)" fill="#e0e0e2"/>
          <path id="Trazado_1055366" data-name="Trazado 1055366" d="M194.194,80V90.916a23.652,23.652,0,0,1-18.194,0V80" transform="translate(-157.806 -72.723)" fill="#2d2d30"/>
          <circle id="Elipse_11555" data-name="Elipse 11555" cx="1.871" cy="1.871" r="1.871" transform="translate(37.44 19.668)" fill="#ffda44"/>
          <path id="Trazado_1055367" data-name="Trazado 1055367" d="M149.645,26.916,136,21.458,149.645,16l13.645,5.458Z" transform="translate(-122.355 -16)" fill="#3e3d42"/>
        </g>
        <path id="Trazado_1055368" data-name="Trazado 1055368" d="M80,248H98.194v10.916H80Z" transform="translate(-72.723 -221.619)" fill="#ffda44"/>
      </g>
      <g id="Grupo_1230138" data-name="Grupo 1230138" transform="translate(8 8)">
        <path id="Trazado_1055369" data-name="Trazado 1055369" d="M60.762,18.007H48.936V15.712l1.247-.5a.91.91,0,0,0,0-1.69L36.538,8.065a.912.912,0,0,0-.675,0L22.217,13.523a.91.91,0,0,0,0,1.69L26.194,16.8v1.2H11.639A3.642,3.642,0,0,0,8,21.645V52.575a3.642,3.642,0,0,0,3.639,3.639H30.39l-1.213,3.639H26.194a.91.91,0,0,0-.91.91v2.729a.91.91,0,0,0,.91.91H46.207a.91.91,0,0,0,.91-.91V60.762a.91.91,0,0,0-.91-.91H43.224l-1.213-3.639H60.762A3.642,3.642,0,0,0,64.4,52.575V21.645A3.642,3.642,0,0,0,60.762,18.007ZM48.936,30.742a.91.91,0,1,1-.91-.91A.91.91,0,0,1,48.936,30.742ZM25,14.368,36.2,9.89l11.2,4.478L36.2,18.846ZM47.116,16.44v1.567h-.91V16.8Zm-2.729,1.092V26.48a22.777,22.777,0,0,1-16.374,0V17.531l7.849,3.14a.912.912,0,0,0,.675,0Zm.91,44.14v.91H27.1v-.91Zm-14.2-1.819,1.213-3.639h7.785l1.213,3.639Zm31.486-7.277a1.822,1.822,0,0,1-1.819,1.819H11.639a1.822,1.822,0,0,1-1.819-1.819V50.755H62.581Zm0-3.639H9.819V21.645a1.822,1.822,0,0,1,1.819-1.819H26.194V27.1a.91.91,0,0,0,.572.845,24.645,24.645,0,0,0,18.869,0,.91.91,0,0,0,.572-.845V19.826h.91v8.187a.961.961,0,0,0,.014.152,2.729,2.729,0,1,0,1.792,0,.961.961,0,0,0,.014-.152V19.826H60.762a1.822,1.822,0,0,1,1.819,1.819Z" transform="translate(-8 -8)"/>
        <path id="Trazado_1055370" data-name="Trazado 1055370" d="M46.368,392H40.91a.91.91,0,1,0,0,1.819h5.458a.91.91,0,0,0,0-1.819Z" transform="translate(-36.361 -348.335)"/>
        <path id="Trazado_1055371" data-name="Trazado 1055371" d="M113.819,392h-.91a.91.91,0,1,0,0,1.819h.91a.91.91,0,0,0,0-1.819Z" transform="translate(-100.174 -348.335)"/>
        <path id="Trazado_1055372" data-name="Trazado 1055372" d="M72.91,252.736H91.1a.91.91,0,0,0,.91-.91V240.91a.91.91,0,0,0-.91-.91H72.91a.91.91,0,0,0-.91.91v10.916A.91.91,0,0,0,72.91,252.736Zm.91-10.916H90.194v9.1H73.819Z" transform="translate(-64.723 -213.619)"/>
        <path id="Trazado_1055373" data-name="Trazado 1055373" d="M72.91,217.819h7.277a.91.91,0,1,0,0-1.819H72.91a.91.91,0,1,0,0,1.819Z" transform="translate(-64.723 -192.348)"/>
        <path id="Trazado_1055374" data-name="Trazado 1055374" d="M72.91,193.819h2.729a.91.91,0,1,0,0-1.819H72.91a.91.91,0,1,0,0,1.819Z" transform="translate(-64.723 -171.077)"/>
        <path id="Trazado_1055375" data-name="Trazado 1055375" d="M264.91,241.819H283.1a.91.91,0,0,0,0-1.819H264.91a.91.91,0,0,0,0,1.819Z" transform="translate(-234.89 -213.619)"/>
        <path id="Trazado_1055376" data-name="Trazado 1055376" d="M264.91,265.819H283.1a.91.91,0,1,0,0-1.819H264.91a.91.91,0,0,0,0,1.819Z" transform="translate(-234.89 -234.89)"/>
        <path id="Trazado_1055377" data-name="Trazado 1055377" d="M264.91,289.819h14.441a.91.91,0,0,0,0-1.819H264.91a.91.91,0,0,0,0,1.819Z" transform="translate(-234.89 -256.161)"/>
        <path id="Trazado_1055378" data-name="Trazado 1055378" d="M417.819,288h-.91a.91.91,0,0,0,0,1.819h.91a.91.91,0,0,0,0-1.819Z" transform="translate(-369.606 -256.161)"/>
        <path id="Trazado_1055379" data-name="Trazado 1055379" d="M264.91,313.819H283.1a.91.91,0,0,0,0-1.819H264.91a.91.91,0,0,0,0,1.819Z" transform="translate(-234.89 -277.432)"/>
        <path id="Trazado_1055380" data-name="Trazado 1055380" d="M264.91,337.819h14.441a.91.91,0,0,0,0-1.819H264.91a.91.91,0,0,0,0,1.819Z" transform="translate(-234.89 -298.703)"/>
        <path id="Trazado_1055381" data-name="Trazado 1055381" d="M417.819,336h-.91a.91.91,0,0,0,0,1.819h.91a.91.91,0,0,0,0-1.819Z" transform="translate(-369.606 -298.703)"/>
      </g>
    </g>
  </g>
</svg>
