<svg xmlns="http://www.w3.org/2000/svg" width="85" height="78" viewBox="0 0 85 78">
  <g id="Grupo_1230078" data-name="Grupo 1230078" transform="translate(-181 -2156)">
    <g id="Grupo_1229423" data-name="Grupo 1229423" transform="translate(1 -495)">
      <rect id="Rectángulo_423244" data-name="Rectángulo 423244" width="85" height="78" rx="15" transform="translate(180 2651)" fill="#453179"/>
    </g>
    <g id="thought_1984538" transform="translate(159.706 2168)">
      <path id="Trazado_1055263" data-name="Trazado 1055263" d="M208.684,120.375H194.709a.964.964,0,0,0-.962.962v7.62a.963.963,0,0,0,.962.962h10.96a1.583,1.583,0,0,1,.785.209l3.192,1.824V121.337A.963.963,0,0,0,208.684,120.375Zm-11.628,6.354a1.582,1.582,0,1,1,1.582-1.582A1.61,1.61,0,0,1,197.056,126.729Zm4.641,0a1.582,1.582,0,1,1,1.582-1.582A1.61,1.61,0,0,1,201.7,126.729Zm4.641,0a1.582,1.582,0,1,1,1.582-1.582A1.61,1.61,0,0,1,206.337,126.729Z" transform="translate(-136.374 -107.679)" fill="#d9d5e3"/>
      <path id="Trazado_1055264" data-name="Trazado 1055264" d="M65.544,0A21.064,21.064,0,0,0,44.5,21.04V23.8L41.362,34.191a1.582,1.582,0,0,0,1,1.953L47.712,38v7.437a1.582,1.582,0,0,0,1.582,1.582h8.044v5.4A1.582,1.582,0,0,0,58.919,54H78.171a1.582,1.582,0,0,0,1.582-1.582V36.556A21.039,21.039,0,0,0,65.544,0ZM76.437,27a1.582,1.582,0,0,1-2.367,1.374L68.876,25.4H58.336a4.131,4.131,0,0,1-4.126-4.126v-7.62a4.131,4.131,0,0,1,4.126-4.126H72.31a4.131,4.131,0,0,1,4.126,4.126Z" fill="#d9d5e3"/>
    </g>
  </g>
</svg>
