<svg xmlns="http://www.w3.org/2000/svg" width="85" height="78" viewBox="0 0 85 78">
  <g id="Grupo_1231310" data-name="Grupo 1231310" transform="translate(-181 -2156)">
    <g id="Grupo_1229423" data-name="Grupo 1229423" transform="translate(1 -495)">
      <rect id="Rectángulo_423244" data-name="Rectángulo 423244" width="85" height="78" rx="15" transform="translate(180 2651)" fill="#453179"/>
    </g>
    <g id="thought_1984538" transform="translate(161.35 2169.96)">
      <path id="Trazado_1055263" data-name="Trazado 1055263" d="M207.6,120.375H194.64a.894.894,0,0,0-.893.893v7.067a.894.894,0,0,0,.893.893H204.8a1.468,1.468,0,0,1,.728.193l2.96,1.692v-9.845A.893.893,0,0,0,207.6,120.375Zm-10.784,5.893a1.467,1.467,0,1,1,1.467-1.467A1.493,1.493,0,0,1,196.816,126.268Zm4.3,0a1.467,1.467,0,1,1,1.467-1.467A1.493,1.493,0,0,1,201.12,126.268Zm4.3,0a1.467,1.467,0,1,1,1.467-1.467A1.493,1.493,0,0,1,205.423,126.268Z" transform="translate(-137.541 -108.601)" fill="#d9d5e3"/>
      <path id="Trazado_1055264" data-name="Trazado 1055264" d="M63.783,0A19.535,19.535,0,0,0,44.27,19.513v2.563l-2.913,9.633a1.467,1.467,0,0,0,.924,1.811l4.964,1.72v6.9A1.467,1.467,0,0,0,48.713,43.6h7.46v5.009a1.467,1.467,0,0,0,1.467,1.467H75.493a1.467,1.467,0,0,0,1.467-1.467V33.9A19.512,19.512,0,0,0,63.783,0Zm10.1,25.04a1.467,1.467,0,0,1-2.2,1.274L66.873,23.56H57.1a3.831,3.831,0,0,1-3.827-3.827V12.667A3.831,3.831,0,0,1,57.1,8.84h12.96a3.831,3.831,0,0,1,3.827,3.827Z" fill="#d9d5e3"/>
    </g>
  </g>
</svg>
